#N canvas 0 22 1142 778 12;
#X obj 143 283 mtof;
#X obj 418 170 * 2;
#X obj 457 167 * 4;
#X obj 518 172 * 8;
#X obj 583 173 * 16;
#X floatatom 567 49 10 0 0 0 - - -;
#X obj 316 243 osc~ 200;
#X obj 391 242 osc~ 200;
#X obj 464 242 osc~ 200;
#X obj 532 240 osc~ 200;
#X obj 596 243 osc~ 200;
#X obj 666 242 osc~ 200;
#X obj 739 242 osc~ 200;
#X obj 801 242 osc~ 200;
#X obj 635 170 * 32;
#X obj 721 167 * 64;
#X obj 772 172 * 128;
#X obj 321 350 vsl 15 128 0 1 0 0 empty empty empty 0 -9 0 10 -262144
-1 -1 0 1;
#X obj 279 487 *~;
#X obj 401 356 vsl 15 128 0 1 0 0 empty empty empty 0 -9 0 10 -262144
-1 -1 0 1;
#X obj 352 494 *~;
#X obj 474 351 vsl 15 128 0 1 0 0 empty empty empty 0 -9 0 10 -262144
-1 -1 0 1;
#X obj 425 489 *~;
#X obj 547 358 vsl 15 128 0 1 0 0 empty empty empty 0 -9 0 10 -262144
-1 -1 0 1;
#X obj 498 496 *~;
#X obj 629 364 vsl 15 128 0 1 0 0 empty empty empty 0 -9 0 10 -262144
-1 -1 0 1;
#X obj 580 502 *~;
#X obj 702 371 vsl 15 128 0 1 0 0 empty empty empty 0 -9 0 10 -262144
-1 -1 0 1;
#X obj 653 509 *~;
#X obj 775 366 vsl 15 128 0 1 0 0 empty empty empty 0 -9 0 10 -262144
-1 -1 0 1;
#X obj 726 504 *~;
#X obj 848 373 vsl 15 128 0 1 0 0 empty empty empty 0 -9 0 10 -262144
-1 -1 0 1;
#X obj 799 511 *~;
#X obj 541 624 dac~;
#X msg 182 59 65;
#X msg 217 69 69;
#X msg 227 134 72;
#X msg 131 50 30;
#X connect 0 0 5 0;
#X connect 1 0 7 0;
#X connect 2 0 8 0;
#X connect 3 0 9 0;
#X connect 4 0 10 0;
#X connect 5 0 1 0;
#X connect 5 0 2 0;
#X connect 5 0 3 0;
#X connect 5 0 4 0;
#X connect 5 0 6 0;
#X connect 5 0 14 0;
#X connect 5 0 15 0;
#X connect 5 0 16 0;
#X connect 6 0 18 0;
#X connect 7 0 20 0;
#X connect 8 0 22 0;
#X connect 9 0 24 0;
#X connect 10 0 26 0;
#X connect 11 0 28 0;
#X connect 12 0 30 0;
#X connect 13 0 32 0;
#X connect 14 0 11 0;
#X connect 15 0 12 0;
#X connect 16 0 13 0;
#X connect 17 0 18 1;
#X connect 18 0 33 0;
#X connect 18 0 33 1;
#X connect 19 0 20 1;
#X connect 20 0 33 0;
#X connect 20 0 33 1;
#X connect 21 0 22 1;
#X connect 22 0 33 0;
#X connect 22 0 33 1;
#X connect 23 0 24 1;
#X connect 24 0 33 0;
#X connect 24 0 33 1;
#X connect 25 0 26 1;
#X connect 26 0 33 0;
#X connect 26 0 33 1;
#X connect 27 0 28 1;
#X connect 28 0 33 0;
#X connect 28 0 33 1;
#X connect 29 0 30 1;
#X connect 30 0 33 0;
#X connect 30 0 33 1;
#X connect 31 0 32 1;
#X connect 32 0 33 0;
#X connect 32 0 33 1;
#X connect 34 0 0 0;
#X connect 35 0 0 0;
#X connect 36 0 0 0;
#X connect 37 0 0 0;
