#N canvas 45 66 1395 713 12;
#N canvas 0 22 450 300 akailights 0;
#X obj 502 144 notein;
#X floatatom 467 233 5 0 0 0 - - -;
#X floatatom 540 242 5 0 0 0 - - -;
#X floatatom 594 233 5 0 0 0 - - -;
#X obj 525 383 noteout;
#X connect 0 0 1 0;
#X connect 0 1 2 0;
#X connect 0 2 3 0;
#X connect 1 0 4 0;
#X connect 2 0 4 1;
#X connect 3 0 4 2;
#X restore 41 232 pd akailights;
#X obj 48 134 tgl 15 0 empty b0 empty 17 7 0 10 -262144 -1 -1 0 1;
#X obj 64 134 tgl 15 0 empty b1 empty 17 7 0 10 -262144 -1 -1 0 1;
#X obj 80 134 tgl 15 0 empty b2 empty 17 7 0 10 -262144 -1 -1 0 1;
#X obj 96 134 tgl 15 0 empty b3 empty 17 7 0 10 -262144 -1 -1 0 1;
#X obj 112 134 tgl 15 0 empty b4 empty 17 7 0 10 -262144 -1 -1 0 1
;
#X obj 128 134 tgl 15 0 empty b5 empty 17 7 0 10 -262144 -1 -1 0 1
;
#X obj 144 134 tgl 15 0 empty b6 empty 17 7 0 10 -262144 -1 -1 0 1
;
#X obj 160 134 tgl 15 0 empty b7 empty 17 7 0 10 -262144 -1 -1 0 1
;
#X obj 48 118 tgl 15 0 empty b8 empty 17 7 0 10 -262144 -1 -1 0 1;
#X obj 64 118 tgl 15 0 empty b9 empty 17 7 0 10 -262144 -1 -1 0 1;
#X obj 80 118 tgl 15 0 empty b10 empty 17 7 0 10 -262144 -1 -1 0 1
;
#X obj 96 118 tgl 15 0 empty b11 empty 17 7 0 10 -262144 -1 -1 0 1
;
#X obj 112 118 tgl 15 0 empty b12 empty 17 7 0 10 -262144 -1 -1 0 1
;
#X obj 128 118 tgl 15 0 empty b13 empty 17 7 0 10 -262144 -1 -1 0 1
;
#X obj 144 118 tgl 15 0 empty b14 empty 17 7 0 10 -262144 -1 -1 0 1
;
#X obj 160 118 tgl 15 0 empty b15 empty 17 7 0 10 -262144 -1 -1 0 1
;
#X obj 48 102 tgl 15 0 empty b16 empty 17 7 0 10 -262144 -1 -1 0 1
;
#X obj 64 102 tgl 15 0 empty b17 empty 17 7 0 10 -262144 -1 -1 0 1
;
#X obj 80 102 tgl 15 0 empty b18 empty 17 7 0 10 -262144 -1 -1 0 1
;
#X obj 96 102 tgl 15 0 empty b19 empty 17 7 0 10 -262144 -1 -1 0 1
;
#X obj 112 102 tgl 15 0 empty b20 empty 17 7 0 10 -262144 -1 -1 0 1
;
#X obj 128 102 tgl 15 0 empty b21 empty 17 7 0 10 -262144 -1 -1 0 1
;
#X obj 144 102 tgl 15 0 empty b22 empty 17 7 0 10 -262144 -1 -1 0 1
;
#X obj 160 102 tgl 15 0 empty b23 empty 17 7 0 10 -262144 -1 -1 0 1
;
#X obj 48 86 tgl 15 0 empty b24 empty 17 7 0 10 -262144 -1 -1 0 1;
#X obj 64 86 tgl 15 0 empty b25 empty 17 7 0 10 -262144 -1 -1 0 1;
#X obj 80 86 tgl 15 0 empty b26 empty 17 7 0 10 -262144 -1 -1 0 1;
#X obj 96 86 tgl 15 0 empty b27 empty 17 7 0 10 -262144 -1 -1 0 1;
#X obj 112 86 tgl 15 0 empty b28 empty 17 7 0 10 -262144 -1 -1 0 1
;
#X obj 128 86 tgl 15 0 empty b29 empty 17 7 0 10 -262144 -1 -1 0 1
;
#X obj 144 86 tgl 15 0 empty b30 empty 17 7 0 10 -262144 -1 -1 0 1
;
#X obj 160 86 tgl 15 0 empty b31 empty 17 7 0 10 -262144 -1 -1 0 1
;
#X obj 48 70 tgl 15 0 empty b32 empty 17 7 0 10 -262144 -1 -1 0 1;
#X obj 64 70 tgl 15 0 empty b33 empty 17 7 0 10 -262144 -1 -1 0 1;
#X obj 80 70 tgl 15 0 empty b34 empty 17 7 0 10 -262144 -1 -1 0 1;
#X obj 96 70 tgl 15 0 empty b35 empty 17 7 0 10 -262144 -1 -1 0 1;
#X obj 112 70 tgl 15 0 empty b36 empty 17 7 0 10 -262144 -1 -1 0 1
;
#X obj 128 70 tgl 15 0 empty b37 empty 17 7 0 10 -262144 -1 -1 0 1
;
#X obj 144 70 tgl 15 0 empty b38 empty 17 7 0 10 -262144 -1 -1 0 1
;
#X obj 160 70 tgl 15 0 empty b39 empty 17 7 0 10 -262144 -1 -1 0 1
;
#N canvas 630 178 450 512 akaimasterknob 0;
#N canvas 635 267 450 300 akaiknob 0;
#X obj 527 123 ctlin;
#X floatatom 459 184 5 0 0 0 - - -;
#X floatatom 526 212 5 0 0 0 - - -;
#X floatatom 594 178 5 0 0 0 - - -;
#X obj 812 575 spigot;
#X floatatom 814 624 5 0 0 0 - - -;
#X msg 850 477 1;
#X msg 887 509 0;
#X obj 852 533 tgl 15 0 empty empty empty 17 7 0 10 -262144 -1 -1 0
1;
#X obj 683 583 spigot;
#X floatatom 685 632 5 0 0 0 - - -;
#X msg 721 485 1;
#X msg 758 517 0;
#X obj 723 541 tgl 15 0 empty empty empty 17 7 0 10 -262144 -1 -1 0
1;
#X obj 476 563 spigot;
#X floatatom 478 612 5 0 0 0 - - -;
#X msg 514 465 1;
#X msg 551 497 0;
#X obj 516 521 tgl 15 0 empty empty empty 17 7 0 10 -262144 -1 -1 0
1;
#X obj 585 572 spigot;
#X floatatom 587 621 5 0 0 0 - - -;
#X msg 623 474 1;
#X msg 660 506 0;
#X obj 625 530 tgl 15 0 empty empty empty 17 7 0 10 -262144 -1 -1 0
1;
#X obj 314 535 spigot;
#X floatatom 316 584 5 0 0 0 - - -;
#X msg 352 437 1;
#X msg 389 469 0;
#X obj 354 493 tgl 15 0 empty empty empty 17 7 0 10 -262144 -1 -1 0
1;
#X obj 185 543 spigot;
#X floatatom 187 592 5 0 0 0 - - -;
#X msg 223 445 1;
#X msg 260 477 0;
#X obj 225 501 tgl 15 0 empty empty empty 17 7 0 10 -262144 -1 -1 0
1;
#X obj 904 573 spigot;
#X floatatom 906 622 5 0 0 0 - - -;
#X msg 942 475 1;
#X msg 979 507 0;
#X obj 944 531 tgl 15 0 empty empty empty 17 7 0 10 -262144 -1 -1 0
1;
#X obj 87 532 spigot;
#X floatatom 89 581 5 0 0 0 - - -;
#X msg 125 434 1;
#X msg 162 466 0;
#X obj 127 490 tgl 15 0 empty empty empty 17 7 0 10 -262144 -1 -1 0
1;
#X obj 631 263 ctlin;
#X floatatom 563 324 5 0 0 0 - - -;
#X floatatom 630 352 5 0 0 0 - - -;
#X floatatom 698 318 5 0 0 0 - - -;
#X obj 766 123 ctlin;
#X floatatom 698 184 5 0 0 0 - - -;
#X floatatom 765 212 5 0 0 0 - - -;
#X floatatom 833 178 5 0 0 0 - - -;
#X obj 932 72 ctlin;
#X floatatom 864 133 5 0 0 0 - - -;
#X floatatom 931 161 5 0 0 0 - - -;
#X floatatom 999 127 5 0 0 0 - - -;
#X obj 963 220 ctlin;
#X floatatom 895 281 5 0 0 0 - - -;
#X floatatom 962 309 5 0 0 0 - - -;
#X floatatom 1030 275 5 0 0 0 - - -;
#X obj 174 69 ctlin;
#X floatatom 106 130 5 0 0 0 - - -;
#X floatatom 173 158 5 0 0 0 - - -;
#X floatatom 241 124 5 0 0 0 - - -;
#X obj 278 209 ctlin;
#X floatatom 210 270 5 0 0 0 - - -;
#X floatatom 277 298 5 0 0 0 - - -;
#X floatatom 345 264 5 0 0 0 - - -;
#X obj 400 73 ctlin;
#X floatatom 332 134 5 0 0 0 - - -;
#X floatatom 399 162 5 0 0 0 - - -;
#X floatatom 467 128 5 0 0 0 - - -;
#X obj 515 429 sel 51;
#X obj 624 438 sel 52;
#X obj 722 449 sel 53;
#X obj 851 441 sel 54;
#X obj 943 439 sel 55;
#X obj 126 398 sel 48;
#X obj 224 409 sel 49;
#X obj 353 401 sel 50;
#X obj 137 661 outlet;
#X obj 212 659 outlet;
#X obj 314 670 outlet;
#X obj 472 672 outlet;
#X obj 578 675 outlet;
#X obj 653 673 outlet;
#X obj 755 684 outlet;
#X obj 913 686 outlet;
#X connect 0 0 1 0;
#X connect 0 1 2 0;
#X connect 0 2 3 0;
#X connect 1 0 14 0;
#X connect 2 0 72 0;
#X connect 4 0 5 0;
#X connect 5 0 86 0;
#X connect 6 0 8 0;
#X connect 7 0 8 0;
#X connect 8 0 4 1;
#X connect 9 0 10 0;
#X connect 10 0 85 0;
#X connect 11 0 13 0;
#X connect 12 0 13 0;
#X connect 13 0 9 1;
#X connect 14 0 15 0;
#X connect 15 0 83 0;
#X connect 16 0 18 0;
#X connect 17 0 18 0;
#X connect 18 0 14 1;
#X connect 19 0 20 0;
#X connect 20 0 84 0;
#X connect 21 0 23 0;
#X connect 22 0 23 0;
#X connect 23 0 19 1;
#X connect 24 0 25 0;
#X connect 25 0 82 0;
#X connect 26 0 28 0;
#X connect 27 0 28 0;
#X connect 28 0 24 1;
#X connect 29 0 30 0;
#X connect 30 0 81 0;
#X connect 31 0 33 0;
#X connect 32 0 33 0;
#X connect 33 0 29 1;
#X connect 34 0 35 0;
#X connect 35 0 87 0;
#X connect 36 0 38 0;
#X connect 37 0 38 0;
#X connect 38 0 34 1;
#X connect 39 0 40 0;
#X connect 40 0 80 0;
#X connect 41 0 43 0;
#X connect 42 0 43 0;
#X connect 43 0 39 1;
#X connect 44 0 45 0;
#X connect 44 1 46 0;
#X connect 44 2 47 0;
#X connect 45 0 19 0;
#X connect 46 0 73 0;
#X connect 48 0 49 0;
#X connect 48 1 50 0;
#X connect 48 2 51 0;
#X connect 49 0 9 0;
#X connect 50 0 74 0;
#X connect 52 0 53 0;
#X connect 52 1 54 0;
#X connect 52 2 55 0;
#X connect 53 0 4 0;
#X connect 54 0 75 0;
#X connect 56 0 57 0;
#X connect 56 1 58 0;
#X connect 56 2 59 0;
#X connect 57 0 34 0;
#X connect 58 0 76 0;
#X connect 60 0 61 0;
#X connect 60 1 62 0;
#X connect 60 2 63 0;
#X connect 61 0 39 0;
#X connect 62 0 77 0;
#X connect 64 0 65 0;
#X connect 64 1 66 0;
#X connect 64 2 67 0;
#X connect 65 0 29 0;
#X connect 66 0 78 0;
#X connect 68 0 69 0;
#X connect 68 1 70 0;
#X connect 68 2 71 0;
#X connect 69 0 24 0;
#X connect 70 0 79 0;
#X connect 72 0 16 0;
#X connect 72 1 17 0;
#X connect 73 0 21 0;
#X connect 73 1 22 0;
#X connect 74 0 11 0;
#X connect 74 1 12 0;
#X connect 75 0 6 0;
#X connect 75 1 7 0;
#X connect 76 0 36 0;
#X connect 76 1 37 0;
#X connect 77 0 41 0;
#X connect 77 1 42 0;
#X connect 78 0 31 0;
#X connect 78 1 32 0;
#X connect 79 0 26 0;
#X connect 79 1 27 0;
#X restore 122 56 pd akaiknob;
#X floatatom 116 161 5 0 0 0 - - -;
#X floatatom 159 163 5 0 0 0 - - -;
#X floatatom 201 163 5 0 0 0 - - -;
#X floatatom 242 163 5 0 0 0 - - -;
#X floatatom 118 192 5 0 0 0 - - -;
#X floatatom 159 193 5 0 0 0 - - -;
#X floatatom 201 194 5 0 0 0 - - -;
#X floatatom 243 195 5 0 0 0 - - -;
#X obj 53 252 s k1;
#X obj 98 251 s k2;
#X obj 141 250 s k3;
#X obj 193 252 s k4;
#X obj 232 251 s k5;
#X obj 278 257 s k6;
#X obj 326 255 s k7;
#X obj 372 256 s k8;
#X connect 0 0 1 0;
#X connect 0 1 2 0;
#X connect 0 2 3 0;
#X connect 0 3 4 0;
#X connect 0 4 5 0;
#X connect 0 5 6 0;
#X connect 0 6 7 0;
#X connect 0 7 8 0;
#X connect 1 0 9 0;
#X connect 2 0 10 0;
#X connect 3 0 11 0;
#X connect 4 0 12 0;
#X connect 5 0 13 0;
#X connect 6 0 14 0;
#X connect 7 0 15 0;
#X connect 8 0 16 0;
#X restore 42 169 pd akaimasterknob;
#N canvas 1 22 1041 653 gridnotemmaster 0;
#X obj 692 425 s b1;
#X obj 645 423 s b0;
#X obj 736 426 s b2;
#X obj 783 428 s b3;
#X obj 831 423 s b4;
#X obj 878 427 s b5;
#X obj 930 424 s b6;
#X obj 977 426 s b7;
#X obj 645 387 s b8;
#X obj 692 389 s b9;
#X obj 736 390 s b10;
#X obj 783 392 s b11;
#X obj 827 391 s b12;
#X obj 874 393 s b13;
#X obj 930 388 s b14;
#X obj 977 390 s b15;
#X obj 645 349 s b16;
#X obj 692 351 s b17;
#X obj 736 352 s b18;
#X obj 783 354 s b19;
#X obj 827 354 s b10;
#X obj 874 355 s b21;
#X obj 930 350 s b22;
#X obj 977 352 s b23;
#X obj 640 308 s b24;
#X obj 692 312 s b25;
#X obj 733 312 s b26;
#X obj 784 306 s b27;
#X obj 824 308 s b28;
#X obj 865 311 s b29;
#X obj 921 305 s b30;
#X obj 968 301 s b31;
#X obj 640 252 s b32;
#X obj 692 254 s b33;
#X obj 737 250 s b34;
#X obj 783 250 s b35;
#X obj 830 249 s b36;
#X obj 873 254 s b37;
#X obj 922 257 s b38;
#X obj 972 260 s b39;
#N canvas 0 22 1440 856 gridnote 0;
#N canvas 855 107 450 300 buttons 0;
#X obj 328 105 notein;
#X floatatom 302 206 5 0 0 0 - - -;
#X floatatom 348 215 5 0 0 0 - - -;
#X floatatom 401 210 5 0 0 0 - - -;
#X obj 355 294 / 127;
#X floatatom 373 379 5 0 0 0 - - -;
#X obj 313 473 spigot;
#X msg 281 344 0;
#X msg 321 363 1;
#X floatatom 313 517 5 0 0 0 - - -;
#X obj 237 480 tgl 15 0 empty empty empty 17 7 0 10 -262144 -1 -1 0
1;
#X obj 196 327 sel 0;
#X msg 237 371 1;
#X msg 203 393 0;
#X obj 267 405 spigot;
#X obj 311 628 outlet;
#X obj 294 283 sel 1;
#X obj 408 285 sel 1;
#X obj 437 430 tgl 15 0 empty empty empty 17 7 0 10 -262144 -1 -1 0
1;
#X msg 416 338 1;
#X msg 464 348 0;
#X obj 416 95 inlet;
#X connect 0 0 1 0;
#X connect 0 1 2 0;
#X connect 0 2 3 0;
#X connect 1 0 16 0;
#X connect 2 0 4 0;
#X connect 3 0 17 0;
#X connect 4 0 5 0;
#X connect 5 0 6 0;
#X connect 6 0 9 0;
#X connect 7 0 14 0;
#X connect 8 0 6 1;
#X connect 9 0 11 0;
#X connect 9 0 15 0;
#X connect 10 0 14 1;
#X connect 11 0 13 0;
#X connect 11 1 12 0;
#X connect 12 0 10 0;
#X connect 13 0 10 0;
#X connect 14 0 6 0;
#X connect 16 0 8 0;
#X connect 16 1 7 0;
#X connect 17 0 19 0;
#X connect 17 1 20 0;
#X connect 18 0 6 1;
#X connect 19 0 18 0;
#X connect 20 0 18 0;
#X connect 21 0 16 1;
#X restore 912 288 pd buttons;
#N canvas 855 107 450 300 buttons 0;
#X obj 328 105 notein;
#X floatatom 302 206 5 0 0 0 - - -;
#X floatatom 348 215 5 0 0 0 - - -;
#X floatatom 401 210 5 0 0 0 - - -;
#X obj 355 294 / 127;
#X floatatom 373 379 5 0 0 0 - - -;
#X obj 313 473 spigot;
#X msg 281 344 0;
#X msg 321 363 1;
#X floatatom 313 517 5 0 0 0 - - -;
#X obj 237 480 tgl 15 0 empty empty empty 17 7 0 10 -262144 -1 -1 0
1;
#X obj 196 327 sel 0;
#X msg 237 371 1;
#X msg 203 393 0;
#X obj 267 405 spigot;
#X obj 311 628 outlet;
#X obj 294 283 sel 1;
#X obj 408 285 sel 1;
#X obj 437 430 tgl 15 0 empty empty empty 17 7 0 10 -262144 -1 -1 0
1;
#X msg 416 338 1;
#X msg 464 348 0;
#X obj 416 95 inlet;
#X connect 0 0 1 0;
#X connect 0 1 2 0;
#X connect 0 2 3 0;
#X connect 1 0 16 0;
#X connect 2 0 4 0;
#X connect 3 0 17 0;
#X connect 4 0 5 0;
#X connect 5 0 6 0;
#X connect 6 0 9 0;
#X connect 7 0 14 0;
#X connect 8 0 6 1;
#X connect 9 0 11 0;
#X connect 9 0 15 0;
#X connect 10 0 14 1;
#X connect 11 0 13 0;
#X connect 11 1 12 0;
#X connect 12 0 10 0;
#X connect 13 0 10 0;
#X connect 14 0 6 0;
#X connect 16 0 8 0;
#X connect 16 1 7 0;
#X connect 17 0 19 0;
#X connect 17 1 20 0;
#X connect 18 0 6 1;
#X connect 19 0 18 0;
#X connect 20 0 18 0;
#X connect 21 0 16 1;
#X restore 1001 289 pd buttons;
#N canvas 855 107 450 300 buttons 0;
#X obj 328 105 notein;
#X floatatom 302 206 5 0 0 0 - - -;
#X floatatom 348 215 5 0 0 0 - - -;
#X floatatom 401 210 5 0 0 0 - - -;
#X obj 355 294 / 127;
#X floatatom 373 379 5 0 0 0 - - -;
#X obj 313 473 spigot;
#X msg 281 344 0;
#X msg 321 363 1;
#X floatatom 313 517 5 0 0 0 - - -;
#X obj 237 480 tgl 15 0 empty empty empty 17 7 0 10 -262144 -1 -1 0
1;
#X obj 196 327 sel 0;
#X msg 237 371 1;
#X msg 203 393 0;
#X obj 267 405 spigot;
#X obj 311 628 outlet;
#X obj 294 283 sel 1;
#X obj 408 285 sel 1;
#X obj 437 430 tgl 15 0 empty empty empty 17 7 0 10 -262144 -1 -1 0
1;
#X msg 416 338 1;
#X msg 464 348 0;
#X obj 416 95 inlet;
#X connect 0 0 1 0;
#X connect 0 1 2 0;
#X connect 0 2 3 0;
#X connect 1 0 16 0;
#X connect 2 0 4 0;
#X connect 3 0 17 0;
#X connect 4 0 5 0;
#X connect 5 0 6 0;
#X connect 6 0 9 0;
#X connect 7 0 14 0;
#X connect 8 0 6 1;
#X connect 9 0 11 0;
#X connect 9 0 15 0;
#X connect 10 0 14 1;
#X connect 11 0 13 0;
#X connect 11 1 12 0;
#X connect 12 0 10 0;
#X connect 13 0 10 0;
#X connect 14 0 6 0;
#X connect 16 0 8 0;
#X connect 16 1 7 0;
#X connect 17 0 19 0;
#X connect 17 1 20 0;
#X connect 18 0 6 1;
#X connect 19 0 18 0;
#X connect 20 0 18 0;
#X connect 21 0 16 1;
#X restore 1090 290 pd buttons;
#N canvas 855 107 450 300 buttons 0;
#X obj 328 105 notein;
#X floatatom 302 206 5 0 0 0 - - -;
#X floatatom 348 215 5 0 0 0 - - -;
#X floatatom 401 210 5 0 0 0 - - -;
#X obj 355 294 / 127;
#X floatatom 373 379 5 0 0 0 - - -;
#X obj 313 473 spigot;
#X msg 281 344 0;
#X msg 321 363 1;
#X floatatom 313 517 5 0 0 0 - - -;
#X obj 237 480 tgl 15 0 empty empty empty 17 7 0 10 -262144 -1 -1 0
1;
#X obj 196 327 sel 0;
#X msg 237 371 1;
#X msg 203 393 0;
#X obj 267 405 spigot;
#X obj 311 628 outlet;
#X obj 294 283 sel 1;
#X obj 408 285 sel 1;
#X obj 437 430 tgl 15 0 empty empty empty 17 7 0 10 -262144 -1 -1 0
1;
#X msg 416 338 1;
#X msg 464 348 0;
#X obj 416 95 inlet;
#X connect 0 0 1 0;
#X connect 0 1 2 0;
#X connect 0 2 3 0;
#X connect 1 0 16 0;
#X connect 2 0 4 0;
#X connect 3 0 17 0;
#X connect 4 0 5 0;
#X connect 5 0 6 0;
#X connect 6 0 9 0;
#X connect 7 0 14 0;
#X connect 8 0 6 1;
#X connect 9 0 11 0;
#X connect 9 0 15 0;
#X connect 10 0 14 1;
#X connect 11 0 13 0;
#X connect 11 1 12 0;
#X connect 12 0 10 0;
#X connect 13 0 10 0;
#X connect 14 0 6 0;
#X connect 16 0 8 0;
#X connect 16 1 7 0;
#X connect 17 0 19 0;
#X connect 17 1 20 0;
#X connect 18 0 6 1;
#X connect 19 0 18 0;
#X connect 20 0 18 0;
#X connect 21 0 16 1;
#X restore 1179 291 pd buttons;
#N canvas 855 107 450 300 buttons 0;
#X obj 328 105 notein;
#X floatatom 302 206 5 0 0 0 - - -;
#X floatatom 348 215 5 0 0 0 - - -;
#X floatatom 401 210 5 0 0 0 - - -;
#X obj 355 294 / 127;
#X floatatom 373 379 5 0 0 0 - - -;
#X obj 313 473 spigot;
#X msg 281 344 0;
#X msg 321 363 1;
#X floatatom 313 517 5 0 0 0 - - -;
#X obj 237 480 tgl 15 0 empty empty empty 17 7 0 10 -262144 -1 -1 0
1;
#X obj 196 327 sel 0;
#X msg 237 371 1;
#X msg 203 393 0;
#X obj 267 405 spigot;
#X obj 311 628 outlet;
#X obj 294 283 sel 1;
#X obj 408 285 sel 1;
#X obj 437 430 tgl 15 0 empty empty empty 17 7 0 10 -262144 -1 -1 0
1;
#X msg 416 338 1;
#X msg 464 348 0;
#X obj 416 95 inlet;
#X connect 0 0 1 0;
#X connect 0 1 2 0;
#X connect 0 2 3 0;
#X connect 1 0 16 0;
#X connect 2 0 4 0;
#X connect 3 0 17 0;
#X connect 4 0 5 0;
#X connect 5 0 6 0;
#X connect 6 0 9 0;
#X connect 7 0 14 0;
#X connect 8 0 6 1;
#X connect 9 0 11 0;
#X connect 9 0 15 0;
#X connect 10 0 14 1;
#X connect 11 0 13 0;
#X connect 11 1 12 0;
#X connect 12 0 10 0;
#X connect 13 0 10 0;
#X connect 14 0 6 0;
#X connect 16 0 8 0;
#X connect 16 1 7 0;
#X connect 17 0 19 0;
#X connect 17 1 20 0;
#X connect 18 0 6 1;
#X connect 19 0 18 0;
#X connect 20 0 18 0;
#X connect 21 0 16 1;
#X restore 1273 291 pd buttons;
#N canvas 855 107 450 300 buttons 0;
#X obj 328 105 notein;
#X floatatom 302 206 5 0 0 0 - - -;
#X floatatom 348 215 5 0 0 0 - - -;
#X floatatom 401 210 5 0 0 0 - - -;
#X obj 355 294 / 127;
#X floatatom 373 379 5 0 0 0 - - -;
#X obj 313 473 spigot;
#X msg 281 344 0;
#X msg 321 363 1;
#X floatatom 313 517 5 0 0 0 - - -;
#X obj 237 480 tgl 15 0 empty empty empty 17 7 0 10 -262144 -1 -1 0
1;
#X obj 196 327 sel 0;
#X msg 237 371 1;
#X msg 203 393 0;
#X obj 267 405 spigot;
#X obj 311 628 outlet;
#X obj 294 283 sel 1;
#X obj 408 285 sel 1;
#X obj 437 430 tgl 15 0 empty empty empty 17 7 0 10 -262144 -1 -1 0
1;
#X msg 416 338 1;
#X msg 464 348 0;
#X obj 416 95 inlet;
#X connect 0 0 1 0;
#X connect 0 1 2 0;
#X connect 0 2 3 0;
#X connect 1 0 16 0;
#X connect 2 0 4 0;
#X connect 3 0 17 0;
#X connect 4 0 5 0;
#X connect 5 0 6 0;
#X connect 6 0 9 0;
#X connect 7 0 14 0;
#X connect 8 0 6 1;
#X connect 9 0 11 0;
#X connect 9 0 15 0;
#X connect 10 0 14 1;
#X connect 11 0 13 0;
#X connect 11 1 12 0;
#X connect 12 0 10 0;
#X connect 13 0 10 0;
#X connect 14 0 6 0;
#X connect 16 0 8 0;
#X connect 16 1 7 0;
#X connect 17 0 19 0;
#X connect 17 1 20 0;
#X connect 18 0 6 1;
#X connect 19 0 18 0;
#X connect 20 0 18 0;
#X connect 21 0 16 1;
#X restore 1362 292 pd buttons;
#N canvas 855 107 450 300 buttons 0;
#X obj 328 105 notein;
#X floatatom 302 206 5 0 0 0 - - -;
#X floatatom 348 215 5 0 0 0 - - -;
#X floatatom 401 210 5 0 0 0 - - -;
#X obj 355 294 / 127;
#X floatatom 373 379 5 0 0 0 - - -;
#X obj 313 473 spigot;
#X msg 281 344 0;
#X msg 321 363 1;
#X floatatom 313 517 5 0 0 0 - - -;
#X obj 237 480 tgl 15 0 empty empty empty 17 7 0 10 -262144 -1 -1 0
1;
#X obj 196 327 sel 0;
#X msg 237 371 1;
#X msg 203 393 0;
#X obj 267 405 spigot;
#X obj 311 628 outlet;
#X obj 294 283 sel 1;
#X obj 408 285 sel 1;
#X obj 437 430 tgl 15 0 empty empty empty 17 7 0 10 -262144 -1 -1 0
1;
#X msg 416 338 1;
#X msg 464 348 0;
#X obj 416 95 inlet;
#X connect 0 0 1 0;
#X connect 0 1 2 0;
#X connect 0 2 3 0;
#X connect 1 0 16 0;
#X connect 2 0 4 0;
#X connect 3 0 17 0;
#X connect 4 0 5 0;
#X connect 5 0 6 0;
#X connect 6 0 9 0;
#X connect 7 0 14 0;
#X connect 8 0 6 1;
#X connect 9 0 11 0;
#X connect 9 0 15 0;
#X connect 10 0 14 1;
#X connect 11 0 13 0;
#X connect 11 1 12 0;
#X connect 12 0 10 0;
#X connect 13 0 10 0;
#X connect 14 0 6 0;
#X connect 16 0 8 0;
#X connect 16 1 7 0;
#X connect 17 0 19 0;
#X connect 17 1 20 0;
#X connect 18 0 6 1;
#X connect 19 0 18 0;
#X connect 20 0 18 0;
#X connect 21 0 16 1;
#X restore 1451 293 pd buttons;
#N canvas 855 107 583 593 buttons 0;
#X obj 328 105 notein;
#X floatatom 302 206 5 0 0 0 - - -;
#X floatatom 348 215 5 0 0 0 - - -;
#X floatatom 401 210 5 0 0 0 - - -;
#X obj 355 294 / 127;
#X floatatom 373 379 5 0 0 0 - - -;
#X obj 313 473 spigot;
#X msg 281 344 0;
#X msg 321 363 1;
#X floatatom 313 517 5 0 0 0 - - -;
#X obj 237 480 tgl 15 0 empty empty empty 17 7 0 10 -262144 -1 -1 0
1;
#X obj 196 327 sel 0;
#X msg 237 371 1;
#X msg 203 393 0;
#X obj 267 405 spigot;
#X obj 311 628 outlet;
#X obj 294 283 sel 1;
#X obj 408 285 sel 1;
#X obj 437 430 tgl 15 0 empty empty empty 17 7 0 10 -262144 -1 -1 0
1;
#X msg 416 338 1;
#X msg 464 348 0;
#X obj 416 95 inlet;
#X connect 0 0 1 0;
#X connect 0 1 2 0;
#X connect 0 2 3 0;
#X connect 1 0 16 0;
#X connect 2 0 4 0;
#X connect 3 0 17 0;
#X connect 4 0 5 0;
#X connect 5 0 6 0;
#X connect 6 0 9 0;
#X connect 7 0 14 0;
#X connect 8 0 6 1;
#X connect 9 0 11 0;
#X connect 9 0 15 0;
#X connect 10 0 14 1;
#X connect 11 0 13 0;
#X connect 11 1 12 0;
#X connect 12 0 10 0;
#X connect 13 0 10 0;
#X connect 14 0 6 0;
#X connect 16 0 8 0;
#X connect 16 1 7 0;
#X connect 17 0 19 0;
#X connect 17 1 20 0;
#X connect 18 0 6 1;
#X connect 19 0 18 0;
#X connect 20 0 18 0;
#X connect 21 0 16 1;
#X restore 1532 289 pd buttons;
#N canvas 855 107 450 300 buttons 0;
#X obj 328 105 notein;
#X floatatom 302 206 5 0 0 0 - - -;
#X floatatom 348 215 5 0 0 0 - - -;
#X floatatom 401 210 5 0 0 0 - - -;
#X obj 355 294 / 127;
#X floatatom 373 379 5 0 0 0 - - -;
#X obj 313 473 spigot;
#X msg 281 344 0;
#X msg 321 363 1;
#X floatatom 313 517 5 0 0 0 - - -;
#X obj 237 480 tgl 15 0 empty empty empty 17 7 0 10 -262144 -1 -1 0
1;
#X obj 196 327 sel 0;
#X msg 237 371 1;
#X msg 203 393 0;
#X obj 267 405 spigot;
#X obj 311 628 outlet;
#X obj 294 283 sel 1;
#X obj 408 285 sel 1;
#X obj 437 430 tgl 15 0 empty empty empty 17 7 0 10 -262144 -1 -1 0
1;
#X msg 416 338 1;
#X msg 464 348 0;
#X obj 416 95 inlet;
#X connect 0 0 1 0;
#X connect 0 1 2 0;
#X connect 0 2 3 0;
#X connect 1 0 16 0;
#X connect 2 0 4 0;
#X connect 3 0 17 0;
#X connect 4 0 5 0;
#X connect 5 0 6 0;
#X connect 6 0 9 0;
#X connect 7 0 14 0;
#X connect 8 0 6 1;
#X connect 9 0 11 0;
#X connect 9 0 15 0;
#X connect 10 0 14 1;
#X connect 11 0 13 0;
#X connect 11 1 12 0;
#X connect 12 0 10 0;
#X connect 13 0 10 0;
#X connect 14 0 6 0;
#X connect 16 0 8 0;
#X connect 16 1 7 0;
#X connect 17 0 19 0;
#X connect 17 1 20 0;
#X connect 18 0 6 1;
#X connect 19 0 18 0;
#X connect 20 0 18 0;
#X connect 21 0 16 1;
#X restore 913 329 pd buttons;
#N canvas 855 107 450 300 buttons 0;
#X obj 328 105 notein;
#X floatatom 302 206 5 0 0 0 - - -;
#X floatatom 348 215 5 0 0 0 - - -;
#X floatatom 401 210 5 0 0 0 - - -;
#X obj 355 294 / 127;
#X floatatom 373 379 5 0 0 0 - - -;
#X obj 313 473 spigot;
#X msg 281 344 0;
#X msg 321 363 1;
#X floatatom 313 517 5 0 0 0 - - -;
#X obj 237 480 tgl 15 0 empty empty empty 17 7 0 10 -262144 -1 -1 0
1;
#X obj 196 327 sel 0;
#X msg 237 371 1;
#X msg 203 393 0;
#X obj 267 405 spigot;
#X obj 311 628 outlet;
#X obj 294 283 sel 1;
#X obj 408 285 sel 1;
#X obj 437 430 tgl 15 0 empty empty empty 17 7 0 10 -262144 -1 -1 0
1;
#X msg 416 338 1;
#X msg 464 348 0;
#X obj 416 95 inlet;
#X connect 0 0 1 0;
#X connect 0 1 2 0;
#X connect 0 2 3 0;
#X connect 1 0 16 0;
#X connect 2 0 4 0;
#X connect 3 0 17 0;
#X connect 4 0 5 0;
#X connect 5 0 6 0;
#X connect 6 0 9 0;
#X connect 7 0 14 0;
#X connect 8 0 6 1;
#X connect 9 0 11 0;
#X connect 9 0 15 0;
#X connect 10 0 14 1;
#X connect 11 0 13 0;
#X connect 11 1 12 0;
#X connect 12 0 10 0;
#X connect 13 0 10 0;
#X connect 14 0 6 0;
#X connect 16 0 8 0;
#X connect 16 1 7 0;
#X connect 17 0 19 0;
#X connect 17 1 20 0;
#X connect 18 0 6 1;
#X connect 19 0 18 0;
#X connect 20 0 18 0;
#X connect 21 0 16 1;
#X restore 1002 330 pd buttons;
#N canvas 855 107 450 300 buttons 0;
#X obj 328 105 notein;
#X floatatom 302 206 5 0 0 0 - - -;
#X floatatom 348 215 5 0 0 0 - - -;
#X floatatom 401 210 5 0 0 0 - - -;
#X obj 355 294 / 127;
#X floatatom 373 379 5 0 0 0 - - -;
#X obj 313 473 spigot;
#X msg 281 344 0;
#X msg 321 363 1;
#X floatatom 313 517 5 0 0 0 - - -;
#X obj 237 480 tgl 15 0 empty empty empty 17 7 0 10 -262144 -1 -1 0
1;
#X obj 196 327 sel 0;
#X msg 237 371 1;
#X msg 203 393 0;
#X obj 267 405 spigot;
#X obj 311 628 outlet;
#X obj 294 283 sel 1;
#X obj 408 285 sel 1;
#X obj 437 430 tgl 15 0 empty empty empty 17 7 0 10 -262144 -1 -1 0
1;
#X msg 416 338 1;
#X msg 464 348 0;
#X obj 416 95 inlet;
#X connect 0 0 1 0;
#X connect 0 1 2 0;
#X connect 0 2 3 0;
#X connect 1 0 16 0;
#X connect 2 0 4 0;
#X connect 3 0 17 0;
#X connect 4 0 5 0;
#X connect 5 0 6 0;
#X connect 6 0 9 0;
#X connect 7 0 14 0;
#X connect 8 0 6 1;
#X connect 9 0 11 0;
#X connect 9 0 15 0;
#X connect 10 0 14 1;
#X connect 11 0 13 0;
#X connect 11 1 12 0;
#X connect 12 0 10 0;
#X connect 13 0 10 0;
#X connect 14 0 6 0;
#X connect 16 0 8 0;
#X connect 16 1 7 0;
#X connect 17 0 19 0;
#X connect 17 1 20 0;
#X connect 18 0 6 1;
#X connect 19 0 18 0;
#X connect 20 0 18 0;
#X connect 21 0 16 1;
#X restore 1091 331 pd buttons;
#N canvas 855 107 450 300 buttons 0;
#X obj 328 105 notein;
#X floatatom 302 206 5 0 0 0 - - -;
#X floatatom 348 215 5 0 0 0 - - -;
#X floatatom 401 210 5 0 0 0 - - -;
#X obj 355 294 / 127;
#X floatatom 373 379 5 0 0 0 - - -;
#X obj 313 473 spigot;
#X msg 281 344 0;
#X msg 321 363 1;
#X floatatom 313 517 5 0 0 0 - - -;
#X obj 237 480 tgl 15 0 empty empty empty 17 7 0 10 -262144 -1 -1 0
1;
#X obj 196 327 sel 0;
#X msg 237 371 1;
#X msg 203 393 0;
#X obj 267 405 spigot;
#X obj 311 628 outlet;
#X obj 294 283 sel 1;
#X obj 408 285 sel 1;
#X obj 437 430 tgl 15 0 empty empty empty 17 7 0 10 -262144 -1 -1 0
1;
#X msg 416 338 1;
#X msg 464 348 0;
#X obj 416 95 inlet;
#X connect 0 0 1 0;
#X connect 0 1 2 0;
#X connect 0 2 3 0;
#X connect 1 0 16 0;
#X connect 2 0 4 0;
#X connect 3 0 17 0;
#X connect 4 0 5 0;
#X connect 5 0 6 0;
#X connect 6 0 9 0;
#X connect 7 0 14 0;
#X connect 8 0 6 1;
#X connect 9 0 11 0;
#X connect 9 0 15 0;
#X connect 10 0 14 1;
#X connect 11 0 13 0;
#X connect 11 1 12 0;
#X connect 12 0 10 0;
#X connect 13 0 10 0;
#X connect 14 0 6 0;
#X connect 16 0 8 0;
#X connect 16 1 7 0;
#X connect 17 0 19 0;
#X connect 17 1 20 0;
#X connect 18 0 6 1;
#X connect 19 0 18 0;
#X connect 20 0 18 0;
#X connect 21 0 16 1;
#X restore 1180 332 pd buttons;
#N canvas 855 107 450 300 buttons 0;
#X obj 328 105 notein;
#X floatatom 302 206 5 0 0 0 - - -;
#X floatatom 348 215 5 0 0 0 - - -;
#X floatatom 401 210 5 0 0 0 - - -;
#X obj 355 294 / 127;
#X floatatom 373 379 5 0 0 0 - - -;
#X obj 313 473 spigot;
#X msg 281 344 0;
#X msg 321 363 1;
#X floatatom 313 517 5 0 0 0 - - -;
#X obj 237 480 tgl 15 0 empty empty empty 17 7 0 10 -262144 -1 -1 0
1;
#X obj 196 327 sel 0;
#X msg 237 371 1;
#X msg 203 393 0;
#X obj 267 405 spigot;
#X obj 311 628 outlet;
#X obj 294 283 sel 1;
#X obj 408 285 sel 1;
#X obj 437 430 tgl 15 0 empty empty empty 17 7 0 10 -262144 -1 -1 0
1;
#X msg 416 338 1;
#X msg 464 348 0;
#X obj 416 95 inlet;
#X connect 0 0 1 0;
#X connect 0 1 2 0;
#X connect 0 2 3 0;
#X connect 1 0 16 0;
#X connect 2 0 4 0;
#X connect 3 0 17 0;
#X connect 4 0 5 0;
#X connect 5 0 6 0;
#X connect 6 0 9 0;
#X connect 7 0 14 0;
#X connect 8 0 6 1;
#X connect 9 0 11 0;
#X connect 9 0 15 0;
#X connect 10 0 14 1;
#X connect 11 0 13 0;
#X connect 11 1 12 0;
#X connect 12 0 10 0;
#X connect 13 0 10 0;
#X connect 14 0 6 0;
#X connect 16 0 8 0;
#X connect 16 1 7 0;
#X connect 17 0 19 0;
#X connect 17 1 20 0;
#X connect 18 0 6 1;
#X connect 19 0 18 0;
#X connect 20 0 18 0;
#X connect 21 0 16 1;
#X restore 1274 332 pd buttons;
#N canvas 855 107 450 300 buttons 0;
#X obj 328 105 notein;
#X floatatom 302 206 5 0 0 0 - - -;
#X floatatom 348 215 5 0 0 0 - - -;
#X floatatom 401 210 5 0 0 0 - - -;
#X obj 355 294 / 127;
#X floatatom 373 379 5 0 0 0 - - -;
#X obj 313 473 spigot;
#X msg 281 344 0;
#X msg 321 363 1;
#X floatatom 313 517 5 0 0 0 - - -;
#X obj 237 480 tgl 15 0 empty empty empty 17 7 0 10 -262144 -1 -1 0
1;
#X obj 196 327 sel 0;
#X msg 237 371 1;
#X msg 203 393 0;
#X obj 267 405 spigot;
#X obj 311 628 outlet;
#X obj 294 283 sel 1;
#X obj 408 285 sel 1;
#X obj 437 430 tgl 15 0 empty empty empty 17 7 0 10 -262144 -1 -1 0
1;
#X msg 416 338 1;
#X msg 464 348 0;
#X obj 416 95 inlet;
#X connect 0 0 1 0;
#X connect 0 1 2 0;
#X connect 0 2 3 0;
#X connect 1 0 16 0;
#X connect 2 0 4 0;
#X connect 3 0 17 0;
#X connect 4 0 5 0;
#X connect 5 0 6 0;
#X connect 6 0 9 0;
#X connect 7 0 14 0;
#X connect 8 0 6 1;
#X connect 9 0 11 0;
#X connect 9 0 15 0;
#X connect 10 0 14 1;
#X connect 11 0 13 0;
#X connect 11 1 12 0;
#X connect 12 0 10 0;
#X connect 13 0 10 0;
#X connect 14 0 6 0;
#X connect 16 0 8 0;
#X connect 16 1 7 0;
#X connect 17 0 19 0;
#X connect 17 1 20 0;
#X connect 18 0 6 1;
#X connect 19 0 18 0;
#X connect 20 0 18 0;
#X connect 21 0 16 1;
#X restore 1363 333 pd buttons;
#N canvas 855 107 450 300 buttons 0;
#X obj 328 105 notein;
#X floatatom 302 206 5 0 0 0 - - -;
#X floatatom 348 215 5 0 0 0 - - -;
#X floatatom 401 210 5 0 0 0 - - -;
#X obj 355 294 / 127;
#X floatatom 373 379 5 0 0 0 - - -;
#X obj 313 473 spigot;
#X msg 281 344 0;
#X msg 321 363 1;
#X floatatom 313 517 5 0 0 0 - - -;
#X obj 237 480 tgl 15 0 empty empty empty 17 7 0 10 -262144 -1 -1 0
1;
#X obj 196 327 sel 0;
#X msg 237 371 1;
#X msg 203 393 0;
#X obj 267 405 spigot;
#X obj 311 628 outlet;
#X obj 294 283 sel 1;
#X obj 408 285 sel 1;
#X obj 437 430 tgl 15 0 empty empty empty 17 7 0 10 -262144 -1 -1 0
1;
#X msg 416 338 1;
#X msg 464 348 0;
#X obj 416 95 inlet;
#X connect 0 0 1 0;
#X connect 0 1 2 0;
#X connect 0 2 3 0;
#X connect 1 0 16 0;
#X connect 2 0 4 0;
#X connect 3 0 17 0;
#X connect 4 0 5 0;
#X connect 5 0 6 0;
#X connect 6 0 9 0;
#X connect 7 0 14 0;
#X connect 8 0 6 1;
#X connect 9 0 11 0;
#X connect 9 0 15 0;
#X connect 10 0 14 1;
#X connect 11 0 13 0;
#X connect 11 1 12 0;
#X connect 12 0 10 0;
#X connect 13 0 10 0;
#X connect 14 0 6 0;
#X connect 16 0 8 0;
#X connect 16 1 7 0;
#X connect 17 0 19 0;
#X connect 17 1 20 0;
#X connect 18 0 6 1;
#X connect 19 0 18 0;
#X connect 20 0 18 0;
#X connect 21 0 16 1;
#X restore 1452 334 pd buttons;
#N canvas 855 107 450 300 buttons 0;
#X obj 328 105 notein;
#X floatatom 302 206 5 0 0 0 - - -;
#X floatatom 348 215 5 0 0 0 - - -;
#X floatatom 401 210 5 0 0 0 - - -;
#X obj 355 294 / 127;
#X floatatom 373 379 5 0 0 0 - - -;
#X obj 313 473 spigot;
#X msg 281 344 0;
#X msg 321 363 1;
#X floatatom 313 517 5 0 0 0 - - -;
#X obj 237 480 tgl 15 0 empty empty empty 17 7 0 10 -262144 -1 -1 0
1;
#X obj 196 327 sel 0;
#X msg 237 371 1;
#X msg 203 393 0;
#X obj 267 405 spigot;
#X obj 311 628 outlet;
#X obj 294 283 sel 1;
#X obj 408 285 sel 1;
#X obj 437 430 tgl 15 0 empty empty empty 17 7 0 10 -262144 -1 -1 0
1;
#X msg 416 338 1;
#X msg 464 348 0;
#X obj 416 95 inlet;
#X connect 0 0 1 0;
#X connect 0 1 2 0;
#X connect 0 2 3 0;
#X connect 1 0 16 0;
#X connect 2 0 4 0;
#X connect 3 0 17 0;
#X connect 4 0 5 0;
#X connect 5 0 6 0;
#X connect 6 0 9 0;
#X connect 7 0 14 0;
#X connect 8 0 6 1;
#X connect 9 0 11 0;
#X connect 9 0 15 0;
#X connect 10 0 14 1;
#X connect 11 0 13 0;
#X connect 11 1 12 0;
#X connect 12 0 10 0;
#X connect 13 0 10 0;
#X connect 14 0 6 0;
#X connect 16 0 8 0;
#X connect 16 1 7 0;
#X connect 17 0 19 0;
#X connect 17 1 20 0;
#X connect 18 0 6 1;
#X connect 19 0 18 0;
#X connect 20 0 18 0;
#X connect 21 0 16 1;
#X restore 1541 335 pd buttons;
#N canvas 855 107 450 300 buttons 0;
#X obj 328 105 notein;
#X floatatom 302 206 5 0 0 0 - - -;
#X floatatom 348 215 5 0 0 0 - - -;
#X floatatom 401 210 5 0 0 0 - - -;
#X obj 355 294 / 127;
#X floatatom 373 379 5 0 0 0 - - -;
#X obj 313 473 spigot;
#X msg 281 344 0;
#X msg 321 363 1;
#X floatatom 313 517 5 0 0 0 - - -;
#X obj 237 480 tgl 15 0 empty empty empty 17 7 0 10 -262144 -1 -1 0
1;
#X obj 196 327 sel 0;
#X msg 237 371 1;
#X msg 203 393 0;
#X obj 267 405 spigot;
#X obj 311 628 outlet;
#X obj 294 283 sel 1;
#X obj 408 285 sel 1;
#X obj 437 430 tgl 15 0 empty empty empty 17 7 0 10 -262144 -1 -1 0
1;
#X msg 416 338 1;
#X msg 464 348 0;
#X obj 416 95 inlet;
#X connect 0 0 1 0;
#X connect 0 1 2 0;
#X connect 0 2 3 0;
#X connect 1 0 16 0;
#X connect 2 0 4 0;
#X connect 3 0 17 0;
#X connect 4 0 5 0;
#X connect 5 0 6 0;
#X connect 6 0 9 0;
#X connect 7 0 14 0;
#X connect 8 0 6 1;
#X connect 9 0 11 0;
#X connect 9 0 15 0;
#X connect 10 0 14 1;
#X connect 11 0 13 0;
#X connect 11 1 12 0;
#X connect 12 0 10 0;
#X connect 13 0 10 0;
#X connect 14 0 6 0;
#X connect 16 0 8 0;
#X connect 16 1 7 0;
#X connect 17 0 19 0;
#X connect 17 1 20 0;
#X connect 18 0 6 1;
#X connect 19 0 18 0;
#X connect 20 0 18 0;
#X connect 21 0 16 1;
#X restore 908 371 pd buttons;
#N canvas 855 107 450 300 buttons 0;
#X obj 328 105 notein;
#X floatatom 302 206 5 0 0 0 - - -;
#X floatatom 348 215 5 0 0 0 - - -;
#X floatatom 401 210 5 0 0 0 - - -;
#X obj 355 294 / 127;
#X floatatom 373 379 5 0 0 0 - - -;
#X obj 313 473 spigot;
#X msg 281 344 0;
#X msg 321 363 1;
#X floatatom 313 517 5 0 0 0 - - -;
#X obj 237 480 tgl 15 0 empty empty empty 17 7 0 10 -262144 -1 -1 0
1;
#X obj 196 327 sel 0;
#X msg 237 371 1;
#X msg 203 393 0;
#X obj 267 405 spigot;
#X obj 311 628 outlet;
#X obj 294 283 sel 1;
#X obj 408 285 sel 1;
#X obj 437 430 tgl 15 0 empty empty empty 17 7 0 10 -262144 -1 -1 0
1;
#X msg 416 338 1;
#X msg 464 348 0;
#X obj 416 95 inlet;
#X connect 0 0 1 0;
#X connect 0 1 2 0;
#X connect 0 2 3 0;
#X connect 1 0 16 0;
#X connect 2 0 4 0;
#X connect 3 0 17 0;
#X connect 4 0 5 0;
#X connect 5 0 6 0;
#X connect 6 0 9 0;
#X connect 7 0 14 0;
#X connect 8 0 6 1;
#X connect 9 0 11 0;
#X connect 9 0 15 0;
#X connect 10 0 14 1;
#X connect 11 0 13 0;
#X connect 11 1 12 0;
#X connect 12 0 10 0;
#X connect 13 0 10 0;
#X connect 14 0 6 0;
#X connect 16 0 8 0;
#X connect 16 1 7 0;
#X connect 17 0 19 0;
#X connect 17 1 20 0;
#X connect 18 0 6 1;
#X connect 19 0 18 0;
#X connect 20 0 18 0;
#X connect 21 0 16 1;
#X restore 997 372 pd buttons;
#N canvas 855 107 450 300 buttons 0;
#X obj 328 105 notein;
#X floatatom 302 206 5 0 0 0 - - -;
#X floatatom 348 215 5 0 0 0 - - -;
#X floatatom 401 210 5 0 0 0 - - -;
#X obj 355 294 / 127;
#X floatatom 373 379 5 0 0 0 - - -;
#X obj 313 473 spigot;
#X msg 281 344 0;
#X msg 321 363 1;
#X floatatom 313 517 5 0 0 0 - - -;
#X obj 237 480 tgl 15 0 empty empty empty 17 7 0 10 -262144 -1 -1 0
1;
#X obj 196 327 sel 0;
#X msg 237 371 1;
#X msg 203 393 0;
#X obj 267 405 spigot;
#X obj 311 628 outlet;
#X obj 294 283 sel 1;
#X obj 408 285 sel 1;
#X obj 437 430 tgl 15 0 empty empty empty 17 7 0 10 -262144 -1 -1 0
1;
#X msg 416 338 1;
#X msg 464 348 0;
#X obj 416 95 inlet;
#X connect 0 0 1 0;
#X connect 0 1 2 0;
#X connect 0 2 3 0;
#X connect 1 0 16 0;
#X connect 2 0 4 0;
#X connect 3 0 17 0;
#X connect 4 0 5 0;
#X connect 5 0 6 0;
#X connect 6 0 9 0;
#X connect 7 0 14 0;
#X connect 8 0 6 1;
#X connect 9 0 11 0;
#X connect 9 0 15 0;
#X connect 10 0 14 1;
#X connect 11 0 13 0;
#X connect 11 1 12 0;
#X connect 12 0 10 0;
#X connect 13 0 10 0;
#X connect 14 0 6 0;
#X connect 16 0 8 0;
#X connect 16 1 7 0;
#X connect 17 0 19 0;
#X connect 17 1 20 0;
#X connect 18 0 6 1;
#X connect 19 0 18 0;
#X connect 20 0 18 0;
#X connect 21 0 16 1;
#X restore 1086 373 pd buttons;
#N canvas 855 107 450 300 buttons 0;
#X obj 328 105 notein;
#X floatatom 302 206 5 0 0 0 - - -;
#X floatatom 348 215 5 0 0 0 - - -;
#X floatatom 401 210 5 0 0 0 - - -;
#X obj 355 294 / 127;
#X floatatom 373 379 5 0 0 0 - - -;
#X obj 313 473 spigot;
#X msg 281 344 0;
#X msg 321 363 1;
#X floatatom 313 517 5 0 0 0 - - -;
#X obj 237 480 tgl 15 0 empty empty empty 17 7 0 10 -262144 -1 -1 0
1;
#X obj 196 327 sel 0;
#X msg 237 371 1;
#X msg 203 393 0;
#X obj 267 405 spigot;
#X obj 311 628 outlet;
#X obj 294 283 sel 1;
#X obj 408 285 sel 1;
#X obj 437 430 tgl 15 0 empty empty empty 17 7 0 10 -262144 -1 -1 0
1;
#X msg 416 338 1;
#X msg 464 348 0;
#X obj 416 95 inlet;
#X connect 0 0 1 0;
#X connect 0 1 2 0;
#X connect 0 2 3 0;
#X connect 1 0 16 0;
#X connect 2 0 4 0;
#X connect 3 0 17 0;
#X connect 4 0 5 0;
#X connect 5 0 6 0;
#X connect 6 0 9 0;
#X connect 7 0 14 0;
#X connect 8 0 6 1;
#X connect 9 0 11 0;
#X connect 9 0 15 0;
#X connect 10 0 14 1;
#X connect 11 0 13 0;
#X connect 11 1 12 0;
#X connect 12 0 10 0;
#X connect 13 0 10 0;
#X connect 14 0 6 0;
#X connect 16 0 8 0;
#X connect 16 1 7 0;
#X connect 17 0 19 0;
#X connect 17 1 20 0;
#X connect 18 0 6 1;
#X connect 19 0 18 0;
#X connect 20 0 18 0;
#X connect 21 0 16 1;
#X restore 1175 374 pd buttons;
#N canvas 855 107 450 300 buttons 0;
#X obj 328 105 notein;
#X floatatom 302 206 5 0 0 0 - - -;
#X floatatom 348 215 5 0 0 0 - - -;
#X floatatom 401 210 5 0 0 0 - - -;
#X obj 355 294 / 127;
#X floatatom 373 379 5 0 0 0 - - -;
#X obj 313 473 spigot;
#X msg 281 344 0;
#X msg 321 363 1;
#X floatatom 313 517 5 0 0 0 - - -;
#X obj 237 480 tgl 15 0 empty empty empty 17 7 0 10 -262144 -1 -1 0
1;
#X obj 196 327 sel 0;
#X msg 237 371 1;
#X msg 203 393 0;
#X obj 267 405 spigot;
#X obj 311 628 outlet;
#X obj 294 283 sel 1;
#X obj 408 285 sel 1;
#X obj 437 430 tgl 15 0 empty empty empty 17 7 0 10 -262144 -1 -1 0
1;
#X msg 416 338 1;
#X msg 464 348 0;
#X obj 416 95 inlet;
#X connect 0 0 1 0;
#X connect 0 1 2 0;
#X connect 0 2 3 0;
#X connect 1 0 16 0;
#X connect 2 0 4 0;
#X connect 3 0 17 0;
#X connect 4 0 5 0;
#X connect 5 0 6 0;
#X connect 6 0 9 0;
#X connect 7 0 14 0;
#X connect 8 0 6 1;
#X connect 9 0 11 0;
#X connect 9 0 15 0;
#X connect 10 0 14 1;
#X connect 11 0 13 0;
#X connect 11 1 12 0;
#X connect 12 0 10 0;
#X connect 13 0 10 0;
#X connect 14 0 6 0;
#X connect 16 0 8 0;
#X connect 16 1 7 0;
#X connect 17 0 19 0;
#X connect 17 1 20 0;
#X connect 18 0 6 1;
#X connect 19 0 18 0;
#X connect 20 0 18 0;
#X connect 21 0 16 1;
#X restore 1269 374 pd buttons;
#N canvas 855 107 450 300 buttons 0;
#X obj 328 105 notein;
#X floatatom 302 206 5 0 0 0 - - -;
#X floatatom 348 215 5 0 0 0 - - -;
#X floatatom 401 210 5 0 0 0 - - -;
#X obj 355 294 / 127;
#X floatatom 373 379 5 0 0 0 - - -;
#X obj 313 473 spigot;
#X msg 281 344 0;
#X msg 321 363 1;
#X floatatom 313 517 5 0 0 0 - - -;
#X obj 237 480 tgl 15 0 empty empty empty 17 7 0 10 -262144 -1 -1 0
1;
#X obj 196 327 sel 0;
#X msg 237 371 1;
#X msg 203 393 0;
#X obj 267 405 spigot;
#X obj 311 628 outlet;
#X obj 294 283 sel 1;
#X obj 408 285 sel 1;
#X obj 437 430 tgl 15 0 empty empty empty 17 7 0 10 -262144 -1 -1 0
1;
#X msg 416 338 1;
#X msg 464 348 0;
#X obj 416 95 inlet;
#X connect 0 0 1 0;
#X connect 0 1 2 0;
#X connect 0 2 3 0;
#X connect 1 0 16 0;
#X connect 2 0 4 0;
#X connect 3 0 17 0;
#X connect 4 0 5 0;
#X connect 5 0 6 0;
#X connect 6 0 9 0;
#X connect 7 0 14 0;
#X connect 8 0 6 1;
#X connect 9 0 11 0;
#X connect 9 0 15 0;
#X connect 10 0 14 1;
#X connect 11 0 13 0;
#X connect 11 1 12 0;
#X connect 12 0 10 0;
#X connect 13 0 10 0;
#X connect 14 0 6 0;
#X connect 16 0 8 0;
#X connect 16 1 7 0;
#X connect 17 0 19 0;
#X connect 17 1 20 0;
#X connect 18 0 6 1;
#X connect 19 0 18 0;
#X connect 20 0 18 0;
#X connect 21 0 16 1;
#X restore 1358 375 pd buttons;
#N canvas 855 107 450 300 buttons 0;
#X obj 328 105 notein;
#X floatatom 302 206 5 0 0 0 - - -;
#X floatatom 348 215 5 0 0 0 - - -;
#X floatatom 401 210 5 0 0 0 - - -;
#X obj 355 294 / 127;
#X floatatom 373 379 5 0 0 0 - - -;
#X obj 313 473 spigot;
#X msg 281 344 0;
#X msg 321 363 1;
#X floatatom 313 517 5 0 0 0 - - -;
#X obj 237 480 tgl 15 0 empty empty empty 17 7 0 10 -262144 -1 -1 0
1;
#X obj 196 327 sel 0;
#X msg 237 371 1;
#X msg 203 393 0;
#X obj 267 405 spigot;
#X obj 311 628 outlet;
#X obj 294 283 sel 1;
#X obj 408 285 sel 1;
#X obj 437 430 tgl 15 0 empty empty empty 17 7 0 10 -262144 -1 -1 0
1;
#X msg 416 338 1;
#X msg 464 348 0;
#X obj 416 95 inlet;
#X connect 0 0 1 0;
#X connect 0 1 2 0;
#X connect 0 2 3 0;
#X connect 1 0 16 0;
#X connect 2 0 4 0;
#X connect 3 0 17 0;
#X connect 4 0 5 0;
#X connect 5 0 6 0;
#X connect 6 0 9 0;
#X connect 7 0 14 0;
#X connect 8 0 6 1;
#X connect 9 0 11 0;
#X connect 9 0 15 0;
#X connect 10 0 14 1;
#X connect 11 0 13 0;
#X connect 11 1 12 0;
#X connect 12 0 10 0;
#X connect 13 0 10 0;
#X connect 14 0 6 0;
#X connect 16 0 8 0;
#X connect 16 1 7 0;
#X connect 17 0 19 0;
#X connect 17 1 20 0;
#X connect 18 0 6 1;
#X connect 19 0 18 0;
#X connect 20 0 18 0;
#X connect 21 0 16 1;
#X restore 1447 376 pd buttons;
#N canvas 855 107 450 300 buttons 0;
#X obj 328 105 notein;
#X floatatom 302 206 5 0 0 0 - - -;
#X floatatom 348 215 5 0 0 0 - - -;
#X floatatom 401 210 5 0 0 0 - - -;
#X obj 355 294 / 127;
#X floatatom 373 379 5 0 0 0 - - -;
#X obj 313 473 spigot;
#X msg 281 344 0;
#X msg 321 363 1;
#X floatatom 313 517 5 0 0 0 - - -;
#X obj 237 480 tgl 15 0 empty empty empty 17 7 0 10 -262144 -1 -1 0
1;
#X obj 196 327 sel 0;
#X msg 237 371 1;
#X msg 203 393 0;
#X obj 267 405 spigot;
#X obj 311 628 outlet;
#X obj 294 283 sel 1;
#X obj 408 285 sel 1;
#X obj 437 430 tgl 15 0 empty empty empty 17 7 0 10 -262144 -1 -1 0
1;
#X msg 416 338 1;
#X msg 464 348 0;
#X obj 416 95 inlet;
#X connect 0 0 1 0;
#X connect 0 1 2 0;
#X connect 0 2 3 0;
#X connect 1 0 16 0;
#X connect 2 0 4 0;
#X connect 3 0 17 0;
#X connect 4 0 5 0;
#X connect 5 0 6 0;
#X connect 6 0 9 0;
#X connect 7 0 14 0;
#X connect 8 0 6 1;
#X connect 9 0 11 0;
#X connect 9 0 15 0;
#X connect 10 0 14 1;
#X connect 11 0 13 0;
#X connect 11 1 12 0;
#X connect 12 0 10 0;
#X connect 13 0 10 0;
#X connect 14 0 6 0;
#X connect 16 0 8 0;
#X connect 16 1 7 0;
#X connect 17 0 19 0;
#X connect 17 1 20 0;
#X connect 18 0 6 1;
#X connect 19 0 18 0;
#X connect 20 0 18 0;
#X connect 21 0 16 1;
#X restore 1536 377 pd buttons;
#N canvas 855 107 450 300 buttons 0;
#X obj 328 105 notein;
#X floatatom 302 206 5 0 0 0 - - -;
#X floatatom 348 215 5 0 0 0 - - -;
#X floatatom 401 210 5 0 0 0 - - -;
#X obj 355 294 / 127;
#X floatatom 373 379 5 0 0 0 - - -;
#X obj 313 473 spigot;
#X msg 281 344 0;
#X msg 321 363 1;
#X floatatom 313 517 5 0 0 0 - - -;
#X obj 237 480 tgl 15 0 empty empty empty 17 7 0 10 -262144 -1 -1 0
1;
#X obj 196 327 sel 0;
#X msg 237 371 1;
#X msg 203 393 0;
#X obj 267 405 spigot;
#X obj 311 628 outlet;
#X obj 294 283 sel 1;
#X obj 408 285 sel 1;
#X obj 437 430 tgl 15 0 empty empty empty 17 7 0 10 -262144 -1 -1 0
1;
#X msg 416 338 1;
#X msg 464 348 0;
#X obj 416 95 inlet;
#X connect 0 0 1 0;
#X connect 0 1 2 0;
#X connect 0 2 3 0;
#X connect 1 0 16 0;
#X connect 2 0 4 0;
#X connect 3 0 17 0;
#X connect 4 0 5 0;
#X connect 5 0 6 0;
#X connect 6 0 9 0;
#X connect 7 0 14 0;
#X connect 8 0 6 1;
#X connect 9 0 11 0;
#X connect 9 0 15 0;
#X connect 10 0 14 1;
#X connect 11 0 13 0;
#X connect 11 1 12 0;
#X connect 12 0 10 0;
#X connect 13 0 10 0;
#X connect 14 0 6 0;
#X connect 16 0 8 0;
#X connect 16 1 7 0;
#X connect 17 0 19 0;
#X connect 17 1 20 0;
#X connect 18 0 6 1;
#X connect 19 0 18 0;
#X connect 20 0 18 0;
#X connect 21 0 16 1;
#X restore 909 412 pd buttons;
#N canvas 855 107 450 300 buttons 0;
#X obj 328 105 notein;
#X floatatom 302 206 5 0 0 0 - - -;
#X floatatom 348 215 5 0 0 0 - - -;
#X floatatom 401 210 5 0 0 0 - - -;
#X obj 355 294 / 127;
#X floatatom 373 379 5 0 0 0 - - -;
#X obj 313 473 spigot;
#X msg 281 344 0;
#X msg 321 363 1;
#X floatatom 313 517 5 0 0 0 - - -;
#X obj 237 480 tgl 15 0 empty empty empty 17 7 0 10 -262144 -1 -1 0
1;
#X obj 196 327 sel 0;
#X msg 237 371 1;
#X msg 203 393 0;
#X obj 267 405 spigot;
#X obj 311 628 outlet;
#X obj 294 283 sel 1;
#X obj 408 285 sel 1;
#X obj 437 430 tgl 15 0 empty empty empty 17 7 0 10 -262144 -1 -1 0
1;
#X msg 416 338 1;
#X msg 464 348 0;
#X obj 416 95 inlet;
#X connect 0 0 1 0;
#X connect 0 1 2 0;
#X connect 0 2 3 0;
#X connect 1 0 16 0;
#X connect 2 0 4 0;
#X connect 3 0 17 0;
#X connect 4 0 5 0;
#X connect 5 0 6 0;
#X connect 6 0 9 0;
#X connect 7 0 14 0;
#X connect 8 0 6 1;
#X connect 9 0 11 0;
#X connect 9 0 15 0;
#X connect 10 0 14 1;
#X connect 11 0 13 0;
#X connect 11 1 12 0;
#X connect 12 0 10 0;
#X connect 13 0 10 0;
#X connect 14 0 6 0;
#X connect 16 0 8 0;
#X connect 16 1 7 0;
#X connect 17 0 19 0;
#X connect 17 1 20 0;
#X connect 18 0 6 1;
#X connect 19 0 18 0;
#X connect 20 0 18 0;
#X connect 21 0 16 1;
#X restore 998 413 pd buttons;
#N canvas 855 107 450 300 buttons 0;
#X obj 328 105 notein;
#X floatatom 302 206 5 0 0 0 - - -;
#X floatatom 348 215 5 0 0 0 - - -;
#X floatatom 401 210 5 0 0 0 - - -;
#X obj 355 294 / 127;
#X floatatom 373 379 5 0 0 0 - - -;
#X obj 313 473 spigot;
#X msg 281 344 0;
#X msg 321 363 1;
#X floatatom 313 517 5 0 0 0 - - -;
#X obj 237 480 tgl 15 0 empty empty empty 17 7 0 10 -262144 -1 -1 0
1;
#X obj 196 327 sel 0;
#X msg 237 371 1;
#X msg 203 393 0;
#X obj 267 405 spigot;
#X obj 311 628 outlet;
#X obj 294 283 sel 1;
#X obj 408 285 sel 1;
#X obj 437 430 tgl 15 0 empty empty empty 17 7 0 10 -262144 -1 -1 0
1;
#X msg 416 338 1;
#X msg 464 348 0;
#X obj 416 95 inlet;
#X connect 0 0 1 0;
#X connect 0 1 2 0;
#X connect 0 2 3 0;
#X connect 1 0 16 0;
#X connect 2 0 4 0;
#X connect 3 0 17 0;
#X connect 4 0 5 0;
#X connect 5 0 6 0;
#X connect 6 0 9 0;
#X connect 7 0 14 0;
#X connect 8 0 6 1;
#X connect 9 0 11 0;
#X connect 9 0 15 0;
#X connect 10 0 14 1;
#X connect 11 0 13 0;
#X connect 11 1 12 0;
#X connect 12 0 10 0;
#X connect 13 0 10 0;
#X connect 14 0 6 0;
#X connect 16 0 8 0;
#X connect 16 1 7 0;
#X connect 17 0 19 0;
#X connect 17 1 20 0;
#X connect 18 0 6 1;
#X connect 19 0 18 0;
#X connect 20 0 18 0;
#X connect 21 0 16 1;
#X restore 1087 414 pd buttons;
#N canvas 855 107 450 300 buttons 0;
#X obj 328 105 notein;
#X floatatom 302 206 5 0 0 0 - - -;
#X floatatom 348 215 5 0 0 0 - - -;
#X floatatom 401 210 5 0 0 0 - - -;
#X obj 355 294 / 127;
#X floatatom 373 379 5 0 0 0 - - -;
#X obj 313 473 spigot;
#X msg 281 344 0;
#X msg 321 363 1;
#X floatatom 313 517 5 0 0 0 - - -;
#X obj 237 480 tgl 15 0 empty empty empty 17 7 0 10 -262144 -1 -1 0
1;
#X obj 196 327 sel 0;
#X msg 237 371 1;
#X msg 203 393 0;
#X obj 267 405 spigot;
#X obj 311 628 outlet;
#X obj 294 283 sel 1;
#X obj 408 285 sel 1;
#X obj 437 430 tgl 15 0 empty empty empty 17 7 0 10 -262144 -1 -1 0
1;
#X msg 416 338 1;
#X msg 464 348 0;
#X obj 416 95 inlet;
#X connect 0 0 1 0;
#X connect 0 1 2 0;
#X connect 0 2 3 0;
#X connect 1 0 16 0;
#X connect 2 0 4 0;
#X connect 3 0 17 0;
#X connect 4 0 5 0;
#X connect 5 0 6 0;
#X connect 6 0 9 0;
#X connect 7 0 14 0;
#X connect 8 0 6 1;
#X connect 9 0 11 0;
#X connect 9 0 15 0;
#X connect 10 0 14 1;
#X connect 11 0 13 0;
#X connect 11 1 12 0;
#X connect 12 0 10 0;
#X connect 13 0 10 0;
#X connect 14 0 6 0;
#X connect 16 0 8 0;
#X connect 16 1 7 0;
#X connect 17 0 19 0;
#X connect 17 1 20 0;
#X connect 18 0 6 1;
#X connect 19 0 18 0;
#X connect 20 0 18 0;
#X connect 21 0 16 1;
#X restore 1176 415 pd buttons;
#N canvas 855 107 450 300 buttons 0;
#X obj 328 105 notein;
#X floatatom 302 206 5 0 0 0 - - -;
#X floatatom 348 215 5 0 0 0 - - -;
#X floatatom 401 210 5 0 0 0 - - -;
#X obj 355 294 / 127;
#X floatatom 373 379 5 0 0 0 - - -;
#X obj 313 473 spigot;
#X msg 281 344 0;
#X msg 321 363 1;
#X floatatom 313 517 5 0 0 0 - - -;
#X obj 237 480 tgl 15 0 empty empty empty 17 7 0 10 -262144 -1 -1 0
1;
#X obj 196 327 sel 0;
#X msg 237 371 1;
#X msg 203 393 0;
#X obj 267 405 spigot;
#X obj 311 628 outlet;
#X obj 294 283 sel 1;
#X obj 408 285 sel 1;
#X obj 437 430 tgl 15 0 empty empty empty 17 7 0 10 -262144 -1 -1 0
1;
#X msg 416 338 1;
#X msg 464 348 0;
#X obj 416 95 inlet;
#X connect 0 0 1 0;
#X connect 0 1 2 0;
#X connect 0 2 3 0;
#X connect 1 0 16 0;
#X connect 2 0 4 0;
#X connect 3 0 17 0;
#X connect 4 0 5 0;
#X connect 5 0 6 0;
#X connect 6 0 9 0;
#X connect 7 0 14 0;
#X connect 8 0 6 1;
#X connect 9 0 11 0;
#X connect 9 0 15 0;
#X connect 10 0 14 1;
#X connect 11 0 13 0;
#X connect 11 1 12 0;
#X connect 12 0 10 0;
#X connect 13 0 10 0;
#X connect 14 0 6 0;
#X connect 16 0 8 0;
#X connect 16 1 7 0;
#X connect 17 0 19 0;
#X connect 17 1 20 0;
#X connect 18 0 6 1;
#X connect 19 0 18 0;
#X connect 20 0 18 0;
#X connect 21 0 16 1;
#X restore 1271 416 pd buttons;
#N canvas 855 107 450 300 buttons 0;
#X obj 328 105 notein;
#X floatatom 302 206 5 0 0 0 - - -;
#X floatatom 348 215 5 0 0 0 - - -;
#X floatatom 401 210 5 0 0 0 - - -;
#X obj 355 294 / 127;
#X floatatom 373 379 5 0 0 0 - - -;
#X obj 313 473 spigot;
#X msg 281 344 0;
#X msg 321 363 1;
#X floatatom 313 517 5 0 0 0 - - -;
#X obj 237 480 tgl 15 0 empty empty empty 17 7 0 10 -262144 -1 -1 0
1;
#X obj 196 327 sel 0;
#X msg 237 371 1;
#X msg 203 393 0;
#X obj 267 405 spigot;
#X obj 311 628 outlet;
#X obj 294 283 sel 1;
#X obj 408 285 sel 1;
#X obj 437 430 tgl 15 0 empty empty empty 17 7 0 10 -262144 -1 -1 0
1;
#X msg 416 338 1;
#X msg 464 348 0;
#X obj 416 95 inlet;
#X connect 0 0 1 0;
#X connect 0 1 2 0;
#X connect 0 2 3 0;
#X connect 1 0 16 0;
#X connect 2 0 4 0;
#X connect 3 0 17 0;
#X connect 4 0 5 0;
#X connect 5 0 6 0;
#X connect 6 0 9 0;
#X connect 7 0 14 0;
#X connect 8 0 6 1;
#X connect 9 0 11 0;
#X connect 9 0 15 0;
#X connect 10 0 14 1;
#X connect 11 0 13 0;
#X connect 11 1 12 0;
#X connect 12 0 10 0;
#X connect 13 0 10 0;
#X connect 14 0 6 0;
#X connect 16 0 8 0;
#X connect 16 1 7 0;
#X connect 17 0 19 0;
#X connect 17 1 20 0;
#X connect 18 0 6 1;
#X connect 19 0 18 0;
#X connect 20 0 18 0;
#X connect 21 0 16 1;
#X restore 1359 416 pd buttons;
#N canvas 855 107 450 300 buttons 0;
#X obj 328 105 notein;
#X floatatom 302 206 5 0 0 0 - - -;
#X floatatom 348 215 5 0 0 0 - - -;
#X floatatom 401 210 5 0 0 0 - - -;
#X obj 355 294 / 127;
#X floatatom 373 379 5 0 0 0 - - -;
#X obj 313 473 spigot;
#X msg 281 344 0;
#X msg 321 363 1;
#X floatatom 313 517 5 0 0 0 - - -;
#X obj 237 480 tgl 15 0 empty empty empty 17 7 0 10 -262144 -1 -1 0
1;
#X obj 196 327 sel 0;
#X msg 237 371 1;
#X msg 203 393 0;
#X obj 267 405 spigot;
#X obj 311 628 outlet;
#X obj 294 283 sel 1;
#X obj 408 285 sel 1;
#X obj 437 430 tgl 15 0 empty empty empty 17 7 0 10 -262144 -1 -1 0
1;
#X msg 416 338 1;
#X msg 464 348 0;
#X obj 416 95 inlet;
#X connect 0 0 1 0;
#X connect 0 1 2 0;
#X connect 0 2 3 0;
#X connect 1 0 16 0;
#X connect 2 0 4 0;
#X connect 3 0 17 0;
#X connect 4 0 5 0;
#X connect 5 0 6 0;
#X connect 6 0 9 0;
#X connect 7 0 14 0;
#X connect 8 0 6 1;
#X connect 9 0 11 0;
#X connect 9 0 15 0;
#X connect 10 0 14 1;
#X connect 11 0 13 0;
#X connect 11 1 12 0;
#X connect 12 0 10 0;
#X connect 13 0 10 0;
#X connect 14 0 6 0;
#X connect 16 0 8 0;
#X connect 16 1 7 0;
#X connect 17 0 19 0;
#X connect 17 1 20 0;
#X connect 18 0 6 1;
#X connect 19 0 18 0;
#X connect 20 0 18 0;
#X connect 21 0 16 1;
#X restore 1448 417 pd buttons;
#N canvas 855 107 450 300 buttons 0;
#X obj 328 105 notein;
#X floatatom 302 206 5 0 0 0 - - -;
#X floatatom 348 215 5 0 0 0 - - -;
#X floatatom 401 210 5 0 0 0 - - -;
#X obj 355 294 / 127;
#X floatatom 373 379 5 0 0 0 - - -;
#X obj 313 473 spigot;
#X msg 281 344 0;
#X msg 321 363 1;
#X floatatom 313 517 5 0 0 0 - - -;
#X obj 237 480 tgl 15 0 empty empty empty 17 7 0 10 -262144 -1 -1 0
1;
#X obj 196 327 sel 0;
#X msg 237 371 1;
#X msg 203 393 0;
#X obj 267 405 spigot;
#X obj 311 628 outlet;
#X obj 294 283 sel 1;
#X obj 408 285 sel 1;
#X obj 437 430 tgl 15 0 empty empty empty 17 7 0 10 -262144 -1 -1 0
1;
#X msg 416 338 1;
#X msg 464 348 0;
#X obj 416 95 inlet;
#X connect 0 0 1 0;
#X connect 0 1 2 0;
#X connect 0 2 3 0;
#X connect 1 0 16 0;
#X connect 2 0 4 0;
#X connect 3 0 17 0;
#X connect 4 0 5 0;
#X connect 5 0 6 0;
#X connect 6 0 9 0;
#X connect 7 0 14 0;
#X connect 8 0 6 1;
#X connect 9 0 11 0;
#X connect 9 0 15 0;
#X connect 10 0 14 1;
#X connect 11 0 13 0;
#X connect 11 1 12 0;
#X connect 12 0 10 0;
#X connect 13 0 10 0;
#X connect 14 0 6 0;
#X connect 16 0 8 0;
#X connect 16 1 7 0;
#X connect 17 0 19 0;
#X connect 17 1 20 0;
#X connect 18 0 6 1;
#X connect 19 0 18 0;
#X connect 20 0 18 0;
#X connect 21 0 16 1;
#X restore 1537 418 pd buttons;
#N canvas 855 107 450 300 buttons 0;
#X obj 328 105 notein;
#X floatatom 302 206 5 0 0 0 - - -;
#X floatatom 348 215 5 0 0 0 - - -;
#X floatatom 401 210 5 0 0 0 - - -;
#X obj 355 294 / 127;
#X floatatom 373 379 5 0 0 0 - - -;
#X obj 313 473 spigot;
#X msg 281 344 0;
#X msg 321 363 1;
#X floatatom 313 517 5 0 0 0 - - -;
#X obj 237 480 tgl 15 0 empty empty empty 17 7 0 10 -262144 -1 -1 0
1;
#X obj 196 327 sel 0;
#X msg 237 371 1;
#X msg 203 393 0;
#X obj 267 405 spigot;
#X obj 311 628 outlet;
#X obj 294 283 sel 1;
#X obj 408 285 sel 1;
#X obj 437 430 tgl 15 0 empty empty empty 17 7 0 10 -262144 -1 -1 0
1;
#X msg 416 338 1;
#X msg 464 348 0;
#X obj 416 95 inlet;
#X floatatom 404 139 5 0 0 0 - - -;
#X connect 0 0 1 0;
#X connect 0 1 2 0;
#X connect 0 2 3 0;
#X connect 1 0 16 0;
#X connect 2 0 4 0;
#X connect 3 0 17 0;
#X connect 4 0 5 0;
#X connect 5 0 6 0;
#X connect 6 0 9 0;
#X connect 7 0 14 0;
#X connect 8 0 6 1;
#X connect 9 0 11 0;
#X connect 9 0 15 0;
#X connect 10 0 14 1;
#X connect 11 0 13 0;
#X connect 11 1 12 0;
#X connect 12 0 10 0;
#X connect 13 0 10 0;
#X connect 14 0 6 0;
#X connect 16 0 8 0;
#X connect 16 1 7 0;
#X connect 17 0 19 0;
#X connect 17 1 20 0;
#X connect 18 0 6 1;
#X connect 19 0 18 0;
#X connect 20 0 18 0;
#X connect 21 0 22 0;
#X connect 22 0 16 1;
#X restore 910 454 pd buttons;
#N canvas 855 107 450 300 buttons 0;
#X obj 328 105 notein;
#X floatatom 302 206 5 0 0 0 - - -;
#X floatatom 348 215 5 0 0 0 - - -;
#X floatatom 401 210 5 0 0 0 - - -;
#X obj 355 294 / 127;
#X floatatom 373 379 5 0 0 0 - - -;
#X obj 313 473 spigot;
#X msg 281 344 0;
#X msg 321 363 1;
#X floatatom 313 517 5 0 0 0 - - -;
#X obj 237 480 tgl 15 0 empty empty empty 17 7 0 10 -262144 -1 -1 0
1;
#X obj 196 327 sel 0;
#X msg 237 371 1;
#X msg 203 393 0;
#X obj 267 405 spigot;
#X obj 311 628 outlet;
#X obj 294 283 sel 1;
#X obj 408 285 sel 1;
#X obj 437 430 tgl 15 0 empty empty empty 17 7 0 10 -262144 -1 -1 0
1;
#X msg 416 338 1;
#X msg 464 348 0;
#X obj 416 95 inlet;
#X connect 0 0 1 0;
#X connect 0 1 2 0;
#X connect 0 2 3 0;
#X connect 1 0 16 0;
#X connect 2 0 4 0;
#X connect 3 0 17 0;
#X connect 4 0 5 0;
#X connect 5 0 6 0;
#X connect 6 0 9 0;
#X connect 7 0 14 0;
#X connect 8 0 6 1;
#X connect 9 0 11 0;
#X connect 9 0 15 0;
#X connect 10 0 14 1;
#X connect 11 0 13 0;
#X connect 11 1 12 0;
#X connect 12 0 10 0;
#X connect 13 0 10 0;
#X connect 14 0 6 0;
#X connect 16 0 8 0;
#X connect 16 1 7 0;
#X connect 17 0 19 0;
#X connect 17 1 20 0;
#X connect 18 0 6 1;
#X connect 19 0 18 0;
#X connect 20 0 18 0;
#X connect 21 0 16 1;
#X restore 999 455 pd buttons;
#N canvas 855 107 450 300 buttons 0;
#X obj 328 105 notein;
#X floatatom 302 206 5 0 0 0 - - -;
#X floatatom 348 215 5 0 0 0 - - -;
#X floatatom 401 210 5 0 0 0 - - -;
#X obj 355 294 / 127;
#X floatatom 373 379 5 0 0 0 - - -;
#X obj 313 473 spigot;
#X msg 281 344 0;
#X msg 321 363 1;
#X floatatom 313 517 5 0 0 0 - - -;
#X obj 237 480 tgl 15 0 empty empty empty 17 7 0 10 -262144 -1 -1 0
1;
#X obj 196 327 sel 0;
#X msg 237 371 1;
#X msg 203 393 0;
#X obj 267 405 spigot;
#X obj 311 628 outlet;
#X obj 294 283 sel 1;
#X obj 408 285 sel 1;
#X obj 437 430 tgl 15 0 empty empty empty 17 7 0 10 -262144 -1 -1 0
1;
#X msg 416 338 1;
#X msg 464 348 0;
#X obj 416 95 inlet;
#X connect 0 0 1 0;
#X connect 0 1 2 0;
#X connect 0 2 3 0;
#X connect 1 0 16 0;
#X connect 2 0 4 0;
#X connect 3 0 17 0;
#X connect 4 0 5 0;
#X connect 5 0 6 0;
#X connect 6 0 9 0;
#X connect 7 0 14 0;
#X connect 8 0 6 1;
#X connect 9 0 11 0;
#X connect 9 0 15 0;
#X connect 10 0 14 1;
#X connect 11 0 13 0;
#X connect 11 1 12 0;
#X connect 12 0 10 0;
#X connect 13 0 10 0;
#X connect 14 0 6 0;
#X connect 16 0 8 0;
#X connect 16 1 7 0;
#X connect 17 0 19 0;
#X connect 17 1 20 0;
#X connect 18 0 6 1;
#X connect 19 0 18 0;
#X connect 20 0 18 0;
#X connect 21 0 16 1;
#X restore 1088 456 pd buttons;
#N canvas 855 107 450 300 buttons 0;
#X obj 328 105 notein;
#X floatatom 302 206 5 0 0 0 - - -;
#X floatatom 348 215 5 0 0 0 - - -;
#X floatatom 401 210 5 0 0 0 - - -;
#X obj 355 294 / 127;
#X floatatom 373 379 5 0 0 0 - - -;
#X obj 313 473 spigot;
#X msg 281 344 0;
#X msg 321 363 1;
#X floatatom 313 517 5 0 0 0 - - -;
#X obj 237 480 tgl 15 0 empty empty empty 17 7 0 10 -262144 -1 -1 0
1;
#X obj 196 327 sel 0;
#X msg 237 371 1;
#X msg 203 393 0;
#X obj 267 405 spigot;
#X obj 311 628 outlet;
#X obj 294 283 sel 1;
#X obj 408 285 sel 1;
#X obj 437 430 tgl 15 0 empty empty empty 17 7 0 10 -262144 -1 -1 0
1;
#X msg 416 338 1;
#X msg 464 348 0;
#X obj 416 95 inlet;
#X connect 0 0 1 0;
#X connect 0 1 2 0;
#X connect 0 2 3 0;
#X connect 1 0 16 0;
#X connect 2 0 4 0;
#X connect 3 0 17 0;
#X connect 4 0 5 0;
#X connect 5 0 6 0;
#X connect 6 0 9 0;
#X connect 7 0 14 0;
#X connect 8 0 6 1;
#X connect 9 0 11 0;
#X connect 9 0 15 0;
#X connect 10 0 14 1;
#X connect 11 0 13 0;
#X connect 11 1 12 0;
#X connect 12 0 10 0;
#X connect 13 0 10 0;
#X connect 14 0 6 0;
#X connect 16 0 8 0;
#X connect 16 1 7 0;
#X connect 17 0 19 0;
#X connect 17 1 20 0;
#X connect 18 0 6 1;
#X connect 19 0 18 0;
#X connect 20 0 18 0;
#X connect 21 0 16 1;
#X restore 1177 457 pd buttons;
#N canvas 855 107 450 300 buttons 0;
#X obj 328 105 notein;
#X floatatom 302 206 5 0 0 0 - - -;
#X floatatom 348 215 5 0 0 0 - - -;
#X floatatom 401 210 5 0 0 0 - - -;
#X obj 355 294 / 127;
#X floatatom 373 379 5 0 0 0 - - -;
#X obj 313 473 spigot;
#X msg 281 344 0;
#X msg 321 363 1;
#X floatatom 313 517 5 0 0 0 - - -;
#X obj 237 480 tgl 15 0 empty empty empty 17 7 0 10 -262144 -1 -1 0
1;
#X obj 196 327 sel 0;
#X msg 237 371 1;
#X msg 203 393 0;
#X obj 267 405 spigot;
#X obj 311 628 outlet;
#X obj 294 283 sel 1;
#X obj 408 285 sel 1;
#X obj 437 430 tgl 15 0 empty empty empty 17 7 0 10 -262144 -1 -1 0
1;
#X msg 416 338 1;
#X msg 464 348 0;
#X obj 416 95 inlet;
#X connect 0 0 1 0;
#X connect 0 1 2 0;
#X connect 0 2 3 0;
#X connect 1 0 16 0;
#X connect 2 0 4 0;
#X connect 3 0 17 0;
#X connect 4 0 5 0;
#X connect 5 0 6 0;
#X connect 6 0 9 0;
#X connect 7 0 14 0;
#X connect 8 0 6 1;
#X connect 9 0 11 0;
#X connect 9 0 15 0;
#X connect 10 0 14 1;
#X connect 11 0 13 0;
#X connect 11 1 12 0;
#X connect 12 0 10 0;
#X connect 13 0 10 0;
#X connect 14 0 6 0;
#X connect 16 0 8 0;
#X connect 16 1 7 0;
#X connect 17 0 19 0;
#X connect 17 1 20 0;
#X connect 18 0 6 1;
#X connect 19 0 18 0;
#X connect 20 0 18 0;
#X connect 21 0 16 1;
#X restore 1271 457 pd buttons;
#N canvas 855 107 450 300 buttons 0;
#X obj 328 105 notein;
#X floatatom 302 206 5 0 0 0 - - -;
#X floatatom 348 215 5 0 0 0 - - -;
#X floatatom 401 210 5 0 0 0 - - -;
#X obj 355 294 / 127;
#X floatatom 373 379 5 0 0 0 - - -;
#X obj 313 473 spigot;
#X msg 281 344 0;
#X msg 321 363 1;
#X floatatom 313 517 5 0 0 0 - - -;
#X obj 237 480 tgl 15 0 empty empty empty 17 7 0 10 -262144 -1 -1 0
1;
#X obj 196 327 sel 0;
#X msg 237 371 1;
#X msg 203 393 0;
#X obj 267 405 spigot;
#X obj 311 628 outlet;
#X obj 294 283 sel 1;
#X obj 408 285 sel 1;
#X obj 437 430 tgl 15 0 empty empty empty 17 7 0 10 -262144 -1 -1 0
1;
#X msg 416 338 1;
#X msg 464 348 0;
#X obj 416 95 inlet;
#X connect 0 0 1 0;
#X connect 0 1 2 0;
#X connect 0 2 3 0;
#X connect 1 0 16 0;
#X connect 2 0 4 0;
#X connect 3 0 17 0;
#X connect 4 0 5 0;
#X connect 5 0 6 0;
#X connect 6 0 9 0;
#X connect 7 0 14 0;
#X connect 8 0 6 1;
#X connect 9 0 11 0;
#X connect 9 0 15 0;
#X connect 10 0 14 1;
#X connect 11 0 13 0;
#X connect 11 1 12 0;
#X connect 12 0 10 0;
#X connect 13 0 10 0;
#X connect 14 0 6 0;
#X connect 16 0 8 0;
#X connect 16 1 7 0;
#X connect 17 0 19 0;
#X connect 17 1 20 0;
#X connect 18 0 6 1;
#X connect 19 0 18 0;
#X connect 20 0 18 0;
#X connect 21 0 16 1;
#X restore 1360 458 pd buttons;
#N canvas 855 107 450 300 buttons 0;
#X obj 328 105 notein;
#X floatatom 302 206 5 0 0 0 - - -;
#X floatatom 348 215 5 0 0 0 - - -;
#X floatatom 401 210 5 0 0 0 - - -;
#X obj 355 294 / 127;
#X floatatom 373 379 5 0 0 0 - - -;
#X obj 313 473 spigot;
#X msg 281 344 0;
#X msg 321 363 1;
#X floatatom 313 517 5 0 0 0 - - -;
#X obj 237 480 tgl 15 0 empty empty empty 17 7 0 10 -262144 -1 -1 0
1;
#X obj 196 327 sel 0;
#X msg 237 371 1;
#X msg 203 393 0;
#X obj 267 405 spigot;
#X obj 311 628 outlet;
#X obj 294 283 sel 1;
#X obj 408 285 sel 1;
#X obj 437 430 tgl 15 0 empty empty empty 17 7 0 10 -262144 -1 -1 0
1;
#X msg 416 338 1;
#X msg 464 348 0;
#X obj 416 95 inlet;
#X connect 0 0 1 0;
#X connect 0 1 2 0;
#X connect 0 2 3 0;
#X connect 1 0 16 0;
#X connect 2 0 4 0;
#X connect 3 0 17 0;
#X connect 4 0 5 0;
#X connect 5 0 6 0;
#X connect 6 0 9 0;
#X connect 7 0 14 0;
#X connect 8 0 6 1;
#X connect 9 0 11 0;
#X connect 9 0 15 0;
#X connect 10 0 14 1;
#X connect 11 0 13 0;
#X connect 11 1 12 0;
#X connect 12 0 10 0;
#X connect 13 0 10 0;
#X connect 14 0 6 0;
#X connect 16 0 8 0;
#X connect 16 1 7 0;
#X connect 17 0 19 0;
#X connect 17 1 20 0;
#X connect 18 0 6 1;
#X connect 19 0 18 0;
#X connect 20 0 18 0;
#X connect 21 0 16 1;
#X restore 1449 459 pd buttons;
#N canvas 855 107 450 300 buttons 0;
#X obj 328 105 notein;
#X floatatom 302 206 5 0 0 0 - - -;
#X floatatom 348 215 5 0 0 0 - - -;
#X floatatom 401 210 5 0 0 0 - - -;
#X obj 355 294 / 127;
#X floatatom 373 379 5 0 0 0 - - -;
#X obj 313 473 spigot;
#X msg 281 344 0;
#X msg 321 363 1;
#X floatatom 313 517 5 0 0 0 - - -;
#X obj 237 480 tgl 15 0 empty empty empty 17 7 0 10 -262144 -1 -1 0
1;
#X obj 196 327 sel 0;
#X msg 237 371 1;
#X msg 203 393 0;
#X obj 267 405 spigot;
#X obj 311 628 outlet;
#X obj 294 283 sel 1;
#X obj 408 285 sel 1;
#X obj 437 430 tgl 15 0 empty empty empty 17 7 0 10 -262144 -1 -1 0
1;
#X msg 416 338 1;
#X msg 464 348 0;
#X obj 416 95 inlet;
#X connect 0 0 1 0;
#X connect 0 1 2 0;
#X connect 0 2 3 0;
#X connect 1 0 16 0;
#X connect 2 0 4 0;
#X connect 3 0 17 0;
#X connect 4 0 5 0;
#X connect 5 0 6 0;
#X connect 6 0 9 0;
#X connect 7 0 14 0;
#X connect 8 0 6 1;
#X connect 9 0 11 0;
#X connect 9 0 15 0;
#X connect 10 0 14 1;
#X connect 11 0 13 0;
#X connect 11 1 12 0;
#X connect 12 0 10 0;
#X connect 13 0 10 0;
#X connect 14 0 6 0;
#X connect 16 0 8 0;
#X connect 16 1 7 0;
#X connect 17 0 19 0;
#X connect 17 1 20 0;
#X connect 18 0 6 1;
#X connect 19 0 18 0;
#X connect 20 0 18 0;
#X connect 21 0 16 1;
#X restore 1538 460 pd buttons;
#X obj 1072 43 unpack 0 0 0 0 0 0 0 0 0 0 0 0 0 0 0 0 0 0 0 0 0 0 0
0 0 0 0 0 0 0 0 0 0 0 0 0 0 0 0 0;
#X msg 999 113 0 1 2 3 4 5 6 7 8 9 10 11 12 13 14 15 16 17 18 19 20
21 22 23 24 25 26 27 28 29 30 31 32 33 34 35 36 37 38 39;
#X obj 911 54 loadbang;
#X obj 35 630 outlet;
#X obj 115 633 outlet;
#X obj 2516 693 outlet;
#X obj 247 636 outlet;
#X obj 313 634 outlet;
#X obj 373 635 outlet;
#X obj 435 635 outlet;
#X obj 496 638 outlet;
#X obj 564 642 outlet;
#X obj 624 642 outlet;
#X obj 689 648 outlet;
#X obj 747 647 outlet;
#X obj 803 650 outlet;
#X obj 858 649 outlet;
#X obj 923 650 outlet;
#X obj 998 655 outlet;
#X obj 1068 654 outlet;
#X obj 1148 657 outlet;
#X obj 1212 659 outlet;
#X obj 1280 660 outlet;
#X obj 1346 658 outlet;
#X obj 1406 659 outlet;
#X obj 1468 659 outlet;
#X obj 1529 662 outlet;
#X obj 1597 666 outlet;
#X obj 1657 666 outlet;
#X obj 1722 672 outlet;
#X obj 1780 671 outlet;
#X obj 1836 674 outlet;
#X obj 1891 673 outlet;
#X obj 1956 674 outlet;
#X obj 2031 679 outlet;
#X obj 2099 683 outlet;
#X obj 2159 683 outlet;
#X obj 2224 689 outlet;
#X obj 2282 688 outlet;
#X obj 2338 691 outlet;
#X obj 2393 690 outlet;
#X obj 2458 691 outlet;
#X obj 2573 695 outlet;
#X connect 0 0 76 0;
#X connect 1 0 77 0;
#X connect 2 0 78 0;
#X connect 3 0 79 0;
#X connect 4 0 80 0;
#X connect 5 0 81 0;
#X connect 6 0 45 0;
#X connect 7 0 82 0;
#X connect 8 0 68 0;
#X connect 9 0 69 0;
#X connect 10 0 70 0;
#X connect 11 0 71 0;
#X connect 12 0 72 0;
#X connect 13 0 73 0;
#X connect 14 0 74 0;
#X connect 15 0 75 0;
#X connect 16 0 60 0;
#X connect 17 0 61 0;
#X connect 18 0 62 0;
#X connect 19 0 63 0;
#X connect 20 0 64 0;
#X connect 21 0 65 0;
#X connect 22 0 66 0;
#X connect 23 0 67 0;
#X connect 24 0 52 0;
#X connect 25 0 53 0;
#X connect 26 0 54 0;
#X connect 27 0 55 0;
#X connect 28 0 56 0;
#X connect 29 0 57 0;
#X connect 30 0 58 0;
#X connect 31 0 59 0;
#X connect 32 0 43 0;
#X connect 33 0 44 0;
#X connect 34 0 46 0;
#X connect 35 0 47 0;
#X connect 36 0 48 0;
#X connect 37 0 49 0;
#X connect 38 0 50 0;
#X connect 39 0 51 0;
#X connect 40 0 32 0;
#X connect 40 1 33 0;
#X connect 40 2 34 0;
#X connect 40 3 35 0;
#X connect 40 4 36 0;
#X connect 40 5 37 0;
#X connect 40 6 38 0;
#X connect 40 7 39 0;
#X connect 40 8 24 0;
#X connect 40 9 25 0;
#X connect 40 10 26 0;
#X connect 40 11 27 0;
#X connect 40 12 28 0;
#X connect 40 13 29 0;
#X connect 40 14 30 0;
#X connect 40 15 31 0;
#X connect 40 16 16 0;
#X connect 40 17 17 0;
#X connect 40 18 18 0;
#X connect 40 19 19 0;
#X connect 40 20 20 0;
#X connect 40 21 21 0;
#X connect 40 22 22 0;
#X connect 40 23 23 0;
#X connect 40 24 8 0;
#X connect 40 25 9 0;
#X connect 40 26 10 0;
#X connect 40 27 11 0;
#X connect 40 28 12 0;
#X connect 40 29 13 0;
#X connect 40 30 14 0;
#X connect 40 31 15 0;
#X connect 40 32 0 0;
#X connect 40 33 1 0;
#X connect 40 34 2 0;
#X connect 40 35 3 0;
#X connect 40 36 4 0;
#X connect 40 37 5 0;
#X connect 40 38 6 0;
#X connect 40 39 7 0;
#X connect 41 0 40 0;
#X connect 42 0 41 0;
#X restore 547 72 pd gridnote mono;
#X f 79;
#X connect 40 0 1 0;
#X connect 40 1 0 0;
#X connect 40 2 2 0;
#X connect 40 3 3 0;
#X connect 40 4 4 0;
#X connect 40 5 5 0;
#X connect 40 6 6 0;
#X connect 40 7 7 0;
#X connect 40 8 8 0;
#X connect 40 9 9 0;
#X connect 40 10 10 0;
#X connect 40 11 11 0;
#X connect 40 12 12 0;
#X connect 40 13 13 0;
#X connect 40 14 14 0;
#X connect 40 15 15 0;
#X connect 40 16 16 0;
#X connect 40 17 17 0;
#X connect 40 18 18 0;
#X connect 40 19 19 0;
#X connect 40 20 20 0;
#X connect 40 21 21 0;
#X connect 40 22 22 0;
#X connect 40 23 23 0;
#X connect 40 24 24 0;
#X connect 40 25 25 0;
#X connect 40 26 26 0;
#X connect 40 27 27 0;
#X connect 40 28 28 0;
#X connect 40 29 29 0;
#X connect 40 30 30 0;
#X connect 40 31 31 0;
#X connect 40 32 32 0;
#X connect 40 33 33 0;
#X connect 40 34 34 0;
#X connect 40 35 35 0;
#X connect 40 36 36 0;
#X connect 40 37 37 0;
#X connect 40 38 38 0;
#X connect 40 39 39 0;
#X restore 40 197 pd gridnotemmaster;
#N canvas 186 105 820 300 faderlight 0;
#X obj 794 334 vsl 15 128 0 127 0 0 empty k1 empty 0 -9 0 10 -262144
-1 -1 0 1;
#X obj 819 336 vsl 15 128 0 127 0 0 empty k2 empty 0 -9 0 10 -262144
-1 -1 0 1;
#X obj 850 337 vsl 15 128 0 127 0 0 empty k3 empty 0 -9 0 10 -262144
-1 -1 0 1;
#X obj 876 340 vsl 15 128 0 127 0 0 empty k4 empty 0 -9 0 10 -262144
-1 -1 0 1;
#X obj 904 344 vsl 15 128 0 127 0 0 empty k5 empty 0 -9 0 10 -262144
-1 -1 0 1;
#X obj 934 345 vsl 15 128 0 127 0 0 empty k6 empty 0 -9 0 10 -262144
-1 -1 0 1;
#X obj 965 344 vsl 15 128 0 127 0 0 empty k7 empty 0 0 0 10 -262144
-1 -1 0 1;
#X obj 995 348 vsl 15 128 0 127 0 0 empty k8 empty 0 0 0 10 -262144
-1 -1 0 1;
#N canvas 0 22 450 685 strip 0;
#X obj 37 37 inlet;
#X floatatom 37 61 5 0 0 0 - - -;
#X obj 43 144 > 1;
#X obj 90 144 > 25.4;
#X obj 158 144 > 50.8;
#X obj 46 222 tgl 15 0 empty empty empty 17 7 0 10 -262144 -1 -1 0
1;
#X obj 91 222 tgl 15 0 empty empty empty 17 7 0 10 -262144 -1 -1 0
1;
#X obj 128 222 tgl 15 0 empty empty empty 17 7 0 10 -262144 -1 -1 0
1;
#X obj 177 227 tgl 15 0 empty empty empty 17 7 0 10 -262144 -1 -1 0
1;
#X obj 230 222 tgl 15 0 empty empty empty 17 7 0 10 -262144 -1 -1 0
1;
#X obj 225 144 > 76.2;
#X obj 293 144 > 111.6;
#X floatatom 88 374 5 0 0 0 - - -;
#X floatatom 139 371 5 0 0 0 - - -;
#X obj 66 411 noteout;
#X msg 188 348 1;
#X obj 91 343 * 127;
#X floatatom 260 382 5 0 0 0 - - -;
#X floatatom 311 379 5 0 0 0 - - -;
#X obj 238 419 noteout;
#X msg 360 356 1;
#X obj 263 351 * 127;
#X floatatom 97 510 5 0 0 0 - - -;
#X floatatom 148 507 5 0 0 0 - - -;
#X obj 75 547 noteout;
#X msg 197 484 1;
#X obj 100 479 * 127;
#X floatatom 287 522 5 0 0 0 - - -;
#X floatatom 338 519 5 0 0 0 - - -;
#X obj 265 559 noteout;
#X msg 387 496 1;
#X obj 290 491 * 127;
#X floatatom 166 620 5 0 0 0 - - -;
#X floatatom 217 617 5 0 0 0 - - -;
#X obj 144 657 noteout;
#X msg 266 594 1;
#X obj 169 589 * 127;
#X msg 39 361 0;
#X msg 212 390 8;
#X msg 31 505 16;
#X msg 237 499 24;
#X msg 119 617 32;
#X connect 0 0 1 0;
#X connect 1 0 2 0;
#X connect 1 0 3 0;
#X connect 1 0 4 0;
#X connect 1 0 10 0;
#X connect 1 0 11 0;
#X connect 2 0 5 0;
#X connect 3 0 6 0;
#X connect 4 0 7 0;
#X connect 5 0 16 0;
#X connect 5 0 37 0;
#X connect 6 0 21 0;
#X connect 6 0 38 0;
#X connect 7 0 26 0;
#X connect 7 0 39 0;
#X connect 8 0 31 0;
#X connect 8 0 40 0;
#X connect 9 0 36 0;
#X connect 9 0 41 0;
#X connect 10 0 8 0;
#X connect 11 0 9 0;
#X connect 12 0 14 1;
#X connect 13 0 14 2;
#X connect 15 0 13 0;
#X connect 16 0 12 0;
#X connect 17 0 19 1;
#X connect 18 0 19 2;
#X connect 20 0 18 0;
#X connect 21 0 17 0;
#X connect 22 0 24 1;
#X connect 23 0 24 2;
#X connect 25 0 23 0;
#X connect 26 0 22 0;
#X connect 27 0 29 1;
#X connect 28 0 29 2;
#X connect 30 0 28 0;
#X connect 31 0 27 0;
#X connect 32 0 34 1;
#X connect 33 0 34 2;
#X connect 35 0 33 0;
#X connect 36 0 32 0;
#X connect 37 0 14 0;
#X connect 38 0 19 0;
#X connect 39 0 24 0;
#X connect 40 0 29 0;
#X connect 41 0 34 0;
#X restore 433 658 pd strip light;
#N canvas 0 22 450 685 strip 0;
#X obj 37 37 inlet;
#X floatatom 37 61 5 0 0 0 - - -;
#X obj 43 144 > 1;
#X obj 90 144 > 25.4;
#X obj 158 144 > 50.8;
#X obj 46 222 tgl 15 0 empty empty empty 17 7 0 10 -262144 -1 -1 0
1;
#X obj 91 222 tgl 15 0 empty empty empty 17 7 0 10 -262144 -1 -1 0
1;
#X obj 128 222 tgl 15 0 empty empty empty 17 7 0 10 -262144 -1 -1 0
1;
#X obj 177 227 tgl 15 0 empty empty empty 17 7 0 10 -262144 -1 -1 0
1;
#X obj 230 222 tgl 15 0 empty empty empty 17 7 0 10 -262144 -1 -1 0
1;
#X obj 225 144 > 76.2;
#X obj 293 144 > 111.6;
#X floatatom 88 374 5 0 0 0 - - -;
#X floatatom 139 371 5 0 0 0 - - -;
#X obj 66 411 noteout;
#X msg 188 348 1;
#X obj 91 343 * 127;
#X floatatom 260 382 5 0 0 0 - - -;
#X floatatom 311 379 5 0 0 0 - - -;
#X obj 238 419 noteout;
#X msg 360 356 1;
#X obj 263 351 * 127;
#X floatatom 97 510 5 0 0 0 - - -;
#X floatatom 148 507 5 0 0 0 - - -;
#X obj 75 547 noteout;
#X msg 197 484 1;
#X obj 100 479 * 127;
#X floatatom 287 522 5 0 0 0 - - -;
#X floatatom 338 519 5 0 0 0 - - -;
#X obj 265 559 noteout;
#X msg 387 496 1;
#X obj 290 491 * 127;
#X floatatom 166 620 5 0 0 0 - - -;
#X floatatom 217 617 5 0 0 0 - - -;
#X obj 144 657 noteout;
#X msg 266 594 1;
#X obj 169 589 * 127;
#X msg 39 361 1;
#X msg 212 390 9;
#X msg 31 505 17;
#X msg 237 499 25;
#X msg 119 617 33;
#X connect 0 0 1 0;
#X connect 1 0 2 0;
#X connect 1 0 3 0;
#X connect 1 0 4 0;
#X connect 1 0 10 0;
#X connect 1 0 11 0;
#X connect 2 0 5 0;
#X connect 3 0 6 0;
#X connect 4 0 7 0;
#X connect 5 0 16 0;
#X connect 5 0 37 0;
#X connect 6 0 21 0;
#X connect 6 0 38 0;
#X connect 7 0 26 0;
#X connect 7 0 39 0;
#X connect 8 0 31 0;
#X connect 8 0 40 0;
#X connect 9 0 36 0;
#X connect 9 0 41 0;
#X connect 10 0 8 0;
#X connect 11 0 9 0;
#X connect 12 0 14 1;
#X connect 13 0 14 2;
#X connect 15 0 13 0;
#X connect 16 0 12 0;
#X connect 17 0 19 1;
#X connect 18 0 19 2;
#X connect 20 0 18 0;
#X connect 21 0 17 0;
#X connect 22 0 24 1;
#X connect 23 0 24 2;
#X connect 25 0 23 0;
#X connect 26 0 22 0;
#X connect 27 0 29 1;
#X connect 28 0 29 2;
#X connect 30 0 28 0;
#X connect 31 0 27 0;
#X connect 32 0 34 1;
#X connect 33 0 34 2;
#X connect 35 0 33 0;
#X connect 36 0 32 0;
#X connect 37 0 14 0;
#X connect 38 0 19 0;
#X connect 39 0 24 0;
#X connect 40 0 29 0;
#X connect 41 0 34 0;
#X restore 542 660 pd strip light;
#X obj 432 629 spigot;
#X obj 540 632 spigot;
#X obj 654 267 tgl 30 0 empty empty empty 17 7 0 10 -262144 -1 -1 0
1;
#N canvas 0 22 450 685 strip 0;
#X obj 37 37 inlet;
#X floatatom 37 61 5 0 0 0 - - -;
#X obj 43 144 > 1;
#X obj 90 144 > 25.4;
#X obj 158 144 > 50.8;
#X obj 46 222 tgl 15 0 empty empty empty 17 7 0 10 -262144 -1 -1 0
1;
#X obj 91 222 tgl 15 0 empty empty empty 17 7 0 10 -262144 -1 -1 0
1;
#X obj 128 222 tgl 15 0 empty empty empty 17 7 0 10 -262144 -1 -1 0
1;
#X obj 177 227 tgl 15 0 empty empty empty 17 7 0 10 -262144 -1 -1 0
1;
#X obj 230 222 tgl 15 0 empty empty empty 17 7 0 10 -262144 -1 -1 0
1;
#X obj 225 144 > 76.2;
#X obj 293 144 > 111.6;
#X floatatom 88 374 5 0 0 0 - - -;
#X floatatom 139 371 5 0 0 0 - - -;
#X obj 66 411 noteout;
#X msg 188 348 1;
#X obj 91 343 * 127;
#X floatatom 260 382 5 0 0 0 - - -;
#X floatatom 311 379 5 0 0 0 - - -;
#X obj 238 419 noteout;
#X msg 360 356 1;
#X obj 263 351 * 127;
#X floatatom 97 510 5 0 0 0 - - -;
#X floatatom 148 507 5 0 0 0 - - -;
#X obj 75 547 noteout;
#X msg 197 484 1;
#X obj 100 479 * 127;
#X floatatom 287 522 5 0 0 0 - - -;
#X floatatom 338 519 5 0 0 0 - - -;
#X obj 265 559 noteout;
#X msg 387 496 1;
#X obj 290 491 * 127;
#X floatatom 166 620 5 0 0 0 - - -;
#X floatatom 217 617 5 0 0 0 - - -;
#X obj 144 657 noteout;
#X msg 266 594 1;
#X obj 169 589 * 127;
#X msg 39 361 2;
#X msg 212 390 10;
#X msg 31 505 18;
#X msg 237 499 26;
#X msg 119 616 34;
#X connect 0 0 1 0;
#X connect 1 0 2 0;
#X connect 1 0 3 0;
#X connect 1 0 4 0;
#X connect 1 0 10 0;
#X connect 1 0 11 0;
#X connect 2 0 5 0;
#X connect 3 0 6 0;
#X connect 4 0 7 0;
#X connect 5 0 16 0;
#X connect 5 0 37 0;
#X connect 6 0 21 0;
#X connect 6 0 38 0;
#X connect 7 0 26 0;
#X connect 7 0 39 0;
#X connect 8 0 31 0;
#X connect 8 0 40 0;
#X connect 9 0 36 0;
#X connect 9 0 41 0;
#X connect 10 0 8 0;
#X connect 11 0 9 0;
#X connect 12 0 14 1;
#X connect 13 0 14 2;
#X connect 15 0 13 0;
#X connect 16 0 12 0;
#X connect 17 0 19 1;
#X connect 18 0 19 2;
#X connect 20 0 18 0;
#X connect 21 0 17 0;
#X connect 22 0 24 1;
#X connect 23 0 24 2;
#X connect 25 0 23 0;
#X connect 26 0 22 0;
#X connect 27 0 29 1;
#X connect 28 0 29 2;
#X connect 30 0 28 0;
#X connect 31 0 27 0;
#X connect 32 0 34 1;
#X connect 33 0 34 2;
#X connect 35 0 33 0;
#X connect 36 0 32 0;
#X connect 37 0 14 0;
#X connect 38 0 19 0;
#X connect 39 0 24 0;
#X connect 40 0 29 0;
#X connect 41 0 34 0;
#X restore 658 660 pd strip light;
#N canvas 0 22 450 685 strip 0;
#X obj 37 37 inlet;
#X floatatom 37 61 5 0 0 0 - - -;
#X obj 43 144 > 1;
#X obj 90 144 > 25.4;
#X obj 158 144 > 50.8;
#X obj 46 222 tgl 15 0 empty empty empty 17 7 0 10 -262144 -1 -1 0
1;
#X obj 91 222 tgl 15 0 empty empty empty 17 7 0 10 -262144 -1 -1 0
1;
#X obj 128 222 tgl 15 0 empty empty empty 17 7 0 10 -262144 -1 -1 0
1;
#X obj 177 227 tgl 15 0 empty empty empty 17 7 0 10 -262144 -1 -1 0
1;
#X obj 230 222 tgl 15 0 empty empty empty 17 7 0 10 -262144 -1 -1 0
1;
#X obj 225 144 > 76.2;
#X obj 293 144 > 111.6;
#X floatatom 88 374 5 0 0 0 - - -;
#X floatatom 139 371 5 0 0 0 - - -;
#X obj 66 411 noteout;
#X msg 188 348 1;
#X obj 91 343 * 127;
#X floatatom 260 382 5 0 0 0 - - -;
#X floatatom 311 379 5 0 0 0 - - -;
#X obj 238 419 noteout;
#X msg 360 356 1;
#X obj 263 351 * 127;
#X floatatom 97 510 5 0 0 0 - - -;
#X floatatom 148 507 5 0 0 0 - - -;
#X obj 75 547 noteout;
#X msg 197 484 1;
#X obj 100 479 * 127;
#X floatatom 287 522 5 0 0 0 - - -;
#X floatatom 338 519 5 0 0 0 - - -;
#X obj 265 559 noteout;
#X msg 387 496 1;
#X obj 290 491 * 127;
#X floatatom 166 620 5 0 0 0 - - -;
#X floatatom 217 617 5 0 0 0 - - -;
#X obj 144 657 noteout;
#X msg 266 594 1;
#X obj 169 589 * 127;
#X msg 39 361 3;
#X msg 212 390 11;
#X msg 31 505 19;
#X msg 237 499 27;
#X msg 119 617 35;
#X connect 0 0 1 0;
#X connect 1 0 2 0;
#X connect 1 0 3 0;
#X connect 1 0 4 0;
#X connect 1 0 10 0;
#X connect 1 0 11 0;
#X connect 2 0 5 0;
#X connect 3 0 6 0;
#X connect 4 0 7 0;
#X connect 5 0 16 0;
#X connect 5 0 37 0;
#X connect 6 0 21 0;
#X connect 6 0 38 0;
#X connect 7 0 26 0;
#X connect 7 0 39 0;
#X connect 8 0 31 0;
#X connect 8 0 40 0;
#X connect 9 0 36 0;
#X connect 9 0 41 0;
#X connect 10 0 8 0;
#X connect 11 0 9 0;
#X connect 12 0 14 1;
#X connect 13 0 14 2;
#X connect 15 0 13 0;
#X connect 16 0 12 0;
#X connect 17 0 19 1;
#X connect 18 0 19 2;
#X connect 20 0 18 0;
#X connect 21 0 17 0;
#X connect 22 0 24 1;
#X connect 23 0 24 2;
#X connect 25 0 23 0;
#X connect 26 0 22 0;
#X connect 27 0 29 1;
#X connect 28 0 29 2;
#X connect 30 0 28 0;
#X connect 31 0 27 0;
#X connect 32 0 34 1;
#X connect 33 0 34 2;
#X connect 35 0 33 0;
#X connect 36 0 32 0;
#X connect 37 0 14 0;
#X connect 38 0 19 0;
#X connect 39 0 24 0;
#X connect 40 0 29 0;
#X connect 41 0 34 0;
#X restore 799 662 pd strip light;
#X obj 657 631 spigot;
#X obj 797 634 spigot;
#N canvas 0 22 450 685 strip 0;
#X obj 37 37 inlet;
#X floatatom 37 61 5 0 0 0 - - -;
#X obj 43 144 > 1;
#X obj 90 144 > 25.4;
#X obj 158 144 > 50.8;
#X obj 46 222 tgl 15 0 empty empty empty 17 7 0 10 -262144 -1 -1 0
1;
#X obj 91 222 tgl 15 0 empty empty empty 17 7 0 10 -262144 -1 -1 0
1;
#X obj 128 222 tgl 15 0 empty empty empty 17 7 0 10 -262144 -1 -1 0
1;
#X obj 177 227 tgl 15 0 empty empty empty 17 7 0 10 -262144 -1 -1 0
1;
#X obj 230 222 tgl 15 0 empty empty empty 17 7 0 10 -262144 -1 -1 0
1;
#X obj 225 144 > 76.2;
#X obj 293 144 > 111.6;
#X floatatom 88 374 5 0 0 0 - - -;
#X floatatom 139 371 5 0 0 0 - - -;
#X obj 66 411 noteout;
#X msg 188 348 1;
#X obj 91 343 * 127;
#X floatatom 260 382 5 0 0 0 - - -;
#X floatatom 311 379 5 0 0 0 - - -;
#X obj 238 419 noteout;
#X msg 360 356 1;
#X obj 263 351 * 127;
#X floatatom 97 510 5 0 0 0 - - -;
#X floatatom 148 507 5 0 0 0 - - -;
#X obj 75 547 noteout;
#X msg 197 484 1;
#X obj 100 479 * 127;
#X floatatom 287 522 5 0 0 0 - - -;
#X floatatom 338 519 5 0 0 0 - - -;
#X obj 265 559 noteout;
#X msg 387 496 1;
#X obj 290 491 * 127;
#X floatatom 166 620 5 0 0 0 - - -;
#X floatatom 217 617 5 0 0 0 - - -;
#X obj 144 657 noteout;
#X msg 266 594 1;
#X obj 169 589 * 127;
#X msg 39 361 4;
#X msg 212 390 12;
#X msg 31 505 20;
#X msg 237 499 28;
#X msg 119 618 36;
#X connect 0 0 1 0;
#X connect 1 0 2 0;
#X connect 1 0 3 0;
#X connect 1 0 4 0;
#X connect 1 0 10 0;
#X connect 1 0 11 0;
#X connect 2 0 5 0;
#X connect 3 0 6 0;
#X connect 4 0 7 0;
#X connect 5 0 16 0;
#X connect 5 0 37 0;
#X connect 6 0 21 0;
#X connect 6 0 38 0;
#X connect 7 0 26 0;
#X connect 7 0 39 0;
#X connect 8 0 31 0;
#X connect 8 0 40 0;
#X connect 9 0 36 0;
#X connect 9 0 41 0;
#X connect 10 0 8 0;
#X connect 11 0 9 0;
#X connect 12 0 14 1;
#X connect 13 0 14 2;
#X connect 15 0 13 0;
#X connect 16 0 12 0;
#X connect 17 0 19 1;
#X connect 18 0 19 2;
#X connect 20 0 18 0;
#X connect 21 0 17 0;
#X connect 22 0 24 1;
#X connect 23 0 24 2;
#X connect 25 0 23 0;
#X connect 26 0 22 0;
#X connect 27 0 29 1;
#X connect 28 0 29 2;
#X connect 30 0 28 0;
#X connect 31 0 27 0;
#X connect 32 0 34 1;
#X connect 33 0 34 2;
#X connect 35 0 33 0;
#X connect 36 0 32 0;
#X connect 37 0 14 0;
#X connect 38 0 19 0;
#X connect 39 0 24 0;
#X connect 40 0 29 0;
#X connect 41 0 34 0;
#X restore 915 661 pd strip light;
#N canvas 0 22 450 685 strip 0;
#X obj 37 37 inlet;
#X floatatom 37 61 5 0 0 0 - - -;
#X obj 43 144 > 1;
#X obj 90 144 > 25.4;
#X obj 158 144 > 50.8;
#X obj 46 222 tgl 15 0 empty empty empty 17 7 0 10 -262144 -1 -1 0
1;
#X obj 91 222 tgl 15 0 empty empty empty 17 7 0 10 -262144 -1 -1 0
1;
#X obj 128 222 tgl 15 0 empty empty empty 17 7 0 10 -262144 -1 -1 0
1;
#X obj 177 227 tgl 15 0 empty empty empty 17 7 0 10 -262144 -1 -1 0
1;
#X obj 230 222 tgl 15 0 empty empty empty 17 7 0 10 -262144 -1 -1 0
1;
#X obj 225 144 > 76.2;
#X obj 293 144 > 111.6;
#X floatatom 88 374 5 0 0 0 - - -;
#X floatatom 139 371 5 0 0 0 - - -;
#X obj 66 411 noteout;
#X msg 188 348 1;
#X obj 91 343 * 127;
#X floatatom 260 382 5 0 0 0 - - -;
#X floatatom 311 379 5 0 0 0 - - -;
#X obj 238 419 noteout;
#X msg 360 356 1;
#X obj 263 351 * 127;
#X floatatom 97 510 5 0 0 0 - - -;
#X floatatom 148 507 5 0 0 0 - - -;
#X obj 75 547 noteout;
#X msg 197 484 1;
#X obj 100 479 * 127;
#X floatatom 287 522 5 0 0 0 - - -;
#X floatatom 338 519 5 0 0 0 - - -;
#X obj 265 559 noteout;
#X msg 387 496 1;
#X obj 290 491 * 127;
#X floatatom 166 620 5 0 0 0 - - -;
#X floatatom 217 617 5 0 0 0 - - -;
#X obj 144 657 noteout;
#X msg 266 594 1;
#X obj 169 589 * 127;
#X msg 119 617 37;
#X msg 39 361 5;
#X msg 212 390 13;
#X msg 31 505 21;
#X msg 237 499 29;
#X connect 0 0 1 0;
#X connect 1 0 2 0;
#X connect 1 0 3 0;
#X connect 1 0 4 0;
#X connect 1 0 10 0;
#X connect 1 0 11 0;
#X connect 2 0 5 0;
#X connect 3 0 6 0;
#X connect 4 0 7 0;
#X connect 5 0 16 0;
#X connect 5 0 38 0;
#X connect 6 0 21 0;
#X connect 6 0 39 0;
#X connect 7 0 26 0;
#X connect 7 0 40 0;
#X connect 8 0 31 0;
#X connect 8 0 41 0;
#X connect 9 0 36 0;
#X connect 9 0 37 0;
#X connect 10 0 8 0;
#X connect 11 0 9 0;
#X connect 12 0 14 1;
#X connect 13 0 14 2;
#X connect 15 0 13 0;
#X connect 16 0 12 0;
#X connect 17 0 19 1;
#X connect 18 0 19 2;
#X connect 20 0 18 0;
#X connect 21 0 17 0;
#X connect 22 0 24 1;
#X connect 23 0 24 2;
#X connect 25 0 23 0;
#X connect 26 0 22 0;
#X connect 27 0 29 1;
#X connect 28 0 29 2;
#X connect 30 0 28 0;
#X connect 31 0 27 0;
#X connect 32 0 34 1;
#X connect 33 0 34 2;
#X connect 35 0 33 0;
#X connect 36 0 32 0;
#X connect 37 0 34 0;
#X connect 38 0 14 0;
#X connect 39 0 19 0;
#X connect 40 0 24 0;
#X connect 41 0 29 0;
#X restore 1024 663 pd strip light;
#X obj 914 632 spigot;
#X obj 1022 635 spigot;
#N canvas 0 22 450 685 strip 0;
#X obj 37 37 inlet;
#X floatatom 37 61 5 0 0 0 - - -;
#X obj 43 144 > 1;
#X obj 90 144 > 25.4;
#X obj 158 144 > 50.8;
#X obj 46 222 tgl 15 0 empty empty empty 17 7 0 10 -262144 -1 -1 0
1;
#X obj 91 222 tgl 15 0 empty empty empty 17 7 0 10 -262144 -1 -1 0
1;
#X obj 128 222 tgl 15 0 empty empty empty 17 7 0 10 -262144 -1 -1 0
1;
#X obj 177 227 tgl 15 0 empty empty empty 17 7 0 10 -262144 -1 -1 0
1;
#X obj 230 222 tgl 15 0 empty empty empty 17 7 0 10 -262144 -1 -1 0
1;
#X obj 225 144 > 76.2;
#X obj 293 144 > 111.6;
#X floatatom 88 374 5 0 0 0 - - -;
#X floatatom 139 371 5 0 0 0 - - -;
#X obj 66 411 noteout;
#X msg 188 348 1;
#X obj 91 343 * 127;
#X floatatom 260 382 5 0 0 0 - - -;
#X floatatom 311 379 5 0 0 0 - - -;
#X obj 238 419 noteout;
#X msg 360 356 1;
#X obj 263 351 * 127;
#X floatatom 97 510 5 0 0 0 - - -;
#X floatatom 148 507 5 0 0 0 - - -;
#X obj 75 547 noteout;
#X msg 197 484 1;
#X obj 100 479 * 127;
#X floatatom 287 522 5 0 0 0 - - -;
#X floatatom 338 519 5 0 0 0 - - -;
#X obj 265 559 noteout;
#X msg 387 496 1;
#X obj 290 491 * 127;
#X floatatom 166 620 5 0 0 0 - - -;
#X floatatom 217 617 5 0 0 0 - - -;
#X obj 144 657 noteout;
#X msg 266 594 1;
#X obj 169 589 * 127;
#X msg 39 361 6;
#X msg 212 390 14;
#X msg 31 505 22;
#X msg 237 499 30;
#X msg 119 616 38;
#X connect 0 0 1 0;
#X connect 1 0 2 0;
#X connect 1 0 3 0;
#X connect 1 0 4 0;
#X connect 1 0 10 0;
#X connect 1 0 11 0;
#X connect 2 0 5 0;
#X connect 3 0 6 0;
#X connect 4 0 7 0;
#X connect 5 0 16 0;
#X connect 5 0 37 0;
#X connect 6 0 21 0;
#X connect 6 0 38 0;
#X connect 7 0 26 0;
#X connect 7 0 39 0;
#X connect 8 0 31 0;
#X connect 8 0 40 0;
#X connect 9 0 36 0;
#X connect 9 0 41 0;
#X connect 10 0 8 0;
#X connect 11 0 9 0;
#X connect 12 0 14 1;
#X connect 13 0 14 2;
#X connect 15 0 13 0;
#X connect 16 0 12 0;
#X connect 17 0 19 1;
#X connect 18 0 19 2;
#X connect 20 0 18 0;
#X connect 21 0 17 0;
#X connect 22 0 24 1;
#X connect 23 0 24 2;
#X connect 25 0 23 0;
#X connect 26 0 22 0;
#X connect 27 0 29 1;
#X connect 28 0 29 2;
#X connect 30 0 28 0;
#X connect 31 0 27 0;
#X connect 32 0 34 1;
#X connect 33 0 34 2;
#X connect 35 0 33 0;
#X connect 36 0 32 0;
#X connect 37 0 14 0;
#X connect 38 0 19 0;
#X connect 39 0 24 0;
#X connect 40 0 29 0;
#X connect 41 0 34 0;
#X restore 1140 663 pd strip light;
#N canvas 0 22 450 685 strip 0;
#X obj 37 37 inlet;
#X floatatom 37 61 5 0 0 0 - - -;
#X obj 43 144 > 1;
#X obj 90 144 > 25.4;
#X obj 158 144 > 50.8;
#X obj 46 222 tgl 15 0 empty empty empty 17 7 0 10 -262144 -1 -1 0
1;
#X obj 91 222 tgl 15 0 empty empty empty 17 7 0 10 -262144 -1 -1 0
1;
#X obj 128 222 tgl 15 0 empty empty empty 17 7 0 10 -262144 -1 -1 0
1;
#X obj 177 227 tgl 15 0 empty empty empty 17 7 0 10 -262144 -1 -1 0
1;
#X obj 230 222 tgl 15 0 empty empty empty 17 7 0 10 -262144 -1 -1 0
1;
#X obj 225 144 > 76.2;
#X obj 293 144 > 111.6;
#X floatatom 88 374 5 0 0 0 - - -;
#X floatatom 139 371 5 0 0 0 - - -;
#X obj 66 411 noteout;
#X msg 188 348 1;
#X obj 91 343 * 127;
#X floatatom 260 382 5 0 0 0 - - -;
#X floatatom 311 379 5 0 0 0 - - -;
#X obj 238 419 noteout;
#X msg 360 356 1;
#X obj 263 351 * 127;
#X floatatom 97 510 5 0 0 0 - - -;
#X floatatom 148 507 5 0 0 0 - - -;
#X obj 75 547 noteout;
#X msg 197 484 1;
#X obj 100 479 * 127;
#X floatatom 287 522 5 0 0 0 - - -;
#X floatatom 338 519 5 0 0 0 - - -;
#X obj 265 559 noteout;
#X msg 387 496 1;
#X obj 290 491 * 127;
#X floatatom 166 620 5 0 0 0 - - -;
#X floatatom 217 617 5 0 0 0 - - -;
#X obj 144 657 noteout;
#X msg 266 594 1;
#X obj 169 589 * 127;
#X msg 119 617 39;
#X msg 39 361 7;
#X msg 212 390 15;
#X msg 31 504 23;
#X msg 237 499 31;
#X connect 0 0 1 0;
#X connect 1 0 2 0;
#X connect 1 0 3 0;
#X connect 1 0 4 0;
#X connect 1 0 10 0;
#X connect 1 0 11 0;
#X connect 2 0 5 0;
#X connect 3 0 6 0;
#X connect 4 0 7 0;
#X connect 5 0 16 0;
#X connect 5 0 38 0;
#X connect 6 0 21 0;
#X connect 6 0 39 0;
#X connect 7 0 26 0;
#X connect 7 0 40 0;
#X connect 8 0 31 0;
#X connect 8 0 41 0;
#X connect 9 0 36 0;
#X connect 9 0 37 0;
#X connect 10 0 8 0;
#X connect 11 0 9 0;
#X connect 12 0 14 1;
#X connect 13 0 14 2;
#X connect 15 0 13 0;
#X connect 16 0 12 0;
#X connect 17 0 19 1;
#X connect 18 0 19 2;
#X connect 20 0 18 0;
#X connect 21 0 17 0;
#X connect 22 0 24 1;
#X connect 23 0 24 2;
#X connect 25 0 23 0;
#X connect 26 0 22 0;
#X connect 27 0 29 1;
#X connect 28 0 29 2;
#X connect 30 0 28 0;
#X connect 31 0 27 0;
#X connect 32 0 34 1;
#X connect 33 0 34 2;
#X connect 35 0 33 0;
#X connect 36 0 32 0;
#X connect 37 0 34 0;
#X connect 38 0 14 0;
#X connect 39 0 19 0;
#X connect 40 0 24 0;
#X connect 41 0 29 0;
#X restore 1281 665 pd strip light;
#X obj 1139 634 spigot;
#X obj 1279 637 spigot;
#X obj 628 180 inlet;
#X obj 345 122 notein;
#X floatatom 319 223 5 0 0 0 - - -;
#X floatatom 365 232 5 0 0 0 - - -;
#X floatatom 418 227 5 0 0 0 - - -;
#X obj 372 311 / 127;
#X floatatom 390 396 5 0 0 0 - - -;
#X obj 330 490 spigot;
#X msg 298 361 0;
#X msg 338 380 1;
#X floatatom 330 534 5 0 0 0 - - -;
#X obj 254 497 tgl 15 0 empty empty empty 17 7 0 10 -262144 -1 -1 0
1;
#X obj 213 344 sel 0;
#X msg 254 388 1;
#X msg 220 410 0;
#X obj 284 422 spigot;
#X obj 425 302 sel 1;
#X obj 454 447 tgl 15 0 empty empty empty 17 7 0 10 -262144 -1 -1 0
1;
#X msg 433 355 1;
#X msg 481 365 0;
#X obj 311 300 sel 98;
#X obj 296 616 sel 1;
#X obj 300 649 tgl 15 0 empty empty empty 17 7 0 10 -262144 -1 -1 0
1;
#X connect 0 0 10 0;
#X connect 1 0 11 0;
#X connect 2 0 15 0;
#X connect 3 0 16 0;
#X connect 4 0 19 0;
#X connect 5 0 20 0;
#X connect 6 0 23 0;
#X connect 7 0 24 0;
#X connect 10 0 8 0;
#X connect 11 0 9 0;
#X connect 12 0 10 1;
#X connect 12 0 11 1;
#X connect 12 0 15 1;
#X connect 12 0 16 1;
#X connect 12 0 19 1;
#X connect 12 0 20 1;
#X connect 12 0 23 1;
#X connect 12 0 24 1;
#X connect 15 0 13 0;
#X connect 16 0 14 0;
#X connect 19 0 17 0;
#X connect 20 0 18 0;
#X connect 23 0 21 0;
#X connect 24 0 22 0;
#X connect 25 0 12 0;
#X connect 26 0 27 0;
#X connect 26 1 28 0;
#X connect 26 2 29 0;
#X connect 27 0 45 0;
#X connect 28 0 30 0;
#X connect 29 0 41 0;
#X connect 30 0 31 0;
#X connect 31 0 32 0;
#X connect 32 0 35 0;
#X connect 33 0 40 0;
#X connect 34 0 32 1;
#X connect 35 0 37 0;
#X connect 35 0 46 0;
#X connect 36 0 40 1;
#X connect 37 0 39 0;
#X connect 37 1 38 0;
#X connect 38 0 36 0;
#X connect 39 0 36 0;
#X connect 40 0 32 0;
#X connect 41 0 43 0;
#X connect 41 1 44 0;
#X connect 42 0 32 1;
#X connect 43 0 42 0;
#X connect 44 0 42 0;
#X connect 45 0 34 0;
#X connect 45 1 33 0;
#X connect 46 0 47 0;
#X connect 47 0 12 0;
#X restore 40 268 pd faderlight;
#X floatatom 178 170 5 0 0 0 - k1 -;
#X floatatom 227 171 5 0 0 0 - k2 -;
#X floatatom 276 170 5 0 0 0 - k3 -;
#X floatatom 325 171 5 0 0 0 - k4 -;
#X floatatom 179 199 5 0 0 0 - k5 -;
#X floatatom 326 200 5 0 0 0 - k8 -;
#X floatatom 228 199 5 0 0 0 - k6 -;
#X floatatom 276 198 5 0 0 0 - k7 -;
#N canvas 651 144 450 300 m0to100 0;
#X obj 174 62 inlet;
#X obj 178 250 outlet;
#X obj 172 127 * 0.77953;
#X obj 173 162 + 1;
#X connect 0 0 2 0;
#X connect 2 0 3 0;
#X connect 3 0 1 0;
#X restore 276 230 pd m0to100;
#X floatatom 276 254 5 0 0 0 - - -;
#N canvas 651 144 450 300 m0to100 0;
#X obj 171 90 inlet;
#X obj 172 166 outlet;
#X obj 172 128 * 0.787404;
#X connect 0 0 2 0;
#X connect 2 0 1 0;
#X restore 327 257 pd m0to100;
#X floatatom 327 281 10 0 0 0 - - -;
#X connect 49 0 54 0;
#X connect 51 0 52 0;
#X connect 52 0 53 0;
#X connect 54 0 55 0;
