#N canvas 0 23 1147 723 12;
#X obj 379 695 dac~, f 39;
#X obj 350 406 channelst;
#X obj 432 405 channelst;
#X obj 514 404 channelst;
#X obj 597 402 channelst;
#X obj 44 354 osc~;
#X obj 142 450 adr;
#X obj 84 329 osc~;
#X obj 26 245 mtof;
#X obj 52 402 *~;
#X obj 405 113 bng 15 250 50 0 empty empty empty 17 7 0 10 -262144
-1 -1;
#X obj 86 359 *~;
#X obj 237 261 vsl 15 128 0 1 0 0 empty empty empty 0 -9 0 10 -262144
-1 -1 0 1;
#X obj 19 202 int;
#X obj 194 207 int;
#X obj 160 209 int;
#X obj 123 209 int;
#X obj 87 208 int;
#X obj 47 207 int;
#X obj 156 595 freeverb~;
#X msg 35 531 roomsize 0.8;
#X obj 144 630 lop~ 1000;
#X obj 219 629 lop~ 1000;
#X obj 444 194 osc~ 0.01;
#X obj 445 233 snapshot~;
#X obj 445 263 + 1;
#X obj 427 168 metro 20;
#X obj 451 141 tgl 15 0 empty empty empty 17 7 0 10 -262144 -1 -1 0
1;
#X obj 445 293 / 4;
#X obj 356 233 snapshot~;
#X obj 356 263 + 1;
#X obj 334 166 metro 20;
#X obj 358 139 tgl 15 0 empty empty empty 17 7 0 10 -262144 -1 -1 0
1;
#X obj 355 194 osc~ 0.05;
#X floatatom 352 330 5 0 0 0 - - -;
#X obj 356 293 / 8;
#X obj 455 332 + 0.02;
#X obj 537 299 delread4~ delr;
#X obj 40 683 delwrite~ delr 500;
#X obj 184 684 delwrite~ dell 500;
#X obj 537 154 vsl 15 128 0 500 0 0 empty empty empty 0 -9 0 10 -262144
-1 -1 0 1;
#X obj 563 154 vsl 15 128 0 500 0 0 empty empty empty 0 -9 0 10 -262144
-1 -1 0 1;
#X obj 84 295 * 0.5;
#X obj 706 539 noise~;
#X obj 694 688 *~;
#X obj 799 118 snapshot~;
#X obj 799 150 + 1;
#X obj 784 45 metro 20;
#X obj 808 18 tgl 15 0 empty empty empty 17 7 0 10 -262144 -1 -1 1
1;
#X floatatom 799 213 5 0 0 0 - - -;
#X obj 799 180 / 8;
#X obj 838 538 noise~;
#X obj 845 707 *~;
#X obj 885 119 snapshot~;
#X obj 885 151 + 1;
#X obj 870 46 metro 20;
#X obj 894 19 tgl 15 0 empty empty empty 17 7 0 10 -262144 -1 -1 1
1;
#X floatatom 885 212 5 0 0 0 - - -;
#X obj 885 181 / 8;
#X obj 449 8 tgl 15 0 empty empty empty 17 7 0 10 -262144 -1 -1 1 1
;
#X obj 449 40 metro 1000;
#X obj 549 8 tgl 15 0 empty empty empty 17 7 0 10 -262144 -1 -1 0 1
;
#X obj 549 41 metro 754;
#X obj 44 324 line;
#X obj 45 294 pack;
#X obj 631 10 tgl 15 0 empty empty empty 17 7 0 10 -262144 -1 -1 0
1;
#X obj 632 42 metro 2500;
#X obj 839 582 lop~ 50;
#X obj 706 587 lop~ 50;
#X obj 799 239 * 100;
#X obj 449 76 tgl 15 0 empty empty empty 17 7 0 10 -262144 -1 -1 0
1;
#X obj 549 76 tgl 15 0 empty empty empty 17 7 0 10 -262144 -1 -1 0
1;
#X obj 449 110 metro 125;
#X obj 549 109 metro 10000;
#X obj 354 372 spigot;
#X obj 400 334 tgl 15 0 empty empty empty 17 7 0 10 -262144 -1 -1 0
1;
#X obj 179 295 spigot;
#X obj 135 253 tgl 15 0 empty empty empty 17 7 0 10 -262144 -1 -1 0
1;
#X obj 135 295 sel 0;
#X obj 911 539 noise~;
#X obj 910 641 *~;
#X obj 797 373 snapshot~;
#X obj 797 411 + 1;
#X obj 796 301 metro 20;
#X obj 820 274 tgl 15 0 empty empty empty 17 7 0 10 -262144 -1 -1 1
1;
#X floatatom 797 461 5 0 0 0 - - -;
#X obj 797 437 / 8;
#X obj 998 539 noise~;
#X obj 998 636 *~;
#X obj 883 374 snapshot~;
#X obj 883 412 + 1;
#X obj 882 302 metro 20;
#X obj 906 275 tgl 15 0 empty empty empty 17 7 0 10 -262144 -1 -1 1
1;
#X floatatom 883 462 5 0 0 0 - - -;
#X obj 883 438 / 8;
#X obj 910 570 lop~ 1000;
#X obj 998 570 lop~ 1100;
#X obj 883 493 * 500;
#X obj 797 492 * 750;
#X obj 902 334 osc~ 0.043;
#X obj 811 334 osc~ 0.08432;
#X obj 885 80 osc~ 0.023;
#X obj 885 240 * 90;
#X msg 69 266 0;
#X obj 356 54 +;
#X floatatom 353 99 5 0 0 0 - - -;
#X msg 350 20 1;
#X obj 201 97 sel 0 1 2 3 4 5 6;
#X obj 205 44 % 7;
#X obj 231 201 int;
#X obj 27 96 unpack 0 0 0 0 0 0 0;
#X msg 22 15 57 64 69 60 73 71 75;
#X obj 772 538 noise~;
#X obj 773 583 lop~ 200;
#X obj 774 618 *~ 0.02;
#X obj 799 79 osc~ 0.1;
#X obj 860 670 osc~ 0.20634;
#X obj 1016 602 osc~ 0.10634;
#X obj 928 597 osc~ 0.02;
#X obj 710 654 osc~ 0.02;
#X obj 234 562 *~;
#X obj 142 563 *~;
#X obj 262 520 pow 2;
#X obj 262 379 vsl 15 128 0 1 0 0 empty empty empty 0 -9 0 10 -262144
-1 -1 1600 1;
#X obj 652 298 delread4~ dell;
#X msg 54 67 60 60 60 60 73 71 69;
#X msg 135 325 0.333;
#X msg 45 39 60 64 80 60 83 86 69;
#X obj 690 127 loadbang;
#X obj 537 329 *~ 0.5;
#X obj 652 327 *~ 0.5;
#X connect 1 0 0 0;
#X connect 1 0 39 0;
#X connect 1 1 0 1;
#X connect 1 1 38 0;
#X connect 2 0 0 0;
#X connect 2 1 0 1;
#X connect 3 0 19 0;
#X connect 3 1 19 1;
#X connect 4 0 0 0;
#X connect 4 0 19 0;
#X connect 4 1 0 1;
#X connect 4 1 19 1;
#X connect 5 0 9 0;
#X connect 6 0 121 0;
#X connect 6 0 1 4;
#X connect 6 1 120 0;
#X connect 6 1 1 5;
#X connect 7 0 11 0;
#X connect 8 0 42 0;
#X connect 8 0 64 0;
#X connect 8 0 103 0;
#X connect 9 0 6 1;
#X connect 9 0 6 0;
#X connect 10 0 6 8;
#X connect 10 0 106 0;
#X connect 11 0 9 1;
#X connect 12 0 11 1;
#X connect 13 0 8 0;
#X connect 14 0 8 0;
#X connect 15 0 8 0;
#X connect 16 0 8 0;
#X connect 17 0 8 0;
#X connect 18 0 8 0;
#X connect 19 0 21 0;
#X connect 19 1 22 0;
#X connect 20 0 19 0;
#X connect 21 0 2 4;
#X connect 22 0 2 5;
#X connect 23 0 24 0;
#X connect 24 0 25 0;
#X connect 25 0 28 0;
#X connect 26 0 24 0;
#X connect 27 0 26 0;
#X connect 28 0 36 0;
#X connect 29 0 30 0;
#X connect 30 0 35 0;
#X connect 31 0 29 0;
#X connect 32 0 31 0;
#X connect 33 0 29 0;
#X connect 34 0 74 0;
#X connect 35 0 34 0;
#X connect 37 0 129 0;
#X connect 40 0 37 0;
#X connect 41 0 124 0;
#X connect 42 0 7 0;
#X connect 43 0 68 0;
#X connect 44 0 4 5;
#X connect 45 0 46 0;
#X connect 46 0 50 0;
#X connect 47 0 45 0;
#X connect 48 0 47 0;
#X connect 49 0 69 0;
#X connect 50 0 49 0;
#X connect 51 0 67 0;
#X connect 52 0 4 4;
#X connect 53 0 54 0;
#X connect 54 0 58 0;
#X connect 55 0 53 0;
#X connect 56 0 55 0;
#X connect 57 0 76 0;
#X connect 57 0 102 0;
#X connect 58 0 57 0;
#X connect 59 0 60 0;
#X connect 60 0 10 0;
#X connect 61 0 62 0;
#X connect 62 0 10 0;
#X connect 63 0 5 0;
#X connect 64 0 63 0;
#X connect 65 0 66 0;
#X connect 66 0 10 0;
#X connect 67 0 52 0;
#X connect 68 0 44 0;
#X connect 69 0 68 1;
#X connect 70 0 72 0;
#X connect 71 0 73 0;
#X connect 72 0 10 0;
#X connect 73 0 10 0;
#X connect 74 0 6 6;
#X connect 75 0 74 1;
#X connect 76 0 42 1;
#X connect 77 0 76 1;
#X connect 77 0 78 0;
#X connect 78 0 126 0;
#X connect 79 0 95 0;
#X connect 80 0 4 4;
#X connect 81 0 82 0;
#X connect 82 0 86 0;
#X connect 83 0 81 0;
#X connect 84 0 83 0;
#X connect 85 0 98 0;
#X connect 86 0 85 0;
#X connect 87 0 96 0;
#X connect 88 0 4 5;
#X connect 89 0 90 0;
#X connect 90 0 94 0;
#X connect 91 0 89 0;
#X connect 92 0 91 0;
#X connect 93 0 97 0;
#X connect 94 0 93 0;
#X connect 95 0 80 0;
#X connect 96 0 88 0;
#X connect 97 0 96 1;
#X connect 98 0 95 1;
#X connect 99 0 89 0;
#X connect 100 0 81 0;
#X connect 101 0 53 0;
#X connect 102 0 67 1;
#X connect 103 0 64 1;
#X connect 104 0 105 0;
#X connect 105 0 104 1;
#X connect 105 0 108 0;
#X connect 106 0 104 0;
#X connect 107 0 13 0;
#X connect 107 1 18 0;
#X connect 107 2 17 0;
#X connect 107 3 16 0;
#X connect 107 4 15 0;
#X connect 107 5 14 0;
#X connect 107 6 109 0;
#X connect 108 0 107 0;
#X connect 109 0 8 0;
#X connect 110 0 13 1;
#X connect 110 1 18 1;
#X connect 110 2 17 1;
#X connect 110 3 16 1;
#X connect 110 4 15 1;
#X connect 110 5 14 1;
#X connect 110 6 109 0;
#X connect 111 0 110 0;
#X connect 112 0 113 0;
#X connect 113 0 114 0;
#X connect 114 0 4 5;
#X connect 114 0 4 4;
#X connect 115 0 45 0;
#X connect 116 0 52 1;
#X connect 117 0 88 1;
#X connect 118 0 80 1;
#X connect 119 0 44 1;
#X connect 120 0 19 1;
#X connect 121 0 19 0;
#X connect 122 0 120 1;
#X connect 122 0 121 1;
#X connect 123 0 122 0;
#X connect 124 0 130 0;
#X connect 125 0 110 0;
#X connect 126 0 42 1;
#X connect 127 0 110 0;
#X connect 128 0 48 0;
#X connect 128 0 56 0;
#X connect 128 0 84 0;
#X connect 128 0 92 0;
#X connect 129 0 38 0;
#X connect 129 0 3 5;
#X connect 129 0 1 5;
#X connect 130 0 39 0;
#X connect 130 0 3 4;
#X connect 130 0 1 4;
