#N canvas 68 23 754 652 12;
#X obj 193 430 *~;
#X obj 211 401 vline~;
#X obj 211 372 pack 0 0;
#X obj 211 279 pow;
#X obj 97 428 *~;
#X obj 115 399 vline~;
#X obj 115 370 pack 0 0;
#X obj 115 277 pow;
#X msg 133 244 2;
#X obj 105 132 vsl 50 50 1 20 0 0 empty empty empty 0 -9 0 10 -262144
-1 -1 1200 1;
#X obj 130 40 inlet;
#X obj 69 39 inlet~;
#X obj 186 40 inlet~;
#X obj 97 518 outlet~;
#X obj 182 518 outlet~;
#X obj 320 183 loadbang;
#X obj 278 100 * 19;
#X obj 278 135 + 1;
#X msg 313 233 1;
#X obj 140 107 bng 15 250 50 0 empty empty empty 17 7 0 10 -262144
-1 -1;
#X msg 264 335 20;
#X msg 168 333 20;
#X connect 0 0 14 0;
#X connect 1 0 0 1;
#X connect 2 0 1 0;
#X connect 3 0 20 0;
#X connect 3 0 2 0;
#X connect 4 0 13 0;
#X connect 5 0 4 1;
#X connect 6 0 5 0;
#X connect 7 0 21 0;
#X connect 7 0 6 0;
#X connect 8 0 7 1;
#X connect 8 0 3 1;
#X connect 9 0 7 0;
#X connect 9 0 3 0;
#X connect 10 0 16 0;
#X connect 11 0 4 0;
#X connect 12 0 0 0;
#X connect 15 0 8 0;
#X connect 15 0 18 0;
#X connect 16 0 17 0;
#X connect 17 0 9 0;
#X connect 18 0 9 0;
#X connect 19 0 18 0;
#X connect 20 0 2 1;
#X connect 21 0 6 1;
#X coords 0 -1 1 1 60 90 1 100 100;
