#N canvas 349 23 910 723 12;
#X obj 256 32 visim;
#X obj 213 297 channelst;
#X obj 274 634 dac~;
#X obj 314 185 freeverb~;
#X obj 296 297 channelst;
#X obj 403 226 lop~ 2000;
#X obj 484 226 lop~ 2000;
#X obj 72 208 *~;
#X obj 23 52 osc~ 220;
#X obj 37 135 +~;
#X obj 71 98 +~;
#X obj 109 44 osc~ 223;
#X obj 116 125 osc~ 109;
#X msg 189 158 roomsize 0.5;
#X obj 131 298 channelst;
#X obj 462 180 *~;
#X obj 413 24 osc~ 220;
#X obj 427 107 +~;
#X obj 461 70 +~;
#X obj 499 16 osc~ 223;
#X obj 506 97 osc~ 109;
#X obj 377 297 channelst;
#X obj 525 337 osc~ 550;
#X obj 603 337 osc~ 550;
#X obj 696 340 osc~ 550;
#X obj 729 292 *~ 500;
#X obj 558 289 *~ 1400;
#X obj 636 289 *~ 2000;
#X obj 559 216 phasor~ 3;
#X obj 637 243 phasor~ 4;
#X obj 730 246 phasor~ 5;
#X connect 0 0 1 4;
#X connect 0 0 3 0;
#X connect 0 0 7 1;
#X connect 0 1 1 5;
#X connect 0 1 3 1;
#X connect 0 1 15 1;
#X connect 1 0 2 0;
#X connect 1 1 2 1;
#X connect 3 0 5 0;
#X connect 3 1 6 0;
#X connect 4 0 2 0;
#X connect 4 1 2 1;
#X connect 5 0 4 4;
#X connect 6 0 4 5;
#X connect 7 0 14 4;
#X connect 7 0 3 0;
#X connect 8 0 9 0;
#X connect 9 0 10 0;
#X connect 10 0 7 0;
#X connect 11 0 10 1;
#X connect 12 0 9 1;
#X connect 13 0 3 0;
#X connect 14 0 2 0;
#X connect 14 1 2 1;
#X connect 15 0 14 5;
#X connect 15 0 3 1;
#X connect 16 0 17 0;
#X connect 17 0 18 0;
#X connect 18 0 15 0;
#X connect 19 0 18 1;
#X connect 20 0 17 1;
#X connect 21 0 2 0;
#X connect 21 1 2 1;
#X connect 22 0 21 4;
#X connect 23 0 21 5;
#X connect 24 0 21 5;
#X connect 24 0 21 4;
#X connect 25 0 24 0;
#X connect 26 0 22 0;
#X connect 27 0 23 0;
#X connect 28 0 26 0;
#X connect 29 0 27 0;
#X connect 30 0 25 0;
