#N canvas 68 23 742 421 12;
#X obj 349 391 dac~;
#X obj 333 120 channelst;
#X text 416 150 gain knob;
#X text 413 189 <----PAN - Mono/stereo toggle - value recall;
#X text 412 343 Volume/gain reset;
#X text 245 343 Mute toggle;
#X text 219 13 Recieve control for Volume 0-1 Volume 0-127 (midi) Mute
toggle 0 \, 1 Str/mono toggle 0 \, 1;
#X text 10 96 *channelst* ___________________________________________
| _______________________________________ | | / .-----------------------------------.
\ | | | | /\ : 90 min| | | | | |/--:....................... NR [ ]|
| | | | `-----------------------------------' | | | | //-\\\\ | | //-\\\\
| | | | ||( )|| |_________| ||( )|| | | | | \\\\-// :....:....: \\\\-//
| | | | _ _ ._ _ _ .__|_ _.._ _ | | | | (_(_)| |(_(/_| |_(_||_)(/_
| | | | low noise | | | | `______ ____________________ ____ ______'
| | / [] [] \  | | / () () \  | !______/___________________________________!
;
#X obj 412 46 osc~ 440;
#X obj 497 47 phasor~ 440;
#X obj 448 85 *~ 0.25;
#X obj 381 84 *~ 0.5;
#X connect 1 0 0 0;
#X connect 1 1 0 1;
#X connect 8 0 11 0;
#X connect 9 0 10 0;
#X connect 10 0 1 5;
#X connect 11 0 1 4;
