#N canvas 69 23 834 723 12;
#X obj 121 192 vu 10 120 empty empty -1 -8 0 10 -1 -262144 0 0;
#X obj 238 548 env~;
#X obj 134 192 vu 10 120 empty empty -1 -8 0 10 -1 -1 1 0;
#X obj 238 609 - 100;
#X obj 527 562 env~;
#X obj 527 610 - 100;
#X obj 289 479 *~;
#X obj 307 450 vline~;
#X obj 307 421 pack 0 0;
#X msg 360 384 10;
#X obj 461 483 *~;
#X obj 479 452 vline~;
#X obj 479 423 pack 0 0;
#X msg 532 381 10;
#X obj 717 23 inlet~;
#X obj 289 609 outlet~;
#X obj 461 609 outlet~;
#X obj 461 519 *~;
#X obj 289 512 *~;
#X obj 109 319 tgl 25 0 empty empty empty 17 7 0 10 -262144 -258113
-1 0 1;
#X obj 598 381 sel 1 0;
#X msg 598 431 0;
#X msg 634 429 1;
#X floatatom 598 471 5 0 0 0 - - -;
#X obj 599 577 vline~;
#X obj 598 540 pack 0 0;
#X obj 276 23 inlet;
#X obj 563 28 loadbang;
#X obj 562 144 pack 0 0;
#X msg 615 110 20;
#X obj 562 177 line;
#X obj 141 319 bng 25 250 50 0 empty empty empty 17 7 0 10 -262144
-1 -1;
#X msg 563 431 1;
#X obj 184 23 inlet;
#X msg 615 78 1;
#X obj 307 328 pow;
#X obj 104 191 vsl 15 120 0 1 0 0 empty empty empty 0 -9 0 10 -262144
-1 -1 11900 1;
#X msg 325 295 2;
#X msg 644 504 50;
#X obj 232 23 inlet;
#X obj 232 47 / 127;
#X obj 276 58 sel 1;
#X obj 276 92 bng 15 250 50 0 empty empty empty 17 7 0 10 -262144 -1
-1;
#X obj 109 169 hsl 15 15 0 1 0 0 empty empty empty -2 -8 0 10 -262144
-1 -1 700 1;
#X msg 470 63 0;
#X obj 693 385 *~;
#X obj 711 356 vline~;
#X obj 711 327 pack 0 0;
#X msg 764 290 10;
#X obj 711 234 pow;
#X obj 788 387 *~;
#X obj 806 358 vline~;
#X obj 806 329 pack 0 0;
#X msg 859 292 10;
#X obj 806 236 pow;
#X obj 769 143 - 1;
#X obj 768 173 * -1;
#X obj 923 28 inlet~;
#X obj 152 169 hsl 15 15 0 1 0 0 empty empty empty -2 -8 0 10 -262144
-1 -1 700 1;
#X obj 899 390 *~;
#X obj 917 361 vline~;
#X obj 917 332 pack 0 0;
#X msg 970 295 10;
#X obj 917 239 pow;
#X obj 994 392 *~;
#X obj 1012 363 vline~;
#X obj 1012 334 pack 0 0;
#X msg 1065 297 10;
#X obj 1012 241 pow;
#X obj 1181 215 *~;
#X obj 1199 186 vline~;
#X obj 1199 157 pack 0 0;
#X msg 1252 120 10;
#X obj 1199 64 pow;
#X obj 1085 213 *~;
#X obj 1103 184 vline~;
#X obj 1103 155 pack 0 0;
#X msg 1156 118 10;
#X obj 1103 62 pow;
#X msg 1121 29 2;
#X obj 112 113 vsl 50 50 0 5 0 0 empty empty empty 0 -9 0 10 -262144
-1 -1 980 1;
#X floatatom 753 248 5 0 0 0 - - -;
#X obj 934 143 - 1;
#X obj 933 173 * -1;
#X msg 871 181 1;
#X msg 186 545 0.5;
#X obj 130 169 tgl 15 0 empty empty empty 17 7 0 10 -262144 -1 -1 1
1;
#X floatatom 48 496 5 0 0 0 - - -;
#X floatatom 99 495 5 0 0 0 - - -;
#X obj 45 614 spigot;
#X obj 114 613 spigot;
#X obj 32 387 - 1;
#X obj 31 417 * -1;
#X obj 152 503 sel 0 1;
#X obj 325 23 inlet;
#X obj 42 673 float;
#X obj 116 669 float;
#X floatatom 235 643 5 0 0 0 - - -;
#X obj 238 580 * 1;
#X obj 582 633 * 1;
#X msg 486 94 1;
#X msg 517 106 0;
#X obj 175 631 del 20;
#X msg 317 106 1;
#X obj 325 58 sel 1 0;
#X msg 357 106 0;
#X connect 1 0 98 0;
#X connect 3 0 0 0;
#X connect 3 0 97 0;
#X connect 4 0 99 0;
#X connect 5 0 2 0;
#X connect 6 0 18 0;
#X connect 7 0 6 1;
#X connect 8 0 7 0;
#X connect 9 0 8 1;
#X connect 10 0 17 0;
#X connect 11 0 10 1;
#X connect 12 0 11 0;
#X connect 13 0 12 1;
#X connect 14 0 74 0;
#X connect 17 0 16 0;
#X connect 18 0 15 0;
#X connect 19 0 20 0;
#X connect 20 0 21 0;
#X connect 20 1 22 0;
#X connect 21 0 23 0;
#X connect 22 0 23 0;
#X connect 23 0 25 0;
#X connect 23 0 38 0;
#X connect 24 0 18 1;
#X connect 24 0 17 1;
#X connect 25 0 24 0;
#X connect 26 0 41 0;
#X connect 27 0 34 0;
#X connect 27 0 32 0;
#X connect 27 0 37 0;
#X connect 27 0 44 0;
#X connect 27 0 100 0;
#X connect 27 0 84 0;
#X connect 27 0 79 0;
#X connect 27 0 101 0;
#X connect 28 0 30 0;
#X connect 29 0 28 1;
#X connect 30 0 36 0;
#X connect 30 0 80 0;
#X connect 31 0 34 0;
#X connect 32 0 23 0;
#X connect 33 0 36 0;
#X connect 34 0 28 0;
#X connect 34 0 29 0;
#X connect 35 0 12 0;
#X connect 35 0 13 0;
#X connect 35 0 9 0;
#X connect 35 0 8 0;
#X connect 36 0 35 0;
#X connect 37 0 35 1;
#X connect 38 0 25 1;
#X connect 39 0 40 0;
#X connect 40 0 36 0;
#X connect 41 0 42 0;
#X connect 42 0 19 0;
#X connect 43 0 55 0;
#X connect 43 0 54 0;
#X connect 43 0 87 0;
#X connect 44 0 43 0;
#X connect 44 0 87 0;
#X connect 45 0 6 0;
#X connect 45 0 1 0;
#X connect 46 0 45 1;
#X connect 47 0 46 0;
#X connect 48 0 47 1;
#X connect 49 0 48 0;
#X connect 49 0 47 0;
#X connect 50 0 10 0;
#X connect 50 0 4 0;
#X connect 51 0 50 1;
#X connect 52 0 51 0;
#X connect 53 0 52 1;
#X connect 54 0 53 0;
#X connect 54 0 52 0;
#X connect 55 0 56 0;
#X connect 56 0 49 0;
#X connect 56 0 81 0;
#X connect 57 0 69 0;
#X connect 58 0 82 0;
#X connect 58 0 68 0;
#X connect 58 0 88 0;
#X connect 59 0 6 0;
#X connect 59 0 1 0;
#X connect 60 0 59 1;
#X connect 61 0 60 0;
#X connect 62 0 61 1;
#X connect 63 0 62 0;
#X connect 63 0 61 0;
#X connect 64 0 10 0;
#X connect 64 0 4 0;
#X connect 65 0 64 1;
#X connect 66 0 65 0;
#X connect 67 0 66 1;
#X connect 68 0 67 0;
#X connect 68 0 66 0;
#X connect 69 0 59 0;
#X connect 69 0 64 0;
#X connect 70 0 69 1;
#X connect 71 0 70 0;
#X connect 72 0 71 1;
#X connect 73 0 72 0;
#X connect 73 0 71 0;
#X connect 74 0 45 0;
#X connect 74 0 50 0;
#X connect 75 0 74 1;
#X connect 76 0 75 0;
#X connect 77 0 76 1;
#X connect 78 0 77 0;
#X connect 78 0 76 0;
#X connect 79 0 78 1;
#X connect 79 0 73 1;
#X connect 80 0 78 0;
#X connect 80 0 73 0;
#X connect 82 0 83 0;
#X connect 83 0 63 0;
#X connect 84 0 49 1;
#X connect 84 0 54 1;
#X connect 84 0 63 1;
#X connect 84 0 68 1;
#X connect 85 0 43 0;
#X connect 85 0 58 0;
#X connect 86 0 91 0;
#X connect 86 0 93 0;
#X connect 87 0 89 0;
#X connect 88 0 90 0;
#X connect 89 0 95 1;
#X connect 90 0 96 1;
#X connect 91 0 92 0;
#X connect 92 0 90 1;
#X connect 92 0 89 1;
#X connect 93 0 102 0;
#X connect 93 1 85 0;
#X connect 94 0 104 0;
#X connect 95 0 43 0;
#X connect 96 0 58 0;
#X connect 98 0 3 0;
#X connect 99 0 5 0;
#X connect 100 0 58 0;
#X connect 100 0 80 0;
#X connect 100 0 96 1;
#X connect 101 0 88 0;
#X connect 101 0 86 0;
#X connect 102 0 96 0;
#X connect 102 0 95 0;
#X connect 103 0 86 0;
#X connect 104 0 103 0;
#X connect 104 1 105 0;
#X connect 105 0 86 0;
#X coords 0 -1 1 1 75 250 2 100 100;
