#N canvas 68 23 1211 666 12;
#N canvas 68 23 1101 682 delay 0;
#X obj 770 49 delread4~ del\$0;
#X obj 864 295 pow;
#X msg 893 261 2;
#X obj 920 86 vsl 15 128 0 1 0 0 empty empty empty 0 -9 0 10 -262144
-1 -1 5500 1;
#X obj 816 165 *~ 0.5;
#X obj 859 350 * 4000;
#X obj 890 87 vsl 15 128 0 1 0 0 empty empty empty 0 -9 0 10 -262144
-1 -1 10900 1;
#X obj 850 417 pack 0 0;
#X obj 857 485 line;
#X msg 902 391 100;
#X obj 677 319 delwrite~ del\$0 500;
#X obj 766 7 inlet~;
#X obj 780 488 outlet~;
#X obj 933 -2 inlet;
#X obj 879 4 inlet;
#X connect 0 0 4 0;
#X connect 1 0 5 0;
#X connect 2 0 1 1;
#X connect 3 0 1 0;
#X connect 4 0 10 0;
#X connect 4 0 12 0;
#X connect 5 0 7 0;
#X connect 5 0 9 0;
#X connect 6 0 4 1;
#X connect 7 0 8 0;
#X connect 8 0 0 0;
#X connect 9 0 7 1;
#X connect 11 0 0 0;
#X connect 13 0 3 0;
#X connect 14 0 6 0;
#X restore 239 221 pd delay;
#N canvas 68 23 1101 682 delay 0;
#X obj 770 49 delread4~ del\$0;
#X obj 864 295 pow;
#X msg 893 261 2;
#X obj 920 86 vsl 15 128 0 1 0 0 empty empty empty 0 -9 0 10 -262144
-1 -1 4300 1;
#X obj 816 165 *~ 0.5;
#X obj 859 350 * 4000;
#X obj 890 87 vsl 15 128 0 1 0 0 empty empty empty 0 -9 0 10 -262144
-1 -1 10700 1;
#X obj 850 417 pack 0 0;
#X obj 857 485 line;
#X msg 902 391 100;
#X obj 677 319 delwrite~ del\$0 500;
#X obj 703 6 inlet~;
#X obj 780 488 outlet~;
#X obj 933 -2 inlet;
#X obj 879 4 inlet;
#X obj 972 216 loadbang;
#X connect 0 0 4 0;
#X connect 1 0 5 0;
#X connect 2 0 1 1;
#X connect 3 0 1 0;
#X connect 4 0 10 0;
#X connect 4 0 12 0;
#X connect 5 0 7 0;
#X connect 5 0 9 0;
#X connect 6 0 4 1;
#X connect 7 0 8 0;
#X connect 8 0 0 0;
#X connect 9 0 7 1;
#X connect 11 0 0 0;
#X connect 13 0 3 0;
#X connect 14 0 6 0;
#X connect 15 0 2 0;
#X restore 325 220 pd delay;
#X obj 209 92 inlet~;
#X obj 270 88 inlet~;
#X obj 383 113 inlet;
#X obj 442 113 inlet;
#X obj 495 113 inlet;
#X obj 554 113 inlet;
#X obj 267 372 outlet~;
#X obj 338 373 outlet~;
#X obj 107 111 vsl 15 128 0 1 0 0 empty empty empty 0 -9 0 10 -262144
-1 -1 10900 1;
#X obj 128 111 vsl 15 128 0 1 0 0 empty empty empty 0 -9 0 10 -262144
-1 -1 10700 1;
#X obj 158 111 vsl 15 128 0 1 0 0 empty empty empty 0 -9 0 10 -262144
-1 -1 5500 1;
#X obj 179 111 vsl 15 128 0 1 0 0 empty empty empty 0 -9 0 10 -262144
-1 -1 4300 1;
#X connect 0 0 8 0;
#X connect 1 0 9 0;
#X connect 2 0 0 0;
#X connect 3 0 1 0;
#X connect 4 0 0 1;
#X connect 5 0 1 1;
#X connect 6 0 0 2;
#X connect 7 0 1 2;
#X connect 10 0 0 1;
#X connect 11 0 1 1;
#X connect 12 0 0 2;
#X connect 13 0 1 2;
#X coords 0 -1 1 1 100 150 2 100 100;
