#N canvas 477 268 445 300 12;
#X floatatom 23 46 5 0 0 0 - - -;
#N canvas 651 144 450 300 m0to100 0;
#X obj 171 90 inlet;
#X obj 172 166 outlet;
#X obj 172 128 * 0.787404;
#X connect 0 0 2 0;
#X connect 2 0 1 0;
#X restore 113 23 pd m0to100;
#X floatatom 113 47 10 0 0 0 - - -;
#N canvas 651 144 450 300 m1to100 0;
#X obj 174 62 inlet;
#X obj 178 250 outlet;
#X obj 172 127 * 0.77953;
#X obj 173 162 + 1;
#X connect 0 0 2 0;
#X connect 2 0 3 0;
#X connect 3 0 1 0;
#X restore 23 22 pd m1to100;
#N canvas 755 133 450 300 0-1tom 0;
#X obj 63 109 inlet;
#X floatatom 63 147 5 0 0 0 - - -;
#X obj 62 179 * 127;
#X floatatom 59 223 5 0 0 0 - - -;
#X obj 59 266 outlet;
#X connect 0 0 1 0;
#X connect 1 0 2 0;
#X connect 2 0 3 0;
#X connect 3 0 4 0;
#X restore 204 24 pd 0-1tom;
#X floatatom 204 48 10 0 0 0 - - -;
#X connect 1 0 2 0;
#X connect 3 0 0 0;
#X connect 4 0 5 0;
