#N canvas 0 0 1026 878 12;
#X obj 254 789 ctlout;
#X obj 12 108 adc~;
#N canvas 1027 23 324 651 envbang 1;
#X obj 90 54 tgl 15 0 empty empty empty 17 7 0 10 -262144 -1 -1 1 1
;
#X obj 34 77 *~ 3;
#X obj 36 121 env~;
#X floatatom 36 153 5 0 0 0 - - -;
#X obj 164 161 vsl 15 128 0 127 0 0 empty empty empty 0 -9 0 10 -262144
-1 -1 0 1;
#X floatatom 34 206 5 0 0 0 - - -;
#X floatatom 33 347 5 0 0 0 - - -;
#X obj 90 86 metro 33.3;
#X obj 34 271 pack 0 0;
#X msg 89 241 100;
#X obj 38 426 spigot;
#X floatatom 39 453 5 0 0 0 - - -;
#X obj 53 382 > 0;
#X obj 35 181 - 40;
#X obj 242 51 spigot;
#X obj 241 19 <= 127;
#X floatatom 242 80 5 0 0 0 - - -;
#X floatatom 244 216 5 0 0 0 - - -;
#X obj 243 107 int;
#X floatatom 243 132 5 0 0 0 - - -;
#X obj 244 186 int;
#X obj 244 410 bng 50 250 50 0 envbang empty empty 17 7 0 10 -262144
-1 -1;
#X obj 244 330 spigot;
#X obj 258 298 !=;
#X floatatom 244 356 5 0 0 0 - - -;
#X obj 244 379 sel 1;
#X obj 31 305 line 0 1;
#X obj 243 158 / 70;
#X obj 242 482 outlet;
#X obj 90 19 loadbang;
#X obj 33 48 inlet~;
#X obj 90 122 tabwrite~ display2;
#X obj 35 232 * 3;
#X connect 0 0 7 0;
#X connect 1 0 2 0;
#X connect 1 0 31 0;
#X connect 2 0 3 0;
#X connect 3 0 13 0;
#X connect 4 0 15 0;
#X connect 4 0 14 0;
#X connect 5 0 32 0;
#X connect 6 0 10 0;
#X connect 6 0 12 0;
#X connect 7 0 31 0;
#X connect 8 0 26 0;
#X connect 9 0 8 1;
#X connect 10 0 11 0;
#X connect 11 0 4 0;
#X connect 12 0 10 1;
#X connect 13 0 5 0;
#X connect 14 0 16 0;
#X connect 15 0 14 1;
#X connect 16 0 18 0;
#X connect 17 0 23 0;
#X connect 17 0 23 1;
#X connect 17 0 22 0;
#X connect 18 0 19 0;
#X connect 19 0 27 0;
#X connect 20 0 17 0;
#X connect 21 0 28 0;
#X connect 22 0 24 0;
#X connect 23 0 22 1;
#X connect 24 0 25 0;
#X connect 25 0 21 0;
#X connect 26 0 6 0;
#X connect 27 0 20 0;
#X connect 29 0 0 0;
#X connect 30 0 1 0;
#X connect 32 0 8 0;
#X connect 32 0 9 0;
#X restore 15 151 pd envbang;
#N canvas 0 22 450 278 (subpatch) 0;
#X array display2 100 float 3;
#A 0 0 0 0 0 0 0 0 0 0 0 0 0 0 0 0 0 0 0 0 0 0 0 0 0 0 0 0 0 0 0 0
0 0 0 0 0 0 0 0 0 0 0 0 0 0 0 0 0 0 0 0 0 0 0 0 0 0 0 0 0 0 0 0 0 0
0 0 0 0 0 0 0 0 0 0 0 0 0 0 0 0 0 0 0 0 0 0 0 0 0 0 0 0 0 0 0 0 0 0
0;
#X coords 0 1 100 -1 200 140 1;
#X restore 230 26 graph;
#X obj 15 177 bng 100 250 50 0 empty empty empty 17 7 0 10 -262144
-1 -1;
#X msg 128 36 \; pd dsp 0;
#X msg 86 73 \; pd dsp 1;
#X obj 17 25 tgl 50 0 empty empty empty 17 7 0 10 -262144 -1 -1 1 1
;
#X obj 96 14 sel 1;
#X obj 248 600 vsl 15 128 0 127 0 0 empty empty empty 0 -9 0 10 -262144
-1 -1 0 1;
#X msg 301 733 1;
#X msg 268 733 1;
#X obj 285 707 bng 15 250 50 0 empty empty empty 17 7 0 10 -262144
-1 -1;
#X obj 256 490 del 100;
#X obj 606 798 ctlout;
#X obj 600 609 vsl 15 128 0 127 0 0 empty empty empty 0 -9 0 10 -262144
-1 -1 0 1;
#X msg 653 742 1;
#X obj 637 716 bng 15 250 50 0 empty empty empty 17 7 0 10 -262144
-1 -1;
#X obj 503 794 ctlout;
#X obj 497 605 vsl 15 128 0 127 0 0 empty empty empty 0 -9 0 10 -262144
-1 -1 0 1;
#X msg 551 739 1;
#X obj 534 712 bng 15 250 50 0 empty empty empty 17 7 0 10 -262144
-1 -1;
#X obj 33 803 ctlout;
#X obj 27 614 vsl 15 128 0 127 0 0 empty empty empty 0 -9 0 10 -262144
-1 -1 0 1;
#X msg 80 747 1;
#X obj 64 721 bng 15 250 50 0 empty empty empty 17 7 0 10 -262144 -1
-1;
#X obj 382 795 ctlout;
#X obj 376 606 vsl 15 128 0 127 0 0 empty empty empty 0 -9 0 10 -262144
-1 -1 0 1;
#X msg 429 739 1;
#X obj 413 713 bng 15 250 50 0 empty empty empty 17 7 0 10 -262144
-1 -1;
#X obj 143 796 ctlout;
#X obj 137 607 vsl 15 128 0 127 0 0 empty empty empty 0 -9 0 10 -262144
-1 -1 0 1;
#X msg 194 741 1;
#X obj 174 714 bng 15 250 50 0 empty empty empty 17 7 0 10 -262144
-1 -1;
#X msg 157 740 6;
#X msg 226 551 0;
#X msg 271 549 127;
#X obj 603 499 del 100;
#X msg 573 560 0;
#X msg 618 558 127;
#X obj 495 493 del 100;
#X msg 465 554 0;
#X msg 510 552 127;
#X obj 23 506 del 100;
#X msg -7 567 0;
#X msg 38 565 127;
#X obj 362 493 del 100;
#X msg 332 555 0;
#X msg 377 553 127;
#X obj 130 495 del 100;
#X msg 100 556 0;
#X msg 145 554 127;
#X obj 245 375 spigot;
#X obj 114 460 t b;
#X obj 231 446 t b;
#X obj 1 474 t b;
#X obj 339 447 t b;
#X obj 463 448 t b;
#X obj 573 440 t b;
#X obj 570 55 tgl 50 0 empty empty empty 17 7 0 10 -262144 -1 -1 0
1;
#X obj 447 342 spigot;
#X obj 448 370 sel 0 1 2 3 4 5;
#X obj 445 314 random 6;
#X obj 20 416 sel 0 1;
#X obj 51 382 random 2;
#X obj 22 346 spigot;
#X obj 192 302 sel 1 0;
#X obj 632 -5 tgl 50 0 empty empty empty 17 7 0 10 -262144 -1 -1 0
1;
#X obj 506 -2 tgl 50 0 empty empty empty 17 7 0 10 -262144 -1 -1 0
1;
#X obj 136 270 vradio 15 1 0 2 empty empty empty 0 -8 0 10 -262144
-1 -1 1;
#X obj 199 244 del 100;
#X obj 161 243 t b;
#X obj 182 272 tgl 15 0 empty empty empty 17 7 0 10 -262144 -1 -1 0
1;
#X obj 509 55 bng 50 250 50 0 empty empty empty 17 7 0 10 -262144 -1
-1;
#X obj 444 283 metro 80;
#X obj 964 780 ctlout;
#X obj 958 591 vsl 15 128 0 127 0 0 empty empty empty 0 -9 0 10 -262144
-1 -1 12700 1;
#X msg 1011 724 1;
#X obj 995 698 bng 15 250 50 0 empty empty empty 17 7 0 10 -262144
-1 -1;
#X obj 1316 789 ctlout;
#X obj 1308 590 vsl 15 128 0 127 0 0 empty empty empty 0 -9 0 10 -262144
-1 -1 12700 1;
#X msg 1363 733 1;
#X obj 1347 707 bng 15 250 50 0 empty empty empty 17 7 0 10 -262144
-1 -1;
#X obj 1213 785 ctlout;
#X obj 1207 596 vsl 15 128 0 127 0 0 empty empty empty 0 -9 0 10 -262144
-1 -1 12700 1;
#X msg 1261 730 1;
#X obj 1244 703 bng 15 250 50 0 empty empty empty 17 7 0 10 -262144
-1 -1;
#X obj 743 794 ctlout;
#X obj 737 605 vsl 15 128 0 127 0 0 empty empty empty 0 -9 0 10 -262144
-1 -1 12700 1;
#X msg 790 738 1;
#X obj 774 712 bng 15 250 50 0 empty empty empty 17 7 0 10 -262144
-1 -1;
#X obj 1092 786 ctlout;
#X obj 1086 597 vsl 15 128 0 127 0 0 empty empty empty 0 -9 0 10 -262144
-1 -1 12700 1;
#X msg 1139 730 1;
#X obj 1123 704 bng 15 250 50 0 empty empty empty 17 7 0 10 -262144
-1 -1;
#X obj 853 787 ctlout;
#X obj 847 598 vsl 15 128 0 127 0 0 empty empty empty 0 -9 0 10 -262144
-1 -1 12700 1;
#X msg 904 732 1;
#X obj 884 705 bng 15 250 50 0 empty empty empty 17 7 0 10 -262144
-1 -1;
#X msg 943 524 0;
#X msg 988 522 127;
#X msg 1290 533 0;
#X msg 1335 531 127;
#X msg 1182 527 0;
#X msg 1227 525 127;
#X msg 710 540 0;
#X msg 755 538 127;
#X msg 1049 528 0;
#X msg 1094 526 127;
#X msg 817 529 0;
#X obj 831 433 t b;
#X obj 948 419 t b;
#X obj 718 447 t b;
#X obj 1056 420 t b;
#X obj 1180 421 t b;
#X obj 1293 422 t b;
#X obj 777 -31 clock;
#X obj 747 245 % 2;
#X obj 742 301 sel 0 1;
#X obj 740 479 del 200;
#X obj 847 468 del 200;
#X obj 973 463 del 200;
#X obj 1079 466 del 200;
#X obj 1206 466 del 200;
#X obj 1320 472 del 200;
#X obj 914 297 sel 0 1 2 3 4 5;
#X obj 798 219 spigot;
#X obj 633 57 tgl 50 0 empty empty empty 17 7 0 10 -262144 -1 -1 0
1;
#X obj 1032 238 spigot;
#X obj 701 56 tgl 50 0 empty empty empty 17 7 0 10 -262144 -1 -1 0
1;
#X obj 569 -5 tgl 50 0 empty empty empty 17 7 0 10 -262144 -1 -1 0
1;
#X obj 521 269 metro 300;
#X obj 575 311 tgl 15 0 empty empty empty 17 7 0 10 -262144 -1 -1 1
1;
#X obj 472 211 sel 1;
#X msg 475 242 0;
#X obj 605 219 sel 1;
#X msg 608 250 0;
#N canvas 0 22 1233 738 keyknob 0;
#X floatatom 430 221 5 0 0 0 - - -;
#X msg 430 443 0;
#X msg 632 319 127;
#X floatatom 429 608 5 0 0 0 - - -;
#X floatatom 537 609 5 0 0 0 - - -;
#X obj 537 587 bng 15 250 50 0 empty empty empty 17 7 0 10 -262144
-1 -1;
#X obj 429 540 pack;
#X obj 429 574 line;
#X obj 597 496 vsl 15 128 20 400 0 0 empty empty empty 0 -9 0 10 -262144
-1 -1 12700 1;
#X obj 476 496 vsl 15 128 0 127 0 0 keyknob2 empty empty 0 -9 0 10
-262144 -1 -1 0 1;
#X msg 610 353 109;
#X msg 452 410 13;
#X msg 475 383 27;
#X msg 497 353 40;
#X msg 520 319 55;
#X msg 543 443 68;
#X msg 565 410 80;
#X msg 587 383 94;
#X floatatom 717 221 5 0 0 0 - - -;
#X msg 717 443 0;
#X msg 919 319 127;
#X floatatom 716 608 5 0 0 0 - - -;
#X floatatom 824 609 5 0 0 0 - - -;
#X obj 824 587 bng 15 250 50 0 empty empty empty 17 7 0 10 -262144
-1 -1;
#X obj 716 540 pack;
#X obj 716 574 line;
#X obj 884 496 vsl 15 128 20 400 0 0 empty empty empty 0 -9 0 10 -262144
-1 -1 12700 1;
#X obj 763 496 vsl 15 128 0 127 0 0 keyknob3 empty empty 0 -9 0 10
-262144 -1 -1 6800 1;
#X msg 897 353 109;
#X msg 739 410 13;
#X msg 762 383 27;
#X msg 784 353 40;
#X msg 807 319 55;
#X msg 830 443 68;
#X msg 852 410 80;
#X msg 874 383 94;
#X floatatom 1001 220 5 0 0 0 - - -;
#X msg 1001 442 0;
#X msg 1203 318 127;
#X floatatom 1000 607 5 0 0 0 - - -;
#X floatatom 1108 608 5 0 0 0 - - -;
#X obj 1108 586 bng 15 250 50 0 empty empty empty 17 7 0 10 -262144
-1 -1;
#X obj 1000 539 pack;
#X obj 1000 573 line;
#X obj 1168 495 vsl 15 128 20 400 0 0 empty empty empty 0 -9 0 10 -262144
-1 -1 12700 1;
#X obj 1047 495 vsl 15 128 0 127 0 0 keyknob4 empty empty 0 -9 0 10
-262144 -1 -1 10900 1;
#X msg 1181 352 109;
#X msg 1023 409 13;
#X msg 1046 382 27;
#X msg 1068 352 40;
#X msg 1091 318 55;
#X msg 1114 442 68;
#X msg 1136 409 80;
#X msg 1158 382 94;
#X floatatom 147 222 5 0 0 0 - - -;
#X msg 147 444 0;
#X msg 349 320 127;
#X floatatom 146 609 5 0 0 0 - - -;
#X floatatom 254 610 5 0 0 0 - - -;
#X obj 254 588 bng 15 250 50 0 empty empty empty 17 7 0 10 -262144
-1 -1;
#X obj 146 541 pack;
#X obj 146 575 line;
#X obj 314 497 vsl 15 128 20 400 0 0 empty empty empty 0 -9 0 10 -262144
-1 -1 12700 1;
#X obj 193 497 vsl 15 128 0 127 0 0 keyknob1 empty empty 0 -9 0 10
-262144 -1 -1 0 1;
#X msg 327 354 109;
#X msg 169 411 13;
#X msg 192 384 27;
#X msg 214 354 40;
#X msg 237 320 55;
#X msg 260 444 68;
#X msg 282 411 80;
#X msg 304 384 94;
#X obj 149 81 key;
#X obj 248 66 tgl 100 0 keyknobin empty empty 17 7 0 10 -262144 -1
-1 1 1;
#X obj 147 157 spigot;
#X obj 1256 496 vsl 15 128 20 400 0 0 empty knsen empty 0 -9 0 10 -262144
-1 -1 12700 1;
#X obj 1311 444 loadbang;
#X msg 1311 468 400;
#X obj 182 85 sel 124;
#X obj 147 255 sel 33 64 35 36 37 94 38 42 40 41;
#X obj 430 254 sel 81 87 69 82 84 89 85 73 79 80;
#X obj 717 254 sel 65 83 68 70 71 72 74 75 76 58;
#X obj 1001 253 sel 90 88 67 86 66 78 77 60 62 63;
#X connect 0 0 80 0;
#X connect 1 0 5 0;
#X connect 1 0 6 0;
#X connect 2 0 5 0;
#X connect 2 0 6 0;
#X connect 3 0 9 0;
#X connect 4 0 6 1;
#X connect 5 0 4 0;
#X connect 6 0 7 0;
#X connect 7 0 3 0;
#X connect 8 0 4 0;
#X connect 10 0 5 0;
#X connect 10 0 6 0;
#X connect 11 0 5 0;
#X connect 11 0 6 0;
#X connect 12 0 5 0;
#X connect 12 0 6 0;
#X connect 13 0 5 0;
#X connect 13 0 6 0;
#X connect 14 0 5 0;
#X connect 14 0 6 0;
#X connect 15 0 5 0;
#X connect 15 0 6 0;
#X connect 16 0 5 0;
#X connect 16 0 6 0;
#X connect 17 0 5 0;
#X connect 17 0 6 0;
#X connect 18 0 81 0;
#X connect 19 0 23 0;
#X connect 19 0 24 0;
#X connect 20 0 23 0;
#X connect 20 0 24 0;
#X connect 21 0 27 0;
#X connect 22 0 24 1;
#X connect 23 0 22 0;
#X connect 24 0 25 0;
#X connect 25 0 21 0;
#X connect 26 0 22 0;
#X connect 28 0 23 0;
#X connect 28 0 24 0;
#X connect 29 0 23 0;
#X connect 29 0 24 0;
#X connect 30 0 23 0;
#X connect 30 0 24 0;
#X connect 31 0 23 0;
#X connect 31 0 24 0;
#X connect 32 0 23 0;
#X connect 32 0 24 0;
#X connect 33 0 23 0;
#X connect 33 0 24 0;
#X connect 34 0 23 0;
#X connect 34 0 24 0;
#X connect 35 0 23 0;
#X connect 35 0 24 0;
#X connect 36 0 82 0;
#X connect 37 0 41 0;
#X connect 37 0 42 0;
#X connect 38 0 41 0;
#X connect 38 0 42 0;
#X connect 39 0 45 0;
#X connect 40 0 42 1;
#X connect 41 0 40 0;
#X connect 42 0 43 0;
#X connect 43 0 39 0;
#X connect 44 0 40 0;
#X connect 46 0 41 0;
#X connect 46 0 42 0;
#X connect 47 0 41 0;
#X connect 47 0 42 0;
#X connect 48 0 41 0;
#X connect 48 0 42 0;
#X connect 49 0 41 0;
#X connect 49 0 42 0;
#X connect 50 0 41 0;
#X connect 50 0 42 0;
#X connect 51 0 41 0;
#X connect 51 0 42 0;
#X connect 52 0 41 0;
#X connect 52 0 42 0;
#X connect 53 0 41 0;
#X connect 53 0 42 0;
#X connect 54 0 79 0;
#X connect 55 0 59 0;
#X connect 55 0 60 0;
#X connect 56 0 59 0;
#X connect 56 0 60 0;
#X connect 57 0 63 0;
#X connect 58 0 60 1;
#X connect 59 0 58 0;
#X connect 60 0 61 0;
#X connect 61 0 57 0;
#X connect 62 0 58 0;
#X connect 64 0 59 0;
#X connect 64 0 60 0;
#X connect 65 0 59 0;
#X connect 65 0 60 0;
#X connect 66 0 59 0;
#X connect 66 0 60 0;
#X connect 67 0 59 0;
#X connect 67 0 60 0;
#X connect 68 0 59 0;
#X connect 68 0 60 0;
#X connect 69 0 59 0;
#X connect 69 0 60 0;
#X connect 70 0 59 0;
#X connect 70 0 60 0;
#X connect 71 0 59 0;
#X connect 71 0 60 0;
#X connect 72 0 74 0;
#X connect 72 0 78 0;
#X connect 73 0 74 1;
#X connect 74 0 54 0;
#X connect 74 0 0 0;
#X connect 74 0 18 0;
#X connect 74 0 36 0;
#X connect 75 0 44 0;
#X connect 75 0 26 0;
#X connect 75 0 8 0;
#X connect 75 0 62 0;
#X connect 76 0 77 0;
#X connect 77 0 75 0;
#X connect 78 0 73 0;
#X connect 79 0 55 0;
#X connect 79 1 65 0;
#X connect 79 2 66 0;
#X connect 79 3 67 0;
#X connect 79 4 68 0;
#X connect 79 5 69 0;
#X connect 79 6 70 0;
#X connect 79 7 71 0;
#X connect 79 8 64 0;
#X connect 79 9 56 0;
#X connect 80 0 1 0;
#X connect 80 1 11 0;
#X connect 80 2 12 0;
#X connect 80 3 13 0;
#X connect 80 4 14 0;
#X connect 80 5 15 0;
#X connect 80 6 16 0;
#X connect 80 7 17 0;
#X connect 80 8 10 0;
#X connect 80 9 2 0;
#X connect 81 0 19 0;
#X connect 81 1 29 0;
#X connect 81 2 30 0;
#X connect 81 3 31 0;
#X connect 81 4 32 0;
#X connect 81 5 33 0;
#X connect 81 6 34 0;
#X connect 81 7 35 0;
#X connect 81 8 28 0;
#X connect 81 9 20 0;
#X connect 82 0 37 0;
#X connect 82 1 47 0;
#X connect 82 2 48 0;
#X connect 82 3 49 0;
#X connect 82 4 50 0;
#X connect 82 5 51 0;
#X connect 82 6 52 0;
#X connect 82 7 53 0;
#X connect 82 8 46 0;
#X connect 82 9 38 0;
#X restore 1175 -51 pd keyknob;
#X obj 1174 -24 tgl 100 0 empty keyknobin empty 17 7 0 10 -262144 -1
-1 1 1;
#X obj 1282 -55 vsl 15 128 0 127 0 0 empty keyknob1 empty 0 -9 0 10
-262144 -1 -1 0 1;
#X obj 1304 -55 vsl 15 128 0 127 0 0 empty keyknob2 empty 0 -9 0 10
-262144 -1 -1 0 1;
#X obj 1327 -55 vsl 15 128 0 127 0 0 empty keyknob3 empty 0 -9 0 10
-262144 -1 -1 6800 1;
#X obj 1349 -55 vsl 15 128 0 127 0 0 empty keyknob4 empty 0 -9 0 10
-262144 -1 -1 10900 1;
#X floatatom 1233 350 5 0 0 0 - - -;
#X obj 1273 350 sel 122 120 99 118;
#X obj 1273 376 bng 15 250 50 0 empty empty empty 17 7 0 10 -262144
-1 -1;
#X obj 1303 375 bng 15 250 50 0 empty empty empty 17 7 0 10 -262144
-1 -1;
#X obj 1334 376 bng 15 250 50 0 empty empty empty 17 7 0 10 -262144
-1 -1;
#X obj 1365 375 bng 15 250 50 0 empty empty empty 17 7 0 10 -262144
-1 -1;
#X floatatom 1233 303 5 0 0 0 - - -;
#X obj 1273 329 bng 15 250 50 0 empty empty empty 17 7 0 10 -262144
-1 -1;
#X obj 1303 328 bng 15 250 50 0 empty empty empty 17 7 0 10 -262144
-1 -1;
#X obj 1334 329 bng 15 250 50 0 empty empty empty 17 7 0 10 -262144
-1 -1;
#X obj 1365 328 bng 15 250 50 0 empty empty empty 17 7 0 10 -262144
-1 -1;
#X obj 1273 303 sel 97 115 100 102;
#X floatatom 1234 257 5 0 0 0 - - -;
#X obj 1274 283 bng 15 250 50 0 empty empty empty 17 7 0 10 -262144
-1 -1;
#X obj 1304 282 bng 15 250 50 0 empty empty empty 17 7 0 10 -262144
-1 -1;
#X obj 1335 283 bng 15 250 50 0 empty empty empty 17 7 0 10 -262144
-1 -1;
#X obj 1366 282 bng 15 250 50 0 empty empty empty 17 7 0 10 -262144
-1 -1;
#X floatatom 1234 210 5 0 0 0 - - -;
#X obj 1274 236 bng 15 250 50 0 empty empty empty 17 7 0 10 -262144
-1 -1;
#X obj 1304 235 bng 15 250 50 0 empty empty empty 17 7 0 10 -262144
-1 -1;
#X obj 1335 236 bng 15 250 50 0 empty empty empty 17 7 0 10 -262144
-1 -1;
#X obj 1366 235 bng 15 250 50 0 empty empty empty 17 7 0 10 -262144
-1 -1;
#X obj 1274 257 sel 113 119 101 114;
#X obj 1274 210 sel 49 50 51 52;
#X obj 1174 106 key;
#X obj 1273 97 tgl 100 0 keyknobin empty empty 17 7 0 10 -262144 -1
-1 1 1;
#X obj 1172 182 spigot;
#X obj 1207 110 sel 124;
#X obj 1494 -29 key;
#X obj 1548 -27 keyup;
#X floatatom 1525 26 5 0 0 0 - - -;
#X obj 1480 260 tgl 15 0 empty empty empty 17 7 0 10 -262144 -1 -1
0 1;
#X obj 1489 239 tgl 15 0 empty empty empty 17 7 0 10 -262144 -1 -1
0 1;
#X obj 1501 260 tgl 15 0 empty empty empty 17 7 0 10 -262144 -1 -1
0 1;
#X obj 1511 240 tgl 15 0 empty empty empty 17 7 0 10 -262144 -1 -1
0 1;
#X obj 1521 260 tgl 15 0 empty empty empty 17 7 0 10 -262144 -1 -1
0 1;
#X obj 1542 260 tgl 15 0 empty empty empty 17 7 0 10 -262144 -1 -1
0 1;
#X obj 1551 239 tgl 15 0 empty empty empty 17 7 0 10 -262144 -1 -1
0 1;
#X obj 1563 260 tgl 15 0 empty empty empty 17 7 0 10 -262144 -1 -1
0 1;
#X obj 1573 240 tgl 15 0 empty empty empty 17 7 0 10 -262144 -1 -1
0 1;
#X obj 1583 260 tgl 15 0 empty empty empty 17 7 0 10 -262144 -1 -1
0 1;
#X obj 1594 239 tgl 15 0 empty empty empty 17 7 0 10 -262144 -1 -1
0 1;
#X obj 1604 259 tgl 15 0 empty empty empty 17 7 0 10 -262144 -1 -1
0 1;
#X obj 1626 259 tgl 15 0 empty empty empty 17 7 0 10 -262144 -1 -1
0 1;
#X obj 1378 178 sel 116 54 121 55 117 105 57 111 48 112 45 91 93;
#X obj 1483 306 tgl 15 0 empty empty empty 17 7 0 10 -262144 -1 -1
0 1;
#X obj 1492 285 tgl 15 0 empty empty empty 17 7 0 10 -262144 -1 -1
1 1;
#X obj 1504 306 tgl 15 0 empty empty empty 17 7 0 10 -262144 -1 -1
0 1;
#X obj 1514 286 tgl 15 0 empty empty empty 17 7 0 10 -262144 -1 -1
1 1;
#X obj 1524 306 tgl 15 0 empty empty empty 17 7 0 10 -262144 -1 -1
0 1;
#X obj 1548 306 tgl 15 0 empty empty empty 17 7 0 10 -262144 -1 -1
0 1;
#X obj 1554 285 tgl 15 0 empty empty empty 17 7 0 10 -262144 -1 -1
0 1;
#X obj 1566 306 tgl 15 0 empty empty empty 17 7 0 10 -262144 -1 -1
0 1;
#X obj 1576 286 tgl 15 0 empty empty empty 17 7 0 10 -262144 -1 -1
0 1;
#X obj 1586 306 tgl 15 0 empty empty empty 17 7 0 10 -262144 -1 -1
0 1;
#X obj 1683 250 tgl 15 0 empty empty empty 17 7 0 10 -262144 -1 -1
0 1;
#X obj 1683 279 tgl 15 0 empty empty empty 17 7 0 10 -262144 -1 -1
0 1;
#X obj 1825 285 tgl 15 0 empty empty empty 17 7 0 10 -262144 -1 -1
0 1;
#X obj 1723 178 sel 98 104 110 106 109 44 108 46 59 47 61 39 103 53
;
#X obj 1825 259 tgl 15 0 empty empty empty 17 7 0 10 -262144 -1 -1
0 1;
#X obj 1423 64 key;
#X obj 1522 55 tgl 100 0 keyknobin empty empty 17 7 0 10 -262144 -1
-1 1 1;
#X obj 1421 140 spigot;
#X obj 1456 68 sel 124;
#X obj 1419 395 sel 1 0;
#X msg 862 527 127;
#X obj 1563 397 sel 1 0;
#X obj 1708 401 sel 1 0;
#X obj 1785 403 sel 1 0;
#X obj 1640 399 sel 1 0;
#X obj 1496 397 sel 1 0;
#X obj 698 -8 tgl 50 0 empty empty empty 17 7 0 10 -262144 -1 -1 1
1;
#X msg 867 731 2;
#X msg 1106 730 4;
#X msg 757 737 3;
#X msg 979 724 1;
#X msg 1227 729 6;
#X msg 1330 733 5;
#X msg 396 739 2;
#X msg 47 746 5;
#X obj 506 -59 bng 50 250 50 0 empty empty empty 17 7 0 10 -262144
-1 -1;
#X msg 288 248 1;
#X obj 569 -62 bng 50 250 50 0 empty empty empty 17 7 0 10 -262144
-1 -1;
#X msg 327 240 0;
#X msg 620 742 3;
#X msg 517 738 4;
#X obj 919 240 % 12;
#X connect 1 0 2 0;
#X connect 2 0 4 0;
#X connect 4 0 52 0;
#X connect 4 0 65 0;
#X connect 7 0 8 0;
#X connect 8 0 6 0;
#X connect 8 1 5 0;
#X connect 9 0 0 0;
#X connect 9 0 12 0;
#X connect 10 0 0 2;
#X connect 11 0 0 1;
#X connect 12 0 11 0;
#X connect 12 0 10 0;
#X connect 13 0 36 0;
#X connect 15 0 14 0;
#X connect 15 0 17 0;
#X connect 16 0 14 2;
#X connect 17 0 227 0;
#X connect 17 0 16 0;
#X connect 19 0 18 0;
#X connect 19 0 21 0;
#X connect 20 0 18 2;
#X connect 21 0 228 0;
#X connect 21 0 20 0;
#X connect 23 0 22 0;
#X connect 23 0 25 0;
#X connect 24 0 22 2;
#X connect 25 0 222 0;
#X connect 25 0 24 0;
#X connect 27 0 26 0;
#X connect 27 0 29 0;
#X connect 28 0 26 2;
#X connect 29 0 221 0;
#X connect 29 0 28 0;
#X connect 31 0 30 0;
#X connect 31 0 33 0;
#X connect 32 0 30 2;
#X connect 33 0 34 0;
#X connect 33 0 32 0;
#X connect 34 0 30 1;
#X connect 35 0 9 0;
#X connect 36 0 9 0;
#X connect 37 0 39 0;
#X connect 38 0 15 0;
#X connect 39 0 15 0;
#X connect 40 0 42 0;
#X connect 41 0 19 0;
#X connect 42 0 19 0;
#X connect 43 0 45 0;
#X connect 44 0 23 0;
#X connect 45 0 23 0;
#X connect 46 0 48 0;
#X connect 47 0 27 0;
#X connect 48 0 27 0;
#X connect 49 0 51 0;
#X connect 50 0 31 0;
#X connect 51 0 31 0;
#X connect 52 0 53 0;
#X connect 52 0 54 0;
#X connect 52 0 56 0;
#X connect 52 0 57 0;
#X connect 53 0 49 0;
#X connect 53 0 50 0;
#X connect 54 0 35 0;
#X connect 54 0 13 0;
#X connect 55 0 43 0;
#X connect 55 0 44 0;
#X connect 56 0 47 0;
#X connect 56 0 46 0;
#X connect 57 0 41 0;
#X connect 57 0 40 0;
#X connect 58 0 38 0;
#X connect 58 0 37 0;
#X connect 59 0 74 0;
#X connect 59 0 133 0;
#X connect 60 0 61 0;
#X connect 61 0 55 0;
#X connect 61 1 53 0;
#X connect 61 2 54 0;
#X connect 61 3 56 0;
#X connect 61 4 57 0;
#X connect 61 5 58 0;
#X connect 62 0 60 0;
#X connect 63 0 55 0;
#X connect 63 1 58 0;
#X connect 64 0 63 0;
#X connect 65 0 64 0;
#X connect 66 0 35 0;
#X connect 66 0 50 0;
#X connect 66 0 44 0;
#X connect 66 0 47 0;
#X connect 66 0 41 0;
#X connect 66 0 38 0;
#X connect 66 1 48 0;
#X connect 66 1 51 0;
#X connect 66 1 36 0;
#X connect 66 1 39 0;
#X connect 66 1 42 0;
#X connect 66 1 45 0;
#X connect 67 0 52 1;
#X connect 68 0 65 1;
#X connect 69 0 66 0;
#X connect 70 0 72 0;
#X connect 71 0 70 0;
#X connect 71 0 72 0;
#X connect 72 0 66 0;
#X connect 73 0 71 0;
#X connect 74 0 62 0;
#X connect 76 0 75 0;
#X connect 76 0 78 0;
#X connect 77 0 75 2;
#X connect 78 0 218 0;
#X connect 78 0 77 0;
#X connect 80 0 79 0;
#X connect 80 0 82 0;
#X connect 81 0 79 2;
#X connect 82 0 220 0;
#X connect 82 0 81 0;
#X connect 84 0 83 0;
#X connect 84 0 86 0;
#X connect 85 0 83 2;
#X connect 86 0 219 0;
#X connect 86 0 85 0;
#X connect 88 0 87 0;
#X connect 88 0 90 0;
#X connect 89 0 87 2;
#X connect 90 0 217 0;
#X connect 90 0 89 0;
#X connect 92 0 91 0;
#X connect 92 0 94 0;
#X connect 93 0 91 2;
#X connect 94 0 216 0;
#X connect 94 0 93 0;
#X connect 96 0 95 0;
#X connect 96 0 98 0;
#X connect 97 0 95 2;
#X connect 98 0 215 0;
#X connect 98 0 97 0;
#X connect 99 0 76 0;
#X connect 100 0 76 0;
#X connect 101 0 80 0;
#X connect 102 0 80 0;
#X connect 103 0 84 0;
#X connect 104 0 84 0;
#X connect 105 0 88 0;
#X connect 106 0 88 0;
#X connect 107 0 92 0;
#X connect 108 0 92 0;
#X connect 109 0 96 0;
#X connect 110 0 109 0;
#X connect 110 0 120 0;
#X connect 111 0 99 0;
#X connect 111 0 121 0;
#X connect 112 0 105 0;
#X connect 112 0 119 0;
#X connect 113 0 107 0;
#X connect 113 0 122 0;
#X connect 114 0 103 0;
#X connect 114 0 123 0;
#X connect 115 0 101 0;
#X connect 115 0 124 0;
#X connect 116 4 126 0;
#X connect 116 4 128 0;
#X connect 117 0 118 0;
#X connect 118 0 112 0;
#X connect 118 0 115 0;
#X connect 118 0 111 0;
#X connect 118 1 110 0;
#X connect 118 1 113 0;
#X connect 118 1 114 0;
#X connect 119 0 106 0;
#X connect 120 0 208 0;
#X connect 121 0 100 0;
#X connect 122 0 108 0;
#X connect 123 0 104 0;
#X connect 124 0 102 0;
#X connect 125 0 112 0;
#X connect 125 1 110 0;
#X connect 125 2 111 0;
#X connect 125 3 113 0;
#X connect 125 4 114 0;
#X connect 125 5 115 0;
#X connect 126 0 117 0;
#X connect 127 0 126 1;
#X connect 128 0 229 0;
#X connect 129 0 128 1;
#X connect 130 0 131 0;
#X connect 130 0 135 0;
#X connect 131 0 62 0;
#X connect 132 0 60 1;
#X connect 133 0 134 0;
#X connect 134 0 130 0;
#X connect 135 0 136 0;
#X connect 136 0 59 0;
#X connect 143 0 144 0;
#X connect 144 0 145 0;
#X connect 144 1 146 0;
#X connect 144 2 147 0;
#X connect 144 3 148 0;
#X connect 145 0 73 0;
#X connect 146 0 59 0;
#X connect 147 0 127 0;
#X connect 148 0 129 0;
#X connect 149 0 154 0;
#X connect 150 0 68 0;
#X connect 151 0 130 0;
#X connect 152 0 67 0;
#X connect 153 0 214 0;
#X connect 154 0 150 0;
#X connect 154 1 151 0;
#X connect 154 2 152 0;
#X connect 154 3 153 0;
#X connect 155 0 165 0;
#X connect 156 0 223 0;
#X connect 157 0 225 0;
#X connect 160 0 166 0;
#X connect 165 0 156 0;
#X connect 165 1 157 0;
#X connect 165 2 158 0;
#X connect 165 3 159 0;
#X connect 166 0 161 0;
#X connect 166 1 162 0;
#X connect 166 2 163 0;
#X connect 166 3 164 0;
#X connect 167 0 169 0;
#X connect 167 0 170 0;
#X connect 168 0 169 1;
#X connect 169 0 160 0;
#X connect 169 0 155 0;
#X connect 169 0 149 0;
#X connect 169 0 143 0;
#X connect 170 0 168 0;
#X connect 171 0 173 0;
#X connect 172 0 173 0;
#X connect 173 0 205 0;
#X connect 187 0 174 0;
#X connect 187 1 175 0;
#X connect 187 2 176 0;
#X connect 187 3 177 0;
#X connect 187 4 178 0;
#X connect 187 5 179 0;
#X connect 187 6 180 0;
#X connect 187 7 181 0;
#X connect 187 8 182 0;
#X connect 187 9 183 0;
#X connect 187 10 184 0;
#X connect 187 11 185 0;
#X connect 187 12 186 0;
#X connect 187 13 201 0;
#X connect 188 0 207 0;
#X connect 190 0 213 0;
#X connect 192 0 209 0;
#X connect 193 0 212 0;
#X connect 195 0 210 0;
#X connect 197 0 211 0;
#X connect 201 0 188 0;
#X connect 201 1 189 0;
#X connect 201 2 190 0;
#X connect 201 3 191 0;
#X connect 201 4 192 0;
#X connect 201 5 193 0;
#X connect 201 6 194 0;
#X connect 201 7 195 0;
#X connect 201 8 196 0;
#X connect 201 9 197 0;
#X connect 201 10 198 0;
#X connect 201 11 199 0;
#X connect 201 12 200 0;
#X connect 201 13 202 0;
#X connect 203 0 206 0;
#X connect 204 0 205 1;
#X connect 205 0 187 0;
#X connect 206 0 204 0;
#X connect 207 0 105 0;
#X connect 207 1 106 0;
#X connect 208 0 96 0;
#X connect 209 0 99 0;
#X connect 209 1 100 0;
#X connect 210 0 103 0;
#X connect 210 1 104 0;
#X connect 211 0 101 0;
#X connect 211 1 102 0;
#X connect 212 0 107 0;
#X connect 212 1 108 0;
#X connect 213 0 109 0;
#X connect 213 1 208 0;
#X connect 214 0 116 0;
#X connect 215 0 95 1;
#X connect 216 0 91 1;
#X connect 217 0 87 1;
#X connect 218 0 75 1;
#X connect 219 0 83 1;
#X connect 220 0 79 1;
#X connect 221 0 26 1;
#X connect 222 0 22 1;
#X connect 223 0 224 0;
#X connect 224 0 69 0;
#X connect 225 0 226 0;
#X connect 226 0 69 0;
#X connect 227 0 14 1;
#X connect 228 0 18 1;
#X connect 229 0 125 0;
