#N canvas 408 269 876 566 12;
#N canvas 131 144 784 558 (subpatch) 0;
#X obj 347 -171 inlet;
#X obj -2 -228 sel 0 1 2 3 4 5 6 7 8 9 10 11 12 13 14 15;
#X obj 60 21 bng 20 50 20 0 empty empty empty 17 7 0 10 -262144 -1
-1;
#X obj 81 21 bng 20 50 20 0 empty empty empty 17 7 0 10 -262144 -1
-1;
#X obj 102 21 bng 20 50 20 0 empty empty empty 17 7 0 10 -262144 -1
-1;
#X obj 123 21 bng 20 50 20 0 empty empty empty 17 7 0 10 -262144 -1
-1;
#X obj 159 56 bng 20 50 20 0 empty empty empty 17 7 0 10 -262144 -1
-1;
#X obj 159 77 bng 20 50 20 0 empty empty empty 17 7 0 10 -262144 -1
-1;
#X obj 159 98 bng 20 50 20 0 empty empty empty 17 7 0 10 -262144 -1
-1;
#X obj 159 119 bng 20 50 20 0 empty empty empty 17 7 0 10 -262144 -1
-1;
#X obj 121 159 bng 20 50 20 0 empty empty empty 17 7 0 10 -262144 -1
-1;
#X obj 100 159 bng 20 50 20 0 empty empty empty 17 7 0 10 -262144 -1
-1;
#X obj 79 159 bng 20 50 20 0 empty empty empty 17 7 0 10 -262144 -1
-1;
#X obj 58 159 bng 20 50 20 0 empty empty empty 17 7 0 10 -262144 -1
-1;
#X obj 21 120 bng 20 50 20 0 empty empty empty 17 7 0 10 -262144 -1
-1;
#X obj 21 99 bng 20 50 20 0 empty empty empty 17 7 0 10 -262144 -1
-1;
#X obj 21 78 bng 20 50 20 0 empty empty empty 17 7 0 10 -262144 -1
-1;
#X obj 21 57 bng 20 50 20 0 empty empty empty 17 7 0 10 -262144 -1
-1;
#X obj -2 -202 spigot;
#X obj 60 0 tgl 20 0 empty empty empty 17 7 0 10 -262144 -1 -1 0 1
;
#X obj 53 -202 spigot;
#X obj 81 0 tgl 20 0 empty empty empty 17 7 0 10 -262144 -1 -1 0 1
;
#X obj 110 -201 spigot;
#X obj 102 0 tgl 20 0 empty empty empty 17 7 0 10 -262144 -1 -1 0 1
;
#X obj 165 -201 spigot;
#X obj 123 0 tgl 20 0 empty empty empty 17 7 0 10 -262144 -1 -1 0 1
;
#X obj -3 -175 spigot;
#X obj 180 56 tgl 20 0 empty empty empty 17 7 0 10 -262144 -1 -1 0
1;
#X obj 52 -175 spigot;
#X obj 180 77 tgl 20 0 empty empty empty 17 7 0 10 -262144 -1 -1 0
1;
#X obj 109 -174 spigot;
#X obj 180 98 tgl 20 0 empty empty empty 17 7 0 10 -262144 -1 -1 0
1;
#X obj 164 -174 spigot;
#X obj 180 119 tgl 20 0 empty empty empty 17 7 0 10 -262144 -1 -1 0
1;
#X obj -5 -148 spigot;
#X obj 121 180 tgl 20 0 empty empty empty 17 7 0 10 -262144 -1 -1 0
1;
#X obj 50 -148 spigot;
#X obj 100 180 tgl 20 0 empty empty empty 17 7 0 10 -262144 -1 -1 0
1;
#X obj 107 -147 spigot;
#X obj 79 180 tgl 20 0 empty empty empty 17 7 0 10 -262144 -1 -1 0
1;
#X obj 162 -147 spigot;
#X obj 58 180 tgl 20 0 empty empty empty 17 7 0 10 -262144 -1 -1 0
1;
#X obj -7 -116 spigot;
#X obj 0 120 tgl 20 0 empty empty empty 17 7 0 10 -262144 -1 -1 0 1
;
#X obj 48 -116 spigot;
#X obj 0 99 tgl 20 0 empty empty empty 17 7 0 10 -262144 -1 -1 0 1
;
#X obj 105 -115 spigot;
#X obj 0 78 tgl 20 0 empty empty empty 17 7 0 10 -262144 -1 -1 0 1
;
#X obj 160 -115 spigot;
#X obj 0 57 tgl 20 0 empty empty empty 17 7 0 10 -262144 -1 -1 0 1
;
#X obj 50 50 bng 100 250 50 0 empty empty empty 17 7 0 10 -262144 -1
-1;
#X obj 15 223 outlet;
#X obj 159 1 tgl 40 0 empty empty empty 17 7 0 10 -262144 -1 -1 0 1
;
#X obj 328 -16 spigot;
#X obj 306 94 +;
#X obj 159 156 vsl 40 40 -4 4 0 0 empty empty empty 0 -9 0 10 -262144
-1 -1 1950 1;
#X obj 304 168 %;
#X obj 1 156 vsl 40 40 16 1 0 0 empty empty empty 0 -9 0 10 -262144
-1 -1 0 1;
#X obj 370 61 loadbang;
#X msg 361 88 16;
#X floatatom 368 215 5 0 0 0 - - -;
#X obj 336 255 int;
#X obj 1 1 tgl 40 0 empty empty empty 17 7 0 10 -262144 -1 -1 0 1;
#X obj 261 -139 bng 15 250 50 0 empty empty empty 17 7 0 10 -262144
-1 -1;
#X obj 236 -98 random 15;
#X obj 207 64 spigot;
#X obj 262 11 sel 1 0;
#X msg 275 60 0;
#X msg 315 50 1;
#X obj 439 -167 inlet;
#X obj 496 -168 inlet;
#X obj 549 -170 inlet;
#X obj 606 -171 inlet;
#X msg 250 283 0;
#X obj 240 145 int;
#X connect 0 0 53 0;
#X connect 0 0 63 0;
#X connect 1 0 2 0;
#X connect 1 1 3 0;
#X connect 1 2 4 0;
#X connect 1 3 5 0;
#X connect 1 4 6 0;
#X connect 1 5 7 0;
#X connect 1 6 8 0;
#X connect 1 7 9 0;
#X connect 1 8 10 0;
#X connect 1 9 11 0;
#X connect 1 10 12 0;
#X connect 1 11 13 0;
#X connect 1 12 14 0;
#X connect 1 13 15 0;
#X connect 1 14 16 0;
#X connect 1 15 17 0;
#X connect 2 0 18 0;
#X connect 3 0 20 0;
#X connect 4 0 22 0;
#X connect 5 0 24 0;
#X connect 6 0 26 0;
#X connect 7 0 28 0;
#X connect 8 0 30 0;
#X connect 9 0 32 0;
#X connect 10 0 34 0;
#X connect 11 0 36 0;
#X connect 12 0 38 0;
#X connect 13 0 40 0;
#X connect 14 0 42 0;
#X connect 15 0 44 0;
#X connect 16 0 46 0;
#X connect 17 0 48 0;
#X connect 18 0 50 0;
#X connect 19 0 18 1;
#X connect 20 0 50 0;
#X connect 21 0 20 1;
#X connect 22 0 50 0;
#X connect 23 0 22 1;
#X connect 24 0 50 0;
#X connect 25 0 24 1;
#X connect 26 0 50 0;
#X connect 27 0 26 1;
#X connect 28 0 50 0;
#X connect 29 0 28 1;
#X connect 30 0 50 0;
#X connect 31 0 30 1;
#X connect 32 0 50 0;
#X connect 33 0 32 1;
#X connect 34 0 50 0;
#X connect 35 0 34 1;
#X connect 36 0 50 0;
#X connect 37 0 36 1;
#X connect 38 0 50 0;
#X connect 39 0 38 1;
#X connect 40 0 50 0;
#X connect 41 0 40 1;
#X connect 42 0 50 0;
#X connect 43 0 42 1;
#X connect 44 0 50 0;
#X connect 45 0 44 1;
#X connect 46 0 50 0;
#X connect 47 0 46 1;
#X connect 48 0 50 0;
#X connect 49 0 48 1;
#X connect 50 0 51 0;
#X connect 52 0 53 1;
#X connect 53 0 54 0;
#X connect 54 0 56 0;
#X connect 55 0 74 0;
#X connect 56 0 1 0;
#X connect 57 0 60 0;
#X connect 57 0 61 0;
#X connect 58 0 59 0;
#X connect 58 0 73 0;
#X connect 59 0 57 0;
#X connect 61 0 56 1;
#X connect 62 0 66 0;
#X connect 62 0 65 1;
#X connect 63 0 64 0;
#X connect 64 0 65 0;
#X connect 65 0 56 0;
#X connect 66 0 67 0;
#X connect 66 1 68 0;
#X connect 67 0 52 0;
#X connect 68 0 52 0;
#X connect 69 0 62 0;
#X connect 70 0 52 0;
#X connect 71 0 57 0;
#X connect 72 0 55 0;
#X connect 73 0 55 0;
#X connect 74 0 54 1;
#X coords 0 1 100 -1 200 200 2 0 0;
#X restore 105 105 graph;
#X obj 96 24 inlet;
#X obj 153 24 inlet;
#X obj 201 23 inlet;
#X obj 258 23 inlet;
#X obj 305 24 inlet;
#X obj 241 398 outlet;
#X obj 49 49 r cl;
#X connect 0 0 6 0;
#X connect 1 0 0 0;
#X connect 2 0 0 1;
#X connect 3 0 0 2;
#X connect 4 0 0 3;
#X connect 5 0 0 4;
#X connect 7 0 0 0;
#X coords 0 -1 1 1 210 210 2 100 100;
