#N canvas 0 23 876 723 12;
#X obj 96 268 phasor~;
#X obj 96 299 expr~ $v1 > 0.5;
#X obj 250 344 vline~;
#X obj 250 393 *~;
#X obj 100 441 *~;
#X obj 94 588 dac~;
#X obj 192 87 bng 15 250 50 0 empty empty empty 17 7 0 10 -262144 -1
-1;
#X obj 244 109 * 1000;
#X floatatom 247 147 5 0 0 0 - - -;
#X obj 245 81 pow 2;
#X obj 239 -70 vsl 15 128 0 1 0 0 empty empty empty 0 -9 0 10 -262144
-1 -1 6500 1;
#X floatatom 476 163 5 0 0 0 - - -;
#X obj 474 97 pow 2;
#X obj 473 125 * 3000;
#X obj 470 -57 vsl 15 128 0 1 0 0 empty empty empty 0 -9 0 10 -262144
-1 -1 4700 1;
#X floatatom 394 164 5 0 0 0 - - -;
#X obj 392 98 pow 2;
#X obj 391 126 * 3000;
#X obj 388 -56 vsl 15 128 0 1 0 0 empty empty empty 0 -9 0 10 -262144
-1 -1 7200 1;
#X msg 238 311 0 \, 1 \$1 \$2 \, \$3 \$4 \$5 \, 0 \$6 65;
#X obj 237 281 pack 0 0 0 0 0 0;
#X floatatom 543 163 5 0 0 0 - - -;
#X obj 541 97 pow 2;
#X obj 540 125 * 3000;
#X obj 537 -57 vsl 15 128 0 1 0 0 empty empty empty 0 -9 0 10 -262144
-1 -1 8100 1;
#X obj 351 92 pow 2;
#X obj 345 -59 vsl 15 128 0 1 0 0 empty empty empty 0 -9 0 10 -262144
-1 -1 12700 1;
#X obj 294 110 * 1000;
#X floatatom 297 148 5 0 0 0 - - -;
#X obj 295 82 pow 2;
#X obj 289 -69 vsl 15 128 0 1 0 0 empty empty empty 0 -9 0 10 -262144
-1 -1 12700 1;
#X floatatom 349 152 5 0 0 0 - - -;
#X msg 186 223 \$1;
#X msg 225 223 \$1;
#X msg 261 222 \$1;
#X msg 300 222 \$1;
#X msg 342 223 \$1;
#X msg 381 223 \$1;
#X connect 0 0 1 0;
#X connect 1 0 4 0;
#X connect 2 0 3 0;
#X connect 2 0 3 1;
#X connect 3 0 4 1;
#X connect 4 0 5 0;
#X connect 4 0 5 1;
#X connect 6 0 8 0;
#X connect 6 0 28 0;
#X connect 6 0 31 0;
#X connect 6 0 15 0;
#X connect 6 0 11 0;
#X connect 6 0 21 0;
#X connect 7 0 8 0;
#X connect 8 0 32 0;
#X connect 9 0 7 0;
#X connect 10 0 9 0;
#X connect 11 0 36 0;
#X connect 12 0 13 0;
#X connect 13 0 11 0;
#X connect 14 0 12 0;
#X connect 15 0 35 0;
#X connect 16 0 17 0;
#X connect 17 0 15 0;
#X connect 18 0 16 0;
#X connect 19 0 2 0;
#X connect 20 0 19 0;
#X connect 21 0 37 0;
#X connect 22 0 23 0;
#X connect 23 0 21 0;
#X connect 24 0 22 0;
#X connect 25 0 31 0;
#X connect 26 0 25 0;
#X connect 27 0 28 0;
#X connect 28 0 33 0;
#X connect 29 0 27 0;
#X connect 30 0 29 0;
#X connect 31 0 34 0;
#X connect 32 0 20 0;
#X connect 33 0 20 1;
#X connect 34 0 20 2;
#X connect 35 0 20 3;
#X connect 36 0 20 4;
#X connect 37 0 20 5;
