#N canvas 0 22 849 627 12;
#X obj 357 459 osc~;
#X obj 424 -6 ctlin;
#X obj 356 352 / 127;
#X floatatom 357 380 5 0 0 0 - - -;
#X obj 356 414 * 1000;
#X obj 417 68 pack 0 0;
#X obj 419 460 osc~;
#X obj 418 353 / 127;
#X floatatom 419 381 5 0 0 0 - - -;
#X obj 486 456 osc~;
#X obj 485 349 / 127;
#X floatatom 486 377 5 0 0 0 - - -;
#X obj 548 457 osc~;
#X obj 547 350 / 127;
#X floatatom 548 378 5 0 0 0 - - -;
#X floatatom 511 32 5 0 0 0 - - -;
#X obj 417 92 route 22 10 1 118 30;
#X obj 628 465 osc~;
#X floatatom 625 178 5 0 0 0 - - -;
#X obj 627 358 / 127;
#X floatatom 628 386 5 0 0 0 - - -;
#X obj 612 310 line;
#X obj 608 241 pack 0 0;
#X msg 638 215 100;
#X floatatom 536 159 5 0 0 0 - - -;
#X obj 523 291 line;
#X obj 519 222 pack 0 0;
#X msg 549 196 100;
#X floatatom 333 170 5 0 0 0 - - -;
#X obj 320 302 line;
#X obj 316 233 pack 0 0;
#X msg 346 207 100;
#X floatatom 244 151 5 0 0 0 - - -;
#X obj 231 283 line;
#X obj 227 214 pack 0 0;
#X msg 257 188 100;
#X floatatom 460 166 5 0 0 0 - - -;
#X obj 447 298 line;
#X obj 443 229 pack 0 0;
#X msg 473 203 100;
#X obj 485 411 * 2000;
#X obj 418 415 * 3000;
#X obj 627 420 * 500;
#X obj 547 412 * 750;
#X obj 499 581 dac~;
#X obj 483 533 *~ 0.3;
#X connect 0 0 45 0;
#X connect 1 0 5 1;
#X connect 1 1 5 0;
#X connect 1 1 15 0;
#X connect 2 0 3 0;
#X connect 3 0 4 0;
#X connect 4 0 0 0;
#X connect 5 0 16 0;
#X connect 6 0 45 0;
#X connect 7 0 8 0;
#X connect 8 0 41 0;
#X connect 9 0 45 0;
#X connect 10 0 11 0;
#X connect 11 0 40 0;
#X connect 12 0 45 0;
#X connect 13 0 14 0;
#X connect 14 0 43 0;
#X connect 16 0 32 0;
#X connect 16 1 28 0;
#X connect 16 2 36 0;
#X connect 16 3 24 0;
#X connect 16 4 18 0;
#X connect 17 0 45 0;
#X connect 18 0 22 0;
#X connect 18 0 23 0;
#X connect 19 0 20 0;
#X connect 20 0 42 0;
#X connect 21 0 19 0;
#X connect 22 0 21 0;
#X connect 23 0 22 1;
#X connect 24 0 26 0;
#X connect 24 0 27 0;
#X connect 25 0 13 0;
#X connect 26 0 25 0;
#X connect 27 0 26 1;
#X connect 28 0 30 0;
#X connect 28 0 31 0;
#X connect 29 0 7 0;
#X connect 30 0 29 0;
#X connect 31 0 30 1;
#X connect 32 0 34 0;
#X connect 32 0 35 0;
#X connect 33 0 2 0;
#X connect 34 0 33 0;
#X connect 35 0 34 1;
#X connect 36 0 38 0;
#X connect 36 0 39 0;
#X connect 37 0 10 0;
#X connect 38 0 37 0;
#X connect 39 0 38 1;
#X connect 40 0 9 0;
#X connect 41 0 6 0;
#X connect 42 0 17 0;
#X connect 43 0 12 0;
#X connect 45 0 44 0;
#X connect 45 0 44 1;
