#N canvas 0 22 876 615 12;
#X obj 370 10 adc~;
#X obj 378 487 dac~;
#N canvas 371 128 939 654 apck 0;
#X obj 641 112 ctlin;
#X floatatom 568 237 5 0 0 0 - - -;
#X floatatom 622 240 5 0 0 0 - - -;
#X floatatom 686 239 5 0 0 0 - - -;
#X obj 68 464 spigot;
#X obj 109 347 == 48;
#X obj 115 398 tgl 15 0 empty empty empty 17 7 0 10 -262144 -1 -1 1
1;
#X floatatom 57 548 5 0 0 0 - - -;
#X obj 57 571 / 128;
#X floatatom 58 612 5 0 0 0 - - -;
#X floatatom 58 676 20 0 0 0 - - -;
#X obj 58 634 * 1.00788;
#X obj 222 461 spigot;
#X obj 269 395 tgl 15 0 empty empty empty 17 7 0 10 -262144 -1 -1 0
1;
#X floatatom 211 545 5 0 0 0 - - -;
#X obj 211 568 / 128;
#X floatatom 212 609 5 0 0 0 - - -;
#X floatatom 212 673 20 0 0 0 - - -;
#X obj 212 631 * 1.00788;
#X obj 263 344 == 49;
#X obj 376 460 spigot;
#X obj 423 394 tgl 15 0 empty empty empty 17 7 0 10 -262144 -1 -1 0
1;
#X floatatom 365 544 5 0 0 0 - - -;
#X obj 365 567 / 128;
#X floatatom 366 608 5 0 0 0 - - -;
#X floatatom 366 672 20 0 0 0 - - -;
#X obj 366 630 * 1.00788;
#X obj 530 457 spigot;
#X obj 577 391 tgl 15 0 empty empty empty 17 7 0 10 -262144 -1 -1 0
1;
#X floatatom 519 541 5 0 0 0 - - -;
#X obj 519 564 / 128;
#X floatatom 520 605 5 0 0 0 - - -;
#X floatatom 520 669 20 0 0 0 - - -;
#X obj 520 627 * 1.00788;
#X obj 696 457 spigot;
#X obj 743 391 tgl 15 0 empty empty empty 17 7 0 10 -262144 -1 -1 0
1;
#X floatatom 685 541 5 0 0 0 - - -;
#X obj 685 564 / 128;
#X floatatom 686 605 5 0 0 0 - - -;
#X floatatom 686 669 20 0 0 0 - - -;
#X obj 686 627 * 1.00788;
#X obj 850 454 spigot;
#X obj 897 388 tgl 15 0 empty empty empty 17 7 0 10 -262144 -1 -1 0
1;
#X floatatom 839 538 5 0 0 0 - - -;
#X obj 839 561 / 128;
#X floatatom 840 602 5 0 0 0 - - -;
#X floatatom 840 666 20 0 0 0 - - -;
#X obj 840 624 * 1.00788;
#X obj 1004 453 spigot;
#X obj 1051 387 tgl 15 0 empty empty empty 17 7 0 10 -262144 -1 -1
0 1;
#X floatatom 993 537 5 0 0 0 - - -;
#X obj 993 560 / 128;
#X floatatom 994 601 5 0 0 0 - - -;
#X floatatom 998 670 20 0 0 0 - - -;
#X obj 994 623 * 1.00788;
#X obj 1158 450 spigot;
#X obj 1205 384 tgl 15 0 empty empty empty 17 7 0 10 -262144 -1 -1
0 1;
#X floatatom 1147 534 5 0 0 0 - - -;
#X obj 1147 557 / 128;
#X floatatom 1148 598 5 0 0 0 - - -;
#X floatatom 1148 662 20 0 0 0 - - -;
#X obj 1148 620 * 1.00788;
#X obj 1199 333 == 55;
#X obj 1045 336 == 54;
#X obj 891 337 == 53;
#X obj 737 340 == 52;
#X obj 571 340 == 51;
#X obj 417 342 == 50;
#X obj 858 248 tgl 15 0 empty empty empty 17 7 0 10 -262144 -1 -1 1
1;
#X obj 845 191 == 1;
#X obj 1241 777 s k8i;
#X obj 1173 775 s k8m;
#X obj 1064 775 s k7i;
#X obj 996 773 s k7m;
#X obj 924 769 s k6i;
#X obj 855 767 s k6m;
#X obj 746 767 s k5i;
#X obj 678 765 s k5m;
#X obj 605 766 s k4i;
#X obj 537 764 s k4m;
#X obj 428 764 s k3i;
#X obj 360 762 s k3m;
#X obj 287 758 s k2i;
#X obj 219 756 s k2m;
#X obj 110 756 s k1i;
#X obj 42 754 s k1m;
#X obj 959 98 vsl 30 30 0 1 0 0 empty k1i empty 0 -9 0 10 -262144 -1
-1 2900 1;
#X obj 994 98 vsl 30 30 0 1 0 0 empty k2i empty 0 -9 0 10 -262144 -1
-1 2900 1;
#X obj 1030 98 vsl 30 30 0 1 0 0 empty k3i empty 0 -9 0 10 -262144
-1 -1 936 1;
#X obj 1067 97 vsl 30 30 0 1 0 0 empty k4i empty 0 -9 0 10 -262144
-1 -1 0 1;
#X obj 959 143 vsl 30 30 0 1 0 0 empty k5i empty 0 -9 0 10 -262144
-1 -1 0 1;
#X obj 994 143 vsl 30 30 0 1 0 0 empty k6i empty 0 -9 0 10 -262144
-1 -1 0 1;
#X obj 1030 143 vsl 30 30 0 1 0 0 empty k7i empty 0 -9 0 10 -262144
-1 -1 0 1;
#X obj 1066 143 vsl 30 30 0 1 0 0 empty k8i empty 0 -9 0 10 -262144
-1 -1 0 1;
#X text 577 64 APC KEY 25 Knob app Send names kni 0-1 knm 0-127;
#X connect 0 0 1 0;
#X connect 0 1 2 0;
#X connect 0 2 3 0;
#X connect 1 0 4 0;
#X connect 1 0 12 0;
#X connect 1 0 20 0;
#X connect 1 0 27 0;
#X connect 1 0 34 0;
#X connect 1 0 41 0;
#X connect 1 0 48 0;
#X connect 1 0 55 0;
#X connect 2 0 5 0;
#X connect 2 0 19 0;
#X connect 2 0 62 0;
#X connect 2 0 63 0;
#X connect 2 0 64 0;
#X connect 2 0 65 0;
#X connect 2 0 66 0;
#X connect 2 0 67 0;
#X connect 3 0 69 0;
#X connect 4 0 7 0;
#X connect 5 0 6 0;
#X connect 6 0 4 1;
#X connect 7 0 8 0;
#X connect 7 0 85 0;
#X connect 8 0 9 0;
#X connect 9 0 11 0;
#X connect 10 0 84 0;
#X connect 11 0 10 0;
#X connect 12 0 14 0;
#X connect 13 0 12 1;
#X connect 14 0 15 0;
#X connect 14 0 83 0;
#X connect 15 0 16 0;
#X connect 16 0 18 0;
#X connect 17 0 82 0;
#X connect 18 0 17 0;
#X connect 19 0 13 0;
#X connect 20 0 22 0;
#X connect 21 0 20 1;
#X connect 22 0 23 0;
#X connect 22 0 81 0;
#X connect 23 0 24 0;
#X connect 24 0 26 0;
#X connect 25 0 80 0;
#X connect 26 0 25 0;
#X connect 27 0 29 0;
#X connect 28 0 27 1;
#X connect 29 0 30 0;
#X connect 29 0 79 0;
#X connect 30 0 31 0;
#X connect 31 0 33 0;
#X connect 32 0 78 0;
#X connect 33 0 32 0;
#X connect 34 0 36 0;
#X connect 35 0 34 1;
#X connect 36 0 37 0;
#X connect 36 0 77 0;
#X connect 37 0 38 0;
#X connect 38 0 40 0;
#X connect 39 0 76 0;
#X connect 40 0 39 0;
#X connect 41 0 43 0;
#X connect 42 0 41 1;
#X connect 43 0 44 0;
#X connect 43 0 75 0;
#X connect 44 0 45 0;
#X connect 45 0 47 0;
#X connect 46 0 74 0;
#X connect 47 0 46 0;
#X connect 48 0 50 0;
#X connect 49 0 48 1;
#X connect 50 0 51 0;
#X connect 50 0 73 0;
#X connect 51 0 52 0;
#X connect 52 0 54 0;
#X connect 53 0 72 0;
#X connect 54 0 53 0;
#X connect 55 0 57 0;
#X connect 56 0 55 1;
#X connect 57 0 58 0;
#X connect 57 0 71 0;
#X connect 58 0 59 0;
#X connect 59 0 61 0;
#X connect 60 0 70 0;
#X connect 61 0 60 0;
#X connect 62 0 56 0;
#X connect 63 0 49 0;
#X connect 64 0 42 0;
#X connect 65 0 35 0;
#X connect 66 0 28 0;
#X connect 67 0 21 0;
#X connect 68 0 4 1;
#X connect 68 0 12 1;
#X connect 68 0 20 1;
#X connect 68 0 27 1;
#X connect 68 0 34 1;
#X connect 68 0 41 1;
#X connect 68 0 48 1;
#X connect 68 0 55 1;
#X connect 69 0 68 0;
#X restore 40 77 pd apck;
#X obj 461 69 r k1m;
#X floatatom 459 126 5 0 0 0 - - -;
#X obj 459 158 mtof;
#X floatatom 459 197 20 0 0 0 - - -;
#X obj 396 279 sig~;
#X obj 343 331 vcf~ 5;
#X obj 436 327 vcf~ 5;
#X obj 240 84 r k2i;
#X floatatom 241 125 5 0 0 0 - - -;
#X obj 243 153 * 4;
#X obj 341 184 *~;
#X obj 401 183 *~;
#X floatatom 522 280 5 0 0 0 - - -;
#X obj 520 239 r k3i;
#X floatatom 462 267 10 0 0 0 - - -;
#X obj 459 233 * 1.7;
#X obj 524 309 * 5;
#X obj 259 406 vu 15 120 masterl empty -1 -8 0 10 -66577 -1 1 0;
#X floatatom 540 422 5 0 0 0 - - -;
#X obj 549 391 env~ 8192;
#X obj 547 497 dbtorms~;
#X floatatom 557 570 5 0 0 0 - - -;
#X obj 529 467 sig~;
#X obj 615 533 snapshot~;
#X obj 644 479 bang;
#X connect 0 0 13 0;
#X connect 0 1 14 0;
#X connect 3 0 4 0;
#X connect 4 0 5 0;
#X connect 5 0 6 0;
#X connect 6 0 18 0;
#X connect 7 0 8 1;
#X connect 7 0 9 1;
#X connect 8 0 1 0;
#X connect 8 0 22 0;
#X connect 9 0 1 1;
#X connect 10 0 11 0;
#X connect 11 0 12 0;
#X connect 12 0 13 1;
#X connect 12 0 14 1;
#X connect 13 0 8 0;
#X connect 14 0 9 0;
#X connect 15 0 19 0;
#X connect 16 0 15 0;
#X connect 17 0 7 0;
#X connect 18 0 17 0;
#X connect 19 0 9 2;
#X connect 19 0 8 2;
#X connect 21 0 25 0;
#X connect 21 0 27 0;
#X connect 22 0 21 0;
#X connect 23 0 26 0;
#X connect 25 0 23 0;
#X connect 26 0 24 0;
#X connect 27 0 26 0;
