#N canvas 0 22 880 658 12;
#X obj 80 367 dac~;
#X obj 333 427 osc~ 440;
#X obj 419 483 *~;
#X obj 437 116 vsl 15 128 0 1 0 0 empty empty empty 0 -9 0 10 -262144
-1 -1 0 1;
#X floatatom 503 249 5 0 0 0 - - -;
#X floatatom 499 411 5 0 0 0 - - -;
#X obj 437 375 line;
#X obj 437 342 pack;
#X obj 462 268 bng 15 250 50 0 empty empty empty 17 7 0 10 -262144
-1 -1;
#X msg 462 297 100;
#X obj 435 70 inlet;
#X obj 419 533 outlet~;
#N canvas 642 135 638 594 osctest 0;
#X obj 342 340 osc~ 440;
#X obj 419 483 *~;
#X obj 404 139 vsl 15 128 0 1 0 0 empty empty empty 0 -9 0 10 -262144
-1 -1 0 1;
#X floatatom 503 249 5 0 0 0 - - -;
#X floatatom 499 411 5 0 0 0 - - -;
#X obj 437 375 line;
#X obj 437 342 pack;
#X obj 462 268 bng 15 250 50 0 empty empty empty 17 7 0 10 -262144
-1 -1;
#X msg 462 297 100;
#X obj 404 79 inlet;
#X obj 419 533 outlet~;
#X connect 0 0 1 0;
#X connect 1 0 10 0;
#X connect 2 0 3 0;
#X connect 2 0 7 0;
#X connect 2 0 6 0;
#X connect 5 0 4 0;
#X connect 5 0 1 1;
#X connect 6 0 5 0;
#X connect 7 0 8 0;
#X connect 8 0 6 1;
#X connect 9 0 2 0;
#X restore 80 333 pd osctest;
#X obj 63 183 vsl 15 128 0 1 0 0 empty empty empty 0 -9 0 10 -262144
-1 -1 0 1;
#X obj 671 94 bng 100 250 50 0 empty empty empty 17 7 0 10 -260097
-262144 -1;
#X obj 671 218 s b1;
#X obj 671 297 bng 15 250 50 0 empty empty empty 17 7 0 10 -262144
-1 -1;
#X obj 671 266 r b1;
#X obj 100 281 tgl 15 0 empty empty empty 17 7 0 10 -262144 -1 -1 0
1;
#X obj 685 557 spigot;
#X obj 685 414 bng 15 50 20 0 empty empty empty 17 7 0 10 -262144 -1
-1;
#X obj 685 354 tgl 15 0 empty empty empty 17 7 0 10 -262144 -1 -1 1
1;
#X floatatom 685 477 5 0 0 0 - - -;
#X obj 750 531 tgl 15 0 empty empty empty 17 7 0 10 -262144 -1 -1 0
1;
#X floatatom 685 592 5 0 0 0 - - -;
#X obj 685 379 metro 40;
#X obj 685 441 random 10;
#X obj 685 519 + 5;
#X connect 1 0 2 0;
#X connect 2 0 11 0;
#X connect 3 0 4 0;
#X connect 3 0 8 0;
#X connect 3 0 7 0;
#X connect 6 0 5 0;
#X connect 6 0 2 1;
#X connect 7 0 6 0;
#X connect 8 0 9 0;
#X connect 9 0 7 1;
#X connect 10 0 3 0;
#X connect 12 0 0 0;
#X connect 12 0 0 1;
#X connect 13 0 12 0;
#X connect 14 0 15 0;
#X connect 17 0 16 0;
#X connect 18 0 12 0;
#X connect 19 0 24 0;
#X connect 20 0 26 0;
#X connect 21 0 25 0;
#X connect 22 0 27 0;
#X connect 23 0 19 1;
#X connect 25 0 20 0;
#X connect 26 0 22 0;
#X connect 27 0 19 0;
