#N canvas 0 23 780 711 12;
#X obj 217 451 expr~ round ( $v1 / $f2);
#X obj 214 519 *~;
#X obj 157 496 *~;
#X obj 153 399 expr~ round ( $v1 / $f2);
#X obj 80 42 inlet~;
#X obj 172 47 inlet~;
#X obj 680 483 int;
#X floatatom 680 520 5 0 0 0 - - -;
#X obj 679 555 expr pow(2 \, $f1) - 1;
#X floatatom 680 602 5 0 0 0 - - -;
#X obj 683 633 expr 1 / $f1;
#X obj 177 151 vsl 15 40 2 16 0 0 empty empty empty 0 -9 0 10 -262144
-1 -1 3900 1;
#X obj 172 616 outlet~;
#X obj 246 616 outlet~;
#X obj 306 33 loadbang;
#X msg 345 93 16;
#X obj 496 326 int;
#X floatatom 496 363 5 0 0 0 - - -;
#X obj 495 398 expr pow(2 \, $f1) - 1;
#X floatatom 496 445 5 0 0 0 - - -;
#X obj 499 476 expr 1 / $f1;
#X obj 158 151 vsl 15 40 2 16 0 0 empty empty empty 0 -9 0 10 -262144
-1 -1 3900 1;
#X obj 447 88 inlet;
#X obj 528 89 inlet;
#X obj 391 99 inlet;
#X obj 134 177 tgl 15 0 empty empty empty 17 7 0 10 -262144 -1 -1 0
1;
#X obj 464 135 * 14;
#X obj 539 134 * 14;
#X obj 468 183 + 2;
#X obj 541 186 + 2;
#X obj 463 248 spigot;
#X obj 509 199 tgl 15 0 empty empty empty 17 7 0 10 -262144 -1 -1 0
1;
#X obj 534 248 spigot;
#X floatatom 461 299 5 0 0 0 - - -;
#X floatatom 561 301 5 0 0 0 - - -;
#X connect 0 0 1 0;
#X connect 1 0 13 0;
#X connect 2 0 12 0;
#X connect 3 0 2 0;
#X connect 4 0 3 0;
#X connect 5 0 0 0;
#X connect 6 0 7 0;
#X connect 7 0 8 0;
#X connect 8 0 9 0;
#X connect 9 0 10 0;
#X connect 10 0 1 1;
#X connect 10 0 0 1;
#X connect 11 0 32 0;
#X connect 14 0 15 0;
#X connect 15 0 11 0;
#X connect 15 0 21 0;
#X connect 16 0 17 0;
#X connect 17 0 18 0;
#X connect 18 0 19 0;
#X connect 19 0 20 0;
#X connect 20 0 3 1;
#X connect 20 0 2 1;
#X connect 21 0 30 0;
#X connect 22 0 26 0;
#X connect 23 0 27 0;
#X connect 24 0 25 0;
#X connect 25 0 31 0;
#X connect 26 0 28 0;
#X connect 27 0 29 0;
#X connect 28 0 30 0;
#X connect 29 0 32 0;
#X connect 30 0 33 0;
#X connect 30 0 34 0;
#X connect 31 0 30 1;
#X connect 31 0 32 1;
#X connect 32 0 34 0;
#X connect 32 0 33 0;
#X connect 33 0 16 0;
#X connect 34 0 6 0;
#X coords 0 -1 1 1 100 100 1 100 100;
