#N canvas 462 23 904 723 12;
#X obj 135 384 bng 15 250 50 0 empty empty empty 17 7 0 10 -262144
-1 -1;
#X obj 135 421 t b b;
#X obj 70 608 noise~;
#X obj 144 621 line;
#X obj 70 651 *~;
#X obj 660 447 mtof;
#X obj 646 491 expr 1000 / $f1;
#X floatatom 660 407 5 0 0 0 - - -;
#X obj 499 552 *~ 0.98;
#X obj 167 144 vsl 8 50 0.8 0.99 0 0 empty empty empty 0 -9 0 10 -262144
-1 -1 3611 1;
#X floatatom 619 291 5 0 0 0 - - -;
#X obj 619 372 spigot;
#X obj 665 332 != 0;
#X obj 179 485 del 9;
#X obj 156 144 vsl 8 50 2 20 0 0 empty empty empty 0 -9 0 10 -262144
-1 -1 1388 1;
#X obj 70 680 lop~ 200;
#X obj 319 727 lop~ 10000;
#X obj 178 144 vsl 8 50 2000 10000 0 0 empty empty empty 0 -9 0 10
-262144 -1 -1 857 1;
#N canvas 0 22 450 278 (subpatch) 0;
#X array KS\$0 100 float 5;
#A 0 0 0 0 0 0 0 0 0 0 0 0 0 0 0 0 0 0 0 0 0 0 0 0 0 0 0 0 0 0 0 0
0 0 0 0 0 0 0 0 0 0 0 0 0 0 0 0 0 0 0 0 0 0 0 0 0 0 0 0 0 0 0 0 0 0
0 0 0 0 0 0 0 0 0 0 0 0 0 0 0 0 0 0 0 0 0 0 0 0 0 0 0 0 0 0 0 0 0 0
0;
#X coords 0 1 99 -1 50 50 1 0 0;
#X restore 103 147 graph;
#X obj 421 754 tgl 15 0 empty empty empty 17 7 0 10 -262144 -1 -1 1
1;
#X obj 189 144 vsl 8 50 0 1000 0 0 empty empty empty 0 -9 0 10 -262144
-1 -1 0 1;
#X obj 435 648 hip~;
#X obj 319 794 metro 40;
#X obj 622 214 inlet;
#X obj 671 214 inlet;
#X obj 307 201 * 19;
#X obj 327 287 + 2;
#X obj 296 134 inlet;
#X obj 176 906 outlet~;
#X obj 380 284 + 0.8;
#X obj 355 205 * 0.19;
#X obj 353 132 inlet;
#X obj 425 195 * 8000;
#X obj 445 281 + 2000;
#X obj 490 198 * 1000;
#X obj 421 136 inlet;
#X obj 478 134 inlet;
#X obj 513 695 loadbang;
#X obj 180 13 loadbang;
#X floatatom 41 286 5 0 0 0 - - -;
#X floatatom 87 287 5 0 0 0 - - -;
#X floatatom 134 288 5 0 0 0 - - -;
#X floatatom 180 289 5 0 0 0 - - -;
#X msg 147 63 7.1;
#X msg 192 63 0.94;
#X msg 239 62 3400;
#X msg 286 61 0;
#X msg 179 526 0 2;
#X obj 69 767 delwrite~ del\$0 500;
#X obj 444 441 delread4~ del\$0;
#X obj 318 831 tabwrite~ KS\$0;
#X obj 260 772 *~ 1;
#X msg 119 526 1 2;
#X obj 654 617 bng 15 250 50 0 empty empty empty 17 7 0 10 -262144
-1 -1;
#X obj 654 654 t b b;
#X obj 663 854 line;
#X obj 698 718 del 9;
#X obj 244 857 *~;
#X msg 639 759 1 10;
#X msg 698 759 0 2000;
#X connect 0 0 1 0;
#X connect 0 0 53 0;
#X connect 1 0 52 0;
#X connect 1 1 13 0;
#X connect 2 0 4 0;
#X connect 3 0 4 1;
#X connect 4 0 15 0;
#X connect 5 0 6 0;
#X connect 6 0 49 0;
#X connect 7 0 5 0;
#X connect 7 0 0 0;
#X connect 8 0 21 0;
#X connect 9 0 8 1;
#X connect 9 0 40 0;
#X connect 10 0 11 0;
#X connect 11 0 7 0;
#X connect 12 0 11 1;
#X connect 13 0 47 0;
#X connect 14 0 13 1;
#X connect 14 0 39 0;
#X connect 15 0 48 0;
#X connect 16 0 51 0;
#X connect 16 0 48 0;
#X connect 17 0 16 1;
#X connect 17 0 41 0;
#X connect 19 0 22 0;
#X connect 20 0 21 1;
#X connect 20 0 42 0;
#X connect 21 0 16 0;
#X connect 22 0 50 0;
#X connect 23 0 10 0;
#X connect 24 0 12 0;
#X connect 25 0 26 0;
#X connect 26 0 14 0;
#X connect 27 0 25 0;
#X connect 29 0 9 0;
#X connect 30 0 29 0;
#X connect 31 0 30 0;
#X connect 32 0 33 0;
#X connect 33 0 17 0;
#X connect 34 0 20 0;
#X connect 35 0 32 0;
#X connect 36 0 34 0;
#X connect 37 0 19 0;
#X connect 38 0 43 0;
#X connect 38 0 44 0;
#X connect 38 0 45 0;
#X connect 38 0 46 0;
#X connect 43 0 14 0;
#X connect 44 0 9 0;
#X connect 45 0 17 0;
#X connect 46 0 20 0;
#X connect 47 0 3 0;
#X connect 49 0 8 0;
#X connect 51 0 50 0;
#X connect 51 0 57 0;
#X connect 52 0 3 0;
#X connect 53 0 54 0;
#X connect 54 0 58 0;
#X connect 54 1 56 0;
#X connect 55 0 57 1;
#X connect 56 0 59 0;
#X connect 57 0 28 0;
#X connect 58 0 55 0;
#X connect 59 0 55 0;
#X coords 0 -1 1 1 100 100 2 100 100;
