#N canvas 0 22 577 694 12;
#X obj 74 104 ks;
#X obj 254 45 tgl 15 0 empty empty empty 17 7 0 10 -262144 -1 -1 0
1;
#X obj 68 252 dac~;
#X obj 254 65 metro 125;
#X obj 254 98 random 50;
#X obj 254 137 + 30;
#X obj 295 308 ks;
#X obj 475 249 tgl 15 0 empty empty empty 17 7 0 10 -262144 -1 -1 1
1;
#X obj 289 456 dac~;
#X obj 475 269 metro 125;
#X obj 475 302 random 50;
#X obj 475 341 + 30;
#X connect 0 0 2 0;
#X connect 0 0 2 1;
#X connect 1 0 3 0;
#X connect 3 0 4 0;
#X connect 4 0 0 5;
#X connect 4 0 5 0;
#X connect 5 0 0 4;
#X connect 6 0 8 0;
#X connect 6 0 8 1;
#X connect 7 0 9 0;
#X connect 9 0 10 0;
#X connect 10 0 6 5;
#X connect 10 0 11 0;
#X connect 11 0 6 4;
