#N canvas 102 0 1017 878 12;
#X obj 529 890 dac~;
#X obj 703 762 adc~;
#X obj 325 790 rev1~;
#X msg 598 583 80;
#X msg 511 366 0;
#X msg 589 811 50;
#N canvas 628 77 567 508 c16 0;
#N canvas 844 234 450 300 counter 0;
#X obj 219 124 metro 500;
#X obj 219 92 tgl 15 0 empty empty empty 17 7 0 10 -262144 -1 -1 1
1;
#X floatatom 234 179 5 0 0 0 - - -;
#X floatatom 255 201 5 0 0 0 - - -;
#X floatatom 315 241 5 0 0 0 - - -;
#X obj 221 247 +;
#X msg 315 95 0;
#X obj 315 58 inlet;
#X obj 315 292 outlet;
#X obj 219 58 inlet;
#X obj 266 58 inlet;
#X msg 123 147 1;
#X obj 124 104 loadbang;
#X connect 0 0 5 0;
#X connect 1 0 0 0;
#X connect 2 0 5 0;
#X connect 3 0 5 1;
#X connect 4 0 3 0;
#X connect 4 0 8 0;
#X connect 5 0 4 0;
#X connect 6 0 4 0;
#X connect 7 0 6 0;
#X connect 9 0 1 0;
#X connect 10 0 0 1;
#X connect 11 0 2 0;
#X connect 12 0 11 0;
#X restore 263 228 pd counter;
#X floatatom 266 291 5 0 0 0 - - -;
#X obj 259 183 tgl 15 0 empty empty empty 17 7 0 10 -262144 -1 -1 1
1;
#X obj 340 181 bng 15 250 50 0 empty empty empty 17 7 0 10 -262144
-1 -1;
#X obj 272 338 mod;
#X floatatom 267 377 5 0 0 0 - - -;
#X floatatom 324 310 5 0 0 0 - - -;
#X obj 263 110 loadbang;
#X msg 299 171 125;
#X obj 438 173 vsl 15 128 -19 19 0 0 empty empty empty 0 -9 0 10 -262144
-1 -1 0 1;
#X msg 326 267 16;
#X obj 395 108 inlet;
#X obj 445 128 inlet;
#X obj 273 413 outlet;
#X connect 0 0 1 0;
#X connect 1 0 4 0;
#X connect 2 0 0 0;
#X connect 3 0 0 2;
#X connect 4 0 5 0;
#X connect 5 0 13 0;
#X connect 6 0 4 1;
#X connect 7 0 2 0;
#X connect 7 0 8 0;
#X connect 7 0 3 0;
#X connect 7 0 10 0;
#X connect 8 0 0 1;
#X connect 9 0 6 0;
#X connect 10 0 6 0;
#X connect 11 0 10 0;
#X connect 12 0 9 0;
#X restore 483 39 pd c16;
#X obj 271 105 bng 15 250 50 0 empty empty empty 17 7 0 10 -262144
-1 -1;
#X obj 234 328 hsl 128 15 0 19 0 0 empty empty empty -2 -8 0 10 -262144
-1 -1 0 1;
#N canvas 1 0 1642 938 s16 0;
#X obj 679 364 sel 0 1 2 3 4 5 6 7 8 9 10 11 12 13 14 15;
#X obj 692 405 bng 15 250 50 0 empty empty empty 17 7 0 10 -262144
-1 -1;
#X obj 708 405 bng 15 250 50 0 empty empty empty 17 7 0 10 -262144
-1 -1;
#X obj 724 405 bng 15 250 50 0 empty empty empty 17 7 0 10 -262144
-1 -1;
#X obj 740 405 bng 15 250 50 0 empty empty empty 17 7 0 10 -262144
-1 -1;
#X obj 757 405 bng 15 250 50 0 empty empty empty 17 7 0 10 -262144
-1 -1;
#X obj 773 405 bng 15 250 50 0 empty empty empty 17 7 0 10 -262144
-1 -1;
#X obj 789 405 bng 15 250 50 0 empty empty empty 17 7 0 10 -262144
-1 -1;
#X obj 805 405 bng 15 250 50 0 empty empty empty 17 7 0 10 -262144
-1 -1;
#X obj 855 405 bng 15 250 50 0 empty empty empty 17 7 0 10 -262144
-1 -1;
#X obj 838 405 bng 15 250 50 0 empty empty empty 17 7 0 10 -262144
-1 -1;
#X obj 939 405 bng 15 250 50 0 empty empty empty 17 7 0 10 -262144
-1 -1;
#X obj 872 405 bng 15 250 50 0 empty empty empty 17 7 0 10 -262144
-1 -1;
#X obj 822 405 bng 15 250 50 0 empty empty empty 17 7 0 10 -262144
-1 -1;
#X obj 889 405 bng 15 250 50 0 empty empty empty 17 7 0 10 -262144
-1 -1;
#X obj 905 405 bng 15 250 50 0 empty empty empty 17 7 0 10 -262144
-1 -1;
#X obj 921 405 bng 15 250 50 0 empty empty empty 17 7 0 10 -262144
-1 -1;
#X obj 411 749 bng 15 250 50 0 empty empty empty 17 7 0 10 -262144
-1 -1;
#X obj 1 200 inlet;
#X obj 38 562 inlet;
#X obj 115 562 inlet;
#X obj 907 882 outlet;
#X obj 221 562 inlet;
#X obj 298 562 inlet;
#X obj 393 562 inlet;
#X obj 639 561 inlet;
#X obj 514 561 inlet;
#X obj 730 562 inlet;
#X obj 823 561 inlet;
#X obj 929 561 inlet;
#X obj 1006 561 inlet;
#X obj 1101 561 inlet;
#X obj 1178 561 inlet;
#X obj 1412 562 inlet;
#X obj 1285 556 inlet;
#N canvas 0 43 494 417 switch1 0;
#X floatatom 120 184 5 0 0 0 - - -;
#X msg 117 134 1;
#X msg 175 134 0;
#X obj 141 278 sel 1;
#X obj 191 186 del 20;
#X floatatom 136 246 5 0 0 0 - - -;
#X obj 122 85 inlet;
#X obj 151 342 outlet;
#X obj 127 217 -;
#X obj 248 103 inlet;
#X obj 331 188 sel 1 0;
#X msg 331 240 0;
#X msg 404 235 1;
#X obj 351 114 loadbang;
#X connect 0 0 8 0;
#X connect 1 0 0 0;
#X connect 1 0 4 0;
#X connect 2 0 0 0;
#X connect 3 0 7 0;
#X connect 4 0 2 0;
#X connect 5 0 3 0;
#X connect 6 0 1 0;
#X connect 8 0 5 0;
#X connect 9 0 10 0;
#X connect 10 0 11 0;
#X connect 10 1 12 0;
#X connect 11 0 8 1;
#X connect 12 0 8 1;
#X connect 13 0 12 0;
#X restore 7 612 pd switch1;
#N canvas 0 43 494 417 switch1 0;
#X floatatom 120 184 5 0 0 0 - - -;
#X msg 117 134 1;
#X msg 175 134 0;
#X obj 141 278 sel 1;
#X obj 191 186 del 20;
#X floatatom 136 246 5 0 0 0 - - -;
#X obj 122 85 inlet;
#X obj 151 342 outlet;
#X obj 127 217 -;
#X obj 248 103 inlet;
#X obj 331 188 sel 1 0;
#X msg 331 240 0;
#X msg 404 235 1;
#X obj 351 114 loadbang;
#X connect 0 0 8 0;
#X connect 1 0 0 0;
#X connect 1 0 4 0;
#X connect 2 0 0 0;
#X connect 3 0 7 0;
#X connect 4 0 2 0;
#X connect 5 0 3 0;
#X connect 6 0 1 0;
#X connect 8 0 5 0;
#X connect 9 0 10 0;
#X connect 10 0 11 0;
#X connect 10 1 12 0;
#X connect 11 0 8 1;
#X connect 12 0 8 1;
#X connect 13 0 12 0;
#X restore 115 612 pd switch1;
#N canvas 0 43 494 417 switch1 0;
#X floatatom 120 184 5 0 0 0 - - -;
#X msg 117 134 1;
#X msg 175 134 0;
#X obj 141 278 sel 1;
#X obj 191 186 del 20;
#X floatatom 136 246 5 0 0 0 - - -;
#X obj 122 85 inlet;
#X obj 151 342 outlet;
#X obj 127 217 -;
#X obj 248 103 inlet;
#X obj 331 188 sel 1 0;
#X msg 331 240 0;
#X msg 404 235 1;
#X obj 351 114 loadbang;
#X connect 0 0 8 0;
#X connect 1 0 0 0;
#X connect 1 0 4 0;
#X connect 2 0 0 0;
#X connect 3 0 7 0;
#X connect 4 0 2 0;
#X connect 5 0 3 0;
#X connect 6 0 1 0;
#X connect 8 0 5 0;
#X connect 9 0 10 0;
#X connect 10 0 11 0;
#X connect 10 1 12 0;
#X connect 11 0 8 1;
#X connect 12 0 8 1;
#X connect 13 0 12 0;
#X restore 221 612 pd switch1;
#N canvas 0 43 494 417 switch1 0;
#X floatatom 120 184 5 0 0 0 - - -;
#X msg 117 134 1;
#X msg 175 134 0;
#X obj 141 278 sel 1;
#X obj 191 186 del 20;
#X floatatom 136 246 5 0 0 0 - - -;
#X obj 122 85 inlet;
#X obj 151 342 outlet;
#X obj 127 217 -;
#X obj 248 103 inlet;
#X obj 331 188 sel 1 0;
#X msg 331 240 0;
#X msg 404 235 1;
#X obj 351 114 loadbang;
#X connect 0 0 8 0;
#X connect 1 0 0 0;
#X connect 1 0 4 0;
#X connect 2 0 0 0;
#X connect 3 0 7 0;
#X connect 4 0 2 0;
#X connect 5 0 3 0;
#X connect 6 0 1 0;
#X connect 8 0 5 0;
#X connect 9 0 10 0;
#X connect 10 0 11 0;
#X connect 10 1 12 0;
#X connect 11 0 8 1;
#X connect 12 0 8 1;
#X connect 13 0 12 0;
#X restore 345 612 pd switch1;
#N canvas 0 43 494 417 switch1 0;
#X floatatom 120 184 5 0 0 0 - - -;
#X msg 117 134 1;
#X msg 175 134 0;
#X obj 141 278 sel 1;
#X obj 191 186 del 20;
#X floatatom 136 246 5 0 0 0 - - -;
#X obj 122 85 inlet;
#X obj 151 342 outlet;
#X obj 127 217 -;
#X obj 248 103 inlet;
#X obj 331 188 sel 1 0;
#X msg 331 240 0;
#X msg 404 235 1;
#X obj 351 114 loadbang;
#X connect 0 0 8 0;
#X connect 1 0 0 0;
#X connect 1 0 4 0;
#X connect 2 0 0 0;
#X connect 3 0 7 0;
#X connect 4 0 2 0;
#X connect 5 0 3 0;
#X connect 6 0 1 0;
#X connect 8 0 5 0;
#X connect 9 0 10 0;
#X connect 10 0 11 0;
#X connect 10 1 12 0;
#X connect 11 0 8 1;
#X connect 12 0 8 1;
#X connect 13 0 12 0;
#X restore 442 612 pd switch1;
#N canvas 0 43 494 417 switch1 0;
#X floatatom 120 184 5 0 0 0 - - -;
#X msg 117 134 1;
#X msg 175 134 0;
#X obj 141 278 sel 1;
#X obj 191 186 del 20;
#X floatatom 136 246 5 0 0 0 - - -;
#X obj 122 85 inlet;
#X obj 151 342 outlet;
#X obj 127 217 -;
#X obj 248 103 inlet;
#X obj 331 188 sel 1 0;
#X msg 331 240 0;
#X msg 404 235 1;
#X obj 351 114 loadbang;
#X connect 0 0 8 0;
#X connect 1 0 0 0;
#X connect 1 0 4 0;
#X connect 2 0 0 0;
#X connect 3 0 7 0;
#X connect 4 0 2 0;
#X connect 5 0 3 0;
#X connect 6 0 1 0;
#X connect 8 0 5 0;
#X connect 9 0 10 0;
#X connect 10 0 11 0;
#X connect 10 1 12 0;
#X connect 11 0 8 1;
#X connect 12 0 8 1;
#X connect 13 0 12 0;
#X restore 526 612 pd switch1;
#N canvas 0 43 494 417 switch1 0;
#X floatatom 120 184 5 0 0 0 - - -;
#X msg 117 134 1;
#X msg 175 134 0;
#X obj 141 278 sel 1;
#X obj 191 186 del 20;
#X floatatom 136 246 5 0 0 0 - - -;
#X obj 122 85 inlet;
#X obj 151 342 outlet;
#X obj 127 217 -;
#X obj 248 103 inlet;
#X obj 331 188 sel 1 0;
#X msg 331 240 0;
#X msg 404 235 1;
#X obj 351 114 loadbang;
#X connect 0 0 8 0;
#X connect 1 0 0 0;
#X connect 1 0 4 0;
#X connect 2 0 0 0;
#X connect 3 0 7 0;
#X connect 4 0 2 0;
#X connect 5 0 3 0;
#X connect 6 0 1 0;
#X connect 8 0 5 0;
#X connect 9 0 10 0;
#X connect 10 0 11 0;
#X connect 10 1 12 0;
#X connect 11 0 8 1;
#X connect 12 0 8 1;
#X connect 13 0 12 0;
#X restore 622 633 pd switch1;
#N canvas 0 43 494 417 switch1 0;
#X floatatom 120 184 5 0 0 0 - - -;
#X msg 117 134 1;
#X msg 175 134 0;
#X obj 141 278 sel 1;
#X obj 191 186 del 20;
#X floatatom 136 246 5 0 0 0 - - -;
#X obj 122 85 inlet;
#X obj 151 342 outlet;
#X obj 127 217 -;
#X obj 248 103 inlet;
#X obj 331 188 sel 1 0;
#X msg 331 240 0;
#X msg 404 235 1;
#X obj 351 114 loadbang;
#X connect 0 0 8 0;
#X connect 1 0 0 0;
#X connect 1 0 4 0;
#X connect 2 0 0 0;
#X connect 3 0 7 0;
#X connect 4 0 2 0;
#X connect 5 0 3 0;
#X connect 6 0 1 0;
#X connect 8 0 5 0;
#X connect 9 0 10 0;
#X connect 10 0 11 0;
#X connect 10 1 12 0;
#X connect 11 0 8 1;
#X connect 12 0 8 1;
#X connect 13 0 12 0;
#X restore 722 633 pd switch1;
#N canvas 0 43 494 417 switch1 0;
#X floatatom 120 184 5 0 0 0 - - -;
#X msg 117 134 1;
#X msg 175 134 0;
#X obj 141 278 sel 1;
#X obj 191 186 del 20;
#X floatatom 136 246 5 0 0 0 - - -;
#X obj 122 85 inlet;
#X obj 151 342 outlet;
#X obj 127 217 -;
#X obj 248 103 inlet;
#X obj 331 188 sel 1 0;
#X msg 331 240 0;
#X msg 404 235 1;
#X obj 351 114 loadbang;
#X connect 0 0 8 0;
#X connect 1 0 0 0;
#X connect 1 0 4 0;
#X connect 2 0 0 0;
#X connect 3 0 7 0;
#X connect 4 0 2 0;
#X connect 5 0 3 0;
#X connect 6 0 1 0;
#X connect 8 0 5 0;
#X connect 9 0 10 0;
#X connect 10 0 11 0;
#X connect 10 1 12 0;
#X connect 11 0 8 1;
#X connect 12 0 8 1;
#X connect 13 0 12 0;
#X restore 809 612 pd switch1;
#N canvas 0 43 494 417 switch1 0;
#X floatatom 120 184 5 0 0 0 - - -;
#X msg 117 134 1;
#X msg 175 134 0;
#X obj 141 278 sel 1;
#X obj 191 186 del 20;
#X floatatom 136 246 5 0 0 0 - - -;
#X obj 122 85 inlet;
#X obj 151 342 outlet;
#X obj 127 217 -;
#X obj 248 103 inlet;
#X obj 331 188 sel 1 0;
#X msg 331 240 0;
#X msg 404 235 1;
#X obj 351 114 loadbang;
#X connect 0 0 8 0;
#X connect 1 0 0 0;
#X connect 1 0 4 0;
#X connect 2 0 0 0;
#X connect 3 0 7 0;
#X connect 4 0 2 0;
#X connect 5 0 3 0;
#X connect 6 0 1 0;
#X connect 8 0 5 0;
#X connect 9 0 10 0;
#X connect 10 0 11 0;
#X connect 10 1 12 0;
#X connect 11 0 8 1;
#X connect 12 0 8 1;
#X connect 13 0 12 0;
#X restore 895 633 pd switch1;
#N canvas 0 43 494 417 switch1 0;
#X floatatom 120 184 5 0 0 0 - - -;
#X msg 117 134 1;
#X msg 175 134 0;
#X obj 141 278 sel 1;
#X obj 191 186 del 20;
#X floatatom 136 246 5 0 0 0 - - -;
#X obj 122 85 inlet;
#X obj 151 342 outlet;
#X obj 127 217 -;
#X obj 248 103 inlet;
#X obj 331 188 sel 1 0;
#X msg 331 240 0;
#X msg 404 235 1;
#X obj 351 114 loadbang;
#X connect 0 0 8 0;
#X connect 1 0 0 0;
#X connect 1 0 4 0;
#X connect 2 0 0 0;
#X connect 3 0 7 0;
#X connect 4 0 2 0;
#X connect 5 0 3 0;
#X connect 6 0 1 0;
#X connect 8 0 5 0;
#X connect 9 0 10 0;
#X connect 10 0 11 0;
#X connect 10 1 12 0;
#X connect 11 0 8 1;
#X connect 12 0 8 1;
#X connect 13 0 12 0;
#X restore 977 633 pd switch1;
#N canvas 0 43 494 417 switch1 0;
#X floatatom 120 184 5 0 0 0 - - -;
#X msg 117 134 1;
#X msg 175 134 0;
#X obj 141 278 sel 1;
#X obj 191 186 del 20;
#X floatatom 136 246 5 0 0 0 - - -;
#X obj 122 85 inlet;
#X obj 151 342 outlet;
#X obj 127 217 -;
#X obj 248 103 inlet;
#X obj 331 188 sel 1 0;
#X msg 331 240 0;
#X msg 404 235 1;
#X obj 351 114 loadbang;
#X connect 0 0 8 0;
#X connect 1 0 0 0;
#X connect 1 0 4 0;
#X connect 2 0 0 0;
#X connect 3 0 7 0;
#X connect 4 0 2 0;
#X connect 5 0 3 0;
#X connect 6 0 1 0;
#X connect 8 0 5 0;
#X connect 9 0 10 0;
#X connect 10 0 11 0;
#X connect 10 1 12 0;
#X connect 11 0 8 1;
#X connect 12 0 8 1;
#X connect 13 0 12 0;
#X restore 1066 612 pd switch1;
#N canvas 0 43 494 417 switch1 0;
#X floatatom 120 184 5 0 0 0 - - -;
#X msg 117 134 1;
#X msg 175 134 0;
#X obj 141 278 sel 1;
#X obj 191 186 del 20;
#X floatatom 136 246 5 0 0 0 - - -;
#X obj 122 85 inlet;
#X obj 151 342 outlet;
#X obj 127 217 -;
#X obj 248 103 inlet;
#X obj 331 188 sel 1 0;
#X msg 331 240 0;
#X msg 404 235 1;
#X obj 351 114 loadbang;
#X connect 0 0 8 0;
#X connect 1 0 0 0;
#X connect 1 0 4 0;
#X connect 2 0 0 0;
#X connect 3 0 7 0;
#X connect 4 0 2 0;
#X connect 5 0 3 0;
#X connect 6 0 1 0;
#X connect 8 0 5 0;
#X connect 9 0 10 0;
#X connect 10 0 11 0;
#X connect 10 1 12 0;
#X connect 11 0 8 1;
#X connect 12 0 8 1;
#X connect 13 0 12 0;
#X restore 1158 612 pd switch1;
#N canvas 0 43 494 417 switch1 0;
#X floatatom 120 184 5 0 0 0 - - -;
#X msg 117 134 1;
#X msg 175 134 0;
#X obj 141 278 sel 1;
#X obj 191 186 del 20;
#X floatatom 136 246 5 0 0 0 - - -;
#X obj 122 85 inlet;
#X obj 151 342 outlet;
#X obj 127 217 -;
#X obj 248 103 inlet;
#X obj 331 188 sel 1 0;
#X msg 331 240 0;
#X msg 404 235 1;
#X obj 351 114 loadbang;
#X connect 0 0 8 0;
#X connect 1 0 0 0;
#X connect 1 0 4 0;
#X connect 2 0 0 0;
#X connect 3 0 7 0;
#X connect 4 0 2 0;
#X connect 5 0 3 0;
#X connect 6 0 1 0;
#X connect 8 0 5 0;
#X connect 9 0 10 0;
#X connect 10 0 11 0;
#X connect 10 1 12 0;
#X connect 11 0 8 1;
#X connect 12 0 8 1;
#X connect 13 0 12 0;
#X restore 1412 612 pd switch1;
#N canvas 0 43 494 417 switch1 0;
#X floatatom 120 184 5 0 0 0 - - -;
#X msg 117 134 1;
#X msg 175 134 0;
#X obj 141 278 sel 1;
#X obj 191 186 del 20;
#X floatatom 136 246 5 0 0 0 - - -;
#X obj 122 85 inlet;
#X obj 151 342 outlet;
#X obj 127 217 -;
#X obj 248 103 inlet;
#X obj 331 188 sel 1 0;
#X msg 331 240 0;
#X msg 404 235 1;
#X obj 351 114 loadbang;
#X connect 0 0 8 0;
#X connect 1 0 0 0;
#X connect 1 0 4 0;
#X connect 2 0 0 0;
#X connect 3 0 7 0;
#X connect 4 0 2 0;
#X connect 5 0 3 0;
#X connect 6 0 1 0;
#X connect 8 0 5 0;
#X connect 9 0 10 0;
#X connect 10 0 11 0;
#X connect 10 1 12 0;
#X connect 11 0 8 1;
#X connect 12 0 8 1;
#X connect 13 0 12 0;
#X restore 1258 612 pd switch1;
#X obj 1540 562 inlet;
#N canvas 0 43 494 417 switch1 0;
#X floatatom 120 184 5 0 0 0 - - -;
#X msg 117 134 1;
#X msg 175 134 0;
#X obj 141 278 sel 1;
#X obj 191 186 del 20;
#X floatatom 136 246 5 0 0 0 - - -;
#X obj 122 85 inlet;
#X obj 151 342 outlet;
#X obj 127 217 -;
#X obj 248 103 inlet;
#X obj 331 188 sel 1 0;
#X msg 331 240 0;
#X msg 404 235 1;
#X obj 351 114 loadbang;
#X connect 0 0 8 0;
#X connect 1 0 0 0;
#X connect 1 0 4 0;
#X connect 2 0 0 0;
#X connect 3 0 7 0;
#X connect 4 0 2 0;
#X connect 5 0 3 0;
#X connect 6 0 1 0;
#X connect 8 0 5 0;
#X connect 9 0 10 0;
#X connect 10 0 11 0;
#X connect 10 1 12 0;
#X connect 11 0 8 1;
#X connect 12 0 8 1;
#X connect 13 0 12 0;
#X restore 1497 612 pd switch1;
#X obj 761 750 bng 15 250 50 0 empty empty empty 17 7 0 10 -262144
-1 -1;
#X obj 1087 733 bng 15 250 50 0 empty empty empty 17 7 0 10 -262144
-1 -1;
#X obj 1437 734 bng 15 250 50 0 empty empty empty 17 7 0 10 -262144
-1 -1;
#X connect 0 0 1 0;
#X connect 0 1 2 0;
#X connect 0 2 3 0;
#X connect 0 3 4 0;
#X connect 0 4 5 0;
#X connect 0 5 6 0;
#X connect 0 6 7 0;
#X connect 0 7 8 0;
#X connect 0 8 13 0;
#X connect 0 9 10 0;
#X connect 0 10 9 0;
#X connect 0 11 12 0;
#X connect 0 12 14 0;
#X connect 0 13 15 0;
#X connect 0 14 16 0;
#X connect 0 15 11 0;
#X connect 1 0 35 0;
#X connect 2 0 36 0;
#X connect 3 0 37 0;
#X connect 4 0 38 0;
#X connect 5 0 39 0;
#X connect 6 0 40 0;
#X connect 7 0 41 0;
#X connect 8 0 42 0;
#X connect 9 0 45 0;
#X connect 10 0 44 0;
#X connect 11 0 51 0;
#X connect 12 0 46 0;
#X connect 13 0 43 0;
#X connect 14 0 47 0;
#X connect 15 0 49 0;
#X connect 16 0 48 0;
#X connect 17 0 21 0;
#X connect 18 0 0 0;
#X connect 19 0 35 1;
#X connect 20 0 36 1;
#X connect 22 0 37 1;
#X connect 23 0 38 1;
#X connect 24 0 39 1;
#X connect 25 0 41 1;
#X connect 26 0 40 1;
#X connect 27 0 42 1;
#X connect 28 0 43 1;
#X connect 29 0 44 1;
#X connect 30 0 45 1;
#X connect 31 0 46 1;
#X connect 32 0 47 1;
#X connect 33 0 48 1;
#X connect 34 0 49 1;
#X connect 35 0 17 0;
#X connect 36 0 17 0;
#X connect 37 0 17 0;
#X connect 38 0 17 0;
#X connect 39 0 52 0;
#X connect 40 0 52 0;
#X connect 41 0 52 0;
#X connect 42 0 52 0;
#X connect 43 0 53 0;
#X connect 44 0 53 0;
#X connect 45 0 53 0;
#X connect 46 0 53 0;
#X connect 47 0 54 0;
#X connect 48 0 54 0;
#X connect 49 0 54 0;
#X connect 50 0 51 1;
#X connect 51 0 54 0;
#X connect 52 0 21 0;
#X connect 53 0 21 0;
#X connect 54 0 21 0;
#X restore 645 340 pd s16;
#X f 36;
#X obj 627 422 tgl 15 0 empty empty empty 17 7 0 10 -262144 -1 -1 0
1;
#X obj 652 420 tgl 15 0 empty empty empty 17 7 0 10 -262144 -1 -1 0
1;
#X obj 678 432 tgl 15 0 empty empty empty 17 7 0 10 -262144 -1 -1 0
1;
#X obj 698 430 tgl 15 0 empty empty empty 17 7 0 10 -262144 -1 -1 0
1;
#X obj 740 433 tgl 15 0 empty empty empty 17 7 0 10 -262144 -1 -1 0
1;
#X obj 717 435 tgl 15 0 empty empty empty 17 7 0 10 -262144 -1 -1 0
1;
#X obj 771 429 tgl 15 0 empty empty empty 17 7 0 10 -262144 -1 -1 0
1;
#X obj 796 427 tgl 15 0 empty empty empty 17 7 0 10 -262144 -1 -1 0
1;
#X obj 822 439 tgl 15 0 empty empty empty 17 7 0 10 -262144 -1 -1 0
1;
#X obj 842 437 tgl 15 0 empty empty empty 17 7 0 10 -262144 -1 -1 0
1;
#X obj 864 430 tgl 15 0 empty empty empty 17 7 0 10 -262144 -1 -1 0
1;
#X obj 889 428 tgl 15 0 empty empty empty 17 7 0 10 -262144 -1 -1 0
1;
#X obj 933 432 tgl 15 0 empty empty empty 17 7 0 10 -262144 -1 -1 0
1;
#X obj 918 439 tgl 15 0 empty empty empty 17 7 0 10 -262144 -1 -1 0
1;
#X obj 608 437 tgl 15 0 empty empty empty 17 7 0 10 -262144 -1 -1 0
1;
#N canvas 0 0 1440 878 s16 1;
#X obj 679 365 sel 0 1 2 3 4 5 6 7 8 9 10 11 12 13 14 15;
#X obj 692 405 bng 15 250 50 0 empty empty empty 17 7 0 10 -262144
-1 -1;
#X obj 708 405 bng 15 250 50 0 empty empty empty 17 7 0 10 -262144
-1 -1;
#X obj 724 405 bng 15 250 50 0 empty empty empty 17 7 0 10 -262144
-1 -1;
#X obj 740 405 bng 15 250 50 0 empty empty empty 17 7 0 10 -262144
-1 -1;
#X obj 757 405 bng 15 250 50 0 empty empty empty 17 7 0 10 -262144
-1 -1;
#X obj 773 405 bng 15 250 50 0 empty empty empty 17 7 0 10 -262144
-1 -1;
#X obj 789 405 bng 15 250 50 0 empty empty empty 17 7 0 10 -262144
-1 -1;
#X obj 805 405 bng 15 250 50 0 empty empty empty 17 7 0 10 -262144
-1 -1;
#X obj 855 405 bng 15 250 50 0 empty empty empty 17 7 0 10 -262144
-1 -1;
#X obj 838 405 bng 15 250 50 0 empty empty empty 17 7 0 10 -262144
-1 -1;
#X obj 939 405 bng 15 250 50 0 empty empty empty 17 7 0 10 -262144
-1 -1;
#X obj 872 405 bng 15 250 50 0 empty empty empty 17 7 0 10 -262144
-1 -1;
#X obj 822 405 bng 15 250 50 0 empty empty empty 17 7 0 10 -262144
-1 -1;
#X obj 889 405 bng 15 250 50 0 empty empty empty 17 7 0 10 -262144
-1 -1;
#X obj 905 405 bng 15 250 50 0 empty empty empty 17 7 0 10 -262144
-1 -1;
#X obj 921 405 bng 15 250 50 0 empty empty empty 17 7 0 10 -262144
-1 -1;
#X obj 411 749 bng 15 250 50 0 empty empty empty 17 7 0 10 -262144
-1 -1;
#X obj 18 201 inlet;
#X obj 69 560 inlet;
#X obj 115 562 inlet;
#X obj 907 882 outlet;
#X obj 221 562 inlet;
#X obj 298 562 inlet;
#X obj 393 562 inlet;
#X obj 639 561 inlet;
#X obj 514 561 inlet;
#X obj 730 562 inlet;
#X obj 823 561 inlet;
#X obj 929 561 inlet;
#X obj 1006 561 inlet;
#X obj 1101 561 inlet;
#X obj 1178 561 inlet;
#X obj 1412 562 inlet;
#X obj 1285 556 inlet;
#N canvas 0 43 494 417 switch1 0;
#X floatatom 120 184 5 0 0 0 - - -;
#X msg 117 134 1;
#X msg 175 134 0;
#X obj 141 278 sel 1;
#X obj 191 186 del 20;
#X floatatom 136 246 5 0 0 0 - - -;
#X obj 122 85 inlet;
#X obj 151 342 outlet;
#X obj 127 217 -;
#X obj 248 103 inlet;
#X obj 331 188 sel 1 0;
#X msg 331 240 0;
#X msg 404 235 1;
#X obj 351 114 loadbang;
#X connect 0 0 8 0;
#X connect 1 0 0 0;
#X connect 1 0 4 0;
#X connect 2 0 0 0;
#X connect 3 0 7 0;
#X connect 4 0 2 0;
#X connect 5 0 3 0;
#X connect 6 0 1 0;
#X connect 8 0 5 0;
#X connect 9 0 10 0;
#X connect 10 0 11 0;
#X connect 10 1 12 0;
#X connect 11 0 8 1;
#X connect 12 0 8 1;
#X connect 13 0 12 0;
#X restore 38 610 pd switch1;
#N canvas 0 43 494 417 switch1 0;
#X floatatom 120 184 5 0 0 0 - - -;
#X msg 117 134 1;
#X msg 175 134 0;
#X obj 141 278 sel 1;
#X obj 191 186 del 20;
#X floatatom 136 246 5 0 0 0 - - -;
#X obj 122 85 inlet;
#X obj 151 342 outlet;
#X obj 127 217 -;
#X obj 248 103 inlet;
#X obj 331 188 sel 1 0;
#X msg 331 240 0;
#X msg 404 235 1;
#X obj 351 114 loadbang;
#X connect 0 0 8 0;
#X connect 1 0 0 0;
#X connect 1 0 4 0;
#X connect 2 0 0 0;
#X connect 3 0 7 0;
#X connect 4 0 2 0;
#X connect 5 0 3 0;
#X connect 6 0 1 0;
#X connect 8 0 5 0;
#X connect 9 0 10 0;
#X connect 10 0 11 0;
#X connect 10 1 12 0;
#X connect 11 0 8 1;
#X connect 12 0 8 1;
#X connect 13 0 12 0;
#X restore 115 612 pd switch1;
#N canvas 0 43 494 417 switch1 0;
#X floatatom 120 184 5 0 0 0 - - -;
#X msg 117 134 1;
#X msg 175 134 0;
#X obj 141 278 sel 1;
#X obj 191 186 del 20;
#X floatatom 136 246 5 0 0 0 - - -;
#X obj 122 85 inlet;
#X obj 151 342 outlet;
#X obj 127 217 -;
#X obj 248 103 inlet;
#X obj 331 188 sel 1 0;
#X msg 331 240 0;
#X msg 404 235 1;
#X obj 351 114 loadbang;
#X connect 0 0 8 0;
#X connect 1 0 0 0;
#X connect 1 0 4 0;
#X connect 2 0 0 0;
#X connect 3 0 7 0;
#X connect 4 0 2 0;
#X connect 5 0 3 0;
#X connect 6 0 1 0;
#X connect 8 0 5 0;
#X connect 9 0 10 0;
#X connect 10 0 11 0;
#X connect 10 1 12 0;
#X connect 11 0 8 1;
#X connect 12 0 8 1;
#X connect 13 0 12 0;
#X restore 221 612 pd switch1;
#N canvas 0 43 494 417 switch1 0;
#X floatatom 120 184 5 0 0 0 - - -;
#X msg 117 134 1;
#X msg 175 134 0;
#X obj 141 278 sel 1;
#X obj 191 186 del 20;
#X floatatom 136 246 5 0 0 0 - - -;
#X obj 122 85 inlet;
#X obj 151 342 outlet;
#X obj 127 217 -;
#X obj 248 103 inlet;
#X obj 331 188 sel 1 0;
#X msg 331 240 0;
#X msg 404 235 1;
#X obj 351 114 loadbang;
#X connect 0 0 8 0;
#X connect 1 0 0 0;
#X connect 1 0 4 0;
#X connect 2 0 0 0;
#X connect 3 0 7 0;
#X connect 4 0 2 0;
#X connect 5 0 3 0;
#X connect 6 0 1 0;
#X connect 8 0 5 0;
#X connect 9 0 10 0;
#X connect 10 0 11 0;
#X connect 10 1 12 0;
#X connect 11 0 8 1;
#X connect 12 0 8 1;
#X connect 13 0 12 0;
#X restore 345 612 pd switch1;
#N canvas 0 43 494 417 switch1 0;
#X floatatom 120 184 5 0 0 0 - - -;
#X msg 117 134 1;
#X msg 175 134 0;
#X obj 141 278 sel 1;
#X obj 191 186 del 20;
#X floatatom 136 246 5 0 0 0 - - -;
#X obj 122 85 inlet;
#X obj 151 342 outlet;
#X obj 127 217 -;
#X obj 248 103 inlet;
#X obj 331 188 sel 1 0;
#X msg 331 240 0;
#X msg 404 235 1;
#X obj 351 114 loadbang;
#X connect 0 0 8 0;
#X connect 1 0 0 0;
#X connect 1 0 4 0;
#X connect 2 0 0 0;
#X connect 3 0 7 0;
#X connect 4 0 2 0;
#X connect 5 0 3 0;
#X connect 6 0 1 0;
#X connect 8 0 5 0;
#X connect 9 0 10 0;
#X connect 10 0 11 0;
#X connect 10 1 12 0;
#X connect 11 0 8 1;
#X connect 12 0 8 1;
#X connect 13 0 12 0;
#X restore 442 612 pd switch1;
#N canvas 0 43 494 417 switch1 0;
#X floatatom 120 184 5 0 0 0 - - -;
#X msg 117 134 1;
#X msg 175 134 0;
#X obj 141 278 sel 1;
#X obj 191 186 del 20;
#X floatatom 136 246 5 0 0 0 - - -;
#X obj 122 85 inlet;
#X obj 151 342 outlet;
#X obj 127 217 -;
#X obj 248 103 inlet;
#X obj 331 188 sel 1 0;
#X msg 331 240 0;
#X msg 404 235 1;
#X obj 351 114 loadbang;
#X connect 0 0 8 0;
#X connect 1 0 0 0;
#X connect 1 0 4 0;
#X connect 2 0 0 0;
#X connect 3 0 7 0;
#X connect 4 0 2 0;
#X connect 5 0 3 0;
#X connect 6 0 1 0;
#X connect 8 0 5 0;
#X connect 9 0 10 0;
#X connect 10 0 11 0;
#X connect 10 1 12 0;
#X connect 11 0 8 1;
#X connect 12 0 8 1;
#X connect 13 0 12 0;
#X restore 526 612 pd switch1;
#N canvas 0 43 494 417 switch1 0;
#X floatatom 120 184 5 0 0 0 - - -;
#X msg 117 134 1;
#X msg 175 134 0;
#X obj 141 278 sel 1;
#X obj 191 186 del 20;
#X floatatom 136 246 5 0 0 0 - - -;
#X obj 122 85 inlet;
#X obj 151 342 outlet;
#X obj 127 217 -;
#X obj 248 103 inlet;
#X obj 331 188 sel 1 0;
#X msg 331 240 0;
#X msg 404 235 1;
#X obj 351 114 loadbang;
#X connect 0 0 8 0;
#X connect 1 0 0 0;
#X connect 1 0 4 0;
#X connect 2 0 0 0;
#X connect 3 0 7 0;
#X connect 4 0 2 0;
#X connect 5 0 3 0;
#X connect 6 0 1 0;
#X connect 8 0 5 0;
#X connect 9 0 10 0;
#X connect 10 0 11 0;
#X connect 10 1 12 0;
#X connect 11 0 8 1;
#X connect 12 0 8 1;
#X connect 13 0 12 0;
#X restore 622 633 pd switch1;
#N canvas 0 43 494 417 switch1 0;
#X floatatom 120 184 5 0 0 0 - - -;
#X msg 117 134 1;
#X msg 175 134 0;
#X obj 141 278 sel 1;
#X obj 191 186 del 20;
#X floatatom 136 246 5 0 0 0 - - -;
#X obj 122 85 inlet;
#X obj 151 342 outlet;
#X obj 127 217 -;
#X obj 248 103 inlet;
#X obj 331 188 sel 1 0;
#X msg 331 240 0;
#X msg 404 235 1;
#X obj 351 114 loadbang;
#X connect 0 0 8 0;
#X connect 1 0 0 0;
#X connect 1 0 4 0;
#X connect 2 0 0 0;
#X connect 3 0 7 0;
#X connect 4 0 2 0;
#X connect 5 0 3 0;
#X connect 6 0 1 0;
#X connect 8 0 5 0;
#X connect 9 0 10 0;
#X connect 10 0 11 0;
#X connect 10 1 12 0;
#X connect 11 0 8 1;
#X connect 12 0 8 1;
#X connect 13 0 12 0;
#X restore 722 633 pd switch1;
#N canvas 0 43 494 417 switch1 0;
#X floatatom 120 184 5 0 0 0 - - -;
#X msg 117 134 1;
#X msg 175 134 0;
#X obj 141 278 sel 1;
#X obj 191 186 del 20;
#X floatatom 136 246 5 0 0 0 - - -;
#X obj 122 85 inlet;
#X obj 151 342 outlet;
#X obj 127 217 -;
#X obj 248 103 inlet;
#X obj 331 188 sel 1 0;
#X msg 331 240 0;
#X msg 404 235 1;
#X obj 351 114 loadbang;
#X connect 0 0 8 0;
#X connect 1 0 0 0;
#X connect 1 0 4 0;
#X connect 2 0 0 0;
#X connect 3 0 7 0;
#X connect 4 0 2 0;
#X connect 5 0 3 0;
#X connect 6 0 1 0;
#X connect 8 0 5 0;
#X connect 9 0 10 0;
#X connect 10 0 11 0;
#X connect 10 1 12 0;
#X connect 11 0 8 1;
#X connect 12 0 8 1;
#X connect 13 0 12 0;
#X restore 809 612 pd switch1;
#N canvas 0 43 494 417 switch1 0;
#X floatatom 120 184 5 0 0 0 - - -;
#X msg 117 134 1;
#X msg 175 134 0;
#X obj 141 278 sel 1;
#X obj 191 186 del 20;
#X floatatom 136 246 5 0 0 0 - - -;
#X obj 122 85 inlet;
#X obj 151 342 outlet;
#X obj 127 217 -;
#X obj 248 103 inlet;
#X obj 331 188 sel 1 0;
#X msg 331 240 0;
#X msg 404 235 1;
#X obj 351 114 loadbang;
#X connect 0 0 8 0;
#X connect 1 0 0 0;
#X connect 1 0 4 0;
#X connect 2 0 0 0;
#X connect 3 0 7 0;
#X connect 4 0 2 0;
#X connect 5 0 3 0;
#X connect 6 0 1 0;
#X connect 8 0 5 0;
#X connect 9 0 10 0;
#X connect 10 0 11 0;
#X connect 10 1 12 0;
#X connect 11 0 8 1;
#X connect 12 0 8 1;
#X connect 13 0 12 0;
#X restore 895 633 pd switch1;
#N canvas 0 43 494 417 switch1 0;
#X floatatom 120 184 5 0 0 0 - - -;
#X msg 117 134 1;
#X msg 175 134 0;
#X obj 141 278 sel 1;
#X obj 191 186 del 20;
#X floatatom 136 246 5 0 0 0 - - -;
#X obj 122 85 inlet;
#X obj 151 342 outlet;
#X obj 127 217 -;
#X obj 248 103 inlet;
#X obj 331 188 sel 1 0;
#X msg 331 240 0;
#X msg 404 235 1;
#X obj 351 114 loadbang;
#X connect 0 0 8 0;
#X connect 1 0 0 0;
#X connect 1 0 4 0;
#X connect 2 0 0 0;
#X connect 3 0 7 0;
#X connect 4 0 2 0;
#X connect 5 0 3 0;
#X connect 6 0 1 0;
#X connect 8 0 5 0;
#X connect 9 0 10 0;
#X connect 10 0 11 0;
#X connect 10 1 12 0;
#X connect 11 0 8 1;
#X connect 12 0 8 1;
#X connect 13 0 12 0;
#X restore 977 633 pd switch1;
#N canvas 0 43 494 417 switch1 0;
#X floatatom 120 184 5 0 0 0 - - -;
#X msg 117 134 1;
#X msg 175 134 0;
#X obj 141 278 sel 1;
#X obj 191 186 del 20;
#X floatatom 136 246 5 0 0 0 - - -;
#X obj 122 85 inlet;
#X obj 151 342 outlet;
#X obj 127 217 -;
#X obj 248 103 inlet;
#X obj 331 188 sel 1 0;
#X msg 331 240 0;
#X msg 404 235 1;
#X obj 351 114 loadbang;
#X connect 0 0 8 0;
#X connect 1 0 0 0;
#X connect 1 0 4 0;
#X connect 2 0 0 0;
#X connect 3 0 7 0;
#X connect 4 0 2 0;
#X connect 5 0 3 0;
#X connect 6 0 1 0;
#X connect 8 0 5 0;
#X connect 9 0 10 0;
#X connect 10 0 11 0;
#X connect 10 1 12 0;
#X connect 11 0 8 1;
#X connect 12 0 8 1;
#X connect 13 0 12 0;
#X restore 1066 612 pd switch1;
#N canvas 0 43 494 417 switch1 0;
#X floatatom 120 184 5 0 0 0 - - -;
#X msg 117 134 1;
#X msg 175 134 0;
#X obj 141 278 sel 1;
#X obj 191 186 del 20;
#X floatatom 136 246 5 0 0 0 - - -;
#X obj 122 85 inlet;
#X obj 151 342 outlet;
#X obj 127 217 -;
#X obj 248 103 inlet;
#X obj 331 188 sel 1 0;
#X msg 331 240 0;
#X msg 404 235 1;
#X obj 351 114 loadbang;
#X connect 0 0 8 0;
#X connect 1 0 0 0;
#X connect 1 0 4 0;
#X connect 2 0 0 0;
#X connect 3 0 7 0;
#X connect 4 0 2 0;
#X connect 5 0 3 0;
#X connect 6 0 1 0;
#X connect 8 0 5 0;
#X connect 9 0 10 0;
#X connect 10 0 11 0;
#X connect 10 1 12 0;
#X connect 11 0 8 1;
#X connect 12 0 8 1;
#X connect 13 0 12 0;
#X restore 1158 612 pd switch1;
#N canvas 0 43 494 417 switch1 0;
#X floatatom 120 184 5 0 0 0 - - -;
#X msg 117 134 1;
#X msg 175 134 0;
#X obj 141 278 sel 1;
#X obj 191 186 del 20;
#X floatatom 136 246 5 0 0 0 - - -;
#X obj 122 85 inlet;
#X obj 151 342 outlet;
#X obj 127 217 -;
#X obj 248 103 inlet;
#X obj 331 188 sel 1 0;
#X msg 331 240 0;
#X msg 404 235 1;
#X obj 351 114 loadbang;
#X connect 0 0 8 0;
#X connect 1 0 0 0;
#X connect 1 0 4 0;
#X connect 2 0 0 0;
#X connect 3 0 7 0;
#X connect 4 0 2 0;
#X connect 5 0 3 0;
#X connect 6 0 1 0;
#X connect 8 0 5 0;
#X connect 9 0 10 0;
#X connect 10 0 11 0;
#X connect 10 1 12 0;
#X connect 11 0 8 1;
#X connect 12 0 8 1;
#X connect 13 0 12 0;
#X restore 1412 612 pd switch1;
#N canvas 0 43 494 417 switch1 0;
#X floatatom 120 184 5 0 0 0 - - -;
#X msg 117 134 1;
#X msg 175 134 0;
#X obj 141 278 sel 1;
#X obj 191 186 del 20;
#X floatatom 136 246 5 0 0 0 - - -;
#X obj 122 85 inlet;
#X obj 151 342 outlet;
#X obj 127 217 -;
#X obj 248 103 inlet;
#X obj 331 188 sel 1 0;
#X msg 331 240 0;
#X msg 404 235 1;
#X obj 351 114 loadbang;
#X connect 0 0 8 0;
#X connect 1 0 0 0;
#X connect 1 0 4 0;
#X connect 2 0 0 0;
#X connect 3 0 7 0;
#X connect 4 0 2 0;
#X connect 5 0 3 0;
#X connect 6 0 1 0;
#X connect 8 0 5 0;
#X connect 9 0 10 0;
#X connect 10 0 11 0;
#X connect 10 1 12 0;
#X connect 11 0 8 1;
#X connect 12 0 8 1;
#X connect 13 0 12 0;
#X restore 1258 612 pd switch1;
#X obj 1540 562 inlet;
#N canvas 0 43 494 417 switch1 0;
#X floatatom 120 184 5 0 0 0 - - -;
#X msg 117 134 1;
#X msg 175 134 0;
#X obj 141 278 sel 1;
#X obj 191 186 del 20;
#X floatatom 136 246 5 0 0 0 - - -;
#X obj 122 85 inlet;
#X obj 151 342 outlet;
#X obj 127 217 -;
#X obj 248 103 inlet;
#X obj 331 188 sel 1 0;
#X msg 331 240 0;
#X msg 404 235 1;
#X obj 351 114 loadbang;
#X connect 0 0 8 0;
#X connect 1 0 0 0;
#X connect 1 0 4 0;
#X connect 2 0 0 0;
#X connect 3 0 7 0;
#X connect 4 0 2 0;
#X connect 5 0 3 0;
#X connect 6 0 1 0;
#X connect 8 0 5 0;
#X connect 9 0 10 0;
#X connect 10 0 11 0;
#X connect 10 1 12 0;
#X connect 11 0 8 1;
#X connect 12 0 8 1;
#X connect 13 0 12 0;
#X restore 1497 612 pd switch1;
#X obj 761 750 bng 15 250 50 0 empty empty empty 17 7 0 10 -262144
-1 -1;
#X obj 1087 733 bng 15 250 50 0 empty empty empty 17 7 0 10 -262144
-1 -1;
#X obj 1437 734 bng 15 250 50 0 empty empty empty 17 7 0 10 -262144
-1 -1;
#X connect 0 0 1 0;
#X connect 0 1 2 0;
#X connect 0 2 3 0;
#X connect 0 3 4 0;
#X connect 0 4 5 0;
#X connect 0 5 6 0;
#X connect 0 6 7 0;
#X connect 0 7 8 0;
#X connect 0 8 13 0;
#X connect 0 9 10 0;
#X connect 0 10 9 0;
#X connect 0 11 12 0;
#X connect 0 12 14 0;
#X connect 0 13 15 0;
#X connect 0 14 16 0;
#X connect 0 15 11 0;
#X connect 1 0 35 0;
#X connect 2 0 36 0;
#X connect 3 0 37 0;
#X connect 4 0 38 0;
#X connect 5 0 39 0;
#X connect 6 0 40 0;
#X connect 7 0 41 0;
#X connect 8 0 42 0;
#X connect 9 0 45 0;
#X connect 10 0 44 0;
#X connect 11 0 51 0;
#X connect 12 0 46 0;
#X connect 13 0 43 0;
#X connect 14 0 47 0;
#X connect 15 0 49 0;
#X connect 16 0 48 0;
#X connect 17 0 21 0;
#X connect 18 0 0 0;
#X connect 19 0 35 1;
#X connect 20 0 36 1;
#X connect 22 0 37 1;
#X connect 23 0 38 1;
#X connect 24 0 39 1;
#X connect 25 0 41 1;
#X connect 26 0 40 1;
#X connect 27 0 42 1;
#X connect 28 0 43 1;
#X connect 29 0 44 1;
#X connect 30 0 45 1;
#X connect 31 0 46 1;
#X connect 32 0 47 1;
#X connect 33 0 48 1;
#X connect 34 0 49 1;
#X connect 35 0 17 0;
#X connect 36 0 17 0;
#X connect 37 0 17 0;
#X connect 38 0 17 0;
#X connect 39 0 52 0;
#X connect 40 0 52 0;
#X connect 41 0 52 0;
#X connect 42 0 52 0;
#X connect 43 0 53 0;
#X connect 44 0 53 0;
#X connect 45 0 53 0;
#X connect 46 0 53 0;
#X connect 47 0 54 0;
#X connect 48 0 54 0;
#X connect 49 0 54 0;
#X connect 50 0 51 1;
#X connect 51 0 54 0;
#X connect 52 0 21 0;
#X connect 53 0 21 0;
#X connect 54 0 21 0;
#X restore 110 344 pd s16;
#X f 36;
#X obj 92 458 tgl 15 0 empty empty empty 17 7 0 10 -262144 -1 -1 0
1;
#X obj 115 463 tgl 15 0 empty empty empty 17 7 0 10 -262144 -1 -1 0
1;
#X obj 139 472 tgl 15 0 empty empty empty 17 7 0 10 -262144 -1 -1 0
1;
#X obj 159 453 tgl 15 0 empty empty empty 17 7 0 10 -262144 -1 -1 0
1;
#X obj 209 445 tgl 15 0 empty empty empty 17 7 0 10 -262144 -1 -1 0
1;
#X obj 184 456 tgl 15 0 empty empty empty 17 7 0 10 -262144 -1 -1 0
1;
#X obj 236 457 tgl 15 0 empty empty empty 17 7 0 10 -262144 -1 -1 0
1;
#X obj 262 459 tgl 15 0 empty empty empty 17 7 0 10 -262144 -1 -1 0
1;
#X obj 288 471 tgl 15 0 empty empty empty 17 7 0 10 -262144 -1 -1 0
1;
#X obj 308 469 tgl 15 0 empty empty empty 17 7 0 10 -262144 -1 -1 0
1;
#X obj 330 462 tgl 15 0 empty empty empty 17 7 0 10 -262144 -1 -1 0
1;
#X obj 355 460 tgl 15 0 empty empty empty 17 7 0 10 -262144 -1 -1 0
1;
#X obj 388 445 tgl 15 0 empty empty empty 17 7 0 10 -262144 -1 -1 0
1;
#X obj 373 458 tgl 15 0 empty empty empty 17 7 0 10 -262144 -1 -1 0
1;
#X obj 69 460 tgl 15 0 empty empty empty 17 7 0 10 -262144 -1 -1 0
1;
#X obj 954 429 tgl 15 0 empty empty empty 17 7 0 10 -262144 -1 -1 0
1;
#X obj 410 453 tgl 15 0 empty empty empty 17 7 0 10 -262144 -1 -1 0
1;
#N canvas 1146 205 469 705 drumnotesel 0;
#X obj 197 350 makenote;
#X obj 206 400 noteout;
#X floatatom 278 359 5 0 0 0 - - -;
#X msg 305 304 1;
#X floatatom 145 293 5 0 0 0 - - -;
#X floatatom 213 314 5 0 0 0 - - -;
#X msg 187 263 127;
#X msg 225 278 0;
#X obj 280 158 sel 1;
#X obj 307 238 loadbang;
#X obj 59 49 inlet;
#X obj 239 64 inlet;
#X obj 315 53 inlet;
#X obj 164 27 inlet;
#X obj 46 183 loadbang;
#X msg 54 246 36;
#X connect 0 0 1 0;
#X connect 0 1 1 1;
#X connect 2 0 1 2;
#X connect 3 0 2 0;
#X connect 4 0 0 0;
#X connect 5 0 0 1;
#X connect 6 0 5 0;
#X connect 7 0 5 0;
#X connect 8 0 6 0;
#X connect 8 1 7 0;
#X connect 9 0 3 0;
#X connect 9 0 6 0;
#X connect 10 0 4 0;
#X connect 11 0 8 0;
#X connect 12 0 2 0;
#X connect 13 0 4 0;
#X connect 14 0 15 0;
#X connect 15 0 4 0;
#X restore 179 572 pd drumnotesel;
#X obj 215 538 tgl 15 0 empty empty empty 17 7 0 10 -262144 -1 -1 0
1;
#X floatatom 136 521 5 0 0 0 - - -;
#X floatatom 302 520 5 0 0 0 - - -;
#X msg 303 501 36;
#N canvas 1146 205 469 705 drumnotesel 0;
#X obj 197 350 makenote;
#X obj 206 400 noteout;
#X floatatom 278 359 5 0 0 0 - - -;
#X msg 305 304 1;
#X floatatom 145 293 5 0 0 0 - - -;
#X floatatom 213 314 5 0 0 0 - - -;
#X msg 187 263 127;
#X msg 225 278 0;
#X obj 280 158 sel 1;
#X obj 307 238 loadbang;
#X obj 59 49 inlet;
#X obj 239 64 inlet;
#X obj 315 53 inlet;
#X obj 164 27 inlet;
#X obj 46 183 loadbang;
#X msg 54 246 36;
#X connect 0 0 1 0;
#X connect 0 1 1 1;
#X connect 2 0 1 2;
#X connect 3 0 2 0;
#X connect 4 0 0 0;
#X connect 5 0 0 1;
#X connect 6 0 5 0;
#X connect 7 0 5 0;
#X connect 8 0 6 0;
#X connect 8 1 7 0;
#X connect 9 0 3 0;
#X connect 9 0 6 0;
#X connect 10 0 4 0;
#X connect 11 0 8 0;
#X connect 12 0 2 0;
#X connect 13 0 4 0;
#X connect 14 0 15 0;
#X connect 15 0 4 0;
#X restore 734 564 pd drumnotesel;
#X obj 779 517 tgl 15 0 empty empty empty 17 7 0 10 -262144 -1 -1 0
1;
#X floatatom 685 497 5 0 0 0 - - -;
#X floatatom 868 512 5 0 0 0 - - -;
#X msg 868 484 37;
#X obj 505 362 loadbang;
#X floatatom 276 136 5 0 0 0 - - -;
#X floatatom 738 101 5 0 0 0 - - -;
#X floatatom 900 316 5 0 0 0 - - -;
#X obj 239 534 bng 15 250 50 0 empty empty empty 17 7 0 10 -262144
-1 -1;
#X obj 802 525 bng 15 250 50 0 empty empty empty 17 7 0 10 -262144
-1 -1;
#X connect 1 0 0 0;
#X connect 1 0 2 0;
#X connect 1 1 0 1;
#X connect 2 0 0 0;
#X connect 2 0 0 1;
#X connect 3 0 2 1;
#X connect 4 0 2 1;
#X connect 5 0 2 1;
#X connect 6 0 54 0;
#X connect 6 0 55 0;
#X connect 7 0 6 0;
#X connect 8 0 6 1;
#X connect 9 0 48 1;
#X connect 9 0 58 0;
#X connect 10 0 9 2;
#X connect 11 0 9 3;
#X connect 12 0 9 4;
#X connect 13 0 9 5;
#X connect 14 0 9 7;
#X connect 15 0 9 6;
#X connect 16 0 9 8;
#X connect 17 0 9 9;
#X connect 18 0 9 10;
#X connect 19 0 9 11;
#X connect 20 0 9 12;
#X connect 21 0 9 13;
#X connect 22 0 9 15;
#X connect 23 0 9 14;
#X connect 24 0 9 1;
#X connect 25 0 43 1;
#X connect 25 0 57 0;
#X connect 26 0 25 2;
#X connect 27 0 25 3;
#X connect 28 0 25 4;
#X connect 29 0 25 5;
#X connect 30 0 25 7;
#X connect 31 0 25 6;
#X connect 32 0 25 8;
#X connect 33 0 25 9;
#X connect 34 0 25 10;
#X connect 35 0 25 11;
#X connect 36 0 25 12;
#X connect 37 0 25 13;
#X connect 38 0 25 15;
#X connect 39 0 25 14;
#X connect 40 0 25 1;
#X connect 41 0 9 16;
#X connect 42 0 25 16;
#X connect 44 0 43 2;
#X connect 45 0 43 0;
#X connect 46 0 43 3;
#X connect 47 0 45 0;
#X connect 49 0 48 2;
#X connect 50 0 48 0;
#X connect 51 0 48 3;
#X connect 52 0 50 0;
#X connect 53 0 3 0;
#X connect 54 0 25 0;
#X connect 55 0 56 0;
#X connect 56 0 9 0;
