#N canvas 68 23 744 694 12;
#X obj 133 127 vsl 15 70 0 1 0 0 empty empty empty 0 -9 0 10 -262144
-1 -1 6900 1;
#X obj 339 328 pow;
#X floatatom 339 354 5 0 0 0 - - -;
#X floatatom 104 204 8 0 0 0 - - -;
#X obj 339 379 * 22000;
#X obj 327 531 vcf~;
#X obj 151 127 vsl 15 70 1 6 0 0 empty empty empty 0 -9 0 10 -262144
-1 -1 0 1;
#X obj 320 593 outlet~;
#X obj 431 328 pow;
#X floatatom 431 354 5 0 0 0 - - -;
#X floatatom 431 406 5 0 0 0 - - -;
#X obj 431 379 * 22000;
#X obj 419 531 vcf~;
#X obj 411 593 outlet~;
#X floatatom 104 227 5 0 0 0 - - -;
#X obj 332 147 inlet~;
#X obj 419 145 inlet~;
#X obj 439 209 loadbang;
#X obj 179 124 inlet;
#X obj 241 124 inlet;
#X obj 243 194 + 1;
#X msg 334 59 1;
#X msg 233 61 1;
#X msg 357 297 3;
#X msg 449 297 3;
#X obj 235 154 * 5;
#X obj 430 497 vline~;
#X msg 553 443 20;
#X obj 443 468 pack 0 0;
#X obj 241 480 vline~;
#X msg 364 426 20;
#X obj 254 451 pack 0 0;
#X connect 0 0 1 0;
#X connect 0 0 8 0;
#X connect 1 0 2 0;
#X connect 2 0 4 0;
#X connect 4 0 3 0;
#X connect 4 0 31 0;
#X connect 4 0 30 0;
#X connect 5 0 7 0;
#X connect 6 0 14 0;
#X connect 8 0 9 0;
#X connect 9 0 11 0;
#X connect 10 0 27 0;
#X connect 10 0 28 0;
#X connect 11 0 10 0;
#X connect 12 0 13 0;
#X connect 14 0 12 2;
#X connect 14 0 5 2;
#X connect 15 0 5 0;
#X connect 16 0 12 0;
#X connect 17 0 24 0;
#X connect 17 0 23 0;
#X connect 17 0 21 0;
#X connect 17 0 22 0;
#X connect 18 0 0 0;
#X connect 19 0 25 0;
#X connect 20 0 6 0;
#X connect 21 0 6 0;
#X connect 22 0 0 0;
#X connect 23 0 1 1;
#X connect 24 0 8 1;
#X connect 25 0 20 0;
#X connect 26 0 12 1;
#X connect 27 0 28 1;
#X connect 28 0 26 0;
#X connect 29 0 5 1;
#X connect 30 0 31 1;
#X connect 31 0 29 0;
#X coords 0 -1 1 1 70 150 1 100 100;
