#N canvas 0 23 622 476 12;
#X obj 310 225 *~;
#X obj 317 293 clip~ -1 1;
#X obj 385 185 + 1;
#X obj 304 123 inlet~;
#X obj 385 121 inlet;
#X obj 446 122 inlet;
#X obj 311 369 outlet~;
#X msg 507 175 0;
#X obj 508 120 loadbang;
#X obj 304 182 osc~;
#X connect 0 0 1 0;
#X connect 1 0 6 0;
#X connect 2 0 0 1;
#X connect 3 0 9 0;
#X connect 4 0 2 0;
#X connect 5 0 9 1;
#X connect 7 0 2 0;
#X connect 8 0 7 0;
#X connect 9 0 0 0;
