#N canvas 0 22 631 154 12;
#X obj 143 129 tgl 15 0 empty nnk17 empty 17 7 0 10 -262144 -1 -1 0
1;
#X obj 168 129 tgl 15 0 empty nnk18 empty 17 7 0 10 -262144 -1 -1 0
1;
#X obj 194 129 tgl 15 0 empty nnk19 empty 17 7 0 10 -262144 -1 -1 0
1;
#X obj 219 129 tgl 15 0 empty nnk20 empty 17 7 0 10 -262144 -1 -1 0
1;
#X obj 245 129 tgl 15 0 empty nnk21 empty 17 7 0 10 -262144 -1 -1 0
1;
#X obj 270 129 tgl 15 0 empty nnk22 empty 17 7 0 10 -262144 -1 -1 0
1;
#X obj 296 129 tgl 15 0 empty nnk23 empty 17 7 0 10 -262144 -1 -1 0
1;
#X obj 321 129 tgl 15 0 empty nnk24 empty 17 7 0 10 -262144 -1 -1 0
1;
#X obj 143 104 tgl 15 0 empty nnk9 empty 17 7 0 10 -262144 -1 -1 0
1;
#X obj 168 104 tgl 15 0 empty nnk10 empty 17 7 0 10 -262144 -1 -1 0
1;
#X obj 194 104 tgl 15 0 empty nnk11 empty 17 7 0 10 -262144 -1 -1 0
1;
#X obj 219 104 tgl 15 0 empty nnk12 empty 17 7 0 10 -262144 -1 -1 0
1;
#X obj 245 104 tgl 15 0 empty nnk13 empty 17 7 0 10 -262144 -1 -1 0
1;
#X obj 270 104 tgl 15 0 empty nnk14 empty 17 7 0 10 -262144 -1 -1 0
1;
#X obj 296 104 tgl 15 0 empty nnk15 empty 17 7 0 10 -262144 -1 -1 0
1;
#X obj 321 104 tgl 15 0 empty nnk16 empty 17 7 0 10 -262144 -1 -1 0
1;
#X obj 143 79 tgl 15 0 empty nnk1 empty 17 7 0 10 -262144 -1 -1 0 1
;
#X obj 168 79 tgl 15 0 empty nnk2 empty 17 7 0 10 -262144 -1 -1 0 1
;
#X obj 194 79 tgl 15 0 empty nnk3 empty 17 7 0 10 -262144 -1 -1 0 1
;
#X obj 219 79 tgl 15 0 empty nnk4 empty 17 7 0 10 -262144 -1 -1 0 1
;
#X obj 245 79 tgl 15 0 empty nnk5 empty 17 7 0 10 -262144 -1 -1 0 1
;
#X obj 270 79 tgl 15 0 empty nnk6 empty 17 7 0 10 -262144 -1 -1 0 1
;
#X obj 296 79 tgl 15 0 empty nnk7 empty 17 7 0 10 -262144 -1 -1 0 1
;
#X obj 321 79 tgl 15 0 empty nnk8 empty 17 7 0 10 -262144 -1 -1 0 1
;
#X obj 10 106 tgl 15 0 empty nnk27 empty 17 7 0 10 -262144 -1 -1 0
1;
#X obj 58 105 tgl 15 0 empty nnk28 empty 17 7 0 10 -262144 -1 -1 0
1;
#X obj 84 105 tgl 15 0 empty nnk29 empty 17 7 0 10 -262144 -1 -1 0
1;
#X obj 109 105 tgl 15 0 empty nnk30 empty 17 7 0 10 -262144 -1 -1 0
1;
#X obj 10 81 tgl 15 0 empty nnk25 empty 17 7 0 10 -262144 -1 -1 0 1
;
#X obj 35 81 tgl 15 0 empty nnk26 empty 17 7 0 10 -262144 -1 -1 0 1
;
#X obj 9 131 tgl 15 0 empty nnk31 empty 17 7 0 10 -262144 -1 -1 0 1
;
#X obj 34 131 tgl 15 0 empty nnk32 empty 17 7 0 10 -262144 -1 -1 0
1;
#X obj 57 130 tgl 15 0 empty nnk33 empty 17 7 0 10 -262144 -1 -1 0
1;
#X obj 83 130 tgl 15 0 empty nnk34 empty 17 7 0 10 -262144 -1 -1 0
1;
#X obj 108 130 tgl 15 0 empty nnk35 empty 17 7 0 10 -262144 -1 -1 0
1;
#X obj 9 10 vsl 30 30 0 127 0 0 empty nnkn1 empty 0 -9 0 10 -262144
-1 -1 0 1;
#X obj 45 10 vsl 30 30 0 127 0 0 empty nnkn2 empty 0 -9 0 10 -262144
-1 -1 0 1;
#X obj 80 10 vsl 30 30 0 127 0 0 empty nnkn3 empty 0 -9 0 10 -262144
-1 -1 0 1;
#X obj 116 10 vsl 30 30 0 127 0 0 empty nnkn4 empty 0 -9 0 10 -262144
-1 -1 0 1;
#X obj 152 10 vsl 30 30 0 127 0 0 empty nnkn5 empty 0 -9 0 10 -262144
-1 -1 0 1;
#X obj 188 10 vsl 30 30 0 127 0 0 empty nnkn6 empty 0 -9 0 10 -262144
-1 -1 0 1;
#X obj 223 10 vsl 30 30 0 127 0 0 empty nnkn7 empty 0 -9 0 10 -262144
-1 -1 0 1;
#X obj 259 10 vsl 30 30 0 127 0 0 empty nnkn8 empty 0 -9 0 10 -262144
-1 -1 0 1;
#X obj 349 10 vsl 15 128 0 127 0 0 empty nnkn9 empty 0 -9 0 10 -262144
-1 -1 0 1;
#X obj 385 10 vsl 15 128 0 127 0 0 empty nnkn10 empty 0 -9 0 10 -262144
-1 -1 0 1;
#X obj 420 10 vsl 15 128 0 127 0 0 empty nnkn11 empty 0 -9 0 10 -262144
-1 -1 0 1;
#X obj 452 10 vsl 15 128 0 127 0 0 empty nnkn12 empty 0 -9 0 10 -262144
-1 -1 0 1;
#X obj 489 10 vsl 15 128 0 127 0 0 empty nnkn13 empty 0 -9 0 10 -262144
-1 -1 0 1;
#X obj 525 10 vsl 15 128 0 127 0 0 empty nnkn14 empty 0 -9 0 10 -262144
-1 -1 0 1;
#X obj 560 10 vsl 15 128 0 127 0 0 empty nnkn15 empty 0 -9 0 10 -262144
-1 -1 0 1;
#X obj 592 10 vsl 15 128 0 127 0 0 empty nnkn16 empty 0 -9 0 10 -262144
-1 -1 0 1;
#N canvas 0 22 450 300 nanokontrol 0;
#X obj 463 671 ctlin;
#X floatatom 463 705 5 0 0 0 - - -;
#X floatatom 504 705 5 0 0 0 - - -;
#X floatatom 545 705 5 0 0 0 - - -;
#X obj 464 748 pack 0 0 0;
#X obj 464 776 route 16;
#X obj 464 809 route 1 2 3 4 5 6 7 8 9 10 11 12 13 14 15 16;
#X obj 442 345 notein;
#X floatatom 442 377 5 0 0 0 - - -;
#X floatatom 483 377 5 0 0 0 - - -;
#X floatatom 524 377 5 0 0 0 - - -;
#X obj 442 470 pack 0 0;
#X obj 464 497 route 1 2 3 4 5 6 7 8 9 10 11 12 13 14 15 16 17 18 19
20 21 22 23 24;
#X obj 486 408 / 127;
#X obj 522 443 spigot;
#X obj 574 412 == 16;
#X obj 464 562 s nnk1;
#X obj 516 562 s nnk2;
#X obj 569 562 s nnk3;
#X obj 621 562 s nnk4;
#X obj 675 563 s nnk5;
#X obj 727 563 s nnk6;
#X obj 780 563 s nnk7;
#X obj 832 563 s nnk8;
#X obj 465 602 s nnk9;
#X obj 517 602 s nnk10;
#X obj 570 602 s nnk11;
#X obj 622 602 s nnk12;
#X obj 676 603 s nnk13;
#X obj 728 603 s nnk14;
#X obj 781 603 s nnk15;
#X obj 833 603 s nnk16;
#X obj 466 644 s nnk17;
#X obj 518 644 s nnk18;
#X obj 571 644 s nnk19;
#X obj 623 644 s nnk20;
#X obj 677 645 s nnk21;
#X obj 729 645 s nnk22;
#X obj 782 645 s nnk23;
#X obj 834 645 s nnk24;
#X obj 892 497 route 25 26 27 28 29 30 31 32 33 34 35;
#X obj 897 546 s nnk25;
#X obj 949 546 s nnk26;
#X obj 1002 546 s nnk27;
#X obj 1054 546 s nnk28;
#X obj 1108 547 s nnk29;
#X obj 1160 547 s nnk30;
#X obj 897 601 s nnk31;
#X obj 949 601 s nnk32;
#X obj 1007 602 s nnk33;
#X obj 1059 602 s nnk34;
#X obj 1112 602 s nnk35;
#X obj 433 878 s nnkn1;
#X obj 485 878 s nnkn2;
#X obj 538 878 s nnkn3;
#X obj 590 878 s nnkn4;
#X obj 644 879 s nnkn5;
#X obj 696 879 s nnkn6;
#X obj 749 880 s nnkn7;
#X obj 801 879 s nnkn8;
#X obj 434 918 s nnkn9;
#X obj 486 918 s nnkn10;
#X obj 539 918 s nnkn11;
#X obj 591 918 s nnkn12;
#X obj 645 919 s nnkn13;
#X obj 697 919 s nnkn14;
#X obj 750 919 s nnkn15;
#X obj 802 919 s nnkn16;
#X connect 0 0 1 0;
#X connect 0 1 2 0;
#X connect 0 2 3 0;
#X connect 1 0 4 2;
#X connect 2 0 4 1;
#X connect 3 0 4 0;
#X connect 4 0 5 0;
#X connect 5 0 6 0;
#X connect 6 0 52 0;
#X connect 6 1 53 0;
#X connect 6 2 54 0;
#X connect 6 3 55 0;
#X connect 6 4 56 0;
#X connect 6 5 57 0;
#X connect 6 6 58 0;
#X connect 6 7 59 0;
#X connect 6 8 60 0;
#X connect 6 9 61 0;
#X connect 6 10 62 0;
#X connect 6 11 63 0;
#X connect 6 12 64 0;
#X connect 6 13 65 0;
#X connect 6 14 66 0;
#X connect 6 15 67 0;
#X connect 7 0 8 0;
#X connect 7 1 9 0;
#X connect 7 2 10 0;
#X connect 8 0 11 0;
#X connect 9 0 13 0;
#X connect 10 0 15 0;
#X connect 11 0 12 0;
#X connect 12 0 16 0;
#X connect 12 1 17 0;
#X connect 12 2 18 0;
#X connect 12 3 19 0;
#X connect 12 4 20 0;
#X connect 12 5 21 0;
#X connect 12 6 22 0;
#X connect 12 7 23 0;
#X connect 12 8 24 0;
#X connect 12 9 25 0;
#X connect 12 10 26 0;
#X connect 12 11 27 0;
#X connect 12 12 28 0;
#X connect 12 13 29 0;
#X connect 12 14 30 0;
#X connect 12 15 31 0;
#X connect 12 16 32 0;
#X connect 12 17 33 0;
#X connect 12 18 34 0;
#X connect 12 19 35 0;
#X connect 12 20 36 0;
#X connect 12 21 37 0;
#X connect 12 22 38 0;
#X connect 12 23 39 0;
#X connect 12 24 40 0;
#X connect 13 0 14 0;
#X connect 14 0 11 1;
#X connect 15 0 14 1;
#X connect 40 0 41 0;
#X connect 40 1 42 0;
#X connect 40 2 43 0;
#X connect 40 3 44 0;
#X connect 40 4 45 0;
#X connect 40 5 46 0;
#X connect 40 6 47 0;
#X connect 40 7 48 0;
#X connect 40 8 49 0;
#X connect 40 9 50 0;
#X connect 40 10 51 0;
#X restore 9 52 pd nanokontrol;
