#N canvas 0 0 752 878 12;
#X obj 21 738 makenote;
#X obj 56 805 noteout;
#X floatatom 200 752 5 0 0 0 - - -;
#X msg 196 697 1;
#X floatatom 140 666 5 0 0 0 - - -;
#X obj 130 366 sel 0 1 2 3 4 5 6 7;
#X obj 167 36 tgl 15 0 empty empty empty 17 7 0 10 -262144 -1 -1 0
1;
#X obj 155 130 bng 15 250 50 0 empty empty empty 17 7 0 10 -262144
-1 -1;
#X obj 265 187 + 1;
#X floatatom 174 168 5 0 0 0 - - -;
#X msg 193 125 1;
#X floatatom 215 203 5 0 0 0 - - -;
#X obj 167 281 % 8;
#X floatatom 167 305 5 0 0 0 - - -;
#X obj 159 80 metro 250;
#X msg 236 33 125;
#X obj 334 138 bng 15 250 50 0 empty empty empty 17 7 0 10 -262144
-1 -1;
#X obj 338 88 metro 250;
#X msg 415 40 500;
#X obj 475 152 makenote;
#X obj 501 205 noteout;
#X floatatom 579 123 5 0 0 0 - - -;
#X floatatom 512 50 5 0 0 0 - - -;
#X msg 575 68 2;
#X msg 528 7 127;
#X floatatom 465 82 5 0 0 0 - - -;
#X msg 464 40 36;
#X msg 147 517 48;
#X msg 89 438 48;
#X floatatom 243 142 5 0 0 0 - - -;
#X msg 247 97 0;
#X floatatom 116 706 5 0 0 0 - - -;
#X obj 503 245 metro 250;
#X obj 414 553 makenote;
#X obj 440 606 noteout;
#X floatatom 518 524 5 0 0 0 - - -;
#X floatatom 451 451 5 0 0 0 - - -;
#X msg 514 469 2;
#X msg 467 408 127;
#X floatatom 404 483 5 0 0 0 - - -;
#X msg 195 628 0;
#X msg 264 648 127;
#X msg 594 165 1000;
#X obj 580 256 metro 250;
#X msg 671 176 1000;
#X obj 664 215 / 7;
#X obj 587 205 / 5;
#X msg 196 458 82;
#X msg 111 466 79;
#X msg 517 414 0;
#X msg 177 434 89;
#X msg 222 513 87;
#X msg 129 491 86;
#X msg 212 484 63;
#X obj 332 264 sel 0 1 2 3 4 5 6 7;
#X obj 583 539 makenote;
#X obj 609 592 noteout;
#X floatatom 687 510 5 0 0 0 - - -;
#X floatatom 620 437 5 0 0 0 - - -;
#X msg 683 455 2;
#X msg 636 394 127;
#X floatatom 573 469 5 0 0 0 - - -;
#X msg 686 400 0;
#X msg 573 427 39;
#X obj 351 775 makenote;
#X obj 377 828 noteout;
#X floatatom 455 746 5 0 0 0 - - -;
#X floatatom 388 673 5 0 0 0 - - -;
#X msg 451 691 2;
#X floatatom 341 705 5 0 0 0 - - -;
#X msg 454 636 0;
#X msg 341 663 46;
#X msg 608 13 0;
#X msg 404 441 42;
#X msg 404 630 100;
#X connect 0 0 1 0;
#X connect 0 1 1 1;
#X connect 2 0 1 2;
#X connect 3 0 2 0;
#X connect 4 0 0 1;
#X connect 5 0 28 0;
#X connect 5 1 48 0;
#X connect 5 2 52 0;
#X connect 5 3 27 0;
#X connect 5 4 50 0;
#X connect 5 5 47 0;
#X connect 5 6 53 0;
#X connect 5 7 51 0;
#X connect 6 0 14 0;
#X connect 6 0 17 0;
#X connect 6 0 30 0;
#X connect 6 0 32 0;
#X connect 6 0 43 0;
#X connect 7 0 10 0;
#X connect 8 0 11 0;
#X connect 9 0 8 0;
#X connect 10 0 9 0;
#X connect 11 0 8 1;
#X connect 11 0 12 0;
#X connect 12 0 13 0;
#X connect 13 0 5 0;
#X connect 13 0 54 0;
#X connect 14 0 7 0;
#X connect 15 0 14 1;
#X connect 16 0 26 0;
#X connect 17 0 16 0;
#X connect 18 0 17 1;
#X connect 19 0 20 0;
#X connect 19 1 20 1;
#X connect 21 0 20 2;
#X connect 22 0 19 1;
#X connect 23 0 21 0;
#X connect 24 0 22 0;
#X connect 25 0 19 0;
#X connect 26 0 25 0;
#X connect 27 0 0 0;
#X connect 28 0 0 0;
#X connect 29 0 11 0;
#X connect 30 0 29 0;
#X connect 31 0 0 2;
#X connect 33 0 34 0;
#X connect 33 1 34 1;
#X connect 35 0 34 2;
#X connect 36 0 33 1;
#X connect 37 0 35 0;
#X connect 38 0 36 0;
#X connect 39 0 33 0;
#X connect 40 0 4 0;
#X connect 41 0 4 0;
#X connect 42 0 46 0;
#X connect 44 0 45 0;
#X connect 45 0 43 1;
#X connect 46 0 32 1;
#X connect 47 0 0 0;
#X connect 48 0 0 0;
#X connect 49 0 36 0;
#X connect 50 0 0 0;
#X connect 51 0 0 0;
#X connect 52 0 0 0;
#X connect 53 0 0 0;
#X connect 54 0 73 0;
#X connect 54 0 63 0;
#X connect 54 2 73 0;
#X connect 54 2 71 0;
#X connect 54 3 73 0;
#X connect 54 5 73 0;
#X connect 54 5 71 0;
#X connect 54 6 73 0;
#X connect 54 7 73 0;
#X connect 55 0 56 0;
#X connect 55 1 56 1;
#X connect 57 0 56 2;
#X connect 58 0 55 1;
#X connect 59 0 57 0;
#X connect 60 0 58 0;
#X connect 61 0 55 0;
#X connect 62 0 58 0;
#X connect 63 0 61 0;
#X connect 64 0 65 0;
#X connect 64 1 65 1;
#X connect 66 0 65 2;
#X connect 67 0 64 1;
#X connect 68 0 66 0;
#X connect 69 0 64 0;
#X connect 70 0 67 0;
#X connect 71 0 69 0;
#X connect 72 0 22 0;
#X connect 73 0 39 0;
#X connect 74 0 67 0;
