#N canvas 0 22 1250 756 12;
#X obj 169 327 osc~ 440;
#X msg 223 292 0;
#X obj 663 47 bng 15 250 50 0 empty empty empty 17 7 0 10 -262144 -1
-1;
#X msg 317 275 0;
#X obj 264 328 osc~ 440;
#X obj 265 186 vsl 15 128 440 500 0 0 empty empty empty 0 -9 0 10 -262144
-1 -1 1300 1;
#X obj 360 327 osc~ 440;
#X msg 414 292 0;
#X obj 361 183 vsl 15 128 440 500 0 0 empty empty empty 0 -9 0 10 -262144
-1 -1 400 1;
#X obj 454 332 osc~ 440;
#X msg 499 268 0;
#X obj 453 188 vsl 15 128 440 500 0 0 empty empty empty 0 -9 0 10 -262144
-1 -1 800 1;
#X obj 89 323 osc~ 440;
#X msg 142 292 0;
#X obj 89 179 vsl 15 128 440 500 0 0 empty empty empty 0 -9 0 10 -262144
-1 -1 0 1;
#X msg 956 303 0;
#X msg 1039 284 0;
#X msg 1119 275 0;
#X msg 1199 281 0;
#X obj 1156 202 vsl 15 128 880 1000 0 0 empty empty empty 0 -9 0 10
-262144 -1 -1 0 1;
#X msg 872 298 0;
#X obj 1076 191 vsl 15 128 880 1000 0 0 empty empty empty 0 -9 0 10
-262144 -1 -1 0 1;
#X obj 991 192 vsl 15 128 880 1000 0 0 empty empty empty 0 -9 0 10
-262144 -1 -1 0 1;
#X obj 819 194 vsl 15 128 880 1000 0 0 empty empty empty 0 -9 0 10
-262144 -1 -1 700 1;
#X msg 333 689 0;
#X obj 663 641 bng 15 250 50 0 empty empty empty 17 7 0 10 -262144
-1 -1;
#X msg 407 689 0;
#X msg 495 698 0;
#X msg 581 711 0;
#X msg 247 702 0;
#X obj 192 589 vsl 15 128 110 200 0 0 empty empty empty 0 -9 0 10 -262144
-1 -1 500 1;
#X msg 891 709 0;
#X msg 965 703 0;
#X msg 1041 706 0;
#X msg 1126 711 0;
#X msg 809 714 0;
#X obj 756 603 vsl 15 128 220 400 0 0 empty empty empty 0 -9 0 10 -262144
-1 -1 400 1;
#X obj 193 743 osc~ 110;
#X obj 281 743 osc~ 110;
#X obj 358 742 osc~ 110;
#X obj 443 747 osc~ 110;
#X obj 533 743 osc~ 110;
#X obj 358 586 vsl 15 128 110 200 0 0 empty empty empty 0 -9 0 10 -262144
-1 -1 1200 1;
#X obj 447 600 vsl 15 128 110 200 0 0 empty empty empty 0 -9 0 10 -262144
-1 -1 0 1;
#X obj 536 592 vsl 15 128 110 200 0 0 empty empty empty 0 -9 0 10 -262144
-1 -1 0 1;
#X obj 847 597 vsl 15 128 220 400 0 0 empty empty empty 0 -9 0 10 -262144
-1 -1 0 1;
#X obj 755 742 osc~ 220;
#X obj 846 746 osc~ 220;
#X obj 923 745 osc~ 220;
#X obj 996 746 osc~ 220;
#X obj 1075 748 osc~ 220;
#X obj 923 599 vsl 15 128 220 400 0 0 empty empty empty 0 -9 0 10 -262144
-1 -1 0 1;
#X obj 999 597 vsl 15 128 220 400 0 0 empty empty empty 0 -9 0 10 -262144
-1 -1 0 1;
#X obj 323 436 *~;
#X obj 620 296 vsl 15 128 0 1 0 0 empty empty empty 0 -9 0 10 -262144
-1 -1 0 1;
#X obj 965 448 *~;
#X obj 695 290 vsl 15 128 0 1 0 0 empty empty empty 0 -9 0 10 -262144
-1 -1 0 1;
#X obj 656 735 dac~;
#X obj 1154 345 osc~ 880;
#X obj 914 191 vsl 15 128 880 1000 0 0 empty empty empty 0 -9 0 10
-262144 -1 -1 0 1;
#X obj 819 338 osc~ 880;
#X obj 903 337 osc~ 880;
#X obj 990 337 osc~ 880;
#X obj 1074 339 osc~ 880;
#X obj 175 182 vsl 15 128 440 500 0 0 empty empty empty 0 -9 0 10 -262144
-1 -1 0 1;
#X obj 444 862 *~;
#X obj 622 460 vsl 15 128 0 1 0 0 empty empty empty 0 -9 0 10 -262144
-1 -1 0 1;
#X obj 869 860 *~;
#X obj 696 459 vsl 15 128 0 1 0 0 empty empty empty 0 -9 0 10 -262144
-1 -1 0 1;
#X connect 0 0 53 0;
#X connect 1 0 0 1;
#X connect 2 0 1 0;
#X connect 2 0 3 0;
#X connect 2 0 7 0;
#X connect 2 0 10 0;
#X connect 2 0 20 0;
#X connect 2 0 15 0;
#X connect 2 0 16 0;
#X connect 2 0 17 0;
#X connect 2 0 18 0;
#X connect 2 0 25 0;
#X connect 2 0 13 0;
#X connect 3 0 4 1;
#X connect 4 0 53 0;
#X connect 5 0 4 0;
#X connect 6 0 53 0;
#X connect 7 0 6 1;
#X connect 8 0 6 0;
#X connect 9 0 53 0;
#X connect 10 0 9 1;
#X connect 11 0 9 0;
#X connect 12 0 53 0;
#X connect 13 0 12 1;
#X connect 14 0 12 0;
#X connect 15 0 61 1;
#X connect 16 0 62 1;
#X connect 17 0 63 1;
#X connect 18 0 58 1;
#X connect 19 0 58 0;
#X connect 20 0 60 1;
#X connect 21 0 63 0;
#X connect 22 0 62 0;
#X connect 23 0 60 0;
#X connect 24 0 38 1;
#X connect 25 0 24 0;
#X connect 25 0 26 0;
#X connect 25 0 27 0;
#X connect 25 0 28 0;
#X connect 25 0 35 0;
#X connect 25 0 31 0;
#X connect 25 0 32 0;
#X connect 25 0 33 0;
#X connect 25 0 34 0;
#X connect 25 0 29 0;
#X connect 26 0 39 1;
#X connect 27 0 40 1;
#X connect 28 0 41 1;
#X connect 29 0 37 1;
#X connect 30 0 37 0;
#X connect 31 0 47 1;
#X connect 32 0 48 1;
#X connect 33 0 49 1;
#X connect 34 0 50 1;
#X connect 35 0 46 1;
#X connect 36 0 46 0;
#X connect 37 0 65 0;
#X connect 38 0 65 0;
#X connect 39 0 65 0;
#X connect 40 0 65 0;
#X connect 41 0 65 0;
#X connect 42 0 39 0;
#X connect 43 0 40 0;
#X connect 44 0 41 0;
#X connect 45 0 47 0;
#X connect 46 0 67 0;
#X connect 47 0 67 0;
#X connect 48 0 67 0;
#X connect 49 0 67 0;
#X connect 50 0 67 0;
#X connect 51 0 48 0;
#X connect 52 0 49 0;
#X connect 53 0 57 0;
#X connect 53 0 57 1;
#X connect 54 0 53 1;
#X connect 55 0 57 0;
#X connect 55 0 57 1;
#X connect 56 0 55 1;
#X connect 58 0 55 0;
#X connect 59 0 61 0;
#X connect 60 0 55 0;
#X connect 61 0 55 0;
#X connect 62 0 55 0;
#X connect 63 0 55 0;
#X connect 64 0 0 0;
#X connect 65 0 57 0;
#X connect 65 0 57 1;
#X connect 66 0 65 1;
#X connect 67 0 57 0;
#X connect 67 0 57 1;
#X connect 68 0 67 1;
