#N canvas 0 22 815 681 12;
#X obj 206 548 stoe, f 39;
#X obj 140 319 sixteenmix;
#X obj 342 621 dac~;
#X obj 239 157 osc~ 440;
#X obj 425 154 osc~ 444;
#X obj 302 158 osc~ 447;
#X obj 363 155 osc~ 449;
#X connect 0 0 2 0;
#X connect 0 1 2 1;
#X connect 1 0 0 0;
#X connect 1 1 0 1;
#X connect 1 2 0 2;
#X connect 1 3 0 3;
#X connect 1 4 0 4;
#X connect 1 5 0 5;
#X connect 1 6 0 6;
#X connect 1 7 0 7;
#X connect 1 8 0 8;
#X connect 1 9 0 9;
#X connect 1 10 0 10;
#X connect 1 11 0 11;
#X connect 1 12 0 12;
#X connect 1 13 0 13;
#X connect 1 14 0 14;
#X connect 1 15 0 15;
#X connect 3 0 1 0;
#X connect 3 0 1 1;
#X connect 4 0 1 14;
#X connect 4 0 1 15;
#X connect 5 0 1 5;
#X connect 5 0 1 4;
#X connect 6 0 1 8;
#X connect 6 0 1 9;
