#N canvas 0 23 1366 723 12;
#X obj 984 93 notein;
#X floatatom 1003 128 5 0 0 0 - - -;
#X floatatom 953 128 5 0 0 0 - - -;
#X obj 953 184 stripnote;
#X floatatom 957 225 5 0 0 0 - - -;
#X obj 1001 253 spigot;
#X obj 852 310 sel 36 37 38 39 40 41 42 43 44 45 46 47 48 49 50 51
;
#X obj 618 421 outlet;
#X obj 679 420 outlet;
#X obj 729 423 outlet;
#X obj 790 422 outlet;
#X obj 850 422 outlet;
#X obj 911 421 outlet;
#X obj 961 424 outlet;
#X obj 1022 423 outlet;
#X obj 1082 423 outlet;
#X obj 1143 422 outlet;
#X obj 1193 425 outlet;
#X obj 1254 424 outlet;
#X obj 1314 424 outlet;
#X obj 1375 423 outlet;
#X obj 1425 426 outlet;
#X obj 1486 425 outlet;
#X obj 1034 205 == 1;
#X connect 0 0 2 0;
#X connect 0 1 1 0;
#X connect 0 2 23 0;
#X connect 1 0 3 1;
#X connect 2 0 3 0;
#X connect 3 0 4 0;
#X connect 4 0 5 0;
#X connect 5 0 6 0;
#X connect 6 0 7 0;
#X connect 6 1 8 0;
#X connect 6 2 9 0;
#X connect 6 3 10 0;
#X connect 6 4 11 0;
#X connect 6 5 12 0;
#X connect 6 6 13 0;
#X connect 6 7 14 0;
#X connect 6 8 15 0;
#X connect 6 9 16 0;
#X connect 6 10 17 0;
#X connect 6 11 18 0;
#X connect 6 12 19 0;
#X connect 6 13 20 0;
#X connect 6 14 21 0;
#X connect 6 15 22 0;
#X connect 23 0 5 1;
