#N canvas 0 22 1439 841 12;
#X obj 543 557 vsl 15 128 0 127 0 0 empty empty empty 0 -9 0 10 -262144
-1 -1 7508 1;
#X obj 562 12 tgl 15 0 empty empty empty 17 7 0 10 -262144 -1 -1 1
1;
#X floatatom 323 63 5 0 0 0 - - -;
#X obj 566 558 vsl 15 128 0 127 0 0 empty empty empty 0 -9 0 10 -262144
-1 -1 423 1;
#X obj 376 130 snapshot~;
#X obj 323 87 + 1;
#X floatatom 323 135 5 0 0 0 - - -;
#X obj 323 111 / 2;
#X floatatom 323 184 5 0 0 0 - - -;
#X obj 323 159 * 127;
#X floatatom 463 64 5 0 0 0 - - -;
#X obj 588 558 vsl 15 128 0 127 0 0 empty empty empty 0 -9 0 10 -262144
-1 -1 3029 1;
#X obj 516 130 snapshot~;
#X obj 463 88 + 1;
#X floatatom 463 136 5 0 0 0 - - -;
#X obj 463 112 / 2;
#X floatatom 463 185 5 0 0 0 - - -;
#X obj 463 160 * 127;
#X floatatom 602 63 5 0 0 0 - - -;
#X obj 611 559 vsl 15 128 0 127 0 0 empty empty empty 0 -9 0 10 -262144
-1 -1 11066 1;
#X obj 654 130 snapshot~;
#X obj 602 87 + 1;
#X floatatom 602 135 5 0 0 0 - - -;
#X obj 602 111 / 2;
#X floatatom 602 184 5 0 0 0 - - -;
#X obj 602 159 * 127;
#X floatatom 737 65 5 0 0 0 - - -;
#X obj 790 132 snapshot~;
#X obj 841 24 tgl 15 0 empty empty empty 17 7 0 10 -262144 -1 -1 1
1;
#X obj 737 89 + 1;
#X floatatom 737 137 5 0 0 0 - - -;
#X obj 737 113 / 2;
#X floatatom 737 186 5 0 0 0 - - -;
#X obj 737 161 * 127;
#X floatatom 874 69 5 0 0 0 - - -;
#X obj 927 134 snapshot~;
#X obj 874 93 + 1;
#X floatatom 874 141 5 0 0 0 - - -;
#X obj 874 117 / 2;
#X floatatom 874 190 5 0 0 0 - - -;
#X obj 874 165 * 127;
#X floatatom 1008 67 5 0 0 0 - - -;
#X obj 1061 133 snapshot~;
#X obj 1008 91 + 1;
#X floatatom 1008 139 5 0 0 0 - - -;
#X obj 1008 115 / 2;
#X floatatom 1008 188 5 0 0 0 - - -;
#X obj 1008 163 * 127;
#X floatatom 1157 69 5 0 0 0 - - -;
#X obj 1209 134 snapshot~;
#X obj 1157 93 + 1;
#X floatatom 1157 141 5 0 0 0 - - -;
#X obj 1157 117 / 2;
#X floatatom 1157 190 5 0 0 0 - - -;
#X obj 1157 165 * 127;
#X obj 633 559 vsl 15 128 0 127 0 0 empty empty empty 0 -9 0 10 -262144
-1 -1 11391 1;
#X obj 656 560 vsl 15 128 0 127 0 0 empty empty empty 0 -9 0 10 -262144
-1 -1 3473 1;
#X obj 678 560 vsl 15 128 0 127 0 0 empty empty empty 0 -9 0 10 -262144
-1 -1 260 1;
#X obj 701 561 vsl 15 128 0 127 0 0 empty empty empty 0 -9 0 10 -262144
-1 -1 7005 1;
#X floatatom 200 274 5 0 0 0 - - -;
#X obj 728 560 vsl 15 128 0 127 0 0 empty empty empty 0 -9 0 10 -262144
-1 -1 12680 1;
#X obj 253 339 snapshot~;
#X obj 298 219 tgl 15 0 empty empty empty 17 7 0 10 -262144 -1 -1 1
1;
#X obj 200 298 + 1;
#X floatatom 200 346 5 0 0 0 - - -;
#X obj 200 322 / 2;
#X floatatom 200 395 5 0 0 0 - - -;
#X obj 200 370 * 127;
#X floatatom 338 274 5 0 0 0 - - -;
#X obj 751 561 vsl 15 128 0 127 0 0 empty empty empty 0 -9 0 10 -262144
-1 -1 8003 1;
#X obj 392 337 snapshot~;
#X obj 338 298 + 1;
#X floatatom 338 346 5 0 0 0 - - -;
#X obj 338 322 / 2;
#X floatatom 338 395 5 0 0 0 - - -;
#X obj 338 370 * 127;
#X floatatom 473 271 5 0 0 0 - - -;
#X obj 773 561 vsl 15 128 0 127 0 0 empty empty empty 0 -9 0 10 -262144
-1 -1 623 1;
#X obj 525 336 snapshot~;
#X obj 473 295 + 1;
#X floatatom 473 343 5 0 0 0 - - -;
#X obj 473 319 / 2;
#X floatatom 473 392 5 0 0 0 - - -;
#X obj 473 367 * 127;
#X floatatom 605 271 5 0 0 0 - - -;
#X obj 796 562 vsl 15 128 0 127 0 0 empty empty empty 0 -9 0 10 -262144
-1 -1 2608 1;
#X obj 657 334 snapshot~;
#X obj 605 295 + 1;
#X floatatom 605 343 5 0 0 0 - - -;
#X obj 605 319 / 2;
#X floatatom 605 392 5 0 0 0 - - -;
#X obj 605 367 * 127;
#X floatatom 744 274 5 0 0 0 - - -;
#X obj 797 339 snapshot~;
#X obj 818 196 tgl 15 0 empty empty empty 17 7 0 10 -262144 -1 -1 1
1;
#X obj 744 298 + 1;
#X floatatom 744 346 5 0 0 0 - - -;
#X obj 744 322 / 2;
#X floatatom 744 395 5 0 0 0 - - -;
#X obj 744 370 * 127;
#X floatatom 888 273 5 0 0 0 - - -;
#X obj 941 338 snapshot~;
#X obj 888 297 + 1;
#X floatatom 888 345 5 0 0 0 - - -;
#X obj 888 321 / 2;
#X floatatom 888 394 5 0 0 0 - - -;
#X obj 888 369 * 127;
#X floatatom 1029 272 5 0 0 0 - - -;
#X obj 1082 338 snapshot~;
#X obj 1029 296 + 1;
#X floatatom 1029 344 5 0 0 0 - - -;
#X obj 1029 320 / 2;
#X floatatom 1029 393 5 0 0 0 - - -;
#X obj 1029 368 * 127;
#X floatatom 1169 273 5 0 0 0 - - -;
#X obj 1222 338 snapshot~;
#X obj 1169 297 + 1;
#X floatatom 1169 345 5 0 0 0 - - -;
#X obj 1169 321 / 2;
#X floatatom 1169 394 5 0 0 0 - - -;
#X obj 1169 369 * 127;
#X obj 818 562 vsl 15 128 0 127 0 0 empty empty empty 0 -9 0 10 -262144
-1 -1 10713 1;
#X obj 841 563 vsl 15 128 0 127 0 0 empty empty empty 0 -9 0 10 -262144
-1 -1 11682 1;
#X obj 863 563 vsl 15 128 0 127 0 0 empty empty empty 0 -9 0 10 -262144
-1 -1 3932 1;
#X obj 886 564 vsl 15 128 0 127 0 0 empty empty empty 0 -9 0 10 -262144
-1 -1 136 1;
#X obj 323 38 osc~ 0.2;
#X obj 463 39 osc~ 0.3;
#X obj 601 38 osc~ 0.4;
#X obj 737 40 osc~ 0.5;
#X obj 874 42 osc~ 0.6;
#X obj 1008 41 osc~ 0.7;
#X obj 1156 42 osc~ 0.8;
#X obj 200 247 osc~ 0.9;
#X obj 339 245 osc~ 1;
#X obj 473 244 osc~ 1.1;
#X obj 604 242 osc~ 1.2;
#X obj 744 247 osc~ 1.3;
#X obj 888 246 osc~ 1.4;
#X obj 1029 246 osc~ 1.5;
#X obj 1169 247 osc~ 1.6;
#X floatatom 188 65 5 0 0 0 - - -;
#X obj 241 132 snapshot~;
#X obj 188 89 + 1;
#X floatatom 188 137 5 0 0 0 - - -;
#X obj 188 113 / 2;
#X floatatom 188 186 5 0 0 0 - - -;
#X obj 188 161 * 127;
#X obj 188 40 osc~ 0.1;
#X obj 256 75 metro 30;
#X obj 391 73 metro 30;
#X obj 531 73 metro 30;
#X obj 669 73 metro 30;
#X obj 805 75 metro 30;
#X obj 942 77 metro 30;
#X obj 1076 76 metro 30;
#X obj 1224 77 metro 30;
#X obj 1237 281 metro 30;
#X obj 1097 281 metro 30;
#X obj 956 281 metro 30;
#X obj 812 282 metro 30;
#X obj 672 277 metro 30;
#X obj 540 279 metro 30;
#X obj 407 280 metro 30;
#X obj 268 282 metro 30;
#X connect 1 0 28 0;
#X connect 1 0 62 0;
#X connect 1 0 148 0;
#X connect 1 0 149 0;
#X connect 1 0 150 0;
#X connect 1 0 151 0;
#X connect 2 0 5 0;
#X connect 4 0 2 0;
#X connect 5 0 7 0;
#X connect 6 0 9 0;
#X connect 7 0 6 0;
#X connect 8 0 3 0;
#X connect 9 0 8 0;
#X connect 10 0 13 0;
#X connect 12 0 10 0;
#X connect 13 0 15 0;
#X connect 14 0 17 0;
#X connect 15 0 14 0;
#X connect 16 0 11 0;
#X connect 17 0 16 0;
#X connect 18 0 21 0;
#X connect 20 0 18 0;
#X connect 21 0 23 0;
#X connect 22 0 25 0;
#X connect 23 0 22 0;
#X connect 24 0 19 0;
#X connect 25 0 24 0;
#X connect 26 0 29 0;
#X connect 27 0 26 0;
#X connect 28 0 152 0;
#X connect 28 0 153 0;
#X connect 28 0 154 0;
#X connect 28 0 155 0;
#X connect 29 0 31 0;
#X connect 30 0 33 0;
#X connect 31 0 30 0;
#X connect 32 0 55 0;
#X connect 33 0 32 0;
#X connect 34 0 36 0;
#X connect 35 0 34 0;
#X connect 36 0 38 0;
#X connect 37 0 40 0;
#X connect 38 0 37 0;
#X connect 39 0 56 0;
#X connect 40 0 39 0;
#X connect 41 0 43 0;
#X connect 42 0 41 0;
#X connect 43 0 45 0;
#X connect 44 0 47 0;
#X connect 45 0 44 0;
#X connect 46 0 57 0;
#X connect 47 0 46 0;
#X connect 48 0 50 0;
#X connect 49 0 48 0;
#X connect 50 0 52 0;
#X connect 51 0 54 0;
#X connect 52 0 51 0;
#X connect 53 0 58 0;
#X connect 54 0 53 0;
#X connect 59 0 63 0;
#X connect 61 0 59 0;
#X connect 62 0 94 0;
#X connect 62 0 160 0;
#X connect 62 0 161 0;
#X connect 62 0 162 0;
#X connect 62 0 163 0;
#X connect 63 0 65 0;
#X connect 64 0 67 0;
#X connect 65 0 64 0;
#X connect 66 0 60 0;
#X connect 67 0 66 0;
#X connect 68 0 71 0;
#X connect 70 0 68 0;
#X connect 71 0 73 0;
#X connect 72 0 75 0;
#X connect 73 0 72 0;
#X connect 74 0 69 0;
#X connect 75 0 74 0;
#X connect 76 0 79 0;
#X connect 78 0 76 0;
#X connect 79 0 81 0;
#X connect 80 0 83 0;
#X connect 81 0 80 0;
#X connect 82 0 77 0;
#X connect 83 0 82 0;
#X connect 84 0 87 0;
#X connect 86 0 84 0;
#X connect 87 0 89 0;
#X connect 88 0 91 0;
#X connect 89 0 88 0;
#X connect 90 0 85 0;
#X connect 91 0 90 0;
#X connect 92 0 95 0;
#X connect 93 0 92 0;
#X connect 94 0 156 0;
#X connect 94 0 157 0;
#X connect 94 0 158 0;
#X connect 94 0 159 0;
#X connect 95 0 97 0;
#X connect 96 0 99 0;
#X connect 97 0 96 0;
#X connect 98 0 121 0;
#X connect 99 0 98 0;
#X connect 100 0 102 0;
#X connect 101 0 100 0;
#X connect 102 0 104 0;
#X connect 103 0 106 0;
#X connect 104 0 103 0;
#X connect 105 0 122 0;
#X connect 106 0 105 0;
#X connect 107 0 109 0;
#X connect 108 0 107 0;
#X connect 109 0 111 0;
#X connect 110 0 113 0;
#X connect 111 0 110 0;
#X connect 112 0 123 0;
#X connect 113 0 112 0;
#X connect 114 0 116 0;
#X connect 115 0 114 0;
#X connect 116 0 118 0;
#X connect 117 0 120 0;
#X connect 118 0 117 0;
#X connect 119 0 124 0;
#X connect 120 0 119 0;
#X connect 125 0 4 0;
#X connect 126 0 12 0;
#X connect 127 0 20 0;
#X connect 128 0 27 0;
#X connect 129 0 35 0;
#X connect 130 0 42 0;
#X connect 131 0 49 0;
#X connect 132 0 61 0;
#X connect 133 0 70 0;
#X connect 134 0 78 0;
#X connect 135 0 86 0;
#X connect 136 0 93 0;
#X connect 137 0 101 0;
#X connect 138 0 108 0;
#X connect 139 0 115 0;
#X connect 140 0 142 0;
#X connect 141 0 140 0;
#X connect 142 0 144 0;
#X connect 143 0 146 0;
#X connect 144 0 143 0;
#X connect 145 0 0 0;
#X connect 146 0 145 0;
#X connect 147 0 141 0;
#X connect 148 0 141 0;
#X connect 149 0 4 0;
#X connect 150 0 12 0;
#X connect 151 0 20 0;
#X connect 152 0 27 0;
#X connect 153 0 35 0;
#X connect 154 0 42 0;
#X connect 155 0 49 0;
#X connect 156 0 115 0;
#X connect 157 0 108 0;
#X connect 158 0 101 0;
#X connect 159 0 93 0;
#X connect 160 0 86 0;
#X connect 161 0 78 0;
#X connect 162 0 70 0;
#X connect 163 0 61 0;
