#N canvas 0 177 1341 556 12;
#X obj 331 143 +~;
#X obj 331 205 osc~;
#X obj 228 534 dac~;
#X obj 210 260 channelst;
#X floatatom 321 59 5 0 0 0 - - -;
#X obj 63 233 envelope;
#X obj 149 264 *~;
#X obj 6 151 tgl 15 0 empty empty empty 17 7 0 10 -262144 -1 -1 0 1
;
#X obj 36 75 vsl 15 128 0 1 0 0 empty empty empty 0 -9 0 10 -262144
-1 -1 12700 1;
#X obj 58 74 vsl 15 128 0 1000 0 0 empty empty empty 0 -9 0 10 -262144
-1 -1 1700 1;
#X obj 132 78 vsl 15 128 0 1000 0 0 empty empty empty 0 -9 0 10 -262144
-1 -1 2500 1;
#X obj 105 75 vsl 15 128 0 1000 0 0 empty empty empty 0 -9 0 10 -262144
-1 -1 1600 1;
#X obj 81 74 vsl 15 128 0 1000 0 0 empty empty empty 0 -9 0 10 -262144
-1 -1 700 1;
#X obj 394 125 s freq;
#N canvas 0 250 965 503 (subpatch) 0;
#X obj 484 167 osc~;
#X obj 483 203 *~;
#X floatatom 537 167 5 0 0 0 - - -;
#X floatatom 484 139 5 0 0 0 - - -;
#X obj 485 111 * 2;
#X obj 542 112 * 1000;
#X obj 494 67 r freq;
#X obj 553 68 inlet;
#X obj 602 77 vsl 15 128 0 1 0 0 empty empty empty 0 -9 0 10 -262144
-1 -1 4300 1;
#X obj 639 168 osc~;
#X obj 638 204 *~;
#X floatatom 692 168 5 0 0 0 - - -;
#X floatatom 639 140 5 0 0 0 - - -;
#X obj 697 113 * 1000;
#X obj 649 68 r freq;
#X obj 708 69 inlet;
#X obj 757 78 vsl 15 128 0 1 0 0 empty empty empty 0 -9 0 10 -262144
-1 -1 4800 1;
#X obj 794 165 osc~;
#X obj 793 201 *~;
#X floatatom 847 165 5 0 0 0 - - -;
#X floatatom 794 137 5 0 0 0 - - -;
#X obj 852 110 * 1000;
#X obj 804 65 r freq;
#X obj 863 66 inlet;
#X obj 912 75 vsl 15 128 0 1 0 0 empty empty empty 0 -9 0 10 -262144
-1 -1 8200 1;
#X obj 949 166 osc~;
#X obj 948 202 *~;
#X floatatom 1002 166 5 0 0 0 - - -;
#X floatatom 949 138 5 0 0 0 - - -;
#X obj 1007 111 * 1000;
#X obj 959 66 r freq;
#X obj 1018 67 inlet;
#X obj 1067 76 vsl 15 128 0 1 0 0 empty empty empty 0 -9 0 10 -262144
-1 -1 6900 1;
#X obj 1097 172 osc~;
#X obj 1096 208 *~;
#X floatatom 1150 172 5 0 0 0 - - -;
#X floatatom 1097 144 5 0 0 0 - - -;
#X obj 1155 117 * 1000;
#X obj 1107 72 r freq;
#X obj 1166 73 inlet;
#X obj 1215 82 vsl 15 128 0 1 0 0 empty empty empty 0 -9 0 10 -262144
-1 -1 10000 1;
#X obj 1252 173 osc~;
#X obj 1251 209 *~;
#X floatatom 1305 173 5 0 0 0 - - -;
#X floatatom 1252 145 5 0 0 0 - - -;
#X obj 1310 118 * 1000;
#X obj 1262 73 r freq;
#X obj 1321 74 inlet;
#X obj 1370 83 vsl 15 128 0 1 0 0 empty empty empty 0 -9 0 10 -262144
-1 -1 8700 1;
#X obj 1407 170 osc~;
#X obj 1406 206 *~;
#X floatatom 1460 170 5 0 0 0 - - -;
#X floatatom 1407 142 5 0 0 0 - - -;
#X obj 1465 115 * 1000;
#X obj 1417 70 r freq;
#X obj 1476 71 inlet;
#X obj 1525 80 vsl 15 128 0 1 0 0 empty empty empty 0 -9 0 10 -262144
-1 -1 10500 1;
#X obj 1562 171 osc~;
#X obj 1561 207 *~;
#X floatatom 1615 171 5 0 0 0 - - -;
#X floatatom 1562 143 5 0 0 0 - - -;
#X obj 1620 116 * 1000;
#X obj 1572 71 r freq;
#X obj 1631 72 inlet;
#X obj 1680 81 vsl 15 128 0 1 0 0 empty empty empty 0 -9 0 10 -262144
-1 -1 9200 1;
#X obj 640 112 * 3;
#X obj 795 109 * 4;
#X obj 950 110 * 5;
#X obj 1098 116 * 6;
#X obj 1253 117 * 7;
#X obj 1408 114 * 8;
#X obj 1563 115 * 9;
#X obj 1718 178 osc~;
#X obj 1717 214 *~;
#X floatatom 1771 178 5 0 0 0 - - -;
#X floatatom 1718 150 5 0 0 0 - - -;
#X obj 1776 123 * 1000;
#X obj 1728 78 r freq;
#X obj 1787 79 inlet;
#X obj 1840 83 vsl 15 128 0 1 0 0 empty empty empty 0 -9 0 10 -262144
-1 -1 8500 1;
#X obj 1873 179 osc~;
#X obj 1872 215 *~;
#X floatatom 1926 179 5 0 0 0 - - -;
#X floatatom 1873 151 5 0 0 0 - - -;
#X obj 1931 124 * 1000;
#X obj 1883 79 r freq;
#X obj 1942 80 inlet;
#X obj 1991 89 vsl 15 128 0 1 0 0 empty empty empty 0 -9 0 10 -262144
-1 -1 0 1;
#X obj 2028 176 osc~;
#X obj 2027 212 *~;
#X floatatom 2081 176 5 0 0 0 - - -;
#X floatatom 2028 148 5 0 0 0 - - -;
#X obj 2086 121 * 1000;
#X obj 2038 76 r freq;
#X obj 2097 77 inlet;
#X obj 2146 86 vsl 15 128 0 1 0 0 empty empty empty 0 -9 0 10 -262144
-1 -1 0 1;
#X obj 2183 177 osc~;
#X obj 2182 213 *~;
#X floatatom 2236 177 5 0 0 0 - - -;
#X floatatom 2183 149 5 0 0 0 - - -;
#X obj 2241 122 * 1000;
#X obj 2193 77 r freq;
#X obj 2252 78 inlet;
#X obj 2301 87 vsl 15 128 0 1 0 0 empty empty empty 0 -9 0 10 -262144
-1 -1 0 1;
#X obj 2331 183 osc~;
#X obj 2330 219 *~;
#X floatatom 2384 183 5 0 0 0 - - -;
#X floatatom 2331 155 5 0 0 0 - - -;
#X obj 2389 128 * 1000;
#X obj 2341 83 r freq;
#X obj 2400 84 inlet;
#X obj 2449 93 vsl 15 128 0 1 0 0 empty empty empty 0 -9 0 10 -262144
-1 -1 0 1;
#X obj 2486 184 osc~;
#X obj 2485 220 *~;
#X floatatom 2539 184 5 0 0 0 - - -;
#X floatatom 2486 156 5 0 0 0 - - -;
#X obj 2544 129 * 1000;
#X obj 2496 84 r freq;
#X obj 2555 85 inlet;
#X obj 2604 94 vsl 15 128 0 1 0 0 empty empty empty 0 -9 0 10 -262144
-1 -1 0 1;
#X obj 2641 181 osc~;
#X obj 2640 217 *~;
#X floatatom 2694 181 5 0 0 0 - - -;
#X floatatom 2641 153 5 0 0 0 - - -;
#X obj 2699 126 * 1000;
#X obj 2651 81 r freq;
#X obj 2710 82 inlet;
#X obj 2759 91 vsl 15 128 0 1 0 0 empty empty empty 0 -9 0 10 -262144
-1 -1 0 1;
#X obj 2796 182 osc~;
#X obj 2795 218 *~;
#X floatatom 2849 182 5 0 0 0 - - -;
#X floatatom 2796 154 5 0 0 0 - - -;
#X obj 2854 127 * 1000;
#X obj 2806 82 r freq;
#X obj 2865 83 inlet;
#X obj 2914 92 vsl 15 128 0 1 0 0 empty empty empty 0 -9 0 10 -262144
-1 -1 0 1;
#X obj 1719 122 * 10;
#X obj 1874 123 * 11;
#X obj 2029 120 * 12;
#X obj 2184 121 * 13;
#X obj 2332 127 * 14;
#X obj 2487 128 * 15;
#X obj 2642 125 * 16;
#X obj 2797 126 * 17;
#X obj 484 238 throw~ fmsum;
#X obj 639 239 throw~ fmsum;
#X obj 794 236 throw~ fmsum;
#X obj 942 281 throw~ fmsum;
#X obj 1097 282 throw~ fmsum;
#X obj 1252 279 throw~ fmsum;
#X obj 1429 281 throw~ fmsum;
#X obj 1584 282 throw~ fmsum;
#X obj 1739 279 throw~ fmsum;
#X obj 1874 276 throw~ fmsum;
#X obj 2029 273 throw~ fmsum;
#X obj 2224 316 throw~ fmsum;
#X obj 2379 313 throw~ fmsum;
#X obj 2514 310 throw~ fmsum;
#X obj 2669 307 throw~ fmsum;
#X obj 2812 294 throw~ fmsum;
#X connect 0 0 1 0;
#X connect 1 0 144 0;
#X connect 2 0 1 1;
#X connect 3 0 0 0;
#X connect 4 0 3 0;
#X connect 5 0 2 0;
#X connect 6 0 4 0;
#X connect 7 0 5 0;
#X connect 8 0 5 0;
#X connect 9 0 10 0;
#X connect 10 0 145 0;
#X connect 11 0 10 1;
#X connect 12 0 9 0;
#X connect 13 0 11 0;
#X connect 14 0 65 0;
#X connect 15 0 13 0;
#X connect 16 0 13 0;
#X connect 17 0 18 0;
#X connect 18 0 146 0;
#X connect 19 0 18 1;
#X connect 20 0 17 0;
#X connect 21 0 19 0;
#X connect 22 0 66 0;
#X connect 23 0 21 0;
#X connect 24 0 21 0;
#X connect 25 0 26 0;
#X connect 26 0 147 0;
#X connect 27 0 26 1;
#X connect 28 0 25 0;
#X connect 29 0 27 0;
#X connect 30 0 67 0;
#X connect 31 0 29 0;
#X connect 32 0 29 0;
#X connect 33 0 34 0;
#X connect 34 0 148 0;
#X connect 35 0 34 1;
#X connect 36 0 33 0;
#X connect 37 0 35 0;
#X connect 38 0 68 0;
#X connect 39 0 37 0;
#X connect 40 0 37 0;
#X connect 41 0 42 0;
#X connect 42 0 149 0;
#X connect 43 0 42 1;
#X connect 44 0 41 0;
#X connect 45 0 43 0;
#X connect 46 0 69 0;
#X connect 47 0 45 0;
#X connect 48 0 45 0;
#X connect 49 0 50 0;
#X connect 50 0 150 0;
#X connect 51 0 50 1;
#X connect 52 0 49 0;
#X connect 53 0 51 0;
#X connect 54 0 70 0;
#X connect 55 0 53 0;
#X connect 56 0 53 0;
#X connect 57 0 58 0;
#X connect 58 0 151 0;
#X connect 59 0 58 1;
#X connect 60 0 57 0;
#X connect 61 0 59 0;
#X connect 62 0 71 0;
#X connect 63 0 61 0;
#X connect 64 0 61 0;
#X connect 65 0 12 0;
#X connect 66 0 20 0;
#X connect 67 0 28 0;
#X connect 68 0 36 0;
#X connect 69 0 44 0;
#X connect 70 0 52 0;
#X connect 71 0 60 0;
#X connect 72 0 73 0;
#X connect 73 0 152 0;
#X connect 74 0 73 1;
#X connect 75 0 72 0;
#X connect 76 0 74 0;
#X connect 77 0 136 0;
#X connect 78 0 76 0;
#X connect 79 0 76 0;
#X connect 80 0 81 0;
#X connect 81 0 153 0;
#X connect 82 0 81 1;
#X connect 83 0 80 0;
#X connect 84 0 82 0;
#X connect 85 0 137 0;
#X connect 86 0 84 0;
#X connect 87 0 84 1;
#X connect 88 0 89 0;
#X connect 89 0 154 0;
#X connect 90 0 89 1;
#X connect 91 0 88 0;
#X connect 92 0 90 0;
#X connect 93 0 138 0;
#X connect 94 0 92 0;
#X connect 95 0 92 0;
#X connect 96 0 97 0;
#X connect 97 0 155 0;
#X connect 98 0 97 1;
#X connect 99 0 96 0;
#X connect 100 0 98 0;
#X connect 101 0 139 0;
#X connect 102 0 100 0;
#X connect 103 0 100 0;
#X connect 104 0 105 0;
#X connect 105 0 156 0;
#X connect 106 0 105 1;
#X connect 107 0 104 0;
#X connect 108 0 106 0;
#X connect 109 0 140 0;
#X connect 110 0 108 0;
#X connect 111 0 108 0;
#X connect 112 0 113 0;
#X connect 113 0 157 0;
#X connect 114 0 113 1;
#X connect 115 0 112 0;
#X connect 116 0 114 0;
#X connect 117 0 141 0;
#X connect 118 0 116 0;
#X connect 119 0 116 0;
#X connect 120 0 121 0;
#X connect 121 0 158 0;
#X connect 122 0 121 1;
#X connect 123 0 120 0;
#X connect 124 0 122 0;
#X connect 125 0 142 0;
#X connect 126 0 124 0;
#X connect 127 0 124 0;
#X connect 128 0 129 0;
#X connect 129 0 159 0;
#X connect 130 0 129 1;
#X connect 131 0 128 0;
#X connect 132 0 130 0;
#X connect 133 0 143 0;
#X connect 134 0 132 0;
#X connect 135 0 132 0;
#X connect 136 0 75 0;
#X connect 137 0 83 0;
#X connect 138 0 91 0;
#X connect 139 0 99 0;
#X connect 140 0 107 0;
#X connect 141 0 115 0;
#X connect 142 0 123 0;
#X connect 143 0 131 0;
#X restore 541 263 pd;
#X f 78;
#X obj 766 72 vsl 15 128 0 1 0 0 empty empty empty 0 -9 0 10 -262144
-1 -1 0 1;
#X obj 385 60 catch~ fmsum;
#X connect 0 0 1 0;
#X connect 1 0 6 0;
#X connect 3 0 2 0;
#X connect 3 1 2 1;
#X connect 4 0 0 0;
#X connect 4 0 13 0;
#X connect 5 0 6 1;
#X connect 6 0 3 4;
#X connect 6 0 3 5;
#X connect 7 0 5 0;
#X connect 8 0 5 1;
#X connect 9 0 5 2;
#X connect 10 0 5 5;
#X connect 11 0 5 4;
#X connect 12 0 5 3;
#X connect 15 0 14 3;
#X connect 15 0 14 4;
#X connect 15 0 14 5;
#X connect 15 0 14 6;
#X connect 15 0 14 7;
#X connect 15 0 14 2;
#X connect 15 0 14 1;
#X connect 15 0 14 0;
#X connect 15 0 14 8;
#X connect 15 0 14 9;
#X connect 15 0 14 10;
#X connect 15 0 14 11;
#X connect 15 0 14 12;
#X connect 15 0 14 13;
#X connect 15 0 14 14;
#X connect 15 0 14 15;
#X connect 16 0 0 1;
