#N canvas 0 12 1440 821 12;
#X obj 278 107 tgl 15 0 empty empty empty 17 7 0 10 -262144 -1 -1 1
1;
#X floatatom 222 135 5 0 0 0 - - -;
#X floatatom 363 134 5 0 0 0 - - -;
#X floatatom 356 100 5 0 0 0 - - -;
#X obj 342 171 +;
#X msg 355 69 0;
#X msg 222 104 1;
#X obj 222 56 loadbang;
#X floatatom 339 202 5 0 0 0 - - -;
#X obj 73 259 % 3;
#X obj 115 260 % 5;
#X floatatom 73 279 5 0 0 0 - - -;
#X floatatom 155 280 5 0 0 0 - - -;
#X floatatom 115 280 5 0 0 0 - - -;
#X obj 73 355 bng 15 250 50 0 empty empty empty 17 7 0 10 -262144 -1
-1;
#X obj 153 359 bng 15 250 50 0 empty empty empty 17 7 0 10 -262144
-1 -1;
#X obj 112 356 bng 15 250 50 0 empty empty empty 17 7 0 10 -262144
-1 -1;
#X obj 195 260 % 11;
#X floatatom 195 280 5 0 0 0 - - -;
#X obj 195 360 bng 15 250 50 0 empty empty empty 17 7 0 10 -262144
-1 -1;
#X obj 155 260 % 7;
#X floatatom 31 274 5 0 0 0 - - -;
#X obj 29 349 bng 15 250 50 0 empty empty empty 17 7 0 10 -262144 -1
-1;
#X obj 31 254 % 2;
#X floatatom 244 281 5 0 0 0 - - -;
#X obj 246 361 bng 15 250 50 0 empty empty empty 17 7 0 10 -262144
-1 -1;
#X obj 244 261 % 13;
#X floatatom 343 280 5 0 0 0 - - -;
#X floatatom 449 280 5 0 0 0 - - -;
#X floatatom 396 280 5 0 0 0 - - -;
#X obj 341 361 bng 15 250 50 0 empty empty empty 17 7 0 10 -262144
-1 -1;
#X obj 449 361 bng 15 250 50 0 empty empty empty 17 7 0 10 -262144
-1 -1;
#X obj 397 361 bng 15 250 50 0 empty empty empty 17 7 0 10 -262144
-1 -1;
#X floatatom 500 280 5 0 0 0 - - -;
#X obj 503 361 bng 15 250 50 0 empty empty empty 17 7 0 10 -262144
-1 -1;
#X floatatom 292 281 5 0 0 0 - - -;
#X obj 292 360 bng 15 250 50 0 empty empty empty 17 7 0 10 -262144
-1 -1;
#X floatatom 551 280 5 0 0 0 - - -;
#X obj 549 361 bng 15 250 50 0 empty empty empty 17 7 0 10 -262144
-1 -1;
#X obj 292 261 % 17;
#X obj 343 258 % 19;
#X obj 395 258 % 23;
#X obj 448 258 % 29;
#X obj 501 257 % 31;
#X obj 552 256 % 37;
#X floatatom 10 438 5 0 0 0 - - -;
#X floatatom 109 437 5 0 0 0 - - -;
#X floatatom 60 436 5 0 0 0 - - -;
#X obj 12 523 bng 15 250 50 0 empty empty empty 17 7 0 10 -262144 -1
-1;
#X obj 111 521 bng 15 250 50 0 empty empty empty 17 7 0 10 -262144
-1 -1;
#X obj 62 522 bng 15 250 50 0 empty empty empty 17 7 0 10 -262144 -1
-1;
#X floatatom 159 439 5 0 0 0 - - -;
#X obj 160 522 bng 15 250 50 0 empty empty empty 17 7 0 10 -262144
-1 -1;
#X floatatom 605 279 5 0 0 0 - - -;
#X obj 604 361 bng 15 250 50 0 empty empty empty 17 7 0 10 -262144
-1 -1;
#X floatatom 209 440 5 0 0 0 - - -;
#X obj 209 522 bng 15 250 50 0 empty empty empty 17 7 0 10 -262144
-1 -1;
#X floatatom 313 438 5 0 0 0 - - -;
#X floatatom 413 440 5 0 0 0 - - -;
#X floatatom 363 441 5 0 0 0 - - -;
#X obj 315 523 bng 15 250 50 0 empty empty empty 17 7 0 10 -262144
-1 -1;
#X obj 415 525 bng 15 250 50 0 empty empty empty 17 7 0 10 -262144
-1 -1;
#X obj 362 524 bng 15 250 50 0 empty empty empty 17 7 0 10 -262144
-1 -1;
#X floatatom 465 442 5 0 0 0 - - -;
#X obj 465 524 bng 15 250 50 0 empty empty empty 17 7 0 10 -262144
-1 -1;
#X floatatom 262 440 5 0 0 0 - - -;
#X obj 265 523 bng 15 250 50 0 empty empty empty 17 7 0 10 -262144
-1 -1;
#X floatatom 513 441 5 0 0 0 - - -;
#X obj 518 524 bng 15 250 50 0 empty empty empty 17 7 0 10 -262144
-1 -1;
#X obj 605 255 % 41;
#X obj 10 415 % 43;
#X obj 60 417 % 47;
#X obj 109 413 % 53;
#X obj 159 416 % 59;
#X obj 210 414 % 61;
#X obj 261 417 % 67;
#X obj 313 414 % 73;
#X obj 363 417 % 71;
#X obj 413 417 % 73;
#X obj 464 417 % 79;
#X obj 513 418 % 83;
#X floatatom 562 441 5 0 0 0 - - -;
#X obj 564 524 bng 15 250 50 0 empty empty empty 17 7 0 10 -262144
-1 -1;
#X floatatom 610 441 5 0 0 0 - - -;
#X obj 614 518 bng 15 250 50 0 empty empty empty 17 7 0 10 -262144
-1 -1;
#X obj 564 414 % 89;
#X obj 611 413 % 97;
#X obj 29 299 sel 1;
#X obj 73 297 sel 2;
#X obj 115 298 sel 4;
#X obj 155 299 sel 6;
#X obj 195 299 sel 10;
#X obj 244 300 sel 12;
#X obj 292 300 sel 16;
#X obj 343 301 sel 18;
#X obj 397 301 sel 22;
#X obj 450 301 sel 28;
#X obj 501 301 sel 30;
#X obj 551 301 sel 36;
#X obj 605 301 sel 40;
#X obj 10 461 sel 42;
#X obj 60 462 sel 46;
#X obj 109 462 sel 52;
#X obj 159 463 sel 58;
#X obj 209 463 sel 60;
#X obj 262 462 sel 66;
#X obj 313 462 sel 72;
#X obj 363 462 sel 70;
#X obj 413 462 sel 72;
#X obj 465 464 sel 78;
#X obj 514 464 sel 82;
#X obj 563 464 sel 88;
#N canvas 0 22 901 687 countbang 0;
#X obj 137 210 %;
#X floatatom 186 174 5 0 0 0 - - -;
#X obj 186 216 - 1;
#X obj 137 255 sel;
#X obj 137 299 bng 15 250 50 0 empty empty empty 17 7 0 10 -262144
-1 -1;
#X obj 186 137 inlet;
#X obj 137 137 inlet;
#X obj 137 337 outlet;
#X connect 0 0 3 0;
#X connect 1 0 0 1;
#X connect 1 0 2 0;
#X connect 2 0 3 1;
#X connect 3 0 4 0;
#X connect 4 0 7 0;
#X connect 5 0 1 0;
#X connect 6 0 0 0;
#X restore 523 192 pd countbang;
#X msg 604 160 16;
#X obj 524 223 bng 15 250 50 0 empty empty empty 17 7 0 10 -262144
-1 -1;
#X obj 355 44 bng 15 250 50 0 empty empty RESET 17 7 0 10 -262144 -1
-1;
#N canvas 971 173 469 705 drumnotesel 0;
#X obj 197 350 makenote;
#X obj 206 400 noteout;
#X floatatom 278 359 5 0 0 0 - - -;
#X msg 305 304 1;
#X floatatom 145 293 5 0 0 0 - - -;
#X floatatom 213 314 5 0 0 0 - - -;
#X msg 187 263 127;
#X msg 225 278 0;
#X obj 280 158 sel 1;
#X obj 307 238 loadbang;
#X obj 59 49 inlet;
#X obj 239 64 inlet;
#X obj 315 53 inlet;
#X obj 164 27 inlet;
#X obj 46 183 loadbang;
#X msg 54 246 70;
#X connect 0 0 1 0;
#X connect 0 1 1 1;
#X connect 2 0 1 2;
#X connect 3 0 2 0;
#X connect 4 0 0 0;
#X connect 5 0 0 1;
#X connect 6 0 5 0;
#X connect 7 0 5 0;
#X connect 8 0 6 0;
#X connect 8 1 7 0;
#X connect 9 0 3 0;
#X connect 9 0 6 0;
#X connect 10 0 4 0;
#X connect 11 0 8 0;
#X connect 12 0 2 0;
#X connect 13 0 4 0;
#X connect 14 0 15 0;
#X connect 15 0 4 0;
#X restore 936 588 pd drumnotesel;
#N canvas 971 173 469 705 drumnotesel 0;
#X obj 197 350 makenote;
#X obj 206 400 noteout;
#X floatatom 278 359 5 0 0 0 - - -;
#X msg 305 304 1;
#X floatatom 145 293 5 0 0 0 - - -;
#X floatatom 213 314 5 0 0 0 - - -;
#X msg 187 263 127;
#X msg 225 278 0;
#X obj 280 158 sel 1;
#X obj 307 238 loadbang;
#X obj 59 49 inlet;
#X obj 239 64 inlet;
#X obj 315 53 inlet;
#X obj 164 27 inlet;
#X obj 46 183 loadbang;
#X msg 54 246 84;
#X connect 0 0 1 0;
#X connect 0 1 1 1;
#X connect 2 0 1 2;
#X connect 3 0 2 0;
#X connect 4 0 0 0;
#X connect 5 0 0 1;
#X connect 6 0 5 0;
#X connect 7 0 5 0;
#X connect 8 0 6 0;
#X connect 8 1 7 0;
#X connect 9 0 3 0;
#X connect 9 0 6 0;
#X connect 10 0 4 0;
#X connect 11 0 8 0;
#X connect 12 0 2 0;
#X connect 13 0 4 0;
#X connect 14 0 15 0;
#X connect 15 0 4 0;
#X restore 1304 331 pd drumnotesel;
#N canvas 971 173 469 705 drumnotesel 0;
#X obj 197 350 makenote;
#X obj 206 400 noteout;
#X floatatom 278 359 5 0 0 0 - - -;
#X msg 305 304 1;
#X floatatom 145 293 5 0 0 0 - - -;
#X floatatom 213 314 5 0 0 0 - - -;
#X msg 187 263 127;
#X msg 225 278 0;
#X obj 280 158 sel 1;
#X obj 307 238 loadbang;
#X obj 59 49 inlet;
#X obj 239 64 inlet;
#X obj 315 53 inlet;
#X obj 164 27 inlet;
#X obj 46 183 loadbang;
#X msg 54 246 89;
#X connect 0 0 1 0;
#X connect 0 1 1 1;
#X connect 2 0 1 2;
#X connect 3 0 2 0;
#X connect 4 0 0 0;
#X connect 5 0 0 1;
#X connect 6 0 5 0;
#X connect 7 0 5 0;
#X connect 8 0 6 0;
#X connect 8 1 7 0;
#X connect 9 0 3 0;
#X connect 9 0 6 0;
#X connect 10 0 4 0;
#X connect 11 0 8 0;
#X connect 12 0 2 0;
#X connect 13 0 4 0;
#X connect 14 0 15 0;
#X connect 15 0 4 0;
#X restore 935 641 pd drumnotesel;
#N canvas 971 173 469 705 drumnotesel 0;
#X obj 197 350 makenote;
#X obj 206 400 noteout;
#X floatatom 278 359 5 0 0 0 - - -;
#X msg 305 304 1;
#X floatatom 145 293 5 0 0 0 - - -;
#X floatatom 213 314 5 0 0 0 - - -;
#X msg 187 263 127;
#X msg 225 278 0;
#X obj 280 158 sel 1;
#X obj 307 238 loadbang;
#X obj 59 49 inlet;
#X obj 239 64 inlet;
#X obj 315 53 inlet;
#X obj 164 27 inlet;
#X obj 46 183 loadbang;
#X msg 54 245 79;
#X connect 0 0 1 0;
#X connect 0 1 1 1;
#X connect 2 0 1 2;
#X connect 3 0 2 0;
#X connect 4 0 0 0;
#X connect 5 0 0 1;
#X connect 6 0 5 0;
#X connect 7 0 5 0;
#X connect 8 0 6 0;
#X connect 8 1 7 0;
#X connect 9 0 3 0;
#X connect 9 0 6 0;
#X connect 10 0 4 0;
#X connect 11 0 8 0;
#X connect 12 0 2 0;
#X connect 13 0 4 0;
#X connect 14 0 15 0;
#X connect 15 0 4 0;
#X restore 1303 384 pd drumnotesel;
#N canvas 971 173 469 705 drumnotesel 0;
#X obj 197 350 makenote;
#X obj 206 400 noteout;
#X floatatom 278 359 5 0 0 0 - - -;
#X msg 305 304 1;
#X floatatom 145 293 5 0 0 0 - - -;
#X floatatom 213 314 5 0 0 0 - - -;
#X msg 187 263 127;
#X msg 225 278 0;
#X obj 280 158 sel 1;
#X obj 307 238 loadbang;
#X obj 59 49 inlet;
#X obj 239 64 inlet;
#X obj 315 53 inlet;
#X obj 164 27 inlet;
#X obj 46 183 loadbang;
#X msg 54 246 82;
#X connect 0 0 1 0;
#X connect 0 1 1 1;
#X connect 2 0 1 2;
#X connect 3 0 2 0;
#X connect 4 0 0 0;
#X connect 5 0 0 1;
#X connect 6 0 5 0;
#X connect 7 0 5 0;
#X connect 8 0 6 0;
#X connect 8 1 7 0;
#X connect 9 0 3 0;
#X connect 9 0 6 0;
#X connect 10 0 4 0;
#X connect 11 0 8 0;
#X connect 12 0 2 0;
#X connect 13 0 4 0;
#X connect 14 0 15 0;
#X connect 15 0 4 0;
#X restore 935 697 pd drumnotesel;
#N canvas 971 173 469 705 drumnotesel 0;
#X obj 197 350 makenote;
#X obj 206 400 noteout;
#X floatatom 278 359 5 0 0 0 - - -;
#X msg 305 304 1;
#X floatatom 145 293 5 0 0 0 - - -;
#X floatatom 213 314 5 0 0 0 - - -;
#X msg 187 263 127;
#X msg 225 278 0;
#X obj 280 158 sel 1;
#X obj 307 238 loadbang;
#X obj 59 49 inlet;
#X obj 239 64 inlet;
#X obj 315 53 inlet;
#X obj 164 27 inlet;
#X obj 46 183 loadbang;
#X msg 54 246 84;
#X connect 0 0 1 0;
#X connect 0 1 1 1;
#X connect 2 0 1 2;
#X connect 3 0 2 0;
#X connect 4 0 0 0;
#X connect 5 0 0 1;
#X connect 6 0 5 0;
#X connect 7 0 5 0;
#X connect 8 0 6 0;
#X connect 8 1 7 0;
#X connect 9 0 3 0;
#X connect 9 0 6 0;
#X connect 10 0 4 0;
#X connect 11 0 8 0;
#X connect 12 0 2 0;
#X connect 13 0 4 0;
#X connect 14 0 15 0;
#X connect 15 0 4 0;
#X restore 1303 440 pd drumnotesel;
#N canvas 971 173 469 705 drumnotesel 0;
#X obj 197 350 makenote;
#X obj 206 400 noteout;
#X floatatom 278 359 5 0 0 0 - - -;
#X msg 305 304 1;
#X floatatom 145 293 5 0 0 0 - - -;
#X floatatom 213 314 5 0 0 0 - - -;
#X msg 187 263 127;
#X msg 225 278 0;
#X obj 280 158 sel 1;
#X obj 307 238 loadbang;
#X obj 59 49 inlet;
#X obj 239 64 inlet;
#X obj 315 53 inlet;
#X obj 164 27 inlet;
#X obj 46 183 loadbang;
#X msg 54 246 77;
#X connect 0 0 1 0;
#X connect 0 1 1 1;
#X connect 2 0 1 2;
#X connect 3 0 2 0;
#X connect 4 0 0 0;
#X connect 5 0 0 1;
#X connect 6 0 5 0;
#X connect 7 0 5 0;
#X connect 8 0 6 0;
#X connect 8 1 7 0;
#X connect 9 0 3 0;
#X connect 9 0 6 0;
#X connect 10 0 4 0;
#X connect 11 0 8 0;
#X connect 12 0 2 0;
#X connect 13 0 4 0;
#X connect 14 0 15 0;
#X connect 15 0 4 0;
#X restore 934 750 pd drumnotesel;
#N canvas 971 173 469 705 drumnotesel 0;
#X obj 197 350 makenote;
#X obj 206 400 noteout;
#X floatatom 278 359 5 0 0 0 - - -;
#X msg 305 304 1;
#X floatatom 145 293 5 0 0 0 - - -;
#X floatatom 213 314 5 0 0 0 - - -;
#X msg 187 263 127;
#X msg 225 278 0;
#X obj 280 158 sel 1;
#X obj 307 238 loadbang;
#X obj 59 49 inlet;
#X obj 239 64 inlet;
#X obj 315 53 inlet;
#X obj 164 27 inlet;
#X obj 46 183 loadbang;
#X msg 54 246 91;
#X connect 0 0 1 0;
#X connect 0 1 1 1;
#X connect 2 0 1 2;
#X connect 3 0 2 0;
#X connect 4 0 0 0;
#X connect 5 0 0 1;
#X connect 6 0 5 0;
#X connect 7 0 5 0;
#X connect 8 0 6 0;
#X connect 8 1 7 0;
#X connect 9 0 3 0;
#X connect 9 0 6 0;
#X connect 10 0 4 0;
#X connect 11 0 8 0;
#X connect 12 0 2 0;
#X connect 13 0 4 0;
#X connect 14 0 15 0;
#X connect 15 0 4 0;
#X restore 1302 493 pd drumnotesel;
#N canvas 971 173 469 705 drumnotesel 0;
#X obj 197 350 makenote;
#X obj 206 400 noteout;
#X floatatom 278 359 5 0 0 0 - - -;
#X msg 305 304 1;
#X floatatom 145 293 5 0 0 0 - - -;
#X floatatom 213 314 5 0 0 0 - - -;
#X msg 187 263 127;
#X msg 225 278 0;
#X obj 280 158 sel 1;
#X obj 307 238 loadbang;
#X obj 59 49 inlet;
#X obj 239 64 inlet;
#X obj 315 53 inlet;
#X obj 164 27 inlet;
#X obj 46 183 loadbang;
#X msg 54 247 60;
#X connect 0 0 1 0;
#X connect 0 1 1 1;
#X connect 2 0 1 2;
#X connect 3 0 2 0;
#X connect 4 0 0 0;
#X connect 5 0 0 1;
#X connect 6 0 5 0;
#X connect 7 0 5 0;
#X connect 8 0 6 0;
#X connect 8 1 7 0;
#X connect 9 0 3 0;
#X connect 9 0 6 0;
#X connect 10 0 4 0;
#X connect 11 0 8 0;
#X connect 12 0 2 0;
#X connect 13 0 4 0;
#X connect 14 0 15 0;
#X connect 15 0 4 0;
#X restore 937 375 pd drumnotesel;
#N canvas 300 69 469 705 drumnotesel 0;
#X obj 197 350 makenote;
#X obj 206 400 noteout;
#X floatatom 278 359 5 0 0 0 - - -;
#X msg 305 304 1;
#X floatatom 145 293 5 0 0 0 - - -;
#X floatatom 213 314 5 0 0 0 - - -;
#X msg 187 263 127;
#X msg 225 278 0;
#X obj 280 158 sel 1;
#X obj 307 238 loadbang;
#X obj 59 49 inlet;
#X obj 239 64 inlet;
#X obj 315 53 inlet;
#X obj 164 27 inlet;
#X obj 46 183 loadbang;
#X msg 54 246 67;
#X connect 0 0 1 0;
#X connect 0 1 1 1;
#X connect 2 0 1 2;
#X connect 3 0 2 0;
#X connect 4 0 0 0;
#X connect 5 0 0 1;
#X connect 6 0 5 0;
#X connect 7 0 5 0;
#X connect 8 0 6 0;
#X connect 8 1 7 0;
#X connect 9 0 3 0;
#X connect 9 0 6 0;
#X connect 10 0 4 0;
#X connect 11 0 8 0;
#X connect 12 0 2 0;
#X connect 13 0 4 0;
#X connect 14 0 15 0;
#X connect 15 0 4 0;
#X restore 1305 117 pd drumnotesel;
#N canvas 971 173 469 705 drumnotesel 0;
#X obj 197 350 makenote;
#X obj 206 400 noteout;
#X floatatom 278 359 5 0 0 0 - - -;
#X msg 305 304 1;
#X floatatom 145 293 5 0 0 0 - - -;
#X floatatom 213 314 5 0 0 0 - - -;
#X msg 187 263 127;
#X msg 225 278 0;
#X obj 280 158 sel 1;
#X obj 307 238 loadbang;
#X obj 59 49 inlet;
#X obj 239 64 inlet;
#X obj 315 53 inlet;
#X obj 164 27 inlet;
#X obj 46 183 loadbang;
#X msg 54 246 65;
#X connect 0 0 1 0;
#X connect 0 1 1 1;
#X connect 2 0 1 2;
#X connect 3 0 2 0;
#X connect 4 0 0 0;
#X connect 5 0 0 1;
#X connect 6 0 5 0;
#X connect 7 0 5 0;
#X connect 8 0 6 0;
#X connect 8 1 7 0;
#X connect 9 0 3 0;
#X connect 9 0 6 0;
#X connect 10 0 4 0;
#X connect 11 0 8 0;
#X connect 12 0 2 0;
#X connect 13 0 4 0;
#X connect 14 0 15 0;
#X connect 15 0 4 0;
#X restore 937 428 pd drumnotesel;
#N canvas 971 173 469 705 drumnotesel 0;
#X obj 197 350 makenote;
#X obj 206 400 noteout;
#X floatatom 278 359 5 0 0 0 - - -;
#X msg 305 304 1;
#X floatatom 145 293 5 0 0 0 - - -;
#X floatatom 213 314 5 0 0 0 - - -;
#X msg 187 263 127;
#X msg 225 278 0;
#X obj 280 158 sel 1;
#X obj 307 238 loadbang;
#X obj 59 49 inlet;
#X obj 239 64 inlet;
#X obj 315 53 inlet;
#X obj 164 27 inlet;
#X obj 46 183 loadbang;
#X msg 54 246 74;
#X connect 0 0 1 0;
#X connect 0 1 1 1;
#X connect 2 0 1 2;
#X connect 3 0 2 0;
#X connect 4 0 0 0;
#X connect 5 0 0 1;
#X connect 6 0 5 0;
#X connect 7 0 5 0;
#X connect 8 0 6 0;
#X connect 8 1 7 0;
#X connect 9 0 3 0;
#X connect 9 0 6 0;
#X connect 10 0 4 0;
#X connect 11 0 8 0;
#X connect 12 0 2 0;
#X connect 13 0 4 0;
#X connect 14 0 15 0;
#X connect 15 0 4 0;
#X restore 1304 171 pd drumnotesel;
#N canvas 971 173 469 705 drumnotesel 0;
#X obj 197 350 makenote;
#X obj 206 400 noteout;
#X floatatom 278 359 5 0 0 0 - - -;
#X msg 305 304 1;
#X floatatom 145 293 5 0 0 0 - - -;
#X floatatom 213 314 5 0 0 0 - - -;
#X msg 187 263 127;
#X msg 225 278 0;
#X obj 280 158 sel 1;
#X obj 307 238 loadbang;
#X obj 59 49 inlet;
#X obj 239 64 inlet;
#X obj 315 53 inlet;
#X obj 164 27 inlet;
#X obj 46 183 loadbang;
#X msg 54 246 68;
#X connect 0 0 1 0;
#X connect 0 1 1 1;
#X connect 2 0 1 2;
#X connect 3 0 2 0;
#X connect 4 0 0 0;
#X connect 5 0 0 1;
#X connect 6 0 5 0;
#X connect 7 0 5 0;
#X connect 8 0 6 0;
#X connect 8 1 7 0;
#X connect 9 0 3 0;
#X connect 9 0 6 0;
#X connect 10 0 4 0;
#X connect 11 0 8 0;
#X connect 12 0 2 0;
#X connect 13 0 4 0;
#X connect 14 0 15 0;
#X connect 15 0 4 0;
#X restore 936 484 pd drumnotesel;
#N canvas 971 173 469 705 drumnotesel 0;
#X obj 197 350 makenote;
#X obj 206 400 noteout;
#X floatatom 278 359 5 0 0 0 - - -;
#X msg 305 304 1;
#X floatatom 145 293 5 0 0 0 - - -;
#X floatatom 213 314 5 0 0 0 - - -;
#X msg 187 263 127;
#X msg 225 278 0;
#X obj 280 158 sel 1;
#X obj 307 238 loadbang;
#X obj 59 49 inlet;
#X obj 239 64 inlet;
#X obj 315 53 inlet;
#X obj 164 27 inlet;
#X obj 46 183 loadbang;
#X msg 54 246 79;
#X connect 0 0 1 0;
#X connect 0 1 1 1;
#X connect 2 0 1 2;
#X connect 3 0 2 0;
#X connect 4 0 0 0;
#X connect 5 0 0 1;
#X connect 6 0 5 0;
#X connect 7 0 5 0;
#X connect 8 0 6 0;
#X connect 8 1 7 0;
#X connect 9 0 3 0;
#X connect 9 0 6 0;
#X connect 10 0 4 0;
#X connect 11 0 8 0;
#X connect 12 0 2 0;
#X connect 13 0 4 0;
#X connect 14 0 15 0;
#X connect 15 0 4 0;
#X restore 1304 227 pd drumnotesel;
#N canvas 971 173 469 705 drumnotesel 0;
#X obj 197 350 makenote;
#X obj 206 400 noteout;
#X floatatom 278 359 5 0 0 0 - - -;
#X msg 305 304 1;
#X floatatom 145 293 5 0 0 0 - - -;
#X floatatom 213 314 5 0 0 0 - - -;
#X msg 187 263 127;
#X msg 225 278 0;
#X obj 280 158 sel 1;
#X obj 307 238 loadbang;
#X obj 59 49 inlet;
#X obj 239 64 inlet;
#X obj 315 53 inlet;
#X obj 164 27 inlet;
#X obj 46 183 loadbang;
#X msg 54 246 72;
#X connect 0 0 1 0;
#X connect 0 1 1 1;
#X connect 2 0 1 2;
#X connect 3 0 2 0;
#X connect 4 0 0 0;
#X connect 5 0 0 1;
#X connect 6 0 5 0;
#X connect 7 0 5 0;
#X connect 8 0 6 0;
#X connect 8 1 7 0;
#X connect 9 0 3 0;
#X connect 9 0 6 0;
#X connect 10 0 4 0;
#X connect 11 0 8 0;
#X connect 12 0 2 0;
#X connect 13 0 4 0;
#X connect 14 0 15 0;
#X connect 15 0 4 0;
#X restore 935 537 pd drumnotesel;
#N canvas 971 173 469 705 drumnotesel 0;
#X obj 197 350 makenote;
#X obj 206 400 noteout;
#X floatatom 278 359 5 0 0 0 - - -;
#X msg 305 304 1;
#X floatatom 145 293 5 0 0 0 - - -;
#X floatatom 213 314 5 0 0 0 - - -;
#X msg 187 263 127;
#X msg 225 278 0;
#X obj 280 158 sel 1;
#X obj 307 238 loadbang;
#X obj 59 49 inlet;
#X obj 239 64 inlet;
#X obj 315 53 inlet;
#X obj 164 27 inlet;
#X obj 46 183 loadbang;
#X msg 54 246 36;
#X connect 0 0 1 0;
#X connect 0 1 1 1;
#X connect 2 0 1 2;
#X connect 3 0 2 0;
#X connect 4 0 0 0;
#X connect 5 0 0 1;
#X connect 6 0 5 0;
#X connect 7 0 5 0;
#X connect 8 0 6 0;
#X connect 8 1 7 0;
#X connect 9 0 3 0;
#X connect 9 0 6 0;
#X connect 10 0 4 0;
#X connect 11 0 8 0;
#X connect 12 0 2 0;
#X connect 13 0 4 0;
#X connect 14 0 15 0;
#X connect 15 0 4 0;
#X restore 1303 280 pd drumnotesel;
#X obj 894 59 tgl 15 0 empty empty empty 17 7 0 10 -262144 -1 -1 0
1;
#X floatatom 1005 47 5 0 0 0 - - -;
#X obj 1005 70 sel 1;
#X msg 1044 116 1;
#X msg 1008 110 0;
#X obj 1031 217 tgl 15 0 empty empty empty 17 7 0 10 -262144 -1 -1
0 1;
#X obj 612 464 sel 96;
#X obj 693 31 spigot;
#X obj 689 388 spigot;
#X obj 841 541 spigot;
#X obj 716 519 spigot;
#X obj 763 88 spigot;
#X obj 697 210 spigot;
#X obj 717 276 spigot;
#X obj 690 714 spigot;
#X obj 1219 293 spigot;
#X obj 1017 316 spigot;
#X obj 1161 644 spigot;
#X obj 1159 552 spigot;
#X obj 1264 46 spigot;
#X obj 1214 165 spigot;
#X obj 1202 394 spigot;
#X obj 1254 737 spigot;
#X obj 342 701 delay 250;
#X obj 274 704 bng 15 250 50 0 empty empty empty 17 7 0 10 -262144
-1 -1;
#X msg 382 635 1000;
#N canvas 971 173 469 705 drumnotesel 0;
#X obj 197 350 makenote;
#X obj 206 400 noteout;
#X floatatom 278 359 5 0 0 0 - - -;
#X msg 305 304 1;
#X floatatom 145 293 5 0 0 0 - - -;
#X floatatom 213 314 5 0 0 0 - - -;
#X msg 187 263 127;
#X msg 225 278 0;
#X obj 280 158 sel 1;
#X obj 307 238 loadbang;
#X obj 59 49 inlet;
#X obj 239 64 inlet;
#X obj 315 53 inlet;
#X obj 164 27 inlet;
#X obj 46 183 loadbang;
#X msg 54 247 36;
#X connect 0 0 1 0;
#X connect 0 1 1 1;
#X connect 2 0 1 2;
#X connect 3 0 2 0;
#X connect 4 0 0 0;
#X connect 5 0 0 1;
#X connect 6 0 5 0;
#X connect 7 0 5 0;
#X connect 8 0 6 0;
#X connect 8 1 7 0;
#X connect 9 0 3 0;
#X connect 9 0 6 0;
#X connect 10 0 4 0;
#X connect 11 0 8 0;
#X connect 12 0 2 0;
#X connect 13 0 4 0;
#X connect 14 0 15 0;
#X connect 15 0 4 0;
#X restore 151 753 pd drumnotesel;
#X msg 428 652 16;
#X obj 278 135 metro 62.5;
#X connect 0 0 160 0;
#X connect 1 0 4 0;
#X connect 2 0 4 1;
#X connect 3 0 2 0;
#X connect 4 0 3 0;
#X connect 4 0 8 0;
#X connect 5 0 3 0;
#X connect 6 0 1 0;
#X connect 7 0 6 0;
#X connect 7 0 0 0;
#X connect 7 0 113 0;
#X connect 8 0 9 0;
#X connect 8 0 10 0;
#X connect 8 0 17 0;
#X connect 8 0 20 0;
#X connect 8 0 23 0;
#X connect 8 0 26 0;
#X connect 8 0 39 0;
#X connect 8 0 40 0;
#X connect 8 0 41 0;
#X connect 8 0 42 0;
#X connect 8 0 43 0;
#X connect 8 0 44 0;
#X connect 8 0 69 0;
#X connect 8 0 70 0;
#X connect 8 0 71 0;
#X connect 8 0 72 0;
#X connect 8 0 73 0;
#X connect 8 0 74 0;
#X connect 8 0 75 0;
#X connect 8 0 76 0;
#X connect 8 0 77 0;
#X connect 8 0 85 0;
#X connect 8 0 86 0;
#X connect 8 0 78 0;
#X connect 8 0 79 0;
#X connect 8 0 80 0;
#X connect 8 0 112 0;
#X connect 9 0 11 0;
#X connect 10 0 13 0;
#X connect 11 0 88 0;
#X connect 12 0 90 0;
#X connect 13 0 89 0;
#X connect 17 0 18 0;
#X connect 18 0 91 0;
#X connect 19 0 148 0;
#X connect 20 0 12 0;
#X connect 21 0 87 0;
#X connect 23 0 21 0;
#X connect 24 0 92 0;
#X connect 25 0 154 0;
#X connect 26 0 24 0;
#X connect 27 0 94 0;
#X connect 28 0 96 0;
#X connect 29 0 95 0;
#X connect 30 0 144 0;
#X connect 32 0 152 0;
#X connect 33 0 97 0;
#X connect 34 0 141 0;
#X connect 35 0 93 0;
#X connect 36 0 143 0;
#X connect 37 0 98 0;
#X connect 38 0 140 0;
#X connect 39 0 35 0;
#X connect 40 0 27 0;
#X connect 41 0 29 0;
#X connect 42 0 28 0;
#X connect 43 0 33 0;
#X connect 44 0 37 0;
#X connect 45 0 100 0;
#X connect 46 0 102 0;
#X connect 47 0 101 0;
#X connect 48 0 151 0;
#X connect 49 0 147 0;
#X connect 50 0 120 0;
#X connect 51 0 103 0;
#X connect 52 0 153 0;
#X connect 53 0 99 0;
#X connect 54 0 139 0;
#X connect 55 0 104 0;
#X connect 56 0 132 0;
#X connect 57 0 106 0;
#X connect 58 0 108 0;
#X connect 59 0 107 0;
#X connect 61 0 146 0;
#X connect 62 0 145 0;
#X connect 63 0 109 0;
#X connect 64 0 142 0;
#X connect 65 0 105 0;
#X connect 66 0 150 0;
#X connect 67 0 110 0;
#X connect 68 0 137 0;
#X connect 69 0 53 0;
#X connect 70 0 45 0;
#X connect 71 0 47 0;
#X connect 72 0 46 0;
#X connect 73 0 51 0;
#X connect 74 0 55 0;
#X connect 75 0 65 0;
#X connect 76 0 57 0;
#X connect 77 0 59 0;
#X connect 78 0 58 0;
#X connect 79 0 63 0;
#X connect 80 0 67 0;
#X connect 81 0 111 0;
#X connect 82 0 149 0;
#X connect 83 0 138 0;
#X connect 84 0 132 0;
#X connect 85 0 81 0;
#X connect 86 0 83 0;
#X connect 87 0 22 0;
#X connect 88 0 14 0;
#X connect 89 0 16 0;
#X connect 90 0 15 0;
#X connect 91 0 19 0;
#X connect 92 0 25 0;
#X connect 93 0 36 0;
#X connect 94 0 30 0;
#X connect 95 0 32 0;
#X connect 96 0 31 0;
#X connect 97 0 34 0;
#X connect 98 0 38 0;
#X connect 99 0 54 0;
#X connect 100 0 48 0;
#X connect 101 0 50 0;
#X connect 102 0 49 0;
#X connect 103 0 52 0;
#X connect 104 0 56 0;
#X connect 105 0 66 0;
#X connect 106 0 60 0;
#X connect 107 0 62 0;
#X connect 108 0 61 0;
#X connect 109 0 64 0;
#X connect 110 0 68 0;
#X connect 111 0 82 0;
#X connect 112 0 114 0;
#X connect 113 0 112 1;
#X connect 115 0 5 0;
#X connect 132 0 133 0;
#X connect 132 0 145 1;
#X connect 132 0 144 1;
#X connect 132 0 143 1;
#X connect 132 0 139 1;
#X connect 132 0 140 1;
#X connect 132 0 141 1;
#X connect 132 0 146 1;
#X connect 132 0 142 1;
#X connect 133 0 134 0;
#X connect 134 0 136 0;
#X connect 134 1 135 0;
#X connect 135 0 137 0;
#X connect 136 0 137 0;
#X connect 137 0 147 1;
#X connect 137 0 151 1;
#X connect 137 0 152 1;
#X connect 137 0 148 1;
#X connect 137 0 153 1;
#X connect 137 0 150 1;
#X connect 137 0 149 1;
#X connect 137 0 154 1;
#X connect 138 0 84 0;
#X connect 139 0 120 0;
#X connect 140 0 124 0;
#X connect 141 0 126 0;
#X connect 142 0 128 0;
#X connect 143 0 118 0;
#X connect 144 0 130 0;
#X connect 145 0 116 0;
#X connect 146 0 122 0;
#X connect 147 0 129 0;
#X connect 148 0 121 0;
#X connect 149 0 119 0;
#X connect 150 0 117 0;
#X connect 151 0 125 0;
#X connect 152 0 127 0;
#X connect 153 0 131 0;
#X connect 154 0 123 0;
#X connect 155 0 156 0;
#X connect 156 0 155 0;
#X connect 157 0 155 1;
#X connect 159 0 155 1;
#X connect 160 0 4 0;
