#N canvas 656 322 501 520 12;
#X obj 168 469 float;
#X floatatom 176 537 5 0 0 0 - - -;
#X obj 164 426 bng 15 250 50 0 empty empty empty 17 7 0 10 -262144
-1 -1;
#X obj 254 470 float;
#X floatatom 259 536 5 0 0 0 - - -;
#X obj 250 427 bng 15 250 50 0 empty empty empty 17 7 0 10 -262144
-1 -1;
#X obj 204 309 sel 0 1 2 3;
#X obj 335 468 float;
#X floatatom 343 536 5 0 0 0 - - -;
#X obj 331 425 bng 15 250 50 0 empty empty empty 17 7 0 10 -262144
-1 -1;
#X obj 421 469 float;
#X floatatom 426 535 5 0 0 0 - - -;
#X obj 417 426 bng 15 250 50 0 empty empty empty 17 7 0 10 -262144
-1 -1;
#X obj 284 647 outlet;
#X obj 202 404 float;
#X obj 288 405 float;
#X obj 369 403 float;
#X obj 455 404 float;
#X obj 235 210 vsl 15 55 0 1 0 0 empty empty empty 0 -9 0 10 -262144
-1 -1 5400 1;
#X obj 220 208 bng 15 250 50 0 empty empty empty 17 7 0 10 -262144
-1 -1;
#X obj 220 223 bng 15 250 50 0 empty empty empty 17 7 0 10 -262144
-1 -1;
#X obj 220 238 bng 15 250 50 0 empty empty empty 17 7 0 10 -262144
-1 -1;
#X obj 220 253 bng 15 250 50 0 empty empty empty 17 7 0 10 -262144
-1 -1;
#X obj 205 208 vradio 15 1 0 4 empty empty empty 0 -8 0 10 -262144
-1 -1 3;
#X obj 262 143 inlet;
#X obj 147 144 inlet;
#X floatatom 257 208 5 0 0 0 - - -;
#X floatatom 257 227 5 0 0 0 - - -;
#X floatatom 257 246 5 0 0 0 - - -;
#X floatatom 257 265 5 0 0 0 - - -;
#X floatatom 209 275 5 0 0 0 - - -;
#X text 96 203 recall crsrcrsr 2020;
#X connect 0 0 1 0;
#X connect 1 0 13 0;
#X connect 2 0 0 0;
#X connect 3 0 4 0;
#X connect 4 0 13 0;
#X connect 5 0 3 0;
#X connect 6 0 2 0;
#X connect 6 1 5 0;
#X connect 6 2 9 0;
#X connect 6 3 12 0;
#X connect 7 0 8 0;
#X connect 8 0 13 0;
#X connect 9 0 7 0;
#X connect 10 0 11 0;
#X connect 11 0 13 0;
#X connect 12 0 10 0;
#X connect 14 0 0 1;
#X connect 14 0 26 0;
#X connect 15 0 3 1;
#X connect 15 0 27 0;
#X connect 16 0 7 1;
#X connect 16 0 28 0;
#X connect 17 0 10 1;
#X connect 17 0 29 0;
#X connect 18 0 17 1;
#X connect 18 0 16 1;
#X connect 18 0 15 1;
#X connect 18 0 14 1;
#X connect 18 0 30 0;
#X connect 19 0 14 0;
#X connect 20 0 15 0;
#X connect 21 0 16 0;
#X connect 22 0 17 0;
#X connect 23 0 6 0;
#X connect 24 0 18 0;
#X connect 25 0 23 0;
#X coords 0 -1 1 1 100 100 2 200 200;
