#N canvas 0 23 1366 723 12;
#X obj 440 574 channelst;
#X obj 463 830 dac~;
#X obj 420 415 splitter;
#X obj 448 119 mtof;
#X obj 518 207 +~ 1;
#X obj 637 298 adr;
#X obj 388 323 /~ 2;
#X obj 520 324 /~ 2;
#X msg 1063 415 \$1;
#X obj 688 40 clock;
#X obj 862 240 sel 0 1 2 3 4 5 6 7 8 9 10 11 12 13 14 15;
#X msg 1046 297;
#X msg 1125 298;
#X msg 1203 297;
#X msg 1277 296;
#X obj 560 557 freeverb~;
#X obj 559 387 lopass;
#X obj 1000 462 channelst;
#X obj 1089 788 dac~;
#X obj 515 235 morphosc~;
#X obj 388 236 morphosc~;
#X obj 180 336 snapshot~;
#X obj 753 185 bng 15 250 50 0 empty empty empty 17 7 0 10 -262144
-1 -1;
#X obj 718 174 bng 15 250 50 0 empty empty empty 17 7 0 10 -262144
-1 -1;
#X obj 181 295 /~ 3;
#X msg 278 213 0;
#X obj 1451 335 samppad;
#X obj 1671 557 noise~;
#X obj 1712 610 adr;
#X obj 1586 480 channelst;
#X obj 1610 743 dac~;
#X obj 1184 146 ttt;
#X obj 1185 27 ttt;
#X obj 182 252 phasor~ -1;
#X obj 1826 460 lopass;
#X obj 1116 466 channelst;
#X msg 816 300;
#X obj 861 199 % 16;
#X msg 856 299;
#X msg 931 298;
#X msg 1088 298;
#X msg 1355 295;
#X msg 779 300 60;
#X msg 894 299 60;
#X msg 1008 297 60;
#X msg 968 298 67;
#X msg 1165 297 58;
#X msg 1240 296 55;
#X msg 1317 295 55;
#X connect 0 0 1 0;
#X connect 0 1 1 1;
#X connect 2 0 0 4;
#X connect 2 1 0 5;
#X connect 2 2 16 2;
#X connect 2 3 16 3;
#X connect 3 0 4 0;
#X connect 3 0 20 0;
#X connect 4 0 19 0;
#X connect 5 0 2 0;
#X connect 5 1 2 1;
#X connect 6 0 5 0;
#X connect 7 0 5 1;
#X connect 8 0 3 0;
#X connect 8 0 5 8;
#X connect 9 1 23 0;
#X connect 9 4 22 0;
#X connect 9 4 37 0;
#X connect 10 0 42 0;
#X connect 10 1 36 0;
#X connect 10 2 38 0;
#X connect 10 3 43 0;
#X connect 10 4 39 0;
#X connect 10 5 45 0;
#X connect 10 6 44 0;
#X connect 10 7 11 0;
#X connect 10 8 40 0;
#X connect 10 9 12 0;
#X connect 10 10 46 0;
#X connect 10 11 13 0;
#X connect 10 12 47 0;
#X connect 10 13 14 0;
#X connect 10 14 48 0;
#X connect 10 15 41 0;
#X connect 11 0 8 0;
#X connect 12 0 8 0;
#X connect 13 0 8 0;
#X connect 14 0 8 0;
#X connect 15 0 0 4;
#X connect 15 1 0 5;
#X connect 16 0 15 0;
#X connect 16 1 15 1;
#X connect 17 0 18 0;
#X connect 17 1 18 1;
#X connect 19 0 7 0;
#X connect 20 0 6 0;
#X connect 21 0 20 1;
#X connect 21 0 19 1;
#X connect 22 0 21 0;
#X connect 23 0 25 0;
#X connect 24 0 21 0;
#X connect 25 0 33 1;
#X connect 26 0 17 4;
#X connect 26 1 35 4;
#X connect 27 0 28 0;
#X connect 27 0 28 1;
#X connect 28 0 34 2;
#X connect 28 1 34 3;
#X connect 29 0 30 0;
#X connect 29 1 30 1;
#X connect 31 0 26 0;
#X connect 31 1 26 1;
#X connect 32 0 28 8;
#X connect 32 1 28 8;
#X connect 33 0 24 0;
#X connect 34 0 29 4;
#X connect 34 1 29 5;
#X connect 35 0 18 0;
#X connect 35 1 18 1;
#X connect 36 0 8 0;
#X connect 37 0 10 0;
#X connect 38 0 8 0;
#X connect 39 0 8 0;
#X connect 40 0 8 0;
#X connect 41 0 8 0;
#X connect 42 0 8 0;
#X connect 43 0 8 0;
#X connect 44 0 8 0;
#X connect 45 0 8 0;
#X connect 46 0 8 0;
#X connect 47 0 8 0;
#X connect 48 0 8 0;
