#N canvas 0 22 1440 787 12;
#X obj 30 407 line~;
#X obj 211 93 soundfiler;
#X msg 212 66 read -resize \$1 array1;
#X obj 211 42 openpanel;
#X floatatom 153 354 5 0 0 0 - - -;
#X obj 44 635 tabread4~ array1;
#X obj 44 741 *~;
#X floatatom 119 714 5 0 0 0 - - -;
#X obj 119 758 line~;
#X msg 119 734 \$1 20;
#X obj 45 766 hip~ 5;
#X obj 45 795 dac~;
#X obj 153 379 *;
#X obj 153 223 expr 1 / $f1;
#X obj 309 231 -;
#X obj 364 190 t f b;
#X floatatom 309 196 5 0 0 0 - - -;
#X obj 89 151 expr 44100 / $f1;
#X obj 153 274 *;
#X obj 45 531 +~;
#X obj 45 503 *~;
#X text 424 813 www.pd-tutorial.com;
#X text 426 786 Johannes Kreidler;
#X obj 189 313 t b f;
#X obj 45 587 *~;
#X floatatom 197 419 5 0 0 0 - - -;
#X obj 227 13 bng 15 250 50 0 empty empty empty 17 7 0 10 -262144 -1
-1;
#X obj 618 59 vsl 15 128 0 1 0 0 empty empty empty 0 -9 0 10 -262144
-1 -1 12700 1;
#X obj 516 31 vsl 15 128 0 1 0 0 empty empty empty 0 -9 0 10 -262144
-1 -1 0 1;
#X obj 479 267 vsl 15 128 -2 2 0 0 empty empty empty 0 -9 0 10 -262144
-1 -1 12700 1;
#X floatatom 270 376 5 0 0 0 - - -;
#X floatatom 97 186 5 0 0 0 - - -;
#N canvas 0 22 450 278 (subpatch) 0;
#X array array1 25539 float 2;
#X coords 0 1 25539 -1 200 140 1;
#X restore 587 284 graph;
#X obj 45 344 pack 0 0;
#X obj 93 239 * 1000;
#X floatatom 96 297 5 0 0 0 - - -;
#X msg 66 293 1;
#X floatatom 194 483 5 0 0 0 - - -;
#X obj 199 449 line;
#X obj 203 511 sel 1;
#X msg 210 561 0 0;
#X obj 209 634 vsl 15 128 0 1 0 0 empty empty empty 0 -9 0 10 -262144
-1 -1 12700 1;
#X obj 26 68 tgl 15 0 empty empty empty 17 7 0 10 -262144 -1 -1 1 1
;
#X msg 21 239 0 0;
#X obj 26 88 sel 1 0;
#X obj 31 135 bng 15 250 50 0 empty empty empty 17 7 0 10 -262144 -1
-1;
#X obj 72 264 bng 15 250 50 0 empty empty empty 17 7 0 10 -262144 -1
-1;
#X connect 0 0 20 0;
#X connect 1 0 17 0;
#X connect 1 0 24 1;
#X connect 2 0 1 0;
#X connect 3 0 2 0;
#X connect 4 0 12 0;
#X connect 5 0 6 0;
#X connect 6 0 10 0;
#X connect 7 0 9 0;
#X connect 8 0 6 1;
#X connect 9 0 8 0;
#X connect 10 0 11 0;
#X connect 10 0 11 1;
#X connect 12 0 25 0;
#X connect 13 0 18 0;
#X connect 14 0 13 0;
#X connect 14 0 20 1;
#X connect 14 0 30 0;
#X connect 15 0 14 1;
#X connect 15 0 19 1;
#X connect 15 1 16 0;
#X connect 16 0 14 0;
#X connect 17 0 18 1;
#X connect 17 0 31 0;
#X connect 18 0 4 0;
#X connect 19 0 24 0;
#X connect 20 0 19 0;
#X connect 23 0 4 0;
#X connect 23 1 12 1;
#X connect 24 0 5 0;
#X connect 26 0 3 0;
#X connect 27 0 16 0;
#X connect 28 0 15 0;
#X connect 29 0 23 0;
#X connect 31 0 34 0;
#X connect 33 0 0 0;
#X connect 33 0 38 0;
#X connect 34 0 35 0;
#X connect 35 0 33 1;
#X connect 36 0 33 0;
#X connect 37 0 39 0;
#X connect 38 0 37 0;
#X connect 39 0 40 0;
#X connect 40 0 33 0;
#X connect 41 0 7 0;
#X connect 42 0 44 0;
#X connect 43 0 33 0;
#X connect 44 0 45 0;
#X connect 44 1 43 0;
#X connect 45 0 36 0;
#X connect 45 0 35 0;
#X connect 46 0 36 0;
#X connect 46 0 35 0;
