#N canvas 18 53 1026 722 12;
#X obj 367 253 symbol;
#X symbolatom 368 338 10 0 0 0 - - -;
#X msg 369 169 mode1;
#X msg 379 196 mode2;
#N canvas 0 0 450 300 (subpatch) 0;
#X array array1 25539 float 2;
#X coords 0 1 25539 -1 100 70 2 0 0;
#X restore 588 282 graph;
#X obj 591 356 hsl 95 15 0 1 0 0 empty pos empty -2 -6 0 8 -1 -262144
-1 0 1;
#X obj 591 376 hsl 128 15 -2 2 0 0 geschw empty empty -2 -6 0 8 -262144
-1 -1 9700 1;
#X obj 565 134 cnv 15 250 30 empty empty empty 20 12 0 14 -262144 -66577
0;
#X obj 692 350 bng 22 250 50 0 load empty empty 0 -6 0 8 -258699 -1
-1;
#N canvas 777 0 663 878 subpatch 0;
#X obj 71 97 soundfiler;
#X msg 72 70 read -resize \$1 array1;
#X obj 71 46 openpanel;
#X obj 45 477 phasor~;
#X floatatom 45 423 5 0 0 0 - - -;
#X obj 44 635 tabread4~ array1;
#X obj 44 741 *~;
#X floatatom 126 698 5 0 0 0 - - -;
#X obj 126 742 line~;
#X msg 126 718 \$1 20;
#X obj 45 766 hip~ 5;
#X obj 45 795 dac~;
#X obj 45 448 *;
#X obj 45 292 expr 1 / $f1;
#X obj 288 273 -;
#X obj 340 263 t f b;
#X floatatom 287 238 5 0 0 0 - - -;
#X obj 38 185 expr 44100 / $f1;
#X obj 45 343 *;
#X obj 45 531 +~;
#X obj 45 503 *~;
#X obj 270 182 r grenze-rechts;
#X obj 341 238 r grenze-links;
#X obj 104 602 s pos;
#X obj 70 17 r load;
#X obj 81 350 r geschw;
#X obj 126 672 r amp;
#X obj 81 382 t b f;
#X obj 45 587 *~;
#X obj 103 565 snapshot~;
#X obj 309 640 tgl 15 0 empty empty empty 17 7 0 10 -262144 -1 -1 1
1;
#X floatatom 245 418 5 0 0 0 - - -;
#X floatatom 298 375 5 0 0 0 - - -;
#X floatatom 101 319 5 0 0 0 - - -;
#X msg 217 230 0;
#X obj 160 234 bng 15 250 50 0 empty empty empty 17 7 0 10 -262144
-1 -1;
#X obj 224 485 tgl 15 0 empty empty empty 17 7 0 10 -262144 -1 -1 0
1;
#X obj 281 545 sel 1;
#X floatatom 298 433 5 0 0 0 - - -;
#X obj 228 380 bng 15 250 50 0 empty empty empty 17 7 0 10 -262144
-1 -1;
#X obj 224 456 >=;
#X msg 122 500 0;
#X obj 160 184 r start;
#X obj 217 183 r stop;
#X obj 298 405 - 0.01;
#X obj 106 535 metro 5;
#X obj 358 591 loadbang;
#X connect 0 0 17 0;
#X connect 0 0 28 1;
#X connect 1 0 0 0;
#X connect 2 0 1 0;
#X connect 3 0 20 0;
#X connect 4 0 12 0;
#X connect 5 0 6 0;
#X connect 6 0 10 0;
#X connect 7 0 9 0;
#X connect 8 0 6 1;
#X connect 9 0 8 0;
#X connect 10 0 11 0;
#X connect 10 0 11 1;
#X connect 12 0 3 0;
#X connect 13 0 18 0;
#X connect 14 0 13 0;
#X connect 14 0 20 1;
#X connect 15 0 14 1;
#X connect 15 0 19 1;
#X connect 15 1 16 0;
#X connect 16 0 14 0;
#X connect 17 0 18 1;
#X connect 18 0 4 0;
#X connect 19 0 28 0;
#X connect 19 0 29 0;
#X connect 20 0 19 0;
#X connect 21 0 16 0;
#X connect 21 0 32 0;
#X connect 22 0 15 0;
#X connect 24 0 2 0;
#X connect 25 0 27 0;
#X connect 25 0 33 0;
#X connect 26 0 7 0;
#X connect 27 0 4 0;
#X connect 27 1 12 1;
#X connect 28 0 5 0;
#X connect 29 0 23 0;
#X connect 29 0 31 0;
#X connect 30 0 45 0;
#X connect 31 0 39 0;
#X connect 31 0 40 0;
#X connect 32 0 44 0;
#X connect 33 0 27 0;
#X connect 34 0 27 0;
#X connect 35 0 33 0;
#X connect 35 0 41 0;
#X connect 36 0 37 0;
#X connect 37 0 34 0;
#X connect 37 0 41 0;
#X connect 38 0 40 1;
#X connect 39 0 32 0;
#X connect 39 0 31 0;
#X connect 39 0 40 0;
#X connect 39 0 44 0;
#X connect 40 0 36 0;
#X connect 41 0 3 1;
#X connect 42 0 35 0;
#X connect 43 0 34 0;
#X connect 44 0 38 0;
#X connect 45 0 29 0;
#X connect 46 0 30 0;
#X restore 588 397 pd subpatch;
#X text 660 263 volume;
#X obj 692 284 vsl 15 60 0 1 0 0 amp empty empty 0 -9 0 10 -262144
-1 -1 3500 1;
#X text 742 287 start;
#X text 744 323 stop;
#X obj 589 226 hsl 100 15 0 1 0 0 grenze-links empty empty -2 -6 0
8 -262144 -1 -1 0 1;
#X obj 589 245 hsl 100 15 0 1 0 0 grenze-rechts empty empty -2 -6 0
8 -262144 -1 -1 9900 1;
#X obj 712 282 bng 30 250 50 0 start empty empty 17 7 0 10 -262144
-1 -1;
#X obj 712 317 bng 30 250 50 0 stop empty empty 17 7 0 10 -262144 -1
-1;
#X connect 0 0 1 0;
#X connect 2 0 0 0;
#X connect 3 0 0 0;
