#N canvas 0 23 1366 723 12;
#N canvas 0 23 450 278 (subpatch) 0;
#X array 1l 37550 float 2;
#X coords 0 1 37550 -1 70 30 2 0 0;
#X restore 108 126 graph;
#X obj 125 107 bng 15 250 50 0 empty empty empty 17 7 0 10 -262144
-1 -1;
#X obj -996 298 openpanel;
#X obj -996 369 soundfiler;
#X msg -805 319 bang;
#X msg -757 320 0 1;
#X obj -805 271 inlet;
#X obj -805 385 outlet~;
#X obj -716 385 outlet~;
#X msg -996 334 read -resize \$1 1l 1r;
#N canvas 0 23 450 278 (subpatch) 0;
#X array 1r 37550 float 2;
#X coords 0 1 37550 -1 70 30 2 0 0;
#X restore 108 174 graph;
#X obj -619 307 openpanel;
#X obj -619 378 soundfiler;
#X msg -428 328 bang;
#X msg -380 329 0 1;
#X obj -428 280 inlet;
#X obj -428 394 outlet~;
#X obj -339 394 outlet~;
#X obj -251 293 openpanel;
#X obj -251 364 soundfiler;
#X msg -85 299 bang;
#X msg -37 300 0 1;
#X obj -85 251 inlet;
#X obj -85 367 outlet~;
#X obj 4 367 outlet~;
#X obj 94 293 openpanel;
#X obj 94 366 soundfiler;
#X msg 280 310 bang;
#X msg 328 311 0 1;
#X obj 280 262 inlet;
#X obj 280 376 outlet~;
#X obj 369 376 outlet~;
#X msg -619 343 read -resize \$1 2l 2r;
#X obj -428 362 tabplay~ 2l;
#X obj -339 362 tabplay~ 2r;
#X msg -251 329 read -resize \$1 3l 3r;
#X obj 4 333 tabplay~ 3r;
#X obj -85 333 tabplay~ 3l;
#X msg 94 329 read -resize \$1 4l 4r;
#X obj 280 344 tabplay~ 4l;
#X obj 369 344 tabplay~ 4r;
#N canvas 0 23 450 278 (subpatch) 0;
#X array 2l 37550 float 2;
#X coords 0 1 37550 -1 70 30 2 0 0;
#X restore 183 127 graph;
#X obj 200 108 bng 15 250 50 0 empty empty empty 17 7 0 10 -262144
-1 -1;
#N canvas 0 23 450 278 (subpatch) 0;
#X array 2r 37550 float 2;
#X coords 0 1 37550 -1 70 30 2 0 0;
#X restore 183 174 graph;
#N canvas 0 23 450 278 (subpatch) 0;
#X array 3l 37550 float 2;
#X coords 0 1 37550 -1 70 30 2 0 0;
#X restore 258 126 graph;
#X obj 275 107 bng 15 250 50 0 empty empty empty 17 7 0 10 -262144
-1 -1;
#N canvas 0 23 450 278 (subpatch) 0;
#X array 3r 37550 float 2;
#X coords 0 1 37550 -1 70 30 2 0 0;
#X restore 258 174 graph;
#N canvas 0 23 450 278 (subpatch) 0;
#X array 4l 37550 float 2;
#X coords 0 1 37550 -1 70 30 2 0 0;
#X restore 333 126 graph;
#X obj 350 107 bng 15 250 50 0 empty empty empty 17 7 0 10 -262144
-1 -1;
#N canvas 0 23 450 278 (subpatch) 0;
#X array 4r 37550 float 2;
#X coords 0 1 37550 -1 70 30 2 0 0;
#X restore 333 174 graph;
#X obj -805 353 tabplay~ 1l;
#X obj -716 353 tabplay~ 1r;
#N canvas 0 23 450 278 (subpatch) 0;
#X array 5l 37550 float 2;
#X coords 0 1 37550 -1 70 30 2 0 0;
#X restore 407 126 graph;
#X obj 424 107 bng 15 250 50 0 empty empty empty 17 7 0 10 -262144
-1 -1;
#X obj 462 305 openpanel;
#X obj 462 376 soundfiler;
#X msg 653 326 bang;
#X msg 701 327 0 1;
#X obj 653 278 inlet;
#X obj 653 392 outlet~;
#X obj 742 392 outlet~;
#N canvas 0 23 450 278 (subpatch) 0;
#X array 5r 37550 float 2;
#X coords 0 1 37550 -1 70 30 2 0 0;
#X restore 407 174 graph;
#X obj 839 314 openpanel;
#X obj 839 385 soundfiler;
#X msg 1030 335 bang;
#X msg 1078 336 0 1;
#X obj 1028 279 inlet;
#X obj 1030 401 outlet~;
#X obj 1119 401 outlet~;
#X obj 1207 300 openpanel;
#X obj 1207 371 soundfiler;
#X msg 1373 306 bang;
#X msg 1421 307 0 1;
#X obj 1373 258 inlet;
#X obj 1373 374 outlet~;
#X obj 1462 374 outlet~;
#X obj 1552 300 openpanel;
#X obj 1552 373 soundfiler;
#X msg 1738 317 bang;
#X msg 1786 318 0 1;
#X obj 1738 269 inlet;
#X obj 1738 383 outlet~;
#X obj 1827 383 outlet~;
#N canvas 0 23 450 278 (subpatch) 0;
#X array 6l 37550 float 2;
#X coords 0 1 37550 -1 70 30 2 0 0;
#X restore 482 127 graph;
#X obj 499 108 bng 15 250 50 0 empty empty empty 17 7 0 10 -262144
-1 -1;
#N canvas 0 23 450 278 (subpatch) 0;
#X array 6r 37550 float 2;
#X coords 0 1 37550 -1 70 30 2 0 0;
#X restore 482 174 graph;
#N canvas 0 23 450 278 (subpatch) 0;
#X array 7l 37550 float 2;
#X coords 0 1 37550 -1 70 30 2 0 0;
#X restore 557 126 graph;
#X obj 574 107 bng 15 250 50 0 empty empty empty 17 7 0 10 -262144
-1 -1;
#N canvas 0 23 450 278 (subpatch) 0;
#X array 7r 37550 float 2;
#X coords 0 1 37550 -1 70 30 2 0 0;
#X restore 557 174 graph;
#N canvas 0 23 450 278 (subpatch) 0;
#X array 8l 37550 float 2;
#X coords 0 1 37550 -1 70 30 2 0 0;
#X restore 632 126 graph;
#X obj 649 107 bng 15 250 50 0 empty empty empty 17 7 0 10 -262144
-1 -1;
#N canvas 0 23 450 278 (subpatch) 0;
#X array 8r 37550 float 2;
#X coords 0 1 37550 -1 70 30 2 0 0;
#X restore 632 174 graph;
#X obj 147 107 bng 15 250 50 0 empty empty empty 17 7 0 10 -262144
-1 -1;
#X obj 222 108 bng 15 250 50 0 empty empty empty 17 7 0 10 -262144
-1 -1;
#X obj 297 107 bng 15 250 50 0 empty empty empty 17 7 0 10 -262144
-1 -1;
#X obj 372 107 bng 15 250 50 0 empty empty empty 17 7 0 10 -262144
-1 -1;
#X obj 446 107 bng 15 250 50 0 empty empty empty 17 7 0 10 -262144
-1 -1;
#X obj 521 108 bng 15 250 50 0 empty empty empty 17 7 0 10 -262144
-1 -1;
#X obj 596 107 bng 15 250 50 0 empty empty empty 17 7 0 10 -262144
-1 -1;
#X obj 671 107 bng 15 250 50 0 empty empty empty 17 7 0 10 -262144
-1 -1;
#X obj 163 107 bng 15 250 50 0 empty empty empty 17 7 0 10 -262144
-1 -1;
#X obj 238 108 bng 15 250 50 0 empty empty empty 17 7 0 10 -262144
-1 -1;
#X obj 313 107 bng 15 250 50 0 empty empty empty 17 7 0 10 -262144
-1 -1;
#X obj 388 107 bng 15 250 50 0 empty empty empty 17 7 0 10 -262144
-1 -1;
#X obj 462 107 bng 15 250 50 0 empty empty empty 17 7 0 10 -262144
-1 -1;
#X obj 537 108 bng 15 250 50 0 empty empty empty 17 7 0 10 -262144
-1 -1;
#X obj 612 107 bng 15 250 50 0 empty empty empty 17 7 0 10 -262144
-1 -1;
#X obj 687 107 bng 15 250 50 0 empty empty empty 17 7 0 10 -262144
-1 -1;
#X msg 462 341 read -resize \$1 5l 5r;
#X obj 653 360 tabplay~ 5l;
#X obj 742 360 tabplay~ 5r;
#X msg 839 350 read -resize \$1 6l 6r;
#X obj 1030 369 tabplay~ 6l;
#X obj 1119 369 tabplay~ 6r;
#X msg 1207 336 read -resize \$1 7l 7r;
#X obj 1373 340 tabplay~ 7l;
#X obj 1462 340 tabplay~ 7r;
#X msg 1552 336 read -resize \$1 8l 8r;
#X obj 1738 351 tabplay~ 8l;
#X obj 1827 351 tabplay~ 8r;
#X obj 1077 277 inlet;
#X obj 1422 256 inlet;
#X obj 1787 267 inlet;
#X obj -35 251 inlet;
#X obj 330 262 inlet;
#X obj 703 278 inlet;
#X obj -754 270 inlet;
#X obj -377 279 inlet;
#X connect 1 0 2 0;
#X connect 2 0 9 0;
#X connect 4 0 50 0;
#X connect 4 0 51 0;
#X connect 5 0 50 0;
#X connect 6 0 4 0;
#X connect 9 0 3 0;
#X connect 11 0 32 0;
#X connect 13 0 33 0;
#X connect 13 0 34 0;
#X connect 14 0 33 0;
#X connect 15 0 13 0;
#X connect 18 0 35 0;
#X connect 20 0 36 0;
#X connect 20 0 37 0;
#X connect 21 0 37 0;
#X connect 22 0 20 0;
#X connect 25 0 38 0;
#X connect 27 0 39 0;
#X connect 27 0 40 0;
#X connect 28 0 39 0;
#X connect 29 0 27 0;
#X connect 32 0 12 0;
#X connect 33 0 16 0;
#X connect 34 0 17 0;
#X connect 35 0 19 0;
#X connect 36 0 24 0;
#X connect 37 0 23 0;
#X connect 38 0 26 0;
#X connect 39 0 30 0;
#X connect 40 0 31 0;
#X connect 42 0 11 0;
#X connect 45 0 18 0;
#X connect 48 0 25 0;
#X connect 50 0 7 0;
#X connect 51 0 8 0;
#X connect 53 0 54 0;
#X connect 54 0 108 0;
#X connect 56 0 109 0;
#X connect 56 0 110 0;
#X connect 57 0 109 0;
#X connect 58 0 56 0;
#X connect 62 0 111 0;
#X connect 64 0 112 0;
#X connect 64 0 113 0;
#X connect 65 0 112 0;
#X connect 66 0 64 0;
#X connect 69 0 114 0;
#X connect 71 0 115 0;
#X connect 71 0 116 0;
#X connect 72 0 115 0;
#X connect 73 0 71 0;
#X connect 76 0 117 0;
#X connect 78 0 118 0;
#X connect 78 0 119 0;
#X connect 79 0 118 0;
#X connect 80 0 78 0;
#X connect 84 0 62 0;
#X connect 87 0 69 0;
#X connect 90 0 76 0;
#X connect 92 0 4 0;
#X connect 93 0 13 0;
#X connect 94 0 20 0;
#X connect 95 0 27 0;
#X connect 96 0 56 0;
#X connect 97 0 64 0;
#X connect 98 0 71 0;
#X connect 99 0 78 0;
#X connect 100 0 5 0;
#X connect 101 0 14 0;
#X connect 102 0 21 0;
#X connect 103 0 28 0;
#X connect 104 0 57 0;
#X connect 105 0 65 0;
#X connect 106 0 72 0;
#X connect 107 0 79 0;
#X connect 108 0 55 0;
#X connect 109 0 59 0;
#X connect 110 0 60 0;
#X connect 111 0 63 0;
#X connect 112 0 67 0;
#X connect 113 0 68 0;
#X connect 114 0 70 0;
#X connect 115 0 74 0;
#X connect 116 0 75 0;
#X connect 117 0 77 0;
#X connect 118 0 81 0;
#X connect 119 0 82 0;
#X connect 120 0 65 0;
#X connect 121 0 72 0;
#X connect 122 0 79 0;
#X connect 123 0 21 0;
#X connect 124 0 28 0;
#X connect 125 0 57 0;
#X connect 126 0 5 0;
#X connect 127 0 14 0;
#X coords 0 -1 1 1 610 110 2 100 100;
