#N canvas 137 23 1229 723 12;
#N canvas 0 22 450 278 (subpatch) 0;
#X array sample1 12554 float 2;
#X coords 0 1 12554 -1 100 70 1 0 0;
#X restore 103 127 graph;
#N canvas 0 22 450 278 (subpatch) 0;
#X array sample2 37550 float 2;
#X coords 0 1 37550 -1 100 70 1 0 0;
#X restore 217 127 graph;
#X obj 188 108 bng 15 250 50 0 empty empty empty 17 7 0 10 -262144
-1 -1;
#X obj 101 739 openpanel;
#X obj 101 806 soundfiler;
#X msg 101 773 read -resize \$1 sample1;
#X obj 302 108 bng 15 250 50 0 empty empty empty 17 7 0 10 -262144
-1 -1;
#X obj 283 737 openpanel;
#X obj 283 804 soundfiler;
#X msg 1111 778 bang;
#X obj 1111 812 tabplay~ sample1;
#X msg 1159 779 0 1;
#X msg 1239 778 bang;
#X msg 1287 779 0 1;
#X msg 1365 777 bang;
#X msg 1413 778 0 1;
#X msg 1492 777 bang;
#X msg 1540 778 0 1;
#X obj 1239 812 tabplay~ sample2;
#X obj 1365 811 tabplay~ sample3;
#X obj 1492 811 tabplay~ sample4;
#N canvas 0 22 450 278 (subpatch) 0;
#X array sample3 5276 float 2;
#X coords 0 1 5276 -1 100 70 1 0 0;
#X restore 333 127 graph;
#N canvas 0 22 450 278 (subpatch) 0;
#X array sample4 7210 float 2;
#X coords 0 1 7210 -1 100 70 1 0 0;
#X restore 447 127 graph;
#X obj 418 108 bng 15 250 50 0 empty empty empty 17 7 0 10 -262144
-1 -1;
#X obj 468 736 openpanel;
#X obj 468 803 soundfiler;
#X obj 531 108 bng 15 250 50 0 empty empty empty 17 7 0 10 -262144
-1 -1;
#X obj 650 734 openpanel;
#X obj 650 801 soundfiler;
#X msg 283 771 read -resize \$1 sample2;
#X msg 468 770 read -resize \$1 sample3;
#X msg 650 768 read -resize \$1 sample4;
#X obj 942 644 inlet;
#X obj 992 644 inlet;
#X obj 1041 645 inlet;
#X obj 1091 645 inlet;
#X obj 807 1296 outlet~;
#X obj 876 1296 outlet~;
#X obj 945 1296 outlet~;
#X obj 1014 1296 outlet~;
#X connect 2 0 3 0;
#X connect 3 0 5 0;
#X connect 5 0 4 0;
#X connect 6 0 7 0;
#X connect 7 0 29 0;
#X connect 9 0 10 0;
#X connect 10 0 36 0;
#X connect 11 0 10 0;
#X connect 12 0 18 0;
#X connect 13 0 18 0;
#X connect 14 0 19 0;
#X connect 15 0 19 0;
#X connect 16 0 20 0;
#X connect 17 0 20 0;
#X connect 18 0 37 0;
#X connect 19 0 38 0;
#X connect 20 0 39 0;
#X connect 23 0 24 0;
#X connect 24 0 30 0;
#X connect 26 0 27 0;
#X connect 27 0 31 0;
#X connect 29 0 8 0;
#X connect 30 0 25 0;
#X connect 31 0 28 0;
#X connect 32 0 9 0;
#X connect 33 0 12 0;
#X connect 34 0 14 0;
#X connect 35 0 16 0;
#X coords 0 -1 1 1 450 100 2 100 100;
