#N canvas 0 23 1366 723 12;
#X obj 278 53 tgl 15 0 empty empty empty 17 7 0 10 -262144 -1 -1 1
1;
#X obj 274 148 random 300;
#X obj 184 427 osc~ 440;
#X obj 263 535 *~;
#X obj 288 266 vline~;
#X obj 426 534 *~;
#X obj 350 432 osc~ 880;
#X obj 636 57 tgl 15 0 empty empty empty 17 7 0 10 -262144 -1 -1 1
1;
#X obj 632 152 random 300;
#X obj 646 270 vline~;
#X obj 152 54 tgl 15 0 empty empty empty 17 7 0 10 -262144 -1 -1 1
1;
#X obj 148 149 random 300;
#X obj 49 416 osc~ 440;
#X obj 137 536 *~;
#X obj 162 267 vline~;
#X obj 776 56 tgl 15 0 empty empty empty 17 7 0 10 -262144 -1 -1 1
1;
#X obj 768 100 metro 500;
#X obj 772 151 random 300;
#X obj 761 538 *~;
#X obj 786 269 vline~;
#X obj 396 296 mtof;
#X obj 966 62 tgl 15 0 empty empty empty 17 7 0 10 -262144 -1 -1 1
1;
#X obj 958 106 metro 500;
#X obj 962 157 random 300;
#X obj 951 544 *~;
#X obj 976 275 vline~;
#X obj 1106 61 tgl 15 0 empty empty empty 17 7 0 10 -262144 -1 -1 1
1;
#X obj 1102 156 random 300;
#X obj 1091 543 *~;
#X obj 1116 274 vline~;
#X obj 776 187 / 600;
#X obj 966 193 / 600;
#X obj 1106 192 / 600;
#X obj 636 188 / 600;
#X obj 278 184 / 600;
#X obj 152 185 / 600;
#X obj 1098 105 metro 250;
#X obj 144 98 metro 1000;
#X obj 1237 56 tgl 15 0 empty empty empty 17 7 0 10 -262144 -1 -1 1
1;
#X obj 1233 151 random 300;
#X obj 1222 538 *~;
#X obj 1247 269 vline~;
#X obj 1237 187 / 600;
#X obj 1229 100 metro 300;
#X obj 203 389 * 2;
#X obj 778 222 pack f 400;
#X obj 968 228 pack f 400;
#X obj 1108 227 pack f 300;
#X obj 1239 222 pack f 200;
#X obj 500 589 stoe, f 58;
#X obj 502 649 splitter;
#X obj 510 788 dac~;
#X obj 596 782 freeverb~;
#X msg 663 737 roomsize 0.9;
#X obj 628 101 metro 1;
#X obj 270 97 metro 125;
#X obj 280 219 pack f 20;
#X obj 154 220 pack f 1000;
#X obj 638 223 pack f 1;
#X obj 870 57 vsl 15 128 0 1 0 0 empty empty empty 0 -9 0 10 -262144
-1 -1 3700 1;
#X obj 327 375 * 4;
#X obj 739 56 vsl 15 128 0 20 0 0 empty empty empty 0 -9 0 10 -262144
-1 -1 0 1;
#X msg 372 231 40;
#X msg 428 228 45;
#X obj 668 439 line;
#X obj 595 423 vsl 15 128 0 0.5 0 0 empty empty empty 0 -9 0 10 -262144
-1 -1 5699 1;
#X obj 730 372 * 50;
#X floatatom 834 504 5 0 0 0 - - -;
#X obj 832 448 pow 3;
#X connect 0 0 55 0;
#X connect 1 0 34 0;
#X connect 2 0 3 0;
#X connect 3 0 49 1;
#X connect 4 0 3 1;
#X connect 5 0 49 2;
#X connect 5 0 49 3;
#X connect 6 0 5 0;
#X connect 7 0 54 0;
#X connect 8 0 33 0;
#X connect 9 0 5 1;
#X connect 10 0 37 0;
#X connect 11 0 35 0;
#X connect 12 0 13 0;
#X connect 13 0 49 0;
#X connect 14 0 13 1;
#X connect 15 0 16 0;
#X connect 16 0 17 0;
#X connect 17 0 30 0;
#X connect 18 0 49 4;
#X connect 19 0 18 1;
#X connect 20 0 12 0;
#X connect 20 0 44 0;
#X connect 20 0 60 0;
#X connect 21 0 22 0;
#X connect 22 0 23 0;
#X connect 23 0 31 0;
#X connect 24 0 49 5;
#X connect 25 0 24 1;
#X connect 26 0 36 0;
#X connect 27 0 32 0;
#X connect 28 0 49 6;
#X connect 29 0 28 1;
#X connect 30 0 45 0;
#X connect 31 0 46 0;
#X connect 32 0 47 0;
#X connect 33 0 58 0;
#X connect 34 0 56 0;
#X connect 35 0 57 0;
#X connect 36 0 27 0;
#X connect 37 0 11 0;
#X connect 38 0 43 0;
#X connect 39 0 42 0;
#X connect 40 0 49 7;
#X connect 41 0 40 1;
#X connect 42 0 48 0;
#X connect 43 0 39 0;
#X connect 44 0 2 0;
#X connect 45 0 19 0;
#X connect 46 0 25 0;
#X connect 47 0 29 0;
#X connect 48 0 41 0;
#X connect 49 0 50 0;
#X connect 49 1 50 1;
#X connect 50 0 51 0;
#X connect 50 1 51 1;
#X connect 50 2 52 0;
#X connect 50 3 52 1;
#X connect 52 0 51 0;
#X connect 52 1 51 1;
#X connect 53 0 52 0;
#X connect 54 0 8 0;
#X connect 55 0 1 0;
#X connect 56 0 4 0;
#X connect 57 0 14 0;
#X connect 58 0 9 0;
#X connect 58 0 64 0;
#X connect 59 0 68 0;
#X connect 60 0 6 0;
#X connect 61 0 54 1;
#X connect 62 0 20 0;
#X connect 63 0 20 0;
#X connect 64 0 65 0;
#X connect 66 0 58 1;
#X connect 68 0 66 0;
#X connect 68 0 67 0;
