#N canvas 0 23 1366 723 12;
#X obj 10 286 samppad;
#X obj 12 423 channelst;
#X obj 32 692 dac~;
#X obj 13 140 ttt;
#X obj 735 140 clock;
#X obj 106 424 channelst;
#X obj 126 693 dac~;
#X obj 14 26 ttt;
#X connect 0 0 1 4;
#X connect 0 2 5 4;
#X connect 0 3 5 5;
#X connect 1 0 2 0;
#X connect 1 1 2 1;
#X connect 3 0 0 0;
#X connect 5 0 6 0;
#X connect 5 1 6 1;
#X connect 7 0 0 2;
