#N canvas 0 0 1280 778 12;
#X obj 116 369 snapshot~;
#X obj 124 336 metro 10;
#X obj 124 304 tgl 15 0 empty empty empty 17 7 0 10 -262144 -1 -1 1
1;
#X floatatom 116 398 5 0 0 0 - - -;
#X obj 116 421 + 1;
#X floatatom 116 472 5 0 0 0 - - -;
#X obj 116 446 / 2;
#X obj 189 370 snapshot~;
#X obj 197 337 metro 10;
#X obj 197 305 tgl 15 0 empty empty empty 17 7 0 10 -262144 -1 -1 1
1;
#X floatatom 189 399 5 0 0 0 - - -;
#X obj 189 422 + 1;
#X floatatom 189 473 5 0 0 0 - - -;
#X obj 189 447 / 2;
#X obj 262 370 snapshot~;
#X obj 270 337 metro 10;
#X obj 270 305 tgl 15 0 empty empty empty 17 7 0 10 -262144 -1 -1 1
1;
#X floatatom 262 399 5 0 0 0 - - -;
#X obj 262 422 + 1;
#X floatatom 262 473 5 0 0 0 - - -;
#X obj 262 447 / 2;
#X obj 335 371 snapshot~;
#X obj 343 338 metro 10;
#X obj 343 306 tgl 15 0 empty empty empty 17 7 0 10 -262144 -1 -1 1
1;
#X floatatom 335 400 5 0 0 0 - - -;
#X obj 335 423 + 1;
#X floatatom 335 474 5 0 0 0 - - -;
#X obj 335 448 / 2;
#X obj 407 371 snapshot~;
#X obj 415 338 metro 10;
#X obj 415 306 tgl 15 0 empty empty empty 17 7 0 10 -262144 -1 -1 1
1;
#X floatatom 407 400 5 0 0 0 - - -;
#X obj 407 423 + 1;
#X floatatom 407 474 5 0 0 0 - - -;
#X obj 407 448 / 2;
#X obj 480 372 snapshot~;
#X obj 488 339 metro 10;
#X obj 488 307 tgl 15 0 empty empty empty 17 7 0 10 -262144 -1 -1 1
1;
#X floatatom 480 401 5 0 0 0 - - -;
#X obj 480 424 + 1;
#X floatatom 480 475 5 0 0 0 - - -;
#X obj 480 449 / 2;
#X obj 553 372 snapshot~;
#X obj 561 339 metro 10;
#X obj 561 307 tgl 15 0 empty empty empty 17 7 0 10 -262144 -1 -1 1
1;
#X floatatom 553 401 5 0 0 0 - - -;
#X obj 553 424 + 1;
#X floatatom 553 475 5 0 0 0 - - -;
#X obj 553 449 / 2;
#X obj 626 373 snapshot~;
#X obj 634 340 metro 10;
#X obj 634 308 tgl 15 0 empty empty empty 17 7 0 10 -262144 -1 -1 1
1;
#X floatatom 626 402 5 0 0 0 - - -;
#X obj 626 425 + 1;
#X floatatom 626 476 5 0 0 0 - - -;
#X obj 626 450 / 2;
#X obj 613 575 vsl 15 128 0 1 0 0 empty empty empty 0 -9 0 10 -262144
-1 -1 6609 1;
#X obj 473 -35 bng 15 250 50 0 empty empty empty 17 7 0 10 -262144
-1 -1;
#X obj 815 33 vsl 15 128 0 5 0 0 empty empty empty 0 -9 0 10 -262144
-1 -1 300 1;
#X obj 771 117 * 60;
#X floatatom 747 145 5 0 0 0 - - -;
#X floatatom 774 90 5 0 0 0 - - -;
#X obj 749 31 / 60;
#X obj 728 33 vsl 15 128 0 300 0 0 empty empty empty 0 -9 0 10 -262144
-1 -1 300 1;
#X obj 117 277 osc~ 1;
#X obj 189 278 osc~ 1;
#X obj 262 278 osc~ 1;
#X obj 335 279 osc~ 1;
#X obj 407 279 osc~ 1;
#X obj 480 280 osc~ 1;
#X obj 554 280 osc~ 1;
#X obj 626 281 osc~ 1;
#X msg 169 242 0;
#X obj 700 372 snapshot~;
#X obj 708 339 metro 10;
#X obj 708 307 tgl 15 0 empty empty empty 17 7 0 10 -262144 -1 -1 1
1;
#X floatatom 700 401 5 0 0 0 - - -;
#X obj 700 424 + 1;
#X floatatom 700 475 5 0 0 0 - - -;
#X obj 700 449 / 2;
#X obj 773 373 snapshot~;
#X obj 781 340 metro 10;
#X obj 781 308 tgl 15 0 empty empty empty 17 7 0 10 -262144 -1 -1 1
1;
#X floatatom 773 402 5 0 0 0 - - -;
#X obj 773 425 + 1;
#X floatatom 773 476 5 0 0 0 - - -;
#X obj 773 450 / 2;
#X obj 656 575 vsl 15 128 0 1 0 0 empty empty empty 0 -9 0 10 -262144
-1 -1 2830 1;
#X obj 677 575 vsl 15 128 0 1 0 0 empty empty empty 0 -9 0 10 -262144
-1 -1 1369 1;
#X obj 701 280 osc~ 1;
#X obj 773 281 osc~ 1;
#X obj 850 372 snapshot~;
#X obj 858 339 metro 10;
#X obj 923 373 snapshot~;
#X obj 931 340 metro 10;
#X obj 931 308 tgl 15 0 empty empty empty 17 7 0 10 -262144 -1 -1 1
1;
#X floatatom 923 402 5 0 0 0 - - -;
#X obj 923 425 + 1;
#X floatatom 923 476 5 0 0 0 - - -;
#X obj 923 450 / 2;
#X obj 996 373 snapshot~;
#X obj 1004 340 metro 10;
#X obj 1004 308 tgl 15 0 empty empty empty 17 7 0 10 -262144 -1 -1
1 1;
#X floatatom 996 402 5 0 0 0 - - -;
#X obj 996 425 + 1;
#X floatatom 996 476 5 0 0 0 - - -;
#X obj 996 450 / 2;
#X obj 1069 374 snapshot~;
#X obj 1077 341 metro 10;
#X obj 1077 309 tgl 15 0 empty empty empty 17 7 0 10 -262144 -1 -1
1 1;
#X floatatom 1069 403 5 0 0 0 - - -;
#X obj 1069 426 + 1;
#X floatatom 1069 477 5 0 0 0 - - -;
#X obj 1069 451 / 2;
#X obj 1141 374 snapshot~;
#X obj 1149 341 metro 10;
#X obj 1149 309 tgl 15 0 empty empty empty 17 7 0 10 -262144 -1 -1
1 1;
#X floatatom 1141 403 5 0 0 0 - - -;
#X obj 1141 426 + 1;
#X floatatom 1141 477 5 0 0 0 - - -;
#X obj 1141 451 / 2;
#X obj 1214 375 snapshot~;
#X obj 1222 342 metro 10;
#X obj 1222 310 tgl 15 0 empty empty empty 17 7 0 10 -262144 -1 -1
1 1;
#X floatatom 1214 404 5 0 0 0 - - -;
#X obj 1214 427 + 1;
#X floatatom 1214 478 5 0 0 0 - - -;
#X obj 1214 452 / 2;
#X obj 1287 375 snapshot~;
#X obj 1295 342 metro 10;
#X obj 1295 310 tgl 15 0 empty empty empty 17 7 0 10 -262144 -1 -1
1 1;
#X floatatom 1287 404 5 0 0 0 - - -;
#X obj 1287 427 + 1;
#X floatatom 1287 478 5 0 0 0 - - -;
#X obj 1287 452 / 2;
#X obj 1360 376 snapshot~;
#X obj 1368 343 metro 10;
#X obj 1368 311 tgl 15 0 empty empty empty 17 7 0 10 -262144 -1 -1
1 1;
#X floatatom 1360 405 5 0 0 0 - - -;
#X obj 1360 428 + 1;
#X floatatom 1360 479 5 0 0 0 - - -;
#X obj 1360 453 / 2;
#X obj 886 28 bng 15 250 50 0 empty empty empty 17 7 0 10 -262144 -1
-1;
#X obj 851 280 osc~ 1;
#X obj 923 281 osc~ 1;
#X obj 996 281 osc~ 1;
#X obj 1069 282 osc~ 1;
#X obj 1141 282 osc~ 1;
#X obj 1214 283 osc~ 1;
#X obj 1288 283 osc~ 1;
#X obj 1360 284 osc~ 1;
#X obj 1432 375 snapshot~;
#X obj 1440 342 metro 10;
#X obj 1440 310 tgl 15 0 empty empty empty 17 7 0 10 -262144 -1 -1
1 1;
#X floatatom 1432 404 5 0 0 0 - - -;
#X obj 1432 427 + 1;
#X floatatom 1432 478 5 0 0 0 - - -;
#X obj 1432 452 / 2;
#X obj 1505 376 snapshot~;
#X obj 1513 343 metro 10;
#X obj 1513 311 tgl 15 0 empty empty empty 17 7 0 10 -262144 -1 -1
1 1;
#X floatatom 1505 405 5 0 0 0 - - -;
#X obj 1505 428 + 1;
#X floatatom 1505 479 5 0 0 0 - - -;
#X obj 1505 453 / 2;
#X obj 1433 283 osc~ 1;
#X obj 1505 284 osc~ 1;
#X floatatom 850 401 5 0 0 0 - - -;
#X obj 850 424 + 1;
#X floatatom 850 475 5 0 0 0 - - -;
#X obj 850 449 / 2;
#X obj 698 575 vsl 15 128 0 1 0 0 empty empty empty 0 -9 0 10 -262144
-1 -1 396 1;
#X obj 860 309 tgl 15 0 empty empty empty 17 7 0 10 -262144 -1 -1 1
1;
#X obj 721 575 vsl 15 128 0 1 0 0 empty empty empty 0 -9 0 10 -262144
-1 -1 5 1;
#X obj 742 575 vsl 15 128 0 1 0 0 empty empty empty 0 -9 0 10 -262144
-1 -1 236 1;
#X obj 763 575 vsl 15 128 0 1 0 0 empty empty empty 0 -9 0 10 -262144
-1 -1 1065 1;
#X obj 784 575 vsl 15 128 0 1 0 0 empty empty empty 0 -9 0 10 -262144
-1 -1 2411 1;
#X obj 806 575 vsl 15 128 0 1 0 0 empty empty empty 0 -9 0 10 -262144
-1 -1 4143 1;
#X obj 634 575 vsl 15 128 0 1 0 0 empty empty empty 0 -9 0 10 -262144
-1 -1 4635 1;
#X obj 826 575 vsl 15 128 0 1 0 0 empty empty empty 0 -9 0 10 -262144
-1 -1 6091 1;
#X obj 847 575 vsl 15 128 0 1 0 0 empty empty empty 0 -9 0 10 -262144
-1 -1 8065 1;
#X obj 870 575 vsl 15 128 0 1 0 0 empty empty empty 0 -9 0 10 -262144
-1 -1 9870 1;
#X obj 891 575 vsl 15 128 0 1 0 0 empty empty empty 0 -9 0 10 -262144
-1 -1 11331 1;
#X obj 912 575 vsl 15 128 0 1 0 0 empty empty empty 0 -9 0 10 -262144
-1 -1 12304 1;
#X obj 933 575 vsl 15 128 0 1 0 0 empty empty empty 0 -9 0 10 -262144
-1 -1 12695 1;
#X obj 952 575 vsl 15 128 0 1 0 0 empty empty empty 0 -9 0 10 -262144
-1 -1 12464 1;
#X obj 973 575 vsl 15 128 0 1 0 0 empty empty empty 0 -9 0 10 -262144
-1 -1 11635 1;
#X obj 994 575 vsl 15 128 0 1 0 0 empty empty empty 0 -9 0 10 -262144
-1 -1 10289 1;
#X obj 1015 575 vsl 15 128 0 1 0 0 empty empty empty 0 -9 0 10 -262144
-1 -1 8557 1;
#X obj 1374 24 loadbang;
#X msg 749 -1 60;
#X msg 241 244 0.05;
#X msg 315 245 0.1;
#X msg 388 250 0.15;
#X msg 459 248 0.2;
#X msg 533 247 0.25;
#X msg 607 252 0.3;
#X msg 679 250 0.35;
#X msg 754 252 0.4;
#X msg 826 250 0.45;
#X msg 975 247 0.55;
#X msg 1049 248 0.6;
#X msg 1122 253 0.65;
#X msg 1193 251 0.7;
#X msg 1267 250 0.75;
#X msg 1341 255 0.8;
#X msg 1413 253 0.85;
#X msg 1486 255 0.9;
#X msg 1558 253 0.95;
#X msg 903 245 0.5;
#X connect 0 0 3 0;
#X connect 1 0 0 0;
#X connect 2 0 1 0;
#X connect 3 0 4 0;
#X connect 4 0 6 0;
#X connect 5 0 56 0;
#X connect 6 0 5 0;
#X connect 7 0 10 0;
#X connect 8 0 7 0;
#X connect 9 0 8 0;
#X connect 9 0 2 0;
#X connect 10 0 11 0;
#X connect 11 0 13 0;
#X connect 12 0 178 0;
#X connect 13 0 12 0;
#X connect 14 0 17 0;
#X connect 15 0 14 0;
#X connect 16 0 15 0;
#X connect 16 0 9 0;
#X connect 17 0 18 0;
#X connect 18 0 20 0;
#X connect 19 0 87 0;
#X connect 20 0 19 0;
#X connect 21 0 24 0;
#X connect 22 0 21 0;
#X connect 23 0 22 0;
#X connect 23 0 16 0;
#X connect 24 0 25 0;
#X connect 25 0 27 0;
#X connect 26 0 88 0;
#X connect 27 0 26 0;
#X connect 28 0 31 0;
#X connect 29 0 28 0;
#X connect 30 0 29 0;
#X connect 30 0 23 0;
#X connect 31 0 32 0;
#X connect 32 0 34 0;
#X connect 33 0 171 0;
#X connect 34 0 33 0;
#X connect 35 0 38 0;
#X connect 36 0 35 0;
#X connect 37 0 36 0;
#X connect 37 0 30 0;
#X connect 38 0 39 0;
#X connect 39 0 41 0;
#X connect 40 0 173 0;
#X connect 41 0 40 0;
#X connect 42 0 45 0;
#X connect 43 0 42 0;
#X connect 44 0 43 0;
#X connect 44 0 37 0;
#X connect 45 0 46 0;
#X connect 46 0 48 0;
#X connect 47 0 174 0;
#X connect 48 0 47 0;
#X connect 49 0 52 0;
#X connect 50 0 49 0;
#X connect 51 0 50 0;
#X connect 51 0 44 0;
#X connect 52 0 53 0;
#X connect 53 0 55 0;
#X connect 54 0 175 0;
#X connect 55 0 54 0;
#X connect 57 0 72 0;
#X connect 57 0 191 0;
#X connect 57 0 192 0;
#X connect 57 0 193 0;
#X connect 57 0 194 0;
#X connect 57 0 195 0;
#X connect 57 0 196 0;
#X connect 57 0 197 0;
#X connect 57 0 198 0;
#X connect 57 0 199 0;
#X connect 57 0 142 0;
#X connect 58 0 59 0;
#X connect 58 0 64 0;
#X connect 58 0 65 0;
#X connect 58 0 66 0;
#X connect 58 0 67 0;
#X connect 58 0 68 0;
#X connect 58 0 69 0;
#X connect 58 0 70 0;
#X connect 58 0 71 0;
#X connect 58 0 89 0;
#X connect 58 0 90 0;
#X connect 58 0 143 0;
#X connect 58 0 144 0;
#X connect 58 0 145 0;
#X connect 58 0 146 0;
#X connect 58 0 147 0;
#X connect 58 0 148 0;
#X connect 58 0 149 0;
#X connect 58 0 150 0;
#X connect 58 0 165 0;
#X connect 58 0 166 0;
#X connect 59 0 60 0;
#X connect 61 0 58 0;
#X connect 62 0 61 0;
#X connect 63 0 62 0;
#X connect 64 0 0 0;
#X connect 65 0 7 0;
#X connect 66 0 14 0;
#X connect 67 0 21 0;
#X connect 68 0 28 0;
#X connect 69 0 35 0;
#X connect 70 0 42 0;
#X connect 71 0 49 0;
#X connect 72 0 64 1;
#X connect 73 0 76 0;
#X connect 74 0 73 0;
#X connect 75 0 74 0;
#X connect 75 0 51 0;
#X connect 76 0 77 0;
#X connect 77 0 79 0;
#X connect 78 0 176 0;
#X connect 79 0 78 0;
#X connect 80 0 83 0;
#X connect 81 0 80 0;
#X connect 82 0 81 0;
#X connect 82 0 75 0;
#X connect 83 0 84 0;
#X connect 84 0 86 0;
#X connect 85 0 177 0;
#X connect 86 0 85 0;
#X connect 89 0 73 0;
#X connect 90 0 80 0;
#X connect 91 0 167 0;
#X connect 92 0 91 0;
#X connect 93 0 96 0;
#X connect 94 0 93 0;
#X connect 95 0 94 0;
#X connect 95 0 172 0;
#X connect 96 0 97 0;
#X connect 97 0 99 0;
#X connect 98 0 180 0;
#X connect 99 0 98 0;
#X connect 100 0 103 0;
#X connect 101 0 100 0;
#X connect 102 0 101 0;
#X connect 102 0 95 0;
#X connect 103 0 104 0;
#X connect 104 0 106 0;
#X connect 105 0 181 0;
#X connect 106 0 105 0;
#X connect 107 0 110 0;
#X connect 108 0 107 0;
#X connect 109 0 108 0;
#X connect 109 0 102 0;
#X connect 110 0 111 0;
#X connect 111 0 113 0;
#X connect 112 0 182 0;
#X connect 113 0 112 0;
#X connect 114 0 117 0;
#X connect 115 0 114 0;
#X connect 116 0 115 0;
#X connect 116 0 109 0;
#X connect 117 0 118 0;
#X connect 118 0 120 0;
#X connect 119 0 183 0;
#X connect 120 0 119 0;
#X connect 121 0 124 0;
#X connect 122 0 121 0;
#X connect 123 0 122 0;
#X connect 123 0 116 0;
#X connect 124 0 125 0;
#X connect 125 0 127 0;
#X connect 126 0 184 0;
#X connect 127 0 126 0;
#X connect 128 0 131 0;
#X connect 129 0 128 0;
#X connect 130 0 129 0;
#X connect 130 0 123 0;
#X connect 131 0 132 0;
#X connect 132 0 134 0;
#X connect 133 0 185 0;
#X connect 134 0 133 0;
#X connect 135 0 138 0;
#X connect 136 0 135 0;
#X connect 137 0 136 0;
#X connect 137 0 130 0;
#X connect 138 0 139 0;
#X connect 139 0 141 0;
#X connect 140 0 186 0;
#X connect 141 0 140 0;
#X connect 142 0 209 0;
#X connect 142 0 200 0;
#X connect 142 0 201 0;
#X connect 142 0 202 0;
#X connect 142 0 203 0;
#X connect 142 0 204 0;
#X connect 142 0 205 0;
#X connect 142 0 206 0;
#X connect 142 0 207 0;
#X connect 142 0 208 0;
#X connect 143 0 91 0;
#X connect 144 0 93 0;
#X connect 145 0 100 0;
#X connect 146 0 107 0;
#X connect 147 0 114 0;
#X connect 148 0 121 0;
#X connect 149 0 128 0;
#X connect 150 0 135 0;
#X connect 151 0 154 0;
#X connect 152 0 151 0;
#X connect 153 0 152 0;
#X connect 153 0 137 0;
#X connect 154 0 155 0;
#X connect 155 0 157 0;
#X connect 156 0 187 0;
#X connect 157 0 156 0;
#X connect 158 0 161 0;
#X connect 159 0 158 0;
#X connect 160 0 159 0;
#X connect 160 0 153 0;
#X connect 161 0 162 0;
#X connect 162 0 164 0;
#X connect 163 0 188 0;
#X connect 164 0 163 0;
#X connect 165 0 151 0;
#X connect 166 0 158 0;
#X connect 167 0 168 0;
#X connect 168 0 170 0;
#X connect 169 0 179 0;
#X connect 170 0 169 0;
#X connect 172 0 92 0;
#X connect 172 0 82 0;
#X connect 189 0 160 0;
#X connect 189 0 57 0;
#X connect 189 0 190 0;
#X connect 190 0 62 0;
#X connect 191 0 65 1;
#X connect 192 0 66 1;
#X connect 193 0 67 1;
#X connect 194 0 68 1;
#X connect 195 0 69 1;
#X connect 196 0 70 1;
#X connect 197 0 71 1;
#X connect 198 0 89 1;
#X connect 199 0 90 1;
#X connect 200 0 144 1;
#X connect 201 0 145 1;
#X connect 202 0 146 1;
#X connect 203 0 147 1;
#X connect 204 0 148 1;
#X connect 205 0 149 1;
#X connect 206 0 150 1;
#X connect 207 0 165 1;
#X connect 208 0 166 1;
#X connect 209 0 143 1;
