#N canvas 0 22 1155 665 12;
#X obj 1168 413 s~ a;
#X obj 1210 413 s~ b;
#X obj 1253 413 s~ c;
#X obj 1295 413 s~ d;
#X obj 1339 413 s~ e;
#X obj 1381 413 s~ f;
#X obj 1424 413 s~ g;
#X obj 1466 413 s~ h;
#X obj 1514 413 s~ i;
#X obj 1556 413 s~ j;
#X obj 1599 413 s~ k;
#X obj 1641 413 s~ l;
#X obj 1685 413 s~ m;
#X obj 1727 413 s~ n;
#X obj 1770 413 s~ o;
#X obj 1812 413 s~ p;
#X obj 1171 452 r~ a;
#X obj 1213 452 r~ b;
#X obj 1256 452 r~ c;
#X obj 1298 452 r~ d;
#X obj 1342 452 r~ e;
#X obj 1384 452 r~ f;
#X obj 1427 452 r~ g;
#X obj 1469 452 r~ h;
#X obj 1517 452 r~ i;
#X obj 1559 452 r~ j;
#X obj 1602 452 r~ k;
#X obj 1644 452 r~ l;
#X obj 1688 452 r~ m;
#X obj 1731 452 r~ n;
#X obj 1773 452 r~ o;
#X obj 1815 452 r~ p;
#X obj 1048 292 inlet~;
#X obj 1103 293 inlet~;
#X obj 1168 293 inlet~;
#X obj 1223 294 inlet~;
#X obj 1282 293 inlet~;
#X obj 1337 294 inlet~;
#X obj 1402 294 inlet~;
#X obj 1457 295 inlet~;
#X obj 1516 297 inlet~;
#X obj 1571 298 inlet~;
#X obj 1636 298 inlet~;
#X obj 1691 299 inlet~;
#X obj 1750 298 inlet~;
#X obj 1805 299 inlet~;
#X obj 1870 299 inlet~;
#X obj 1925 300 inlet~;
#X obj 1435 625 outlet~;
#X obj 1509 625 outlet~;
#X connect 16 0 48 0;
#X connect 16 0 49 0;
#X connect 17 0 49 0;
#X connect 17 0 48 0;
#X connect 18 0 48 0;
#X connect 18 0 49 0;
#X connect 19 0 48 0;
#X connect 19 0 49 0;
#X connect 20 0 48 0;
#X connect 20 0 49 0;
#X connect 21 0 48 0;
#X connect 21 0 49 0;
#X connect 22 0 48 0;
#X connect 22 0 49 0;
#X connect 23 0 48 0;
#X connect 23 0 49 0;
#X connect 24 0 48 0;
#X connect 24 0 49 0;
#X connect 25 0 48 0;
#X connect 25 0 49 0;
#X connect 26 0 48 0;
#X connect 26 0 49 0;
#X connect 27 0 48 0;
#X connect 27 0 49 0;
#X connect 28 0 48 0;
#X connect 28 0 49 0;
#X connect 29 0 48 0;
#X connect 29 0 49 0;
#X connect 30 0 48 0;
#X connect 30 0 49 0;
#X connect 31 0 48 0;
#X connect 31 0 49 0;
#X connect 32 0 0 0;
#X connect 33 0 1 0;
#X connect 34 0 2 0;
#X connect 35 0 3 0;
#X connect 36 0 4 0;
#X connect 37 0 5 0;
#X connect 38 0 6 0;
#X connect 39 0 7 0;
#X connect 40 0 8 0;
#X connect 41 0 9 0;
#X connect 42 0 10 0;
#X connect 43 0 11 0;
#X connect 44 0 12 0;
#X connect 45 0 13 0;
#X connect 46 0 14 0;
#X connect 47 0 15 0;
