#N canvas 0 23 1366 723 12;
#X obj 1068 43 inlet~;
#X obj 1123 44 inlet~;
#X obj 1188 44 inlet~;
#X obj 1243 45 inlet~;
#X obj 1302 44 inlet~;
#X obj 1357 45 inlet~;
#X obj 1422 45 inlet~;
#X obj 1477 46 inlet~;
#X obj 1536 48 inlet~;
#X obj 1591 49 inlet~;
#X obj 1656 49 inlet~;
#X obj 1711 50 inlet~;
#X obj 1770 49 inlet~;
#X obj 1825 50 inlet~;
#X obj 1890 50 inlet~;
#X obj 1945 51 inlet~;
#X obj -116 961 outlet~;
#X obj -42 961 outlet~;
#X obj 27 962 outlet~;
#X obj 332 958 outlet~;
#X obj 399 959 outlet~;
#X obj 473 959 outlet~;
#X obj 542 960 outlet~;
#X obj 735 956 outlet~;
#X obj 805 956 outlet~;
#X obj 879 956 outlet~;
#X obj 948 957 outlet~;
#X obj 1210 917 outlet~;
#X obj 1323 873 outlet~;
#X obj 1386 746 outlet~;
#X obj 1455 747 outlet~;
#X obj 1529 747 outlet~;
#X obj -129 706 *~;
#X obj 109 119 vsl 8 60 0.01 1 1 1 empty empty empty 0 -9 0 10 -262144
-1 -1 0 1;
#X obj -111 668 vline~;
#X obj -97 640 pack 0 0;
#X msg -64 616 10;
#X obj -64 783 *~;
#X obj 118 119 vsl 8 60 0.01 1 1 0 empty empty empty 0 -9 0 10 -262144
-1 -1 0 1;
#X obj -77 748 vline~;
#X obj -63 720 pack 0 0;
#X msg -29 682 10;
#X obj 21 848 *~;
#X obj 132 119 vsl 8 60 0.01 1 1 0 empty empty empty 0 -9 0 10 -262144
-1 -1 0 1;
#X obj 12 812 vline~;
#X obj 26 784 pack 0 0;
#X msg 44 754 10;
#X obj 174 790 *~;
#X obj 141 119 vsl 8 60 0.01 1 1 0 empty empty empty 0 -9 0 10 -262144
-1 -1 0 1;
#X obj 162 752 vline~;
#X obj 176 724 pack 0 0;
#X msg 210 696 10;
#X obj 291 811 *~;
#X obj 156 119 vsl 8 60 0.01 1 1 0 empty empty empty 0 -9 0 10 -262144
-1 -1 0 1;
#X obj 291 782 vline~;
#X obj 292 753 pack 0 0;
#X msg 346 728 10;
#X obj 441 906 *~;
#X obj 165 119 vsl 8 60 0.01 1 1 0 empty empty empty 0 -9 0 10 -262144
-1 -1 0 1;
#X obj 428 873 vline~;
#X obj 442 845 pack 0 0;
#X msg 463 820 10;
#X obj 530 917 *~;
#X obj 180 119 vsl 8 60 0.01 1 1 0 empty empty empty 0 -9 0 10 -262144
-1 -1 0 1;
#X obj 527 885 vline~;
#X obj 541 857 pack 0 0;
#X msg 565 831 10;
#X obj 689 869 *~;
#X obj 189 119 vsl 8 60 0.01 1 1 0 empty empty empty 0 -9 0 10 -262144
-1 -1 0 1;
#X obj 676 835 vline~;
#X obj 690 807 pack 0 0;
#X msg 715 782 10;
#X obj 791 902 *~;
#X obj 204 119 vsl 8 60 0.01 1 1 0 empty empty empty 0 -9 0 10 -262144
-1 -1 0 1;
#X obj 787 865 vline~;
#X obj 801 837 pack 0 0;
#X msg 823 810 10;
#X obj 1015 875 *~;
#X obj 213 119 vsl 8 60 0.01 1 1 0 empty empty empty 0 -9 0 10 -262144
-1 -1 0 1;
#X obj 1009 842 vline~;
#X obj 1023 814 pack 0 0;
#X msg 1039 788 10;
#X obj 1118 872 *~;
#X obj 229 119 vsl 8 60 0.01 1 1 0 empty empty empty 0 -9 0 10 -262144
-1 -1 0 1;
#X obj 1106 834 vline~;
#X obj 1120 806 pack 0 0;
#X msg 1145 778 10;
#X obj 1216 880 *~;
#X obj 238 119 vsl 8 60 0.01 1 1 0 empty empty empty 0 -9 0 10 -262144
-1 -1 0 1;
#X obj 1190 847 vline~;
#X obj 1204 819 pack 0 0;
#X msg 1237 791 10;
#X obj 1327 820 *~;
#X obj 253 119 vsl 8 60 0.01 1 1 0 empty empty empty 0 -9 0 10 -262144
-1 -1 0 1;
#X obj 1309 781 vline~;
#X obj 1323 753 pack 0 0;
#X msg 1333 723 10;
#X obj 1409 593 *~;
#X obj 262 119 vsl 8 60 0.01 1 1 0 empty empty empty 0 -9 0 10 -262144
-1 -1 0 1;
#X obj 1391 559 vline~;
#X obj 1405 531 pack 0 0;
#X msg 1421 504 10;
#X obj 1499 567 *~;
#X obj 275 119 vsl 8 60 0.01 1 1 0 empty empty empty 0 -9 0 10 -262144
-1 -1 0 1;
#X obj 1484 530 vline~;
#X obj 1498 502 pack 0 0;
#X msg 1508 471 10;
#X obj 1585 544 *~;
#X obj 284 119 vsl 8 60 0.01 1 1 0 empty empty empty 0 -9 0 10 -262144
-1 -1 0 1;
#X obj 1570 512 vline~;
#X obj 1584 484 pack 0 0;
#X msg 1609 457 10;
#X obj 1188 164 s~ ma;
#X obj 1230 164 s~ mb;
#X obj 1273 164 s~ mc;
#X obj 1315 164 s~ md;
#X obj 1359 164 s~ me;
#X obj 1401 164 s~ mf;
#X obj 1444 164 s~ mg;
#X obj 1486 164 s~ mh;
#X obj 1534 164 s~ mi;
#X obj 1576 164 s~ mj;
#X obj 1619 164 s~ mk;
#X obj 1661 164 s~ ml;
#X obj 1705 164 s~ mm;
#X obj 1747 164 s~ mn;
#X obj 1791 164 s~ mo;
#X obj 1836 163 s~ mp;
#X obj 27 59 r~ ma;
#X obj 69 59 r~ mb;
#X obj 112 59 r~ mc;
#X obj 154 59 r~ md;
#X obj 199 59 r~ me;
#X obj 240 59 r~ mf;
#X obj 283 59 r~ mg;
#X obj 325 59 r~ mh;
#X obj 373 59 r~ mi;
#X obj 415 59 r~ mj;
#X obj 458 59 r~ mk;
#X obj 499 59 r~ ml;
#X obj 544 59 r~ mm;
#X obj 587 59 r~ mn;
#X obj 629 59 r~ mo;
#X obj 671 59 r~ mp;
#X obj 10 147 - 0.01;
#X obj -3 181 / 0.99;
#X floatatom -3 205 5 0 0 0 - - -;
#X obj 11 502 - 0.01;
#X obj -2 536 / 0.99;
#X floatatom -2 560 5 0 0 0 - - -;
#X obj 109 534 - 0.01;
#X obj 96 568 / 0.99;
#X floatatom 96 592 5 0 0 0 - - -;
#X obj 170 622 - 0.01;
#X obj 157 656 / 0.99;
#X floatatom 157 680 5 0 0 0 - - -;
#X obj 673 693 - 0.01;
#X obj 660 727 / 0.99;
#X floatatom 660 751 5 0 0 0 - - -;
#X obj 777 719 - 0.01;
#X obj 781 749 / 0.99;
#X floatatom 781 773 5 0 0 0 - - -;
#X obj 900 780 - 0.01;
#X obj 904 810 / 0.99;
#X floatatom 904 834 5 0 0 0 - - -;
#X obj 1072 695 - 0.01;
#X obj 1076 725 / 0.99;
#X floatatom 1076 749 5 0 0 0 - - -;
#X obj 1183 716 - 0.01;
#X obj 1187 746 / 0.99;
#X floatatom 1187 770 5 0 0 0 - - -;
#X obj 1252 671 - 0.01;
#X obj 1256 701 / 0.99;
#X floatatom 1256 725 5 0 0 0 - - -;
#X obj 1302 446 - 0.01;
#X obj 1306 476 / 0.99;
#X floatatom 1308 502 5 0 0 0 - - -;
#X obj 1446 347 - 0.01;
#X obj 1450 377 / 0.99;
#X floatatom 1452 403 5 0 0 0 - - -;
#X obj 1575 342 - 0.01;
#X obj 1579 372 / 0.99;
#X floatatom 1581 398 5 0 0 0 - - -;
#X obj 306 629 - 0.01;
#X obj 293 663 / 0.99;
#X floatatom 293 687 5 0 0 0 - - -;
#X obj 445 679 - 0.01;
#X obj 432 713 / 0.99;
#X floatatom 432 737 5 0 0 0 - - -;
#X obj 553 686 - 0.01;
#X obj 540 720 / 0.99;
#X floatatom 540 744 5 0 0 0 - - -;
#X connect 0 0 112 0;
#X connect 1 0 113 0;
#X connect 2 0 114 0;
#X connect 3 0 115 0;
#X connect 4 0 116 0;
#X connect 5 0 117 0;
#X connect 6 0 118 0;
#X connect 7 0 119 0;
#X connect 8 0 120 0;
#X connect 9 0 121 0;
#X connect 10 0 122 0;
#X connect 11 0 123 0;
#X connect 12 0 124 0;
#X connect 13 0 125 0;
#X connect 14 0 126 0;
#X connect 15 0 127 0;
#X connect 32 0 16 0;
#X connect 33 0 36 0;
#X connect 33 0 144 0;
#X connect 34 0 32 1;
#X connect 35 0 34 0;
#X connect 36 0 35 1;
#X connect 37 0 17 0;
#X connect 38 0 41 0;
#X connect 38 0 147 0;
#X connect 39 0 37 1;
#X connect 40 0 39 0;
#X connect 41 0 40 1;
#X connect 42 0 18 0;
#X connect 43 0 46 0;
#X connect 43 0 150 0;
#X connect 44 0 42 1;
#X connect 45 0 44 0;
#X connect 46 0 45 1;
#X connect 47 0 19 0;
#X connect 48 0 51 0;
#X connect 48 0 153 0;
#X connect 49 0 47 1;
#X connect 50 0 49 0;
#X connect 51 0 50 1;
#X connect 52 0 20 0;
#X connect 53 0 56 0;
#X connect 53 0 183 0;
#X connect 54 0 52 1;
#X connect 55 0 54 0;
#X connect 56 0 55 1;
#X connect 57 0 21 0;
#X connect 58 0 61 0;
#X connect 58 0 186 0;
#X connect 59 0 57 1;
#X connect 60 0 59 0;
#X connect 61 0 60 1;
#X connect 62 0 22 0;
#X connect 63 0 66 0;
#X connect 63 0 189 0;
#X connect 64 0 62 1;
#X connect 65 0 64 0;
#X connect 66 0 65 1;
#X connect 67 0 23 0;
#X connect 68 0 71 0;
#X connect 68 0 156 0;
#X connect 69 0 67 1;
#X connect 70 0 69 0;
#X connect 71 0 70 1;
#X connect 72 0 24 0;
#X connect 73 0 76 0;
#X connect 73 0 159 0;
#X connect 74 0 72 1;
#X connect 75 0 74 0;
#X connect 76 0 75 1;
#X connect 77 0 25 0;
#X connect 78 0 81 0;
#X connect 78 0 162 0;
#X connect 79 0 77 1;
#X connect 80 0 79 0;
#X connect 81 0 80 1;
#X connect 82 0 26 0;
#X connect 83 0 86 0;
#X connect 83 0 165 0;
#X connect 84 0 82 1;
#X connect 85 0 84 0;
#X connect 86 0 85 1;
#X connect 87 0 27 0;
#X connect 88 0 91 0;
#X connect 88 0 168 0;
#X connect 89 0 87 1;
#X connect 90 0 89 0;
#X connect 91 0 90 1;
#X connect 92 0 28 0;
#X connect 93 0 96 0;
#X connect 93 0 171 0;
#X connect 94 0 92 1;
#X connect 95 0 94 0;
#X connect 96 0 95 1;
#X connect 97 0 29 0;
#X connect 98 0 101 0;
#X connect 98 0 174 0;
#X connect 99 0 97 1;
#X connect 100 0 99 0;
#X connect 101 0 100 1;
#X connect 102 0 30 0;
#X connect 103 0 106 0;
#X connect 103 0 177 0;
#X connect 104 0 102 1;
#X connect 105 0 104 0;
#X connect 106 0 105 1;
#X connect 107 0 31 0;
#X connect 108 0 111 0;
#X connect 108 0 180 0;
#X connect 109 0 107 1;
#X connect 110 0 109 0;
#X connect 111 0 110 1;
#X connect 128 0 32 0;
#X connect 129 0 37 0;
#X connect 130 0 42 0;
#X connect 131 0 47 0;
#X connect 132 0 52 0;
#X connect 133 0 57 0;
#X connect 134 0 62 0;
#X connect 135 0 67 0;
#X connect 136 0 72 0;
#X connect 137 0 77 0;
#X connect 138 0 82 0;
#X connect 139 0 87 0;
#X connect 140 0 92 0;
#X connect 141 0 97 0;
#X connect 142 0 102 0;
#X connect 143 0 107 0;
#X connect 144 0 145 0;
#X connect 145 0 146 0;
#X connect 146 0 35 0;
#X connect 147 0 148 0;
#X connect 148 0 149 0;
#X connect 149 0 40 0;
#X connect 150 0 151 0;
#X connect 151 0 152 0;
#X connect 152 0 45 0;
#X connect 153 0 154 0;
#X connect 154 0 155 0;
#X connect 155 0 50 0;
#X connect 156 0 157 0;
#X connect 157 0 158 0;
#X connect 158 0 70 0;
#X connect 159 0 160 0;
#X connect 160 0 161 0;
#X connect 161 0 75 0;
#X connect 162 0 163 0;
#X connect 163 0 164 0;
#X connect 164 0 80 0;
#X connect 165 0 166 0;
#X connect 166 0 167 0;
#X connect 167 0 85 0;
#X connect 168 0 169 0;
#X connect 169 0 170 0;
#X connect 170 0 90 0;
#X connect 171 0 172 0;
#X connect 172 0 173 0;
#X connect 173 0 95 0;
#X connect 174 0 175 0;
#X connect 175 0 176 0;
#X connect 176 0 100 0;
#X connect 177 0 178 0;
#X connect 178 0 179 0;
#X connect 179 0 105 0;
#X connect 180 0 181 0;
#X connect 181 0 182 0;
#X connect 182 0 110 0;
#X connect 183 0 184 0;
#X connect 184 0 185 0;
#X connect 185 0 55 0;
#X connect 186 0 187 0;
#X connect 187 0 188 0;
#X connect 188 0 60 0;
#X connect 189 0 190 0;
#X connect 190 0 191 0;
#X connect 191 0 65 0;
#X coords 0 -1 1 1 200 100 2 100 100;
