#N canvas 0 23 989 648 12;
#X obj 330 314 *~;
#X obj 424 311 *~;
#X obj 223 459 *~;
#X obj 265 459 *~;
#X obj 310 459 *~;
#X obj 352 459 *~;
#X obj 396 459 *~;
#X obj 438 459 *~;
#X obj 485 459 *~;
#X obj 527 459 *~;
#X obj 435 255 pow 2;
#X obj 182 105 vsl 15 90 0 1 0 0 empty empty empty 0 -9 0 10 -262144
-1 -1 0 1;
#X obj 209 357 pow 2;
#X obj 158 356 pow 2;
#X obj 109 355 pow 2;
#X obj 57 352 pow 2;
#X obj 103 124 vsl 10 70 0 1 0 0 empty empty empty 0 -9 0 10 -262144
-1 -1 0 1;
#X obj 332 197 inlet~;
#X obj 387 197 inlet~;
#X obj 131 588 outlet~;
#X obj 197 588 outlet~;
#X obj 273 588 outlet~;
#X obj 339 588 outlet~;
#X obj 417 586 outlet~;
#X obj 483 586 outlet~;
#X obj 559 586 outlet~;
#X obj 625 586 outlet~;
#X obj 116 124 vsl 10 70 0 1 0 0 empty empty empty 0 -9 0 10 -262144
-1 -1 0 1;
#X obj 130 124 vsl 10 70 0 1 0 0 empty empty empty 0 -9 0 10 -262144
-1 -1 0 1;
#X obj 143 124 vsl 10 70 0 1 0 0 empty empty empty 0 -9 0 10 -262144
-1 -1 0 1;
#X connect 0 0 2 0;
#X connect 0 0 4 0;
#X connect 0 0 6 0;
#X connect 0 0 8 0;
#X connect 1 0 3 0;
#X connect 1 0 5 0;
#X connect 1 0 7 0;
#X connect 1 0 9 0;
#X connect 2 0 19 0;
#X connect 3 0 20 0;
#X connect 4 0 21 0;
#X connect 5 0 22 0;
#X connect 6 0 23 0;
#X connect 7 0 24 0;
#X connect 8 0 25 0;
#X connect 9 0 26 0;
#X connect 10 0 1 1;
#X connect 10 0 0 1;
#X connect 11 0 10 0;
#X connect 12 0 9 1;
#X connect 12 0 8 1;
#X connect 13 0 7 1;
#X connect 13 0 6 1;
#X connect 14 0 4 1;
#X connect 14 0 5 1;
#X connect 15 0 2 1;
#X connect 15 0 3 1;
#X connect 16 0 15 0;
#X connect 17 0 0 0;
#X connect 18 0 1 0;
#X connect 27 0 14 0;
#X connect 28 0 13 0;
#X connect 29 0 12 0;
#X coords 0 -1 1 1 100 100 1 100 100;
