#N canvas 0 23 639 434 12;
#X obj 213 210 expr~ ($v1 > $f2);
#X obj 213 175 phasor~;
#X obj 302 115 inlet;
#X obj 377 114 inlet;
#X obj 212 116 inlet~;
#X obj 211 270 outlet~;
#X connect 0 0 5 0;
#X connect 1 0 0 0;
#X connect 2 0 0 1;
#X connect 3 0 1 1;
#X connect 4 0 1 0;
