#N canvas 0 22 1155 665 12;
#X obj 1048 292 inlet~;
#X obj 1103 293 inlet~;
#X obj 1168 293 inlet~;
#X obj 1223 294 inlet~;
#X obj 1282 293 inlet~;
#X obj 1337 294 inlet~;
#X obj 1402 294 inlet~;
#X obj 1457 295 inlet~;
#X obj 1516 297 inlet~;
#X obj 1571 298 inlet~;
#X obj 1636 298 inlet~;
#X obj 1691 299 inlet~;
#X obj 1750 298 inlet~;
#X obj 1805 299 inlet~;
#X obj 1870 299 inlet~;
#X obj 1925 300 inlet~;
#X obj 1144 620 outlet~;
#X obj 1809 624 outlet~;
#X connect 0 0 16 0;
#X connect 1 0 17 0;
#X connect 2 0 16 0;
#X connect 3 0 17 0;
#X connect 4 0 16 0;
#X connect 5 0 17 0;
#X connect 6 0 16 0;
#X connect 7 0 17 0;
#X connect 8 0 16 0;
#X connect 9 0 17 0;
#X connect 10 0 16 0;
#X connect 11 0 17 0;
#X connect 12 0 16 0;
#X connect 13 0 17 0;
#X connect 14 0 16 0;
#X connect 15 0 17 0;
