#N canvas 69 23 1240 666 12;
#X obj 246 287 channelst;
#X obj 315 662 dac~;
#X obj 287 105 lopass;
#X obj 308 552 boost;
#X msg 308 671;
#X obj 633 196 -~ 1;
#X obj 485 282 *~;
#X obj 465 345 freeverb~;
#X msg 576 451 bypass \$1;
#X obj 583 423 tgl 15 0 empty empty empty 17 7 0 10 -262144 -1 -1 0
1;
#X msg 650 347 wet \$1;
#X obj 748 294 vsl 15 128 0 1 0 0 empty empty empty 0 -9 0 10 -262144
-1 -1 9900 1;
#X msg 824 423 roomsize \$1;
#X obj 937 359 vsl 15 128 0 1 0 0 empty empty empty 0 -9 0 10 -262144
-1 -1 10300 1;
#X obj 766 22 tgl 15 0 empty empty empty 17 7 0 10 -262144 -1 -1 1
1;
#X floatatom 735 140 5 0 0 0 - - -;
#X obj 627 13 random 4;
#X obj 514 99 mtof;
#X obj 484 156 line;
#X obj 471 132 pack 0 0;
#X msg 568 128 50;
#X obj 740 166 + 1;
#X obj 718 99 random 3;
#X obj 635 138 osc~;
#X obj 991 249 -~ 1;
#X obj 913 36 random 4;
#X obj 872 152 mtof;
#X obj 819 205 line;
#X obj 809 179 pack 0 0;
#X obj 835 278 *~;
#X obj 485 187 osc~ 110;
#X obj 745 55 metro 500;
#X obj 862 87 sel 0 1 2 3;
#X obj 504 34 sel 0 1 2 3 4;
#X obj 991 273 *~ -0.01;
#X obj 633 220 *~ -0.01;
#X obj 1005 216 osc~ 0.3;
#X obj 964 190 osc~ 0.25;
#X obj 1090 222 osc~ 0.1;
#X msg 804 120 60;
#X msg 842 119 65;
#X msg 896 115 67;
#X msg 935 121 72;
#X obj 823 234 phasor~ 110;
#X obj 876 264 -~ 1;
#X obj 876 288 *~ -1;
#X msg 913 171 200;
#X obj 1067 297 phasor~ 7;
#X obj 1070 337 -~ 1;
#X msg 484 66 63;
#X msg 538 62 68;
#X msg 576 61 66;
#X msg 446 67 60;
#X obj 1070 361 *~ -0.5;
#X msg 610 378 dry 0;
#X connect 0 0 3 0;
#X connect 0 1 3 2;
#X connect 2 0 7 0;
#X connect 2 1 7 1;
#X connect 3 0 1 0;
#X connect 3 1 1 1;
#X connect 5 0 35 0;
#X connect 6 0 2 2;
#X connect 6 0 2 3;
#X connect 7 0 0 4;
#X connect 7 1 0 5;
#X connect 8 0 7 0;
#X connect 9 0 8 0;
#X connect 10 0 7 0;
#X connect 11 0 10 0;
#X connect 12 0 7 0;
#X connect 13 0 12 0;
#X connect 14 0 31 0;
#X connect 15 0 21 0;
#X connect 16 0 33 0;
#X connect 17 0 19 0;
#X connect 17 0 20 0;
#X connect 18 0 30 0;
#X connect 19 0 18 0;
#X connect 20 0 19 1;
#X connect 21 0 23 0;
#X connect 22 0 15 0;
#X connect 23 0 5 0;
#X connect 24 0 34 0;
#X connect 25 0 32 0;
#X connect 26 0 28 0;
#X connect 26 0 46 0;
#X connect 27 0 43 0;
#X connect 28 0 27 0;
#X connect 29 0 2 3;
#X connect 29 0 2 2;
#X connect 30 0 6 0;
#X connect 31 0 16 0;
#X connect 31 0 22 0;
#X connect 31 0 25 0;
#X connect 32 0 39 0;
#X connect 32 1 40 0;
#X connect 32 2 41 0;
#X connect 32 3 42 0;
#X connect 33 0 52 0;
#X connect 33 1 49 0;
#X connect 33 2 50 0;
#X connect 33 3 51 0;
#X connect 34 0 29 1;
#X connect 35 0 6 1;
#X connect 36 0 24 0;
#X connect 37 0 24 0;
#X connect 38 0 24 0;
#X connect 39 0 26 0;
#X connect 40 0 26 0;
#X connect 41 0 26 0;
#X connect 42 0 26 0;
#X connect 43 0 44 0;
#X connect 44 0 45 0;
#X connect 45 0 29 0;
#X connect 46 0 28 1;
#X connect 47 0 48 0;
#X connect 48 0 53 0;
#X connect 49 0 17 0;
#X connect 50 0 17 0;
#X connect 51 0 17 0;
#X connect 52 0 17 0;
#X connect 53 0 34 0;
#X connect 54 0 7 0;
#X coords 0 666 1 665 85 60 0;
