#N canvas 1 156 1351 590 12;
#X obj 258 141 bng 15 250 50 0 empty empty empty 17 7 0 10 -262144
-1 -1;
#X obj 285 442 vline~;
#X obj 175 423 *~;
#X obj 264 547 dac~;
#X obj 427 281 float;
#X obj 477 281 float;
#X obj 271 286 float;
#X obj 317 284 float;
#X obj 372 283 delay;
#X obj 285 237 t b b b;
#X floatatom 298 170 5 0 0 0 - - -;
#X floatatom 346 170 5 0 0 0 - - -;
#X obj 440 236 t b b b;
#X floatatom 457 174 5 0 0 0 - - -;
#X floatatom 505 174 5 0 0 0 - - -;
#X obj 587 278 float;
#X obj 637 278 float;
#X obj 532 280 delay;
#X obj 600 233 t b b b;
#X floatatom 617 171 5 0 0 0 - - -;
#X floatatom 665 171 5 0 0 0 - - -;
#X obj 759 276 float;
#X obj 809 276 float;
#X obj 704 278 delay;
#X obj 772 231 t b b b;
#X floatatom 789 169 5 0 0 0 - - -;
#X floatatom 837 169 5 0 0 0 - - -;
#X obj 279 350 pack 0 0;
#X obj 443 346 pack 0 0;
#X obj 598 346 pack 0 0;
#X obj 762 342 pack 0 0;
#X msg 790 116 0;
#X msg 297 131 0;
#X msg 445 123 1;
#X msg 352 132 2;
#X obj 239 -216 bng 15 250 50 0 empty empty empty 17 7 0 10 -262144
-1 -1;
#X obj 408 -76 float;
#X obj 458 -76 float;
#X obj 252 -71 float;
#X obj 298 -73 float;
#X obj 353 -74 delay;
#X obj 266 -120 t b b b;
#X floatatom 279 -187 5 0 0 0 - - -;
#X floatatom 327 -187 5 0 0 0 - - -;
#X obj 421 -121 t b b b;
#X floatatom 438 -183 5 0 0 0 - - -;
#X floatatom 486 -183 5 0 0 0 - - -;
#X obj 513 -77 delay;
#X obj 260 -7 pack 0 0;
#X obj 424 -11 pack 0 0;
#X msg 278 -226 0;
#X floatatom 209 207 5 0 0 0 - - -;
#X obj 156 238 +~;
#X obj 588 -65 float;
#X obj 638 -65 float;
#X obj 601 -110 t b b b;
#X floatatom 618 -172 5 0 0 0 - - -;
#X floatatom 666 -172 5 0 0 0 - - -;
#X obj 693 -66 delay;
#X obj 604 0 pack 0 0;
#X msg 606 -223 0;
#X msg 661 -222 0;
#X msg 333 -225 0;
#X obj 869 275 delay;
#X obj 1069 102 bng 15 250 50 0 empty empty empty 17 7 0 10 -262144
-1 -1;
#X obj 1096 403 vline~;
#X obj 986 384 *~;
#X obj 1238 242 float;
#X obj 1288 242 float;
#X obj 1082 247 float;
#X obj 1128 245 float;
#X obj 1183 244 delay;
#X obj 1096 198 t b b b;
#X floatatom 1109 131 5 0 0 0 - - -;
#X floatatom 1157 131 5 0 0 0 - - -;
#X obj 1251 197 t b b b;
#X floatatom 1268 135 5 0 0 0 - - -;
#X floatatom 1316 135 5 0 0 0 - - -;
#X obj 1398 239 float;
#X obj 1448 239 float;
#X obj 1343 241 delay;
#X obj 1411 194 t b b b;
#X floatatom 1428 132 5 0 0 0 - - -;
#X floatatom 1476 132 5 0 0 0 - - -;
#X obj 1570 237 float;
#X obj 1620 237 float;
#X obj 1515 239 delay;
#X obj 1583 192 t b b b;
#X floatatom 1600 130 5 0 0 0 - - -;
#X floatatom 1648 130 5 0 0 0 - - -;
#X obj 1090 311 pack 0 0;
#X obj 1254 307 pack 0 0;
#X obj 1409 307 pack 0 0;
#X obj 1573 303 pack 0 0;
#X msg 1601 77 0;
#X msg 1108 92 0;
#X msg 1256 84 1;
#X msg 1163 93 2;
#X obj 1050 -255 bng 15 250 50 0 empty empty empty 17 7 0 10 -262144
-1 -1;
#X obj 1219 -115 float;
#X obj 1269 -115 float;
#X obj 1063 -110 float;
#X obj 1109 -112 float;
#X obj 1164 -113 delay;
#X obj 1077 -159 t b b b;
#X floatatom 1090 -226 5 0 0 0 - - -;
#X floatatom 1138 -226 5 0 0 0 - - -;
#X obj 1232 -160 t b b b;
#X floatatom 1249 -222 5 0 0 0 - - -;
#X floatatom 1297 -222 5 0 0 0 - - -;
#X obj 1324 -116 delay;
#X obj 1071 -46 pack 0 0;
#X obj 1235 -50 pack 0 0;
#X msg 1089 -265 0;
#X floatatom 1020 168 5 0 0 0 - - -;
#X obj 967 199 +~;
#X obj 1399 -104 float;
#X obj 1449 -104 float;
#X obj 1412 -149 t b b b;
#X floatatom 1429 -211 5 0 0 0 - - -;
#X floatatom 1477 -211 5 0 0 0 - - -;
#X obj 1504 -105 delay;
#X obj 1415 -39 pack 0 0;
#X msg 1417 -262 0;
#X msg 1472 -261 0;
#X msg 1144 -264 0;
#X obj 1680 236 delay;
#X obj 165 -246 tgl 15 0 empty empty empty 17 7 0 10 -262144 -1 -1
1 1;
#X obj 151 -181 sel 1 0;
#X obj 266 85 line~;
#X obj 1077 46 line~;
#X obj 801 -43 loadbang;
#X msg 500 124 10;
#X msg 1311 85 10;
#X msg 155 113 200;
#X msg 426 -234 -200;
#X msg 966 74 200;
#X msg 1237 -273 -200;
#X msg 481 -233 500;
#X msg 1292 -272 500;
#X obj 175 351 phasor~ 220;
#X obj 986 312 phasor~ 220;
#X obj 276 508 lop~ 200;
#X msg 669 113 10;
#X msg 1480 74 10;
#X msg 833 114 200;
#X msg 1644 75 200;
#X msg 614 112 0.25;
#X msg 1425 73 0.25;
#X connect 0 0 9 0;
#X connect 0 0 140 1;
#X connect 1 0 2 1;
#X connect 2 0 142 0;
#X connect 4 0 28 0;
#X connect 5 0 28 1;
#X connect 6 0 27 0;
#X connect 7 0 27 1;
#X connect 8 0 12 0;
#X connect 9 0 6 0;
#X connect 9 1 7 0;
#X connect 9 2 8 0;
#X connect 10 0 6 1;
#X connect 11 0 7 1;
#X connect 11 0 8 1;
#X connect 12 0 4 0;
#X connect 12 1 5 0;
#X connect 12 2 17 0;
#X connect 13 0 4 1;
#X connect 14 0 5 1;
#X connect 14 0 17 1;
#X connect 15 0 29 0;
#X connect 16 0 29 1;
#X connect 17 0 18 0;
#X connect 18 0 15 0;
#X connect 18 1 16 0;
#X connect 18 2 23 0;
#X connect 19 0 15 1;
#X connect 20 0 16 1;
#X connect 20 0 23 1;
#X connect 21 0 30 0;
#X connect 22 0 30 1;
#X connect 23 0 24 0;
#X connect 24 0 21 0;
#X connect 24 1 22 0;
#X connect 24 2 63 0;
#X connect 25 0 21 1;
#X connect 26 0 22 1;
#X connect 26 0 63 1;
#X connect 27 0 1 0;
#X connect 28 0 1 0;
#X connect 29 0 1 0;
#X connect 30 0 1 0;
#X connect 31 0 25 0;
#X connect 32 0 10 0;
#X connect 33 0 13 0;
#X connect 34 0 11 0;
#X connect 35 0 41 0;
#X connect 35 0 0 0;
#X connect 36 0 49 0;
#X connect 37 0 49 1;
#X connect 38 0 48 0;
#X connect 39 0 48 1;
#X connect 40 0 44 0;
#X connect 41 0 38 0;
#X connect 41 1 39 0;
#X connect 41 2 40 0;
#X connect 42 0 38 1;
#X connect 43 0 39 1;
#X connect 43 0 40 1;
#X connect 44 0 36 0;
#X connect 44 1 37 0;
#X connect 44 2 47 0;
#X connect 45 0 36 1;
#X connect 46 0 37 1;
#X connect 46 0 47 1;
#X connect 48 0 129 0;
#X connect 49 0 129 0;
#X connect 50 0 42 0;
#X connect 51 0 52 1;
#X connect 52 0 140 0;
#X connect 53 0 59 0;
#X connect 54 0 59 1;
#X connect 55 0 53 0;
#X connect 55 1 54 0;
#X connect 55 2 58 0;
#X connect 56 0 53 1;
#X connect 57 0 54 1;
#X connect 57 0 58 1;
#X connect 59 0 129 0;
#X connect 60 0 56 0;
#X connect 61 0 57 0;
#X connect 62 0 43 0;
#X connect 63 0 55 0;
#X connect 64 0 72 0;
#X connect 64 0 141 1;
#X connect 65 0 66 1;
#X connect 66 0 142 0;
#X connect 67 0 91 0;
#X connect 68 0 91 1;
#X connect 69 0 90 0;
#X connect 70 0 90 1;
#X connect 71 0 75 0;
#X connect 72 0 69 0;
#X connect 72 1 70 0;
#X connect 72 2 71 0;
#X connect 73 0 69 1;
#X connect 74 0 70 1;
#X connect 74 0 71 1;
#X connect 75 0 67 0;
#X connect 75 1 68 0;
#X connect 75 2 80 0;
#X connect 76 0 67 1;
#X connect 77 0 68 1;
#X connect 77 0 80 1;
#X connect 78 0 92 0;
#X connect 79 0 92 1;
#X connect 80 0 81 0;
#X connect 81 0 78 0;
#X connect 81 1 79 0;
#X connect 81 2 86 0;
#X connect 82 0 78 1;
#X connect 83 0 79 1;
#X connect 83 0 86 1;
#X connect 84 0 93 0;
#X connect 85 0 93 1;
#X connect 86 0 87 0;
#X connect 87 0 84 0;
#X connect 87 1 85 0;
#X connect 87 2 126 0;
#X connect 88 0 84 1;
#X connect 89 0 85 1;
#X connect 89 0 126 1;
#X connect 90 0 65 0;
#X connect 91 0 65 0;
#X connect 92 0 65 0;
#X connect 93 0 65 0;
#X connect 94 0 88 0;
#X connect 95 0 73 0;
#X connect 96 0 76 0;
#X connect 97 0 74 0;
#X connect 98 0 104 0;
#X connect 98 0 64 0;
#X connect 99 0 112 0;
#X connect 100 0 112 1;
#X connect 101 0 111 0;
#X connect 102 0 111 1;
#X connect 103 0 107 0;
#X connect 104 0 101 0;
#X connect 104 1 102 0;
#X connect 104 2 103 0;
#X connect 105 0 101 1;
#X connect 106 0 102 1;
#X connect 106 0 103 1;
#X connect 107 0 99 0;
#X connect 107 1 100 0;
#X connect 107 2 110 0;
#X connect 108 0 99 1;
#X connect 109 0 100 1;
#X connect 109 0 110 1;
#X connect 111 0 130 0;
#X connect 112 0 130 0;
#X connect 113 0 105 0;
#X connect 114 0 115 1;
#X connect 115 0 141 0;
#X connect 116 0 122 0;
#X connect 117 0 122 1;
#X connect 118 0 116 0;
#X connect 118 1 117 0;
#X connect 118 2 121 0;
#X connect 119 0 116 1;
#X connect 120 0 117 1;
#X connect 120 0 121 1;
#X connect 122 0 130 0;
#X connect 123 0 119 0;
#X connect 124 0 120 0;
#X connect 125 0 106 0;
#X connect 126 0 118 0;
#X connect 127 0 128 0;
#X connect 128 0 35 0;
#X connect 128 1 98 0;
#X connect 129 0 52 0;
#X connect 130 0 115 0;
#X connect 131 0 31 0;
#X connect 131 0 145 0;
#X connect 131 0 147 0;
#X connect 131 0 143 0;
#X connect 131 0 132 0;
#X connect 131 0 33 0;
#X connect 131 0 34 0;
#X connect 131 0 32 0;
#X connect 131 0 61 0;
#X connect 131 0 60 0;
#X connect 131 0 138 0;
#X connect 131 0 135 0;
#X connect 131 0 62 0;
#X connect 131 0 50 0;
#X connect 131 0 95 0;
#X connect 131 0 97 0;
#X connect 131 0 96 0;
#X connect 131 0 133 0;
#X connect 131 0 148 0;
#X connect 131 0 144 0;
#X connect 131 0 94 0;
#X connect 131 0 146 0;
#X connect 131 0 113 0;
#X connect 131 0 125 0;
#X connect 131 0 137 0;
#X connect 131 0 139 0;
#X connect 131 0 123 0;
#X connect 131 0 124 0;
#X connect 132 0 14 0;
#X connect 133 0 77 0;
#X connect 134 0 51 0;
#X connect 135 0 45 0;
#X connect 136 0 114 0;
#X connect 137 0 108 0;
#X connect 138 0 46 0;
#X connect 139 0 109 0;
#X connect 140 0 2 0;
#X connect 141 0 66 0;
#X connect 142 0 3 0;
#X connect 142 0 3 1;
#X connect 143 0 20 0;
#X connect 144 0 83 0;
#X connect 145 0 26 0;
#X connect 146 0 89 0;
#X connect 147 0 19 0;
#X connect 148 0 82 0;
