#N canvas 0 23 805 723 12;
#X obj 464 235 phasor~;
#X obj 565 233 phasor~;
#X obj 465 275 *~ 2;
#X obj 464 302 -~ 1;
#X obj 565 278 *~ 2;
#X obj 564 305 -~ 1;
#X obj 463 372 +~;
#X obj 463 404 -~ 0.5;
#X obj 463 435 *~ 2;
#X obj 563 333 clip~ 0 1;
#X obj 463 330 clip~ 0 1;
#X msg 596 191 \$1;
#X msg 634 144 0;
#X obj 634 110 loadbang;
#X obj 605 76 inlet;
#X obj 469 489 outlet~;
#X obj 488 89 inlet~;
#X obj 531 164 *~ -1;
#X connect 0 0 2 0;
#X connect 1 0 4 0;
#X connect 2 0 3 0;
#X connect 3 0 10 0;
#X connect 4 0 5 0;
#X connect 5 0 9 0;
#X connect 6 0 7 0;
#X connect 7 0 8 0;
#X connect 8 0 15 0;
#X connect 9 0 6 1;
#X connect 10 0 6 0;
#X connect 11 0 1 1;
#X connect 11 0 0 1;
#X connect 12 0 11 0;
#X connect 13 0 12 0;
#X connect 14 0 11 0;
#X connect 16 0 0 0;
#X connect 16 0 17 0;
#X connect 17 0 1 0;
