#N canvas 0 23 1335 723 12;
#X obj 1020 59 % 32;
#X obj 535 23 r cl;
#X obj 147 184 == 0;
#X obj 1329 183 == 31;
#X obj 1292 183 == 30;
#X obj 1257 183 == 29;
#X obj 1220 183 == 28;
#X obj 1184 183 == 27;
#X obj 1147 183 == 26;
#X obj 1112 183 == 25;
#X obj 1072 183 == 24;
#X obj 184 184 == 1;
#X obj 219 184 == 2;
#X obj 255 184 == 3;
#X obj 292 184 == 4;
#X obj 329 184 == 5;
#X obj 364 184 == 6;
#X obj 401 184 == 7;
#X obj 437 184 == 8;
#X obj 474 184 == 9;
#X obj 509 184 == 10;
#X obj 546 184 == 11;
#X obj 582 184 == 12;
#X obj 619 184 == 13;
#X obj 662 184 == 14;
#X obj 703 183 == 15;
#X obj 753 184 == 16;
#X obj 797 185 == 17;
#X obj 841 182 == 18;
#X obj 887 183 == 19;
#X obj 930 183 == 20;
#X obj 967 183 == 21;
#X obj 1002 183 == 22;
#X obj 1039 183 == 23;
#X obj 506 304 tgl 15 0 empty empty empty 17 7 0 10 -1 -262144 -1 0
1;
#X obj 524 304 tgl 15 0 empty empty empty 17 7 0 10 -262144 -1 -1 0
1;
#X obj 542 304 tgl 15 0 empty empty empty 17 7 0 10 -262144 -1 -1 0
1;
#X obj 560 304 tgl 15 0 empty empty empty 17 7 0 10 -262144 -1 -1 0
1;
#X obj 578 304 tgl 15 0 empty empty empty 17 7 0 10 -1 -262144 -1 0
1;
#X obj 596 304 tgl 15 0 empty empty empty 17 7 0 10 -262144 -1 -1 0
1;
#X obj 614 304 tgl 15 0 empty empty empty 17 7 0 10 -262144 -1 -1 0
1;
#X obj 632 304 tgl 15 0 empty empty empty 17 7 0 10 -262144 -1 -1 0
1;
#X obj 668 304 tgl 15 0 empty empty empty 17 7 0 10 -262144 -1 -1 0
1;
#X obj 686 304 tgl 15 0 empty empty empty 17 7 0 10 -262144 -1 -1 0
1;
#X obj 704 304 tgl 15 0 empty empty empty 17 7 0 10 -262144 -1 -1 0
1;
#X obj 776 304 tgl 15 0 empty empty empty 17 7 0 10 -262144 -1 -1 0
1;
#X obj 722 304 tgl 15 0 empty empty empty 17 7 0 10 -1 -262144 -1 0
1;
#X obj 740 304 tgl 15 0 empty empty empty 17 7 0 10 -262144 -1 -1 0
1;
#X obj 758 304 tgl 15 0 empty empty empty 17 7 0 10 -262144 -1 -1 0
1;
#X obj 794 304 tgl 15 0 empty empty empty 17 7 0 10 -1 -262144 -1 0
1;
#X obj 812 304 tgl 15 0 empty empty empty 17 7 0 10 -262144 -1 -1 0
1;
#X obj 830 304 tgl 15 0 empty empty empty 17 7 0 10 -262144 -1 -1 0
1;
#X obj 848 304 tgl 15 0 empty empty empty 17 7 0 10 -262144 -1 -1 0
1;
#X obj 866 304 tgl 15 0 empty empty empty 17 7 0 10 -1 -262144 -1 0
1;
#X obj 884 304 tgl 15 0 empty empty empty 17 7 0 10 -262144 -1 -1 0
1;
#X obj 902 304 tgl 15 0 empty empty empty 17 7 0 10 -262144 -1 -1 0
1;
#X obj 920 304 tgl 15 0 empty empty empty 17 7 0 10 -262144 -1 -1 0
1;
#X obj 938 304 tgl 15 0 empty empty empty 17 7 0 10 -1 -262144 -1 0
1;
#X obj 956 304 tgl 15 0 empty empty empty 17 7 0 10 -262144 -1 -1 1
1;
#X obj 974 304 tgl 15 0 empty empty empty 17 7 0 10 -262144 -1 -1 0
1;
#X obj 992 304 tgl 15 0 empty empty empty 17 7 0 10 -262144 -1 -1 0
1;
#X obj 1064 304 tgl 15 0 empty empty empty 17 7 0 10 -262144 -1 -1
0 1;
#X obj 1010 304 tgl 15 0 empty empty empty 17 7 0 10 -1 -262144 -1
0 1;
#X obj 1028 304 tgl 15 0 empty empty empty 17 7 0 10 -262144 -1 -1
0 1;
#X obj 1046 304 tgl 15 0 empty empty empty 17 7 0 10 -262144 -1 -1
0 1;
#X obj 650 304 tgl 15 0 empty empty empty 17 7 0 10 -1 -262144 -1 0
1;
#X msg 1175 68 16;
#X msg 1225 82 32;
#X obj 1089 305 tgl 15 0 empty empty empty 17 7 0 10 -262144 -1 -1
0 1;
#X obj 1211 15 sel 0 1;
#X obj 1277 11 loadbang;
#X msg 1291 69 0;
#X obj 318 455 spigot;
#X obj 316 497 sel 1;
#X obj 314 527 s \$0-b1;
#X obj 1321 581 r \$0-b1;
#X obj 376 454 spigot;
#X obj 374 496 sel 1;
#X obj 372 526 s \$0-b1;
#X obj 432 454 spigot;
#X obj 430 496 sel 1;
#X obj 428 526 s \$0-b1;
#X obj 490 453 spigot;
#X obj 488 495 sel 1;
#X obj 486 525 s \$0-b1;
#X obj 547 453 spigot;
#X obj 545 495 sel 1;
#X obj 543 525 s \$0-b1;
#X obj 605 452 spigot;
#X obj 603 494 sel 1;
#X obj 601 524 s \$0-b1;
#X obj 661 452 spigot;
#X obj 659 494 sel 1;
#X obj 657 524 s \$0-b1;
#X obj 719 451 spigot;
#X obj 717 493 sel 1;
#X obj 715 523 s \$0-b1;
#X obj 506 325 tgl 15 0 empty empty empty 17 7 0 10 -1 -262144 -1 1
1;
#X obj 524 325 tgl 15 0 empty empty empty 17 7 0 10 -262144 -1 -1 0
1;
#X obj 542 325 tgl 15 0 empty empty empty 17 7 0 10 -262144 -1 -1 0
1;
#X obj 560 325 tgl 15 0 empty empty empty 17 7 0 10 -262144 -1 -1 0
1;
#X obj 578 325 tgl 15 0 empty empty empty 17 7 0 10 -1 -262144 -1 1
1;
#X obj 596 325 tgl 15 0 empty empty empty 17 7 0 10 -262144 -1 -1 0
1;
#X obj 614 325 tgl 15 0 empty empty empty 17 7 0 10 -262144 -1 -1 0
1;
#X obj 632 325 tgl 15 0 empty empty empty 17 7 0 10 -262144 -1 -1 0
1;
#X obj 778 452 spigot;
#X obj 776 494 sel 1;
#X obj 774 524 s \$0-b1;
#X obj 836 451 spigot;
#X obj 834 493 sel 1;
#X obj 832 523 s \$0-b1;
#X obj 892 451 spigot;
#X obj 890 493 sel 1;
#X obj 888 523 s \$0-b1;
#X obj 950 450 spigot;
#X obj 948 492 sel 1;
#X obj 946 522 s \$0-b1;
#X obj 1007 450 spigot;
#X obj 1005 492 sel 1;
#X obj 1003 522 s \$0-b1;
#X obj 1065 449 spigot;
#X obj 1063 491 sel 1;
#X obj 1061 521 s \$0-b1;
#X obj 1121 449 spigot;
#X obj 1119 491 sel 1;
#X obj 1117 521 s \$0-b1;
#X obj 1179 448 spigot;
#X obj 1177 490 sel 1;
#X obj 1175 520 s \$0-b1;
#X obj 650 325 tgl 15 0 empty empty empty 17 7 0 10 -1 -262144 -1 1
1;
#X obj 668 325 tgl 15 0 empty empty empty 17 7 0 10 -262144 -1 -1 0
1;
#X obj 686 325 tgl 15 0 empty empty empty 17 7 0 10 -262144 -1 -1 0
1;
#X obj 704 325 tgl 15 0 empty empty empty 17 7 0 10 -262144 -1 -1 0
1;
#X obj 722 325 tgl 15 0 empty empty empty 17 7 0 10 -1 -262144 -1 1
1;
#X obj 740 325 tgl 15 0 empty empty empty 17 7 0 10 -262144 -1 -1 0
1;
#X obj 758 325 tgl 15 0 empty empty empty 17 7 0 10 -262144 -1 -1 0
1;
#X obj 776 325 tgl 15 0 empty empty empty 17 7 0 10 -262144 -1 -1 1
1;
#X obj 317 558 spigot;
#X obj 315 600 sel 1;
#X obj 313 630 s \$0-b1;
#X obj 375 557 spigot;
#X obj 373 599 sel 1;
#X obj 371 629 s \$0-b1;
#X obj 431 557 spigot;
#X obj 429 599 sel 1;
#X obj 427 629 s \$0-b1;
#X obj 489 556 spigot;
#X obj 487 598 sel 1;
#X obj 485 628 s \$0-b1;
#X obj 546 556 spigot;
#X obj 544 598 sel 1;
#X obj 542 628 s \$0-b1;
#X obj 604 555 spigot;
#X obj 602 597 sel 1;
#X obj 600 627 s \$0-b1;
#X obj 660 555 spigot;
#X obj 658 597 sel 1;
#X obj 656 627 s \$0-b1;
#X obj 718 554 spigot;
#X obj 716 596 sel 1;
#X obj 714 626 s \$0-b1;
#X obj 794 325 tgl 15 0 empty empty empty 17 7 0 10 -1 -262144 -1 1
1;
#X obj 812 325 tgl 15 0 empty empty empty 17 7 0 10 -262144 -1 -1 0
1;
#X obj 830 325 tgl 15 0 empty empty empty 17 7 0 10 -262144 -1 -1 0
1;
#X obj 848 325 tgl 15 0 empty empty empty 17 7 0 10 -262144 -1 -1 0
1;
#X obj 866 325 tgl 15 0 empty empty empty 17 7 0 10 -1 -262144 -1 1
1;
#X obj 884 325 tgl 15 0 empty empty empty 17 7 0 10 -262144 -1 -1 0
1;
#X obj 902 325 tgl 15 0 empty empty empty 17 7 0 10 -262144 -1 -1 0
1;
#X obj 920 325 tgl 15 0 empty empty empty 17 7 0 10 -262144 -1 -1 0
1;
#X obj 777 555 spigot;
#X obj 775 597 sel 1;
#X obj 773 627 s \$0-b1;
#X obj 835 554 spigot;
#X obj 833 596 sel 1;
#X obj 831 626 s \$0-b1;
#X obj 891 554 spigot;
#X obj 889 596 sel 1;
#X obj 887 626 s \$0-b1;
#X obj 949 553 spigot;
#X obj 947 595 sel 1;
#X obj 945 625 s \$0-b1;
#X obj 1006 553 spigot;
#X obj 1004 595 sel 1;
#X obj 1002 625 s \$0-b1;
#X obj 1064 552 spigot;
#X obj 1062 594 sel 1;
#X obj 1060 624 s \$0-b1;
#X obj 1120 552 spigot;
#X obj 1118 594 sel 1;
#X obj 1116 624 s \$0-b1;
#X obj 1178 551 spigot;
#X obj 1176 593 sel 1;
#X obj 1174 623 s \$0-b1;
#X obj 938 325 tgl 15 0 empty empty empty 17 7 0 10 -1 -262144 -1 1
1;
#X obj 956 325 tgl 15 0 empty empty empty 17 7 0 10 -262144 -1 -1 0
1;
#X obj 974 325 tgl 15 0 empty empty empty 17 7 0 10 -262144 -1 -1 0
1;
#X obj 992 325 tgl 15 0 empty empty empty 17 7 0 10 -262144 -1 -1 0
1;
#X obj 1010 325 tgl 15 0 empty empty empty 17 7 0 10 -1 -262144 -1
1 1;
#X obj 1028 325 tgl 15 0 empty empty empty 17 7 0 10 -262144 -1 -1
0 1;
#X obj 1046 325 tgl 15 0 empty empty empty 17 7 0 10 -262144 -1 -1
0 1;
#X obj 1064 325 tgl 15 0 empty empty empty 17 7 0 10 -262144 -1 -1
0 1;
#X obj 1474 794 outlet;
#X obj 1404 797 outlet;
#X obj 1392 583 r \$0-b2;
#X obj 2262 58 % 32;
#X obj 1777 22 r cl;
#X obj 1389 183 == 0;
#X obj 2571 182 == 31;
#X obj 2534 182 == 30;
#X obj 2499 182 == 29;
#X obj 2462 182 == 28;
#X obj 2426 182 == 27;
#X obj 2389 182 == 26;
#X obj 2354 182 == 25;
#X obj 2314 182 == 24;
#X obj 1426 183 == 1;
#X obj 1461 183 == 2;
#X obj 1497 183 == 3;
#X obj 1534 183 == 4;
#X obj 1571 183 == 5;
#X obj 1606 183 == 6;
#X obj 1643 183 == 7;
#X obj 1679 183 == 8;
#X obj 1716 183 == 9;
#X obj 1751 183 == 10;
#X obj 1788 183 == 11;
#X obj 1824 183 == 12;
#X obj 1861 183 == 13;
#X obj 1904 183 == 14;
#X obj 1945 182 == 15;
#X obj 1995 183 == 16;
#X obj 2039 184 == 17;
#X obj 2083 181 == 18;
#X obj 2129 182 == 19;
#X obj 2172 182 == 20;
#X obj 2209 182 == 21;
#X obj 2244 182 == 22;
#X obj 2281 182 == 23;
#X obj 506 346 tgl 15 0 empty empty empty 17 7 0 10 -1 -262144 -1 0
1;
#X obj 524 346 tgl 15 0 empty empty empty 17 7 0 10 -262144 -1 -1 0
1;
#X obj 542 346 tgl 15 0 empty empty empty 17 7 0 10 -262144 -1 -1 0
1;
#X obj 560 346 tgl 15 0 empty empty empty 17 7 0 10 -262144 -1 -1 0
1;
#X obj 578 346 tgl 15 0 empty empty empty 17 7 0 10 -1 -262144 -1 0
1;
#X obj 596 346 tgl 15 0 empty empty empty 17 7 0 10 -262144 -1 -1 0
1;
#X obj 614 346 tgl 15 0 empty empty empty 17 7 0 10 -262144 -1 -1 0
1;
#X obj 632 346 tgl 15 0 empty empty empty 17 7 0 10 -262144 -1 -1 0
1;
#X obj 668 346 tgl 15 0 empty empty empty 17 7 0 10 -262144 -1 -1 0
1;
#X obj 686 346 tgl 15 0 empty empty empty 17 7 0 10 -262144 -1 -1 0
1;
#X obj 704 346 tgl 15 0 empty empty empty 17 7 0 10 -262144 -1 -1 0
1;
#X obj 776 346 tgl 15 0 empty empty empty 17 7 0 10 -262144 -1 -1 0
1;
#X obj 722 346 tgl 15 0 empty empty empty 17 7 0 10 -1 -262144 -1 0
1;
#X obj 740 346 tgl 15 0 empty empty empty 17 7 0 10 -262144 -1 -1 0
1;
#X obj 758 346 tgl 15 0 empty empty empty 17 7 0 10 -262144 -1 -1 0
1;
#X obj 794 346 tgl 15 0 empty empty empty 17 7 0 10 -1 -262144 -1 0
1;
#X obj 812 346 tgl 15 0 empty empty empty 17 7 0 10 -262144 -1 -1 0
1;
#X obj 830 346 tgl 15 0 empty empty empty 17 7 0 10 -262144 -1 -1 0
1;
#X obj 848 346 tgl 15 0 empty empty empty 17 7 0 10 -262144 -1 -1 0
1;
#X obj 866 346 tgl 15 0 empty empty empty 17 7 0 10 -1 -262144 -1 0
1;
#X obj 884 346 tgl 15 0 empty empty empty 17 7 0 10 -262144 -1 -1 0
1;
#X obj 902 346 tgl 15 0 empty empty empty 17 7 0 10 -262144 -1 -1 0
1;
#X obj 920 346 tgl 15 0 empty empty empty 17 7 0 10 -262144 -1 -1 0
1;
#X obj 938 346 tgl 15 0 empty empty empty 17 7 0 10 -1 -262144 -1 0
1;
#X obj 956 346 tgl 15 0 empty empty empty 17 7 0 10 -262144 -1 -1 1
1;
#X obj 974 346 tgl 15 0 empty empty empty 17 7 0 10 -262144 -1 -1 0
1;
#X obj 992 346 tgl 15 0 empty empty empty 17 7 0 10 -262144 -1 -1 0
1;
#X obj 1064 346 tgl 15 0 empty empty empty 17 7 0 10 -262144 -1 -1
0 1;
#X obj 1010 346 tgl 15 0 empty empty empty 17 7 0 10 -1 -262144 -1
0 1;
#X obj 1028 346 tgl 15 0 empty empty empty 17 7 0 10 -262144 -1 -1
0 1;
#X obj 1046 346 tgl 15 0 empty empty empty 17 7 0 10 -262144 -1 -1
0 1;
#X obj 650 346 tgl 15 0 empty empty empty 17 7 0 10 -1 -262144 -1 0
1;
#X msg 2417 67 16;
#X msg 2467 81 32;
#X obj 1090 347 tgl 15 0 empty empty empty 17 7 0 10 -262144 -1 -1
0 1;
#X obj 2453 14 sel 0 1;
#X obj 2519 10 loadbang;
#X msg 2533 68 0;
#X obj 1560 454 spigot;
#X obj 1558 496 sel 1;
#X obj 1618 453 spigot;
#X obj 1616 495 sel 1;
#X obj 1674 453 spigot;
#X obj 1672 495 sel 1;
#X obj 1732 452 spigot;
#X obj 1730 494 sel 1;
#X obj 1789 452 spigot;
#X obj 1787 494 sel 1;
#X obj 1847 451 spigot;
#X obj 1845 493 sel 1;
#X obj 1903 451 spigot;
#X obj 1901 493 sel 1;
#X obj 1961 450 spigot;
#X obj 1959 492 sel 1;
#X obj 506 367 tgl 15 0 empty empty empty 17 7 0 10 -1 -262144 -1 0
1;
#X obj 524 367 tgl 15 0 empty empty empty 17 7 0 10 -262144 -1 -1 0
1;
#X obj 542 367 tgl 15 0 empty empty empty 17 7 0 10 -262144 -1 -1 0
1;
#X obj 560 367 tgl 15 0 empty empty empty 17 7 0 10 -262144 -1 -1 0
1;
#X obj 578 367 tgl 15 0 empty empty empty 17 7 0 10 -1 -262144 -1 1
1;
#X obj 596 367 tgl 15 0 empty empty empty 17 7 0 10 -262144 -1 -1 0
1;
#X obj 614 367 tgl 15 0 empty empty empty 17 7 0 10 -262144 -1 -1 1
1;
#X obj 632 367 tgl 15 0 empty empty empty 17 7 0 10 -262144 -1 -1 0
1;
#X obj 2020 451 spigot;
#X obj 2018 493 sel 1;
#X obj 2078 450 spigot;
#X obj 2076 492 sel 1;
#X obj 2134 450 spigot;
#X obj 2132 492 sel 1;
#X obj 2192 449 spigot;
#X obj 2190 491 sel 1;
#X obj 2249 449 spigot;
#X obj 2247 491 sel 1;
#X obj 2307 448 spigot;
#X obj 2305 490 sel 1;
#X obj 2363 448 spigot;
#X obj 2361 490 sel 1;
#X obj 2421 447 spigot;
#X obj 2419 489 sel 1;
#X obj 650 367 tgl 15 0 empty empty empty 17 7 0 10 -1 -262144 -1 0
1;
#X obj 668 367 tgl 15 0 empty empty empty 17 7 0 10 -262144 -1 -1 0
1;
#X obj 686 367 tgl 15 0 empty empty empty 17 7 0 10 -262144 -1 -1 0
1;
#X obj 704 367 tgl 15 0 empty empty empty 17 7 0 10 -262144 -1 -1 0
1;
#X obj 722 367 tgl 15 0 empty empty empty 17 7 0 10 -1 -262144 -1 1
1;
#X obj 740 367 tgl 15 0 empty empty empty 17 7 0 10 -262144 -1 -1 0
1;
#X obj 758 367 tgl 15 0 empty empty empty 17 7 0 10 -262144 -1 -1 0
1;
#X obj 776 367 tgl 15 0 empty empty empty 17 7 0 10 -262144 -1 -1 0
1;
#X obj 1559 557 spigot;
#X obj 1557 599 sel 1;
#X obj 1617 556 spigot;
#X obj 1615 598 sel 1;
#X obj 1673 556 spigot;
#X obj 1671 598 sel 1;
#X obj 1731 555 spigot;
#X obj 1729 597 sel 1;
#X obj 1788 555 spigot;
#X obj 1786 597 sel 1;
#X obj 1846 554 spigot;
#X obj 1844 596 sel 1;
#X obj 1902 554 spigot;
#X obj 1900 596 sel 1;
#X obj 1960 553 spigot;
#X obj 1958 595 sel 1;
#X obj 794 367 tgl 15 0 empty empty empty 17 7 0 10 -1 -262144 -1 0
1;
#X obj 812 367 tgl 15 0 empty empty empty 17 7 0 10 -262144 -1 -1 0
1;
#X obj 830 367 tgl 15 0 empty empty empty 17 7 0 10 -262144 -1 -1 0
1;
#X obj 848 367 tgl 15 0 empty empty empty 17 7 0 10 -262144 -1 -1 0
1;
#X obj 866 367 tgl 15 0 empty empty empty 17 7 0 10 -1 -262144 -1 1
1;
#X obj 884 367 tgl 15 0 empty empty empty 17 7 0 10 -262144 -1 -1 0
1;
#X obj 902 367 tgl 15 0 empty empty empty 17 7 0 10 -262144 -1 -1 0
1;
#X obj 920 367 tgl 15 0 empty empty empty 17 7 0 10 -262144 -1 -1 0
1;
#X obj 2019 554 spigot;
#X obj 2017 596 sel 1;
#X obj 2077 553 spigot;
#X obj 2075 595 sel 1;
#X obj 2133 553 spigot;
#X obj 2131 595 sel 1;
#X obj 2191 552 spigot;
#X obj 2189 594 sel 1;
#X obj 2248 552 spigot;
#X obj 2246 594 sel 1;
#X obj 2306 551 spigot;
#X obj 2304 593 sel 1;
#X obj 2362 551 spigot;
#X obj 2360 593 sel 1;
#X obj 2420 550 spigot;
#X obj 2418 592 sel 1;
#X obj 938 367 tgl 15 0 empty empty empty 17 7 0 10 -1 -262144 -1 0
1;
#X obj 956 367 tgl 15 0 empty empty empty 17 7 0 10 -262144 -1 -1 0
1;
#X obj 974 367 tgl 15 0 empty empty empty 17 7 0 10 -262144 -1 -1 0
1;
#X obj 992 367 tgl 15 0 empty empty empty 17 7 0 10 -262144 -1 -1 0
1;
#X obj 1010 367 tgl 15 0 empty empty empty 17 7 0 10 -1 -262144 -1
1 1;
#X obj 1028 367 tgl 15 0 empty empty empty 17 7 0 10 -262144 -1 -1
1 1;
#X obj 1046 367 tgl 15 0 empty empty empty 17 7 0 10 -262144 -1 -1
0 1;
#X obj 1064 367 tgl 15 0 empty empty empty 17 7 0 10 -262144 -1 -1
1 1;
#X obj 1555 629 s \$0-b2;
#X obj 1613 628 s \$0-b2;
#X obj 1669 628 s \$0-b2;
#X obj 1727 627 s \$0-b2;
#X obj 1784 627 s \$0-b2;
#X obj 1842 626 s \$0-b2;
#X obj 1898 626 s \$0-b2;
#X obj 1956 625 s \$0-b2;
#X obj 2015 626 s \$0-b2;
#X obj 2073 625 s \$0-b2;
#X obj 2129 625 s \$0-b2;
#X obj 2187 624 s \$0-b2;
#X obj 2244 624 s \$0-b2;
#X obj 2302 623 s \$0-b2;
#X obj 2358 623 s \$0-b2;
#X obj 2416 622 s \$0-b2;
#X obj 2417 519 s \$0-b2;
#X obj 2359 520 s \$0-b2;
#X obj 2303 520 s \$0-b2;
#X obj 2245 521 s \$0-b2;
#X obj 2188 521 s \$0-b2;
#X obj 2130 522 s \$0-b2;
#X obj 2074 522 s \$0-b2;
#X obj 2016 523 s \$0-b2;
#X obj 1957 522 s \$0-b2;
#X obj 1899 523 s \$0-b2;
#X obj 1843 523 s \$0-b2;
#X obj 1785 524 s \$0-b2;
#X obj 1728 524 s \$0-b2;
#X obj 1670 525 s \$0-b2;
#X obj 1614 525 s \$0-b2;
#X obj 1556 526 s \$0-b2;
#X obj 1181 304 vradio 15 1 0 4 empty empty empty 0 -8 0 10 -262144
-1 -1 2;
#X obj 1278 727 spigot;
#X obj 1330 726 spigot;
#X obj 1383 726 spigot;
#X obj 1439 718 spigot;
#X obj 1090 367 bng 15 250 50 0 empty empty empty 17 7 0 10 -262144
-1 -1;
#X obj 1089 327 bng 15 250 50 0 empty empty empty 17 7 0 10 -262144
-1 -1;
#X obj 1309 662 == 1;
#X obj 1384 669 == 2;
#X obj 1434 667 == 3;
#X obj 1271 359 loadbang;
#X msg 1404 346 0;
#X connect 0 0 2 0;
#X connect 0 0 3 0;
#X connect 0 0 4 0;
#X connect 0 0 5 0;
#X connect 0 0 6 0;
#X connect 0 0 7 0;
#X connect 0 0 8 0;
#X connect 0 0 9 0;
#X connect 0 0 10 0;
#X connect 0 0 11 0;
#X connect 0 0 12 0;
#X connect 0 0 13 0;
#X connect 0 0 14 0;
#X connect 0 0 15 0;
#X connect 0 0 16 0;
#X connect 0 0 17 0;
#X connect 0 0 18 0;
#X connect 0 0 19 0;
#X connect 0 0 20 0;
#X connect 0 0 21 0;
#X connect 0 0 22 0;
#X connect 0 0 23 0;
#X connect 0 0 24 0;
#X connect 0 0 25 0;
#X connect 0 0 26 0;
#X connect 0 0 27 0;
#X connect 0 0 28 0;
#X connect 0 0 29 0;
#X connect 0 0 30 0;
#X connect 0 0 31 0;
#X connect 0 0 32 0;
#X connect 0 0 33 0;
#X connect 1 0 0 0;
#X connect 2 0 34 0;
#X connect 3 0 61 0;
#X connect 4 0 64 0;
#X connect 5 0 63 0;
#X connect 6 0 62 0;
#X connect 7 0 60 0;
#X connect 8 0 59 0;
#X connect 9 0 58 0;
#X connect 10 0 57 0;
#X connect 11 0 35 0;
#X connect 12 0 36 0;
#X connect 13 0 37 0;
#X connect 14 0 38 0;
#X connect 15 0 39 0;
#X connect 16 0 40 0;
#X connect 17 0 41 0;
#X connect 18 0 65 0;
#X connect 19 0 42 0;
#X connect 20 0 43 0;
#X connect 21 0 44 0;
#X connect 22 0 46 0;
#X connect 23 0 47 0;
#X connect 24 0 48 0;
#X connect 25 0 45 0;
#X connect 26 0 49 0;
#X connect 27 0 50 0;
#X connect 28 0 51 0;
#X connect 29 0 52 0;
#X connect 30 0 53 0;
#X connect 31 0 54 0;
#X connect 32 0 55 0;
#X connect 33 0 56 0;
#X connect 34 0 72 0;
#X connect 35 0 76 0;
#X connect 36 0 79 0;
#X connect 37 0 82 0;
#X connect 38 0 85 0;
#X connect 39 0 88 0;
#X connect 40 0 91 0;
#X connect 41 0 94 0;
#X connect 42 0 108 0;
#X connect 43 0 111 0;
#X connect 44 0 114 0;
#X connect 45 0 126 0;
#X connect 46 0 117 0;
#X connect 47 0 120 0;
#X connect 48 0 123 0;
#X connect 49 0 137 0;
#X connect 50 0 140 0;
#X connect 51 0 143 0;
#X connect 52 0 146 0;
#X connect 53 0 149 0;
#X connect 54 0 152 0;
#X connect 55 0 155 0;
#X connect 56 0 158 0;
#X connect 57 0 169 0;
#X connect 58 0 172 0;
#X connect 59 0 175 0;
#X connect 60 0 178 0;
#X connect 61 0 190 0;
#X connect 62 0 181 0;
#X connect 63 0 184 0;
#X connect 64 0 187 0;
#X connect 65 0 105 0;
#X connect 66 0 0 1;
#X connect 67 0 0 1;
#X connect 68 0 69 0;
#X connect 69 0 67 0;
#X connect 69 1 66 0;
#X connect 70 0 71 0;
#X connect 71 0 68 0;
#X connect 72 0 73 0;
#X connect 73 0 74 0;
#X connect 75 0 405 0;
#X connect 75 0 407 0;
#X connect 76 0 77 0;
#X connect 77 0 78 0;
#X connect 79 0 80 0;
#X connect 80 0 81 0;
#X connect 82 0 83 0;
#X connect 83 0 84 0;
#X connect 85 0 86 0;
#X connect 86 0 87 0;
#X connect 88 0 89 0;
#X connect 89 0 90 0;
#X connect 91 0 92 0;
#X connect 92 0 93 0;
#X connect 94 0 95 0;
#X connect 95 0 96 0;
#X connect 97 0 72 1;
#X connect 98 0 76 1;
#X connect 99 0 79 1;
#X connect 100 0 82 1;
#X connect 101 0 85 1;
#X connect 102 0 88 1;
#X connect 103 0 91 1;
#X connect 104 0 94 1;
#X connect 105 0 106 0;
#X connect 106 0 107 0;
#X connect 108 0 109 0;
#X connect 109 0 110 0;
#X connect 111 0 112 0;
#X connect 112 0 113 0;
#X connect 114 0 115 0;
#X connect 115 0 116 0;
#X connect 117 0 118 0;
#X connect 118 0 119 0;
#X connect 120 0 121 0;
#X connect 121 0 122 0;
#X connect 123 0 124 0;
#X connect 124 0 125 0;
#X connect 126 0 127 0;
#X connect 127 0 128 0;
#X connect 129 0 105 1;
#X connect 130 0 108 1;
#X connect 131 0 111 1;
#X connect 132 0 114 1;
#X connect 133 0 117 1;
#X connect 134 0 120 1;
#X connect 135 0 123 1;
#X connect 136 0 126 1;
#X connect 137 0 138 0;
#X connect 138 0 139 0;
#X connect 140 0 141 0;
#X connect 141 0 142 0;
#X connect 143 0 144 0;
#X connect 144 0 145 0;
#X connect 146 0 147 0;
#X connect 147 0 148 0;
#X connect 149 0 150 0;
#X connect 150 0 151 0;
#X connect 152 0 153 0;
#X connect 153 0 154 0;
#X connect 155 0 156 0;
#X connect 156 0 157 0;
#X connect 158 0 159 0;
#X connect 159 0 160 0;
#X connect 161 0 137 1;
#X connect 162 0 140 1;
#X connect 163 0 143 1;
#X connect 164 0 146 1;
#X connect 165 0 149 1;
#X connect 166 0 152 1;
#X connect 167 0 155 1;
#X connect 168 0 158 1;
#X connect 169 0 170 0;
#X connect 170 0 171 0;
#X connect 172 0 173 0;
#X connect 173 0 174 0;
#X connect 175 0 176 0;
#X connect 176 0 177 0;
#X connect 178 0 179 0;
#X connect 179 0 180 0;
#X connect 181 0 182 0;
#X connect 182 0 183 0;
#X connect 184 0 185 0;
#X connect 185 0 186 0;
#X connect 187 0 188 0;
#X connect 188 0 189 0;
#X connect 190 0 191 0;
#X connect 191 0 192 0;
#X connect 193 0 169 1;
#X connect 194 0 172 1;
#X connect 195 0 175 1;
#X connect 196 0 178 1;
#X connect 197 0 181 1;
#X connect 198 0 184 1;
#X connect 199 0 187 1;
#X connect 200 0 190 1;
#X connect 203 0 406 0;
#X connect 203 0 408 0;
#X connect 204 0 206 0;
#X connect 204 0 207 0;
#X connect 204 0 208 0;
#X connect 204 0 209 0;
#X connect 204 0 210 0;
#X connect 204 0 211 0;
#X connect 204 0 212 0;
#X connect 204 0 213 0;
#X connect 204 0 214 0;
#X connect 204 0 215 0;
#X connect 204 0 216 0;
#X connect 204 0 217 0;
#X connect 204 0 218 0;
#X connect 204 0 219 0;
#X connect 204 0 220 0;
#X connect 204 0 221 0;
#X connect 204 0 222 0;
#X connect 204 0 223 0;
#X connect 204 0 224 0;
#X connect 204 0 225 0;
#X connect 204 0 226 0;
#X connect 204 0 227 0;
#X connect 204 0 228 0;
#X connect 204 0 229 0;
#X connect 204 0 230 0;
#X connect 204 0 231 0;
#X connect 204 0 232 0;
#X connect 204 0 233 0;
#X connect 204 0 234 0;
#X connect 204 0 235 0;
#X connect 204 0 236 0;
#X connect 204 0 237 0;
#X connect 205 0 204 0;
#X connect 206 0 238 0;
#X connect 207 0 265 0;
#X connect 208 0 268 0;
#X connect 209 0 267 0;
#X connect 210 0 266 0;
#X connect 211 0 264 0;
#X connect 212 0 263 0;
#X connect 213 0 262 0;
#X connect 214 0 261 0;
#X connect 215 0 239 0;
#X connect 216 0 240 0;
#X connect 217 0 241 0;
#X connect 218 0 242 0;
#X connect 219 0 243 0;
#X connect 220 0 244 0;
#X connect 221 0 245 0;
#X connect 222 0 269 0;
#X connect 223 0 246 0;
#X connect 224 0 247 0;
#X connect 225 0 248 0;
#X connect 226 0 250 0;
#X connect 227 0 251 0;
#X connect 228 0 252 0;
#X connect 229 0 249 0;
#X connect 230 0 253 0;
#X connect 231 0 254 0;
#X connect 232 0 255 0;
#X connect 233 0 256 0;
#X connect 234 0 257 0;
#X connect 235 0 258 0;
#X connect 236 0 259 0;
#X connect 237 0 260 0;
#X connect 238 0 276 0;
#X connect 239 0 278 0;
#X connect 240 0 280 0;
#X connect 241 0 282 0;
#X connect 242 0 284 0;
#X connect 243 0 286 0;
#X connect 244 0 288 0;
#X connect 245 0 290 0;
#X connect 246 0 302 0;
#X connect 247 0 304 0;
#X connect 248 0 306 0;
#X connect 249 0 314 0;
#X connect 250 0 308 0;
#X connect 251 0 310 0;
#X connect 252 0 312 0;
#X connect 253 0 324 0;
#X connect 254 0 326 0;
#X connect 255 0 328 0;
#X connect 256 0 330 0;
#X connect 257 0 332 0;
#X connect 258 0 334 0;
#X connect 259 0 336 0;
#X connect 260 0 338 0;
#X connect 261 0 348 0;
#X connect 262 0 350 0;
#X connect 263 0 352 0;
#X connect 264 0 354 0;
#X connect 265 0 362 0;
#X connect 266 0 356 0;
#X connect 267 0 358 0;
#X connect 268 0 360 0;
#X connect 269 0 300 0;
#X connect 270 0 204 1;
#X connect 271 0 204 1;
#X connect 272 0 273 0;
#X connect 273 0 271 0;
#X connect 273 1 270 0;
#X connect 274 0 275 0;
#X connect 275 0 272 0;
#X connect 276 0 277 0;
#X connect 277 0 403 0;
#X connect 278 0 279 0;
#X connect 279 0 402 0;
#X connect 280 0 281 0;
#X connect 281 0 401 0;
#X connect 282 0 283 0;
#X connect 283 0 400 0;
#X connect 284 0 285 0;
#X connect 285 0 399 0;
#X connect 286 0 287 0;
#X connect 287 0 398 0;
#X connect 288 0 289 0;
#X connect 289 0 397 0;
#X connect 290 0 291 0;
#X connect 291 0 396 0;
#X connect 292 0 276 1;
#X connect 293 0 278 1;
#X connect 294 0 280 1;
#X connect 295 0 282 1;
#X connect 296 0 284 1;
#X connect 297 0 286 1;
#X connect 298 0 288 1;
#X connect 299 0 290 1;
#X connect 300 0 301 0;
#X connect 301 0 395 0;
#X connect 302 0 303 0;
#X connect 303 0 394 0;
#X connect 304 0 305 0;
#X connect 305 0 393 0;
#X connect 306 0 307 0;
#X connect 307 0 392 0;
#X connect 308 0 309 0;
#X connect 309 0 391 0;
#X connect 310 0 311 0;
#X connect 311 0 390 0;
#X connect 312 0 313 0;
#X connect 313 0 389 0;
#X connect 314 0 315 0;
#X connect 315 0 388 0;
#X connect 316 0 300 1;
#X connect 317 0 302 1;
#X connect 318 0 304 1;
#X connect 319 0 306 1;
#X connect 320 0 308 1;
#X connect 321 0 310 1;
#X connect 322 0 312 1;
#X connect 323 0 314 1;
#X connect 324 0 325 0;
#X connect 325 0 372 0;
#X connect 326 0 327 0;
#X connect 327 0 373 0;
#X connect 328 0 329 0;
#X connect 329 0 374 0;
#X connect 330 0 331 0;
#X connect 331 0 375 0;
#X connect 332 0 333 0;
#X connect 333 0 376 0;
#X connect 334 0 335 0;
#X connect 335 0 377 0;
#X connect 336 0 337 0;
#X connect 337 0 378 0;
#X connect 338 0 339 0;
#X connect 339 0 379 0;
#X connect 340 0 324 1;
#X connect 341 0 326 1;
#X connect 342 0 328 1;
#X connect 343 0 330 1;
#X connect 344 0 332 1;
#X connect 345 0 334 1;
#X connect 346 0 336 1;
#X connect 347 0 338 1;
#X connect 348 0 349 0;
#X connect 349 0 380 0;
#X connect 350 0 351 0;
#X connect 351 0 381 0;
#X connect 352 0 353 0;
#X connect 353 0 382 0;
#X connect 354 0 355 0;
#X connect 355 0 383 0;
#X connect 356 0 357 0;
#X connect 357 0 384 0;
#X connect 358 0 359 0;
#X connect 359 0 385 0;
#X connect 360 0 361 0;
#X connect 361 0 386 0;
#X connect 362 0 363 0;
#X connect 363 0 387 0;
#X connect 364 0 348 1;
#X connect 365 0 350 1;
#X connect 366 0 352 1;
#X connect 367 0 354 1;
#X connect 368 0 356 1;
#X connect 369 0 358 1;
#X connect 370 0 360 1;
#X connect 371 0 362 1;
#X connect 404 0 411 0;
#X connect 404 0 412 0;
#X connect 404 0 413 0;
#X connect 405 0 410 0;
#X connect 406 0 409 0;
#X connect 407 0 410 0;
#X connect 408 0 409 0;
#X connect 409 0 201 0;
#X connect 410 0 202 0;
#X connect 411 0 405 1;
#X connect 411 0 406 1;
#X connect 412 0 407 1;
#X connect 413 0 408 1;
#X connect 414 0 415 0;
#X connect 415 0 404 0;
#X coords 0 -1 1 1 700 100 2 500 300;
