#N canvas 0 23 1170 723 12;
#X obj 254 94 noise~;
#X obj 254 128 +~ 1;
#X obj 254 164 /~ 2;
#X obj 485 83 noise~;
#X obj 485 117 +~ 1;
#X obj 486 157 /~ 2;
#X obj 391 262 env~;
#X floatatom 376 301 5 0 0 0 - - -;
#X obj 380 352 > 0;
#X obj 382 378 tgl 15 0 empty empty empty 17 7 0 10 -262144 -1 -1 0
1;
#X obj 277 205 expr~ $v1 > $f2;
#X obj 485 200 expr~ $v1 > $f2;
#X obj 147 105 vsl 10 90 0.99999 0.999 0 0 empty empty empty 0 -9 0
10 -262144 -1 -1 0 1;
#X obj 383 412 sel 1;
#X obj 383 526 vline~;
#X obj 265 605 *~;
#X obj 283 543 sig~;
#X floatatom 284 494 5 0 0 0 - - -;
#X obj 296 430 tgl 15 0 empty empty empty 17 7 0 10 -262144 -1 -1 1
1;
#X obj 652 94 noise~;
#X obj 652 128 +~ 1;
#X obj 652 164 /~ 2;
#X obj 883 83 noise~;
#X obj 883 117 +~ 1;
#X obj 884 157 /~ 2;
#X obj 675 205 expr~ $v1 > $f2;
#X obj 883 200 expr~ $v1 > $f2;
#X obj 173 105 vsl 10 90 0.99999 0.999 0 0 empty empty empty 0 -9 0
10 -262144 -1 -1 0 1;
#X obj 878 328 noise~;
#X floatatom 1079 364 5 0 0 0 - - -;
#X msg 1061 324 33;
#X floatatom 1078 441 5 0 0 0 - - -;
#X obj 871 478 *~;
#X obj 989 363 osc~;
#X obj 968 398 +~ 0.5;
#X obj 544 285 *~ 0.125;
#X obj 668 262 *~ 0.125;
#X obj 880 256 *~ 0.125;
#X msg 446 492 0 20;
#X obj 1081 401 / 240;
#X obj 963 433 /~ 20;
#X obj 867 545 *~;
#X obj 186 105 vsl 10 90 0 1 0 0 empty empty empty 0 -9 0 10 -262144
-1 -1 0 1;
#X obj 1138 508 pow 2;
#X obj 938 462 +~ 1e-06, f 14;
#X obj 868 412 lop~ 100;
#X obj 867 364 lop~ 500;
#X msg 1102 323 45;
#X obj 290 672 *~;
#X obj 160 105 vsl 10 90 0 1 0 0 empty empty empty 0 -9 0 10 -262144
-1 -1 0 1;
#X obj 402 659 pow 2;
#X obj 400 453 del 5;
#X msg 346 482 1 1;
#X obj 679 658 outlet~;
#X obj 755 653 outlet~;
#X obj 457 15 loadbang;
#X obj 128 181 tgl 15 0 empty empty empty 17 7 0 10 -262144 -1 -1 0
1;
#X obj 1039 263 sel 1 0;
#X msg 328 1 0;
#X obj 106 68 + 0.999;
#X obj 194 69 + 0.999;
#X obj 195 45 * 0.00099;
#X obj 33 12 inlet;
#X obj 87 10 inlet;
#X obj 142 10 inlet;
#X obj 196 8 inlet;
#X obj 263 8 inlet;
#X msg 366 60 0.99995;
#X msg 438 59 0.99999;
#X msg 331 31 1;
#X obj 654 308 noise~;
#X obj 609 490 lop~ 1500;
#X obj 609 420 hip~ 1500;
#X obj 608 455 hip~ 1500;
#X obj 688 490 lop~ 1500;
#X obj 687 455 hip~ 400;
#X obj 688 420 hip~ 300;
#X obj 611 533 *~ 1e-05;
#X obj 689 535 *~ 0.003;
#X obj 645 377 *~;
#X obj 107 44 * 0.00099;
#X connect 0 0 1 0;
#X connect 1 0 2 0;
#X connect 2 0 10 0;
#X connect 3 0 4 0;
#X connect 4 0 5 0;
#X connect 5 0 11 0;
#X connect 6 0 7 0;
#X connect 7 0 8 0;
#X connect 8 0 9 0;
#X connect 9 0 13 0;
#X connect 10 0 6 0;
#X connect 11 0 6 0;
#X connect 12 0 10 1;
#X connect 12 0 11 1;
#X connect 13 0 52 0;
#X connect 13 0 51 0;
#X connect 14 0 15 1;
#X connect 15 0 48 0;
#X connect 16 0 15 0;
#X connect 17 0 16 0;
#X connect 18 0 17 0;
#X connect 19 0 20 0;
#X connect 20 0 21 0;
#X connect 21 0 25 0;
#X connect 22 0 23 0;
#X connect 23 0 24 0;
#X connect 24 0 26 0;
#X connect 25 0 36 0;
#X connect 26 0 37 0;
#X connect 27 0 25 1;
#X connect 27 0 26 1;
#X connect 28 0 46 0;
#X connect 29 0 39 0;
#X connect 30 0 29 0;
#X connect 31 0 33 0;
#X connect 32 0 41 0;
#X connect 33 0 34 0;
#X connect 34 0 40 0;
#X connect 35 0 53 0;
#X connect 35 0 54 0;
#X connect 36 0 53 0;
#X connect 37 0 54 0;
#X connect 38 0 14 0;
#X connect 39 0 31 0;
#X connect 40 0 44 0;
#X connect 41 0 53 0;
#X connect 41 0 54 0;
#X connect 42 0 43 0;
#X connect 43 0 41 1;
#X connect 43 0 79 1;
#X connect 44 0 32 1;
#X connect 45 0 32 0;
#X connect 46 0 45 0;
#X connect 47 0 29 0;
#X connect 48 0 35 0;
#X connect 49 0 50 0;
#X connect 50 0 48 1;
#X connect 51 0 38 0;
#X connect 52 0 14 0;
#X connect 55 0 18 0;
#X connect 55 0 58 0;
#X connect 55 0 67 0;
#X connect 55 0 68 0;
#X connect 55 0 69 0;
#X connect 56 0 57 0;
#X connect 57 0 47 0;
#X connect 57 1 30 0;
#X connect 58 0 56 0;
#X connect 59 0 12 0;
#X connect 60 0 27 0;
#X connect 61 0 60 0;
#X connect 62 0 56 0;
#X connect 63 0 80 0;
#X connect 64 0 49 0;
#X connect 65 0 61 0;
#X connect 66 0 42 0;
#X connect 67 0 12 0;
#X connect 68 0 27 0;
#X connect 69 0 42 0;
#X connect 69 0 49 0;
#X connect 70 0 79 0;
#X connect 71 0 77 0;
#X connect 72 0 73 0;
#X connect 73 0 71 0;
#X connect 74 0 78 0;
#X connect 75 0 74 0;
#X connect 76 0 75 0;
#X connect 77 0 53 0;
#X connect 77 0 54 0;
#X connect 78 0 53 0;
#X connect 78 0 54 0;
#X connect 79 0 72 0;
#X connect 79 0 76 0;
#X connect 80 0 59 0;
#X coords 0 -1 1 1 100 100 1 100 100;
